<svg width="65" height="65" viewBox="0 0 65 65" fill="none" xmlns="http://www.w3.org/2000/svg">
<ellipse cx="32.0129" cy="32.746" rx="30.2619" ry="30.2619" fill="white"/>
<path d="M45.3033 13.4692C45.2578 12.7532 44.6358 12.2501 43.961 12.2774L43.961 12.2773L43.9484 12.2781C43.6632 12.2969 37.5829 12.7586 34.4454 18.7881C34.1182 19.4137 34.3629 20.1822 34.9855 20.5069C35.1741 20.6055 35.3771 20.6512 35.574 20.6512C36.0325 20.6512 36.4782 20.4023 36.7057 19.965C39.1765 15.2197 43.9458 14.834 44.1155 14.8229L44.1163 14.8228C44.818 14.7756 45.3478 14.1689 45.3033 13.4692ZM45.3033 13.4692L44.8043 13.5009L45.3032 13.4691C45.3032 13.4691 45.3033 13.4691 45.3033 13.4692ZM19.9133 14.8229L19.9155 14.823C19.9153 14.823 19.9156 14.823 19.9167 14.8231C19.9609 14.8268 21.1768 14.9286 22.6906 15.6054C24.2356 16.2963 26.0786 17.5797 27.3205 19.965C27.548 20.402 27.9927 20.6511 28.4522 20.6511C28.6502 20.6511 28.8521 20.605 29.0403 20.5071L29.0407 20.5069C29.6641 20.1818 29.9074 19.413 29.5826 18.7876L29.5824 18.7872C26.4441 12.7578 20.3647 12.2961 20.0794 12.2773L20.0794 12.2772L20.0686 12.2767C19.3907 12.2468 18.7699 12.754 18.7245 13.4684C18.68 14.1686 19.2082 14.7769 19.9133 14.8229ZM44.7947 39.4858L41.1369 43.2099L37.4791 39.4858L37.4787 39.4854C36.99 38.9889 36.1468 38.991 35.6593 39.4861L35.6589 39.4866L32.0045 43.2088L28.3545 39.4868L28.3539 39.4862C28.1152 39.2437 27.7881 39.1044 27.4442 39.1044C27.1006 39.1044 26.7742 39.2426 26.5345 39.4861L26.534 39.4867L22.881 43.2088L19.2296 39.4867L19.2294 39.4865C18.735 38.9833 17.9287 38.9753 17.4265 39.4693C16.9229 39.9632 16.9172 40.77 17.4088 41.2718L17.4091 41.272L21.9707 45.922L21.9713 45.9226C22.21 46.1651 22.5371 46.3044 22.881 46.3044C23.2245 46.3044 23.551 46.1661 23.7907 45.9227L23.7912 45.9221L27.444 42.2001L31.0939 45.922L31.0946 45.9226C31.3333 46.1651 31.6604 46.3044 32.0043 46.3044C32.3478 46.3044 32.6743 46.1661 32.914 45.9227L32.9144 45.9222L36.5691 42.1997L40.2268 45.9231L40.2272 45.9234C40.4667 46.1668 40.7942 46.3044 41.1369 46.3044C41.4792 46.3044 41.806 46.1678 42.0466 45.9234L42.0469 45.9231L46.6148 41.2731L46.6152 41.2726C47.1083 40.7694 47.1004 39.9637 46.5988 39.4698L46.5975 39.4684C46.0955 38.9779 45.2898 38.9817 44.7947 39.4857L45.1328 39.8179L44.7947 39.4858ZM32.0127 1C14.6432 1 0.512695 15.1305 0.512695 32.5C0.512695 49.8695 14.6432 64 32.0127 64C49.3822 64 63.5127 49.8695 63.5127 32.5C63.5127 15.1305 49.3822 1 32.0127 1ZM32.0127 61.45C16.0503 61.45 3.0627 48.4624 3.0627 32.5C3.0627 16.5376 16.0503 3.55 32.0127 3.55C47.9751 3.55 60.9627 16.5376 60.9627 32.5C60.9627 48.4624 47.9751 61.45 32.0127 61.45ZM24.6974 23.8402C24.6974 24.5449 25.2677 25.1152 25.9724 25.1152C26.6771 25.1152 27.2474 24.5449 27.2474 23.8402C27.2474 20.0587 24.1708 16.9821 20.3893 16.9821C16.6079 16.9821 13.5312 20.0587 13.5312 23.8402C13.5312 24.5449 14.1015 25.1152 14.8062 25.1152C15.511 25.1152 16.0812 24.5449 16.0812 23.8402C16.0812 21.465 18.0142 19.5321 20.3893 19.5321C22.7645 19.5321 24.6974 21.465 24.6974 23.8402ZM43.636 16.9821C39.8545 16.9821 36.7779 20.0587 36.7779 23.8402C36.7779 24.5449 37.3482 25.1152 38.0529 25.1152C38.7576 25.1152 39.3279 24.5449 39.3279 23.8402C39.3279 21.465 41.2608 19.5321 43.636 19.5321C46.0111 19.5321 47.9441 21.465 47.9441 23.8402C47.9441 24.5449 48.5144 25.1152 49.2191 25.1152C49.9238 25.1152 50.4941 24.5449 50.4941 23.8402C50.4941 20.0587 47.4174 16.9821 43.636 16.9821Z" fill="#2A2828" stroke="#2A2828"/>
</svg>
