<svg width="66" height="66" viewBox="0 0 66 66" fill="none" xmlns="http://www.w3.org/2000/svg">
<circle cx="32.8633" cy="33.2061" r="30.75" fill="#E9FD57"/>
<path d="M28.1026 20.2152C28.3322 20.6565 28.7814 20.908 29.2454 20.908C29.4453 20.908 29.6492 20.8614 29.8392 20.7626L29.8396 20.7624C30.4692 20.4341 30.7148 19.6578 30.3868 19.0262L30.3866 19.0258C27.1997 12.9031 21.0262 12.4343 20.737 12.4152L20.737 12.4151L20.7262 12.4146C20.0415 12.3844 19.4147 12.8967 19.3688 13.618C19.3239 14.3251 19.8573 14.9393 20.5692 14.9857L20.5715 14.9859C20.5712 14.9859 20.5716 14.9859 20.5726 14.986C20.6166 14.9897 21.8538 15.0929 23.3941 15.7816C24.9653 16.4842 26.8396 17.7893 28.1026 20.2152ZM28.1026 20.2152L28.5461 19.9843M28.1026 20.2152L28.5461 19.9843M28.5461 19.9843C25.8922 14.8869 20.6538 14.49 20.6018 14.4868L20.7042 12.9142C20.9554 12.9307 26.8845 13.3804 29.9431 19.2567C30.1439 19.6433 29.9935 20.1182 29.6084 20.319C29.4919 20.3797 29.3674 20.408 29.2454 20.408C28.9603 20.408 28.6863 20.2537 28.5461 19.9843ZM46.3602 13.6188C46.3142 12.8959 45.6862 12.3878 45.0046 12.4154L45.0046 12.4152L44.992 12.4161C44.7028 12.4351 38.5285 12.9039 35.3423 19.0267C35.0122 19.6581 35.2589 20.4338 35.887 20.762C36.0776 20.8618 36.2829 20.908 36.482 20.908C36.945 20.908 37.395 20.6568 37.6248 20.2153C40.1375 15.3894 44.9876 14.9971 45.1608 14.9857L45.1616 14.9857C45.8701 14.938 46.4051 14.3253 46.3602 13.6188ZM46.3602 13.6188L45.8612 13.6505L46.3601 13.6187C46.3601 13.6187 46.3602 13.6188 46.3602 13.6188ZM46.2139 40.4105L45.8572 40.0601L42.1346 43.8502L38.4121 40.0601L38.4117 40.0597C37.9183 39.5585 37.0666 39.5606 36.5745 40.0605L36.574 40.061L32.8549 43.8491L29.1403 40.0612L29.1397 40.0605C28.8987 39.8157 28.5683 39.675 28.2211 39.675C27.8742 39.675 27.5445 39.8146 27.3025 40.0605L27.302 40.0611L23.5843 43.8491L19.8683 40.0611L19.868 40.0609C19.3687 39.5526 18.5542 39.5447 18.0471 40.0439C17.5389 40.5426 17.5333 41.3571 18.0296 41.8637L18.0299 41.8639L22.6651 46.5889L22.6657 46.5895C22.9067 46.8344 23.237 46.975 23.5843 46.975C23.9312 46.975 24.2608 46.8354 24.5029 46.5896L24.5034 46.589L28.2209 42.8011L31.9355 46.5889L31.9361 46.5895C32.1771 46.8344 32.5075 46.975 32.8547 46.975C33.2016 46.975 33.5313 46.8354 33.7733 46.5896L33.7738 46.5891L37.4932 42.8007L41.2157 46.59L41.216 46.5903C41.4579 46.8361 41.7886 46.975 42.1346 46.975C42.4803 46.975 42.8103 46.8371 43.0532 46.5903L43.0536 46.59L47.6951 41.865L47.6956 41.8645C48.1935 41.3563 48.1855 40.5427 47.679 40.044L47.6776 40.0427C47.1707 39.5473 46.3572 39.5511 45.8572 40.0601L46.2139 40.4105ZM32.8633 0.956055C15.218 0.956055 0.863281 15.3108 0.863281 32.9561C0.863281 50.6013 15.218 64.9561 32.8633 64.9561C50.5085 64.9561 64.8633 50.6013 64.8633 32.9561C64.8633 15.3108 50.5085 0.956055 32.8633 0.956055ZM32.8633 62.3811C16.6389 62.3811 3.43828 49.1804 3.43828 32.9561C3.43828 16.7317 16.6389 3.53105 32.8633 3.53105C49.0876 3.53105 62.2883 16.7317 62.2883 32.9561C62.2883 49.1804 49.0876 62.3811 32.8633 62.3811ZM25.4381 24.1565C25.4381 24.8682 26.014 25.444 26.7256 25.444C27.4372 25.444 28.0131 24.8682 28.0131 24.1565C28.0131 20.3185 24.8905 17.1959 21.0524 17.1959C17.2144 17.1959 14.0918 20.3185 14.0918 24.1565C14.0918 24.8682 14.6677 25.444 15.3793 25.444C16.0909 25.444 16.6668 24.8682 16.6668 24.1565C16.6668 21.7386 18.6346 19.7709 21.0524 19.7709C23.4703 19.7709 25.4381 21.7386 25.4381 24.1565ZM44.674 17.1959C40.836 17.1959 37.7134 20.3185 37.7134 24.1565C37.7134 24.8682 38.2892 25.444 39.0009 25.444C39.7125 25.444 40.2884 24.8682 40.2884 24.1565C40.2884 21.7386 42.2561 19.7709 44.674 19.7709C47.0919 19.7709 49.0597 21.7386 49.0597 24.1565C49.0597 24.8682 49.6356 25.444 50.3472 25.444C51.0588 25.444 51.6347 24.8682 51.6347 24.1565C51.6347 20.3185 48.512 17.1959 44.674 17.1959Z" fill="black" stroke="black"/>
</svg>
