<svg width="66" height="66" viewBox="0 0 66 66" fill="none" xmlns="http://www.w3.org/2000/svg">
<circle cx="33.3633" cy="32.5811" r="30.75" fill="#E9FD57"/>
<mask id="path-2-outside-1_1538:7406" maskUnits="userSpaceOnUse" x="0.863281" y="0.456055" width="65" height="65" fill="black">
<rect fill="white" x="0.863281" y="0.456055" width="65" height="65"/>
<path d="M33.3633 1.45605C15.9942 1.45605 1.86328 15.587 1.86328 32.9561C1.86328 50.3252 15.9942 64.4561 33.3633 64.4561C50.7324 64.4561 64.8633 50.3252 64.8633 32.9561C64.8633 15.587 50.7324 1.45605 33.3633 1.45605ZM33.3633 62.8811C16.8628 62.8811 3.43828 49.4565 3.43828 32.9561C3.43828 16.4556 16.8628 3.03105 33.3633 3.03105C49.8638 3.03105 63.2883 16.4556 63.2883 32.9561C63.2883 49.4565 49.8638 62.8811 33.3633 62.8811Z"/>
<path d="M26.4381 24.1565C26.4381 24.592 26.7901 24.944 27.2256 24.944C27.6611 24.944 28.0131 24.592 28.0131 24.1565C28.0131 20.5947 25.1143 17.6959 21.5524 17.6959C17.9906 17.6959 15.0918 20.5947 15.0918 24.1565C15.0918 24.592 15.4438 24.944 15.8793 24.944C16.3148 24.944 16.6668 24.592 16.6668 24.1565C16.6668 21.4625 18.8584 19.2709 21.5524 19.2709C24.2465 19.2709 26.4381 21.4625 26.4381 24.1565Z"/>
<path d="M45.174 17.6959C41.6122 17.6959 38.7134 20.5947 38.7134 24.1565C38.7134 24.592 39.0654 24.944 39.5009 24.944C39.9364 24.944 40.2884 24.592 40.2884 24.1565C40.2884 21.4625 42.48 19.2709 45.174 19.2709C47.8681 19.2709 50.0597 21.4625 50.0597 24.1565C50.0597 24.592 50.4117 24.944 50.8472 24.944C51.2827 24.944 51.6347 24.592 51.6347 24.1565C51.6347 20.5947 48.7359 17.6959 45.174 17.6959Z"/>
<path d="M33.3776 41.2106C29.6693 41.2106 26.0122 42.169 22.8047 43.9826C22.1274 44.3646 21.4588 44.7922 20.8186 45.2529C20.4658 45.5064 20.3847 45.9986 20.639 46.3522C20.8934 46.7058 21.3848 46.7853 21.7384 46.5318C22.3322 46.1049 22.9511 45.7088 23.5796 45.3545C26.5516 43.6747 29.9402 42.7864 33.3776 42.7864C37.5884 42.7864 41.6141 44.0826 45.0193 46.5341C45.1587 46.6341 45.3193 46.6822 45.4784 46.6822C45.7233 46.6822 45.9643 46.568 46.1178 46.3546C46.3714 46.0018 46.2919 45.5096 45.9383 45.2552C42.2646 42.61 37.92 41.2106 33.3776 41.2106Z"/>
<path d="M24.1257 15.4822C24.5478 15.5744 24.9699 15.305 25.0621 14.879C25.1542 14.4545 24.8841 14.0348 24.4589 13.9427C17.9888 12.5393 13.8465 16.8068 13.674 16.9879C13.3756 17.3029 13.389 17.7998 13.7024 18.0991C13.8544 18.2448 14.0497 18.3164 14.245 18.3164C14.4529 18.3164 14.66 18.2345 14.8151 18.0731C14.9655 17.9172 18.5392 14.2695 24.1257 15.4822Z"/>
<path d="M41.7209 13.9419C41.2956 14.034 41.0255 14.4537 41.1176 14.8782C41.209 15.3034 41.6295 15.5728 42.054 15.4814C47.6279 14.2695 51.1992 17.9014 51.3622 18.0715C51.5174 18.2345 51.7253 18.3172 51.9339 18.3172C52.1285 18.3172 52.3238 18.2455 52.4757 18.1014C52.7907 17.8022 52.8041 17.3037 52.5049 16.9879C52.3332 16.806 48.191 12.5393 41.7209 13.9419Z"/>
</mask>
<path d="M33.3633 1.45605C15.9942 1.45605 1.86328 15.587 1.86328 32.9561C1.86328 50.3252 15.9942 64.4561 33.3633 64.4561C50.7324 64.4561 64.8633 50.3252 64.8633 32.9561C64.8633 15.587 50.7324 1.45605 33.3633 1.45605ZM33.3633 62.8811C16.8628 62.8811 3.43828 49.4565 3.43828 32.9561C3.43828 16.4556 16.8628 3.03105 33.3633 3.03105C49.8638 3.03105 63.2883 16.4556 63.2883 32.9561C63.2883 49.4565 49.8638 62.8811 33.3633 62.8811Z" fill="black"/>
<path d="M26.4381 24.1565C26.4381 24.592 26.7901 24.944 27.2256 24.944C27.6611 24.944 28.0131 24.592 28.0131 24.1565C28.0131 20.5947 25.1143 17.6959 21.5524 17.6959C17.9906 17.6959 15.0918 20.5947 15.0918 24.1565C15.0918 24.592 15.4438 24.944 15.8793 24.944C16.3148 24.944 16.6668 24.592 16.6668 24.1565C16.6668 21.4625 18.8584 19.2709 21.5524 19.2709C24.2465 19.2709 26.4381 21.4625 26.4381 24.1565Z" fill="black"/>
<path d="M45.174 17.6959C41.6122 17.6959 38.7134 20.5947 38.7134 24.1565C38.7134 24.592 39.0654 24.944 39.5009 24.944C39.9364 24.944 40.2884 24.592 40.2884 24.1565C40.2884 21.4625 42.48 19.2709 45.174 19.2709C47.8681 19.2709 50.0597 21.4625 50.0597 24.1565C50.0597 24.592 50.4117 24.944 50.8472 24.944C51.2827 24.944 51.6347 24.592 51.6347 24.1565C51.6347 20.5947 48.7359 17.6959 45.174 17.6959Z" fill="black"/>
<path d="M33.3776 41.2106C29.6693 41.2106 26.0122 42.169 22.8047 43.9826C22.1274 44.3646 21.4588 44.7922 20.8186 45.2529C20.4658 45.5064 20.3847 45.9986 20.639 46.3522C20.8934 46.7058 21.3848 46.7853 21.7384 46.5318C22.3322 46.1049 22.9511 45.7088 23.5796 45.3545C26.5516 43.6747 29.9402 42.7864 33.3776 42.7864C37.5884 42.7864 41.6141 44.0826 45.0193 46.5341C45.1587 46.6341 45.3193 46.6822 45.4784 46.6822C45.7233 46.6822 45.9643 46.568 46.1178 46.3546C46.3714 46.0018 46.2919 45.5096 45.9383 45.2552C42.2646 42.61 37.92 41.2106 33.3776 41.2106Z" fill="black"/>
<path d="M24.1257 15.4822C24.5478 15.5744 24.9699 15.305 25.0621 14.879C25.1542 14.4545 24.8841 14.0348 24.4589 13.9427C17.9888 12.5393 13.8465 16.8068 13.674 16.9879C13.3756 17.3029 13.389 17.7998 13.7024 18.0991C13.8544 18.2448 14.0497 18.3164 14.245 18.3164C14.4529 18.3164 14.66 18.2345 14.8151 18.0731C14.9655 17.9172 18.5392 14.2695 24.1257 15.4822Z" fill="black"/>
<path d="M41.7209 13.9419C41.2956 14.034 41.0255 14.4537 41.1176 14.8782C41.209 15.3034 41.6295 15.5728 42.054 15.4814C47.6279 14.2695 51.1992 17.9014 51.3622 18.0715C51.5174 18.2345 51.7253 18.3172 51.9339 18.3172C52.1285 18.3172 52.3238 18.2455 52.4757 18.1014C52.7907 17.8022 52.8041 17.3037 52.5049 16.9879C52.3332 16.806 48.191 12.5393 41.7209 13.9419Z" fill="black"/>
<path d="M22.8047 43.9826L23.2959 44.8537L23.2969 44.8531L22.8047 43.9826ZM20.8186 45.2529L21.4022 46.0649L21.4027 46.0646L20.8186 45.2529ZM20.639 46.3522L21.4508 45.7682H21.4508L20.639 46.3522ZM21.7384 46.5318L22.3212 47.3444L22.3221 47.3437L21.7384 46.5318ZM23.5796 45.3545L24.0708 46.2255L24.0716 46.225L23.5796 45.3545ZM45.0193 46.5341L44.435 47.3457L44.4363 47.3466L45.0193 46.5341ZM46.1178 46.3546L46.9295 46.9386L46.9298 46.9382L46.1178 46.3546ZM45.9383 45.2552L45.3539 46.0667L45.3543 46.067L45.9383 45.2552ZM24.1257 15.4822L24.339 14.5052L24.3379 14.505L24.1257 15.4822ZM25.0621 14.879L24.0848 14.6669L24.0847 14.6676L25.0621 14.879ZM24.4589 13.9427L24.2469 14.9199L24.2471 14.92L24.4589 13.9427ZM13.674 16.9879L12.9498 16.2983L12.9481 16.3001L13.674 16.9879ZM13.7024 18.0991L14.3944 17.3772L14.393 17.3758L13.7024 18.0991ZM14.8151 18.0731L14.0954 17.3788L14.0941 17.3802L14.8151 18.0731ZM41.7209 13.9419L41.9326 14.9192L41.9327 14.9192L41.7209 13.9419ZM41.1176 14.8782L42.0953 14.6682L42.0949 14.6661L41.1176 14.8782ZM42.054 15.4814L42.2644 16.459L42.2664 16.4586L42.054 15.4814ZM51.3622 18.0715L52.0866 17.3821L52.0842 17.3796L51.3622 18.0715ZM52.4757 18.1014L53.1638 18.8271L53.1645 18.8264L52.4757 18.1014ZM52.5049 16.9879L51.7776 17.6743L51.779 17.6758L52.5049 16.9879ZM33.3633 0.456055C15.4419 0.456055 0.863281 15.0347 0.863281 32.9561H2.86328C2.86328 16.1392 16.5465 2.45605 33.3633 2.45605V0.456055ZM0.863281 32.9561C0.863281 50.8774 15.4419 65.4561 33.3633 65.4561V63.4561C16.5465 63.4561 2.86328 49.7729 2.86328 32.9561H0.863281ZM33.3633 65.4561C51.2847 65.4561 65.8633 50.8774 65.8633 32.9561H63.8633C63.8633 49.7729 50.1801 63.4561 33.3633 63.4561V65.4561ZM65.8633 32.9561C65.8633 15.0347 51.2847 0.456055 33.3633 0.456055V2.45605C50.1801 2.45605 63.8633 16.1392 63.8633 32.9561H65.8633ZM33.3633 61.8811C17.4151 61.8811 4.43828 48.9043 4.43828 32.9561H2.43828C2.43828 50.0088 16.3105 63.8811 33.3633 63.8811V61.8811ZM4.43828 32.9561C4.43828 17.0079 17.4151 4.03105 33.3633 4.03105V2.03105C16.3105 2.03105 2.43828 15.9033 2.43828 32.9561H4.43828ZM33.3633 4.03105C49.3115 4.03105 62.2883 17.0079 62.2883 32.9561H64.2883C64.2883 15.9033 50.4161 2.03105 33.3633 2.03105V4.03105ZM62.2883 32.9561C62.2883 48.9043 49.3115 61.8811 33.3633 61.8811V63.8811C50.4161 63.8811 64.2883 50.0088 64.2883 32.9561H62.2883ZM25.4381 24.1565C25.4381 25.1443 26.2378 25.944 27.2256 25.944V23.944C27.3424 23.944 27.4381 24.0397 27.4381 24.1565H25.4381ZM27.2256 25.944C28.2134 25.944 29.0131 25.1443 29.0131 24.1565H27.0131C27.0131 24.0397 27.1088 23.944 27.2256 23.944V25.944ZM29.0131 24.1565C29.0131 20.0424 25.6666 16.6959 21.5524 16.6959V18.6959C24.562 18.6959 27.0131 21.147 27.0131 24.1565H29.0131ZM21.5524 16.6959C17.4383 16.6959 14.0918 20.0424 14.0918 24.1565H16.0918C16.0918 21.147 18.5429 18.6959 21.5524 18.6959V16.6959ZM14.0918 24.1565C14.0918 25.1443 14.8915 25.944 15.8793 25.944V23.944C15.9961 23.944 16.0918 24.0397 16.0918 24.1565H14.0918ZM15.8793 25.944C16.8671 25.944 17.6668 25.1443 17.6668 24.1565H15.6668C15.6668 24.0397 15.7625 23.944 15.8793 23.944V25.944ZM17.6668 24.1565C17.6668 22.0148 19.4107 20.2709 21.5524 20.2709V18.2709C18.3061 18.2709 15.6668 20.9102 15.6668 24.1565H17.6668ZM21.5524 20.2709C23.6942 20.2709 25.4381 22.0148 25.4381 24.1565H27.4381C27.4381 20.9102 24.7988 18.2709 21.5524 18.2709V20.2709ZM45.174 16.6959C41.0599 16.6959 37.7134 20.0424 37.7134 24.1565H39.7134C39.7134 21.147 42.1645 18.6959 45.174 18.6959V16.6959ZM37.7134 24.1565C37.7134 25.1443 38.5131 25.944 39.5009 25.944V23.944C39.6177 23.944 39.7134 24.0397 39.7134 24.1565H37.7134ZM39.5009 25.944C40.4887 25.944 41.2884 25.1443 41.2884 24.1565H39.2884C39.2884 24.0397 39.3841 23.944 39.5009 23.944V25.944ZM41.2884 24.1565C41.2884 22.0148 43.0323 20.2709 45.174 20.2709V18.2709C41.9277 18.2709 39.2884 20.9102 39.2884 24.1565H41.2884ZM45.174 20.2709C47.3158 20.2709 49.0597 22.0148 49.0597 24.1565H51.0597C51.0597 20.9102 48.4204 18.2709 45.174 18.2709V20.2709ZM49.0597 24.1565C49.0597 25.1443 49.8594 25.944 50.8472 25.944V23.944C50.964 23.944 51.0597 24.0397 51.0597 24.1565H49.0597ZM50.8472 25.944C51.835 25.944 52.6347 25.1443 52.6347 24.1565H50.6347C50.6347 24.0397 50.7304 23.944 50.8472 23.944V25.944ZM52.6347 24.1565C52.6347 20.0424 49.2882 16.6959 45.174 16.6959V18.6959C48.1836 18.6959 50.6347 21.147 50.6347 24.1565H52.6347ZM33.3776 40.2106C29.4981 40.2106 25.6712 41.213 22.3125 43.1121L23.2969 44.8531C26.3531 43.125 29.8405 42.2106 33.3776 42.2106V40.2106ZM22.3134 43.1116C21.6037 43.5118 20.9042 43.9593 20.2345 44.4412L21.4027 46.0646C22.0135 45.625 22.6511 45.2173 23.2959 44.8537L22.3134 43.1116ZM20.235 44.4408C19.4341 45.0165 19.2499 46.1336 19.8273 46.9362L21.4508 45.7682C21.5195 45.8636 21.4975 45.9964 21.4022 46.0649L20.235 44.4408ZM19.8273 46.9362C20.405 47.7393 21.5209 47.9183 22.3212 47.3444L21.1556 45.7191C21.2487 45.6524 21.3818 45.6723 21.4508 45.7682L19.8273 46.9362ZM22.3221 47.3437C22.8868 46.9378 23.475 46.5615 24.0708 46.2255L23.0884 44.4834C22.4273 44.8562 21.7775 45.2721 21.1547 45.7198L22.3221 47.3437ZM24.0716 46.225C26.8925 44.6307 30.1114 43.7864 33.3776 43.7864V41.7864C29.769 41.7864 26.2107 42.7187 23.0875 44.4839L24.0716 46.225ZM33.3776 43.7864C37.3795 43.7864 41.2006 45.0171 44.435 47.3457L45.6035 45.7226C42.0276 43.1481 37.7974 41.7864 33.3776 41.7864V43.7864ZM44.4363 47.3466C44.751 47.5724 45.1169 47.6822 45.4784 47.6822V45.6822C45.5217 45.6822 45.5663 45.6959 45.6022 45.7216L44.4363 47.3466ZM45.4784 47.6822C46.0322 47.6822 46.5807 47.4234 46.9295 46.9386L45.3061 45.7705C45.3478 45.7126 45.4143 45.6822 45.4784 45.6822V47.6822ZM46.9298 46.9382C47.505 46.138 47.325 45.0209 46.5222 44.4434L45.3543 46.067C45.2587 45.9983 45.2378 45.8655 45.3058 45.7709L46.9298 46.9382ZM46.5226 44.4437C42.6782 41.6756 38.129 40.2106 33.3776 40.2106V42.2106C37.7109 42.2106 41.851 43.5445 45.3539 46.0667L46.5226 44.4437ZM23.9125 16.4592C24.874 16.6691 25.8303 16.0579 26.0395 15.0904L24.0847 14.6676C24.1096 14.5522 24.2217 14.4796 24.339 14.5052L23.9125 16.4592ZM26.0393 15.0911C26.2488 14.1262 25.6352 13.1743 24.6706 12.9653L24.2471 14.92C24.133 14.8953 24.0597 14.7829 24.0848 14.6669L26.0393 15.0911ZM24.6708 12.9654C17.6585 11.4445 13.1743 16.0626 12.9498 16.2983L14.3983 17.6775C14.5187 17.551 18.319 13.6342 24.2469 14.9199L24.6708 12.9654ZM12.9481 16.3001C12.2697 17.0162 12.3013 18.1439 13.0118 18.8224L14.393 17.3758C14.4767 17.4557 14.4815 17.5897 14.4 17.6757L12.9481 16.3001ZM13.0104 18.821C13.3576 19.1538 13.8046 19.3164 14.245 19.3164V17.3164C14.2948 17.3164 14.3512 17.3357 14.3944 17.3772L13.0104 18.821ZM14.245 19.3164C14.7157 19.3164 15.1862 19.1302 15.5362 18.766L14.0941 17.3802C14.1338 17.3388 14.19 17.3164 14.245 17.3164V19.3164ZM15.5348 18.7674C15.6326 18.6661 18.8652 15.3635 23.9136 16.4595L24.3379 14.505C18.2133 13.1754 14.2985 17.1683 14.0954 17.3788L15.5348 18.7674ZM41.5091 12.9645C40.5445 13.1735 39.9309 14.1254 40.1404 15.0903L42.0949 14.6661C42.1201 14.7821 42.0467 14.8945 41.9326 14.9192L41.5091 12.9645ZM40.1399 15.0882C40.3482 16.0575 41.3038 16.6658 42.2644 16.459L41.8436 14.5038C41.9553 14.4798 42.0698 14.5494 42.0953 14.6682L40.1399 15.0882ZM42.2664 16.4586C47.3033 15.3634 50.5337 18.6523 50.6402 18.7634L52.0842 17.3796C51.8647 17.1506 47.9525 13.1755 41.8415 14.5043L42.2664 16.4586ZM50.6378 18.7609C50.9881 19.1289 51.4608 19.3172 51.9339 19.3172V17.3172C51.9897 17.3172 52.0466 17.3401 52.0866 17.3821L50.6378 18.7609ZM51.9339 19.3172C52.3735 19.3172 52.8182 19.1548 53.1638 18.8271L51.7877 17.3758C51.8293 17.3363 51.8834 17.3172 51.9339 17.3172V19.3172ZM53.1645 18.8264C53.8794 18.1473 53.9097 17.0165 53.2307 16.3001L51.779 17.6758C51.6986 17.5909 51.7021 17.4571 51.787 17.3764L53.1645 18.8264ZM53.2322 16.3016C53.0047 16.0606 48.5209 11.4446 41.509 12.9646L41.9327 14.9192C47.8611 13.6341 51.6617 17.5514 51.7776 17.6743L53.2322 16.3016Z" fill="black" mask="url(#path-2-outside-1_1538:7406)"/>
</svg>
