<svg width="65" height="65" viewBox="0 0 65 65" fill="none" xmlns="http://www.w3.org/2000/svg">
<mask id="path-1-outside-1_1961:4481" maskUnits="userSpaceOnUse" x="0" y="0" width="65" height="65" fill="black">
<rect fill="white" width="65" height="65"/>
<path d="M32.5 1C15.1309 1 1 15.1309 1 32.5C1 49.8691 15.1309 64 32.5 64C49.8691 64 64 49.8691 64 32.5C64 15.1309 49.8691 1 32.5 1ZM32.5 62.425C15.9995 62.425 2.575 49.0005 2.575 32.5C2.575 15.9995 15.9995 2.575 32.5 2.575C49.0005 2.575 62.425 15.9995 62.425 32.5C62.425 49.0005 49.0005 62.425 32.5 62.425Z"/>
<path d="M25.5748 23.7005C25.5748 24.136 25.9268 24.488 26.3623 24.488C26.7978 24.488 27.1498 24.136 27.1498 23.7005C27.1498 20.1386 24.251 17.2398 20.6892 17.2398C17.1273 17.2398 14.2285 20.1386 14.2285 23.7005C14.2285 24.136 14.5805 24.488 15.016 24.488C15.4515 24.488 15.8035 24.136 15.8035 23.7005C15.8035 21.0064 17.9951 18.8148 20.6892 18.8148C23.3832 18.8148 25.5748 21.0064 25.5748 23.7005Z"/>
<path d="M44.3107 17.2398C40.7489 17.2398 37.8501 20.1386 37.8501 23.7005C37.8501 24.136 38.2021 24.488 38.6376 24.488C39.0731 24.488 39.4251 24.136 39.4251 23.7005C39.4251 21.0064 41.6167 18.8148 44.3107 18.8148C47.0048 18.8148 49.1964 21.0064 49.1964 23.7005C49.1964 24.136 49.5484 24.488 49.9839 24.488C50.4194 24.488 50.7714 24.136 50.7714 23.7005C50.7714 20.1386 47.8726 17.2398 44.3107 17.2398Z"/>
<path d="M32.5144 40.7546C28.806 40.7546 25.1489 41.713 21.9414 43.5266C21.2641 43.9085 20.5956 44.3361 19.9553 44.7968C19.6025 45.0504 19.5214 45.5426 19.7758 45.8962C20.0301 46.2497 20.5215 46.3293 20.8751 46.0757C21.4689 45.6489 22.0879 45.2528 22.7163 44.8984C25.6883 43.2187 29.0769 42.3304 32.5144 42.3304C36.7251 42.3304 40.7508 43.6266 44.156 46.0781C44.2954 46.1781 44.456 46.2261 44.6151 46.2261C44.86 46.2261 45.101 46.1119 45.2545 45.8985C45.5081 45.5457 45.4286 45.0535 45.075 44.7992C41.4013 42.154 37.0567 40.7546 32.5144 40.7546Z"/>
<path d="M23.2625 15.0262C23.6846 15.1183 24.1067 14.849 24.1988 14.4229C24.2909 13.9985 24.0208 13.5787 23.5956 13.4866C17.1255 12.0833 12.9832 16.3507 12.8108 16.5319C12.5123 16.8469 12.5257 17.3438 12.8391 17.643C12.9911 17.7887 13.1864 17.8604 13.3817 17.8604C13.5896 17.8604 13.7967 17.7785 13.9519 17.617C14.1023 17.4611 17.6759 13.8134 23.2625 15.0262Z"/>
<path d="M40.8576 13.4858C40.4323 13.5779 40.1622 13.9977 40.2544 14.4221C40.3457 14.8474 40.7662 15.1167 41.1907 15.0254C46.7646 13.8134 50.3359 17.4454 50.4989 17.6155C50.6541 17.7785 50.862 17.8612 51.0707 17.8612C51.2652 17.8612 51.4605 17.7895 51.6125 17.6454C51.9275 17.3461 51.9409 16.8476 51.6416 16.5319C51.4699 16.3499 47.3277 12.0833 40.8576 13.4858Z"/>
</mask>
<path d="M32.5 1C15.1309 1 1 15.1309 1 32.5C1 49.8691 15.1309 64 32.5 64C49.8691 64 64 49.8691 64 32.5C64 15.1309 49.8691 1 32.5 1ZM32.5 62.425C15.9995 62.425 2.575 49.0005 2.575 32.5C2.575 15.9995 15.9995 2.575 32.5 2.575C49.0005 2.575 62.425 15.9995 62.425 32.5C62.425 49.0005 49.0005 62.425 32.5 62.425Z" fill="black"/>
<path d="M25.5748 23.7005C25.5748 24.136 25.9268 24.488 26.3623 24.488C26.7978 24.488 27.1498 24.136 27.1498 23.7005C27.1498 20.1386 24.251 17.2398 20.6892 17.2398C17.1273 17.2398 14.2285 20.1386 14.2285 23.7005C14.2285 24.136 14.5805 24.488 15.016 24.488C15.4515 24.488 15.8035 24.136 15.8035 23.7005C15.8035 21.0064 17.9951 18.8148 20.6892 18.8148C23.3832 18.8148 25.5748 21.0064 25.5748 23.7005Z" fill="black"/>
<path d="M44.3107 17.2398C40.7489 17.2398 37.8501 20.1386 37.8501 23.7005C37.8501 24.136 38.2021 24.488 38.6376 24.488C39.0731 24.488 39.4251 24.136 39.4251 23.7005C39.4251 21.0064 41.6167 18.8148 44.3107 18.8148C47.0048 18.8148 49.1964 21.0064 49.1964 23.7005C49.1964 24.136 49.5484 24.488 49.9839 24.488C50.4194 24.488 50.7714 24.136 50.7714 23.7005C50.7714 20.1386 47.8726 17.2398 44.3107 17.2398Z" fill="black"/>
<path d="M32.5144 40.7546C28.806 40.7546 25.1489 41.713 21.9414 43.5266C21.2641 43.9085 20.5956 44.3361 19.9553 44.7968C19.6025 45.0504 19.5214 45.5426 19.7758 45.8962C20.0301 46.2497 20.5215 46.3293 20.8751 46.0757C21.4689 45.6489 22.0879 45.2528 22.7163 44.8984C25.6883 43.2187 29.0769 42.3304 32.5144 42.3304C36.7251 42.3304 40.7508 43.6266 44.156 46.0781C44.2954 46.1781 44.456 46.2261 44.6151 46.2261C44.86 46.2261 45.101 46.1119 45.2545 45.8985C45.5081 45.5457 45.4286 45.0535 45.075 44.7992C41.4013 42.154 37.0567 40.7546 32.5144 40.7546Z" fill="black"/>
<path d="M23.2625 15.0262C23.6846 15.1183 24.1067 14.849 24.1988 14.4229C24.2909 13.9985 24.0208 13.5787 23.5956 13.4866C17.1255 12.0833 12.9832 16.3507 12.8108 16.5319C12.5123 16.8469 12.5257 17.3438 12.8391 17.643C12.9911 17.7887 13.1864 17.8604 13.3817 17.8604C13.5896 17.8604 13.7967 17.7785 13.9519 17.617C14.1023 17.4611 17.6759 13.8134 23.2625 15.0262Z" fill="black"/>
<path d="M40.8576 13.4858C40.4323 13.5779 40.1622 13.9977 40.2544 14.4221C40.3457 14.8474 40.7662 15.1167 41.1907 15.0254C46.7646 13.8134 50.3359 17.4454 50.4989 17.6155C50.6541 17.7785 50.862 17.8612 51.0707 17.8612C51.2652 17.8612 51.4605 17.7895 51.6125 17.6454C51.9275 17.3461 51.9409 16.8476 51.6416 16.5319C51.4699 16.3499 47.3277 12.0833 40.8576 13.4858Z" fill="black"/>
<path d="M21.9414 43.5266L22.4326 44.3976L22.4336 44.3971L21.9414 43.5266ZM19.9553 44.7968L20.539 45.6088L20.5394 45.6085L19.9553 44.7968ZM19.7758 45.8962L20.5875 45.3122L20.5875 45.3122L19.7758 45.8962ZM20.8751 46.0757L21.4579 46.8883L21.4588 46.8877L20.8751 46.0757ZM22.7163 44.8984L23.2075 45.7695L23.2083 45.769L22.7163 44.8984ZM44.156 46.0781L43.5717 46.8896L43.573 46.8906L44.156 46.0781ZM45.2545 45.8985L46.0662 46.4826L46.0666 46.4822L45.2545 45.8985ZM45.075 44.7992L44.4907 45.6107L44.491 45.6109L45.075 44.7992ZM23.2625 15.0262L23.4757 14.0492L23.4746 14.0489L23.2625 15.0262ZM24.1988 14.4229L23.2216 14.2108L23.2214 14.2116L24.1988 14.4229ZM23.5956 13.4866L23.3836 14.4639L23.3838 14.4639L23.5956 13.4866ZM12.8108 16.5319L12.0865 15.8423L12.0849 15.8441L12.8108 16.5319ZM12.8391 17.643L13.5311 16.9211L13.5297 16.9198L12.8391 17.643ZM13.9519 17.617L13.2321 16.9228L13.2308 16.9241L13.9519 17.617ZM40.8576 13.4858L41.0693 14.4631L41.0694 14.4631L40.8576 13.4858ZM40.2544 14.4221L41.2321 14.2121L41.2316 14.21L40.2544 14.4221ZM41.1907 15.0254L41.4011 16.003L41.4032 16.0025L41.1907 15.0254ZM50.4989 17.6155L51.2233 16.9261L51.2209 16.9235L50.4989 17.6155ZM51.6125 17.6454L52.3005 18.371L52.3012 18.3704L51.6125 17.6454ZM51.6416 16.5319L50.9143 17.2182L50.9157 17.2197L51.6416 16.5319ZM32.5 0C14.5786 0 0 14.5786 0 32.5H2C2 15.6832 15.6832 2 32.5 2V0ZM0 32.5C0 50.4214 14.5786 65 32.5 65V63C15.6832 63 2 49.3168 2 32.5H0ZM32.5 65C50.4214 65 65 50.4214 65 32.5H63C63 49.3168 49.3168 63 32.5 63V65ZM65 32.5C65 14.5786 50.4214 0 32.5 0V2C49.3168 2 63 15.6832 63 32.5H65ZM32.5 61.425C16.5518 61.425 3.575 48.4482 3.575 32.5H1.575C1.575 49.5528 15.4472 63.425 32.5 63.425V61.425ZM3.575 32.5C3.575 16.5518 16.5518 3.575 32.5 3.575V1.575C15.4472 1.575 1.575 15.4472 1.575 32.5H3.575ZM32.5 3.575C48.4482 3.575 61.425 16.5518 61.425 32.5H63.425C63.425 15.4472 49.5528 1.575 32.5 1.575V3.575ZM61.425 32.5C61.425 48.4482 48.4482 61.425 32.5 61.425V63.425C49.5528 63.425 63.425 49.5528 63.425 32.5H61.425ZM24.5748 23.7005C24.5748 24.6882 25.3745 25.488 26.3623 25.488V23.488C26.4791 23.488 26.5748 23.5837 26.5748 23.7005H24.5748ZM26.3623 25.488C27.3501 25.488 28.1498 24.6883 28.1498 23.7005H26.1498C26.1498 23.5837 26.2455 23.488 26.3623 23.488V25.488ZM28.1498 23.7005C28.1498 19.5863 24.8033 16.2398 20.6892 16.2398V18.2398C23.6987 18.2398 26.1498 20.6909 26.1498 23.7005H28.1498ZM20.6892 16.2398C16.575 16.2398 13.2285 19.5863 13.2285 23.7005H15.2285C15.2285 20.6909 17.6796 18.2398 20.6892 18.2398V16.2398ZM13.2285 23.7005C13.2285 24.6883 14.0282 25.488 15.016 25.488V23.488C15.1328 23.488 15.2285 23.5837 15.2285 23.7005H13.2285ZM15.016 25.488C16.0038 25.488 16.8035 24.6882 16.8035 23.7005H14.8035C14.8035 23.5837 14.8992 23.488 15.016 23.488V25.488ZM16.8035 23.7005C16.8035 21.5587 18.5474 19.8148 20.6892 19.8148V17.8148C17.4428 17.8148 14.8035 20.4542 14.8035 23.7005H16.8035ZM20.6892 19.8148C22.8309 19.8148 24.5748 21.5587 24.5748 23.7005H26.5748C26.5748 20.4542 23.9355 17.8148 20.6892 17.8148V19.8148ZM44.3107 16.2398C40.1966 16.2398 36.8501 19.5863 36.8501 23.7005H38.8501C38.8501 20.6909 41.3012 18.2398 44.3107 18.2398V16.2398ZM36.8501 23.7005C36.8501 24.6882 37.6498 25.488 38.6376 25.488V23.488C38.7544 23.488 38.8501 23.5837 38.8501 23.7005H36.8501ZM38.6376 25.488C39.6254 25.488 40.4251 24.6883 40.4251 23.7005H38.4251C38.4251 23.5837 38.5208 23.488 38.6376 23.488V25.488ZM40.4251 23.7005C40.4251 21.5587 42.169 19.8148 44.3107 19.8148V17.8148C41.0644 17.8148 38.4251 20.4542 38.4251 23.7005H40.4251ZM44.3107 19.8148C46.4525 19.8148 48.1964 21.5587 48.1964 23.7005H50.1964C50.1964 20.4542 47.5571 17.8148 44.3107 17.8148V19.8148ZM48.1964 23.7005C48.1964 24.6882 48.9961 25.488 49.9839 25.488V23.488C50.1007 23.488 50.1964 23.5837 50.1964 23.7005H48.1964ZM49.9839 25.488C50.9717 25.488 51.7714 24.6882 51.7714 23.7005H49.7714C49.7714 23.5837 49.8671 23.488 49.9839 23.488V25.488ZM51.7714 23.7005C51.7714 19.5863 48.4249 16.2398 44.3107 16.2398V18.2398C47.3203 18.2398 49.7714 20.6909 49.7714 23.7005H51.7714ZM32.5144 39.7546C28.6348 39.7546 24.8079 40.7569 21.4492 42.6561L22.4336 44.3971C25.4898 42.669 28.9772 41.7546 32.5144 41.7546V39.7546ZM21.4502 42.6555C20.7404 43.0558 20.0409 43.5033 19.3712 43.9851L20.5394 45.6085C21.1502 45.169 21.7878 44.7612 22.4326 44.3976L21.4502 42.6555ZM19.3717 43.9848C18.5708 44.5604 18.3866 45.6776 18.964 46.4801L20.5875 45.3122C20.6562 45.4076 20.6342 45.5404 20.539 45.6088L19.3717 43.9848ZM18.964 46.4801C19.5417 47.2832 20.6576 47.4623 21.4579 46.8883L20.2923 45.2631C20.3854 45.1963 20.5185 45.2163 20.5875 45.3122L18.964 46.4801ZM21.4588 46.8877C22.0236 46.4817 22.6117 46.1054 23.2075 45.7694L22.2251 44.0273C21.564 44.4001 20.9142 44.816 20.2914 45.2637L21.4588 46.8877ZM23.2083 45.769C26.0292 44.1747 29.2482 43.3304 32.5144 43.3304V41.3304C28.9057 41.3304 25.3474 42.2627 22.2243 44.0278L23.2083 45.769ZM32.5144 43.3304C36.5162 43.3304 40.3373 44.5611 43.5717 46.8896L44.7403 45.2665C41.1643 42.6921 36.9341 41.3304 32.5144 41.3304V43.3304ZM43.573 46.8906C43.8877 47.1164 44.2536 47.2261 44.6151 47.2261V45.2261C44.6585 45.2261 44.703 45.2398 44.739 45.2656L43.573 46.8906ZM44.6151 47.2261C45.169 47.2261 45.7174 46.9673 46.0662 46.4826L44.4428 45.3145C44.4845 45.2565 44.5511 45.2261 44.6151 45.2261V47.2261ZM46.0666 46.4822C46.6417 45.682 46.4617 44.5649 45.659 43.9874L44.491 45.6109C44.3955 45.5422 44.3745 45.4095 44.4425 45.3149L46.0666 46.4822ZM45.6593 43.9876C41.8149 41.2195 37.2657 39.7546 32.5144 39.7546V41.7546C36.8476 41.7546 40.9877 43.0884 44.4907 45.6107L45.6593 43.9876ZM23.0492 16.0032C24.0107 16.213 24.967 15.6018 25.1762 14.6343L23.2214 14.2116C23.2464 14.0962 23.3584 14.0236 23.4757 14.0492L23.0492 16.0032ZM25.176 14.6351C25.3855 13.6702 24.7719 12.7183 23.8073 12.5093L23.3838 14.4639C23.2698 14.4392 23.1964 14.3268 23.2216 14.2108L25.176 14.6351ZM23.8075 12.5093C16.7952 10.9884 12.3111 15.6065 12.0866 15.8423L13.535 17.2214C13.6554 17.095 17.4557 13.1782 23.3836 14.4639L23.8075 12.5093ZM12.0849 15.8441C11.4064 16.5601 11.438 17.6879 12.1486 18.3663L13.5297 16.9198C13.6134 16.9997 13.6182 17.1336 13.5367 17.2197L12.0849 15.8441ZM12.1471 18.3649C12.4943 18.6978 12.9413 18.8604 13.3817 18.8604V16.8604C13.4315 16.8604 13.4879 16.8797 13.5311 16.9211L12.1471 18.3649ZM13.3817 18.8604C13.8525 18.8604 14.3229 18.6742 14.6729 18.3099L13.2308 16.9241C13.2706 16.8828 13.3268 16.8604 13.3817 16.8604V18.8604ZM14.6716 18.3113C14.7693 18.21 18.0019 14.9075 23.0503 16.0034L23.4746 14.0489C17.35 12.7194 13.4352 16.7122 13.2321 16.9228L14.6716 18.3113ZM40.6458 12.5085C39.6813 12.7175 39.0677 13.6694 39.2771 14.6343L41.2316 14.21C41.2568 14.326 41.1834 14.4384 41.0693 14.4631L40.6458 12.5085ZM39.2767 14.6322C39.4849 15.6014 40.4405 16.2097 41.4011 16.003L40.9803 14.0478C41.092 14.0237 41.2065 14.0933 41.2321 14.2121L39.2767 14.6322ZM41.4032 16.0025C46.44 14.9074 49.6704 18.1962 49.777 18.3074L51.2209 16.9235C51.0014 16.6945 47.0893 12.7195 40.9782 14.0482L41.4032 16.0025ZM49.7746 18.3048C50.1248 18.6729 50.5975 18.8612 51.0707 18.8612V16.8612C51.1264 16.8612 51.1833 16.884 51.2233 16.9261L49.7746 18.3048ZM51.0707 18.8612C51.5102 18.8612 51.9549 18.6987 52.3005 18.371L50.9244 16.9197C50.966 16.8803 51.0201 16.8612 51.0707 16.8612V18.8612ZM52.3012 18.3704C53.0161 17.6912 53.0464 16.5605 52.3675 15.844L50.9157 17.2197C50.8353 17.1348 50.8388 17.001 50.9237 16.9204L52.3012 18.3704ZM52.3689 15.8455C52.1415 15.6045 47.6576 10.9885 40.6457 12.5085L41.0694 14.4631C46.9978 13.178 50.7984 17.0954 50.9143 17.2182L52.3689 15.8455Z" fill="black" mask="url(#path-1-outside-1_1961:4481)"/>
</svg>
