<svg width="66" height="66" viewBox="0 0 66 66" fill="none" xmlns="http://www.w3.org/2000/svg">
<circle cx="32.8633" cy="32.9561" r="30.75" fill="#E9FD57"/>
<path d="M32.8633 0.956055C15.218 0.956055 0.863281 15.3108 0.863281 32.9561C0.863281 50.6013 15.218 64.9561 32.8633 64.9561C50.5085 64.9561 64.8633 50.6013 64.8633 32.9561C64.8633 15.3108 50.5085 0.956055 32.8633 0.956055ZM32.8633 62.3811C16.6389 62.3811 3.43828 49.1804 3.43828 32.9561C3.43828 16.7317 16.6389 3.53105 32.8633 3.53105C49.0876 3.53105 62.2883 16.7317 62.2883 32.9561C62.2883 49.1804 49.0876 62.3811 32.8633 62.3811Z" fill="black" stroke="black"/>
<path d="M14.0319 37.8324L14.032 37.8326C16.246 46.4116 23.9893 52.4035 32.8629 52.4035C36.8493 52.4035 40.6793 51.2067 43.9405 48.942L44.2257 49.3526L43.9386 48.9433C44.5237 48.533 45.3274 48.6823 45.7319 49.2653C46.137 49.8492 45.9934 50.6514 45.4086 51.0572C41.7147 53.6222 37.3752 54.9785 32.8629 54.9785C22.816 54.9785 14.047 48.1924 11.5392 38.4764L14.0319 37.8324ZM14.0319 37.8324C13.8543 37.1449 13.1536 36.7303 12.464 36.9079L12.4638 36.9079M14.0319 37.8324L12.4638 36.9079M12.4638 36.9079C11.7746 37.0857 11.3615 37.7887 11.5391 38.4762L12.4638 36.9079Z" fill="black" stroke="black"/>
<path d="M15.3793 25.444C16.0901 25.444 16.6668 24.8673 16.6668 24.1565C16.6668 21.7386 18.6346 19.7708 21.0524 19.7708C23.4703 19.7708 25.4381 21.7386 25.4381 24.1565C25.4381 24.8673 26.0148 25.444 26.7256 25.444C27.4364 25.444 28.0131 24.8673 28.0131 24.1565C28.0131 20.3177 24.8912 17.1958 21.0524 17.1958C17.2137 17.1958 14.0918 20.3177 14.0918 24.1565C14.0918 24.8673 14.6685 25.444 15.3793 25.444Z" fill="black" stroke="black"/>
<path d="M44.6735 17.1958C40.8348 17.1958 37.7129 20.3177 37.7129 24.1565C37.7129 24.8673 38.2895 25.444 39.0004 25.444C39.7112 25.444 40.2879 24.8673 40.2879 24.1565C40.2879 21.7386 42.2556 19.7708 44.6735 19.7708C47.0914 19.7708 49.0592 21.7386 49.0592 24.1565C49.0592 24.8673 49.6359 25.444 50.3467 25.444C51.0575 25.444 51.6342 24.8673 51.6342 24.1565C51.6342 20.3177 48.5123 17.1958 44.6735 17.1958Z" fill="black" stroke="black"/>
</svg>
