<svg width="65" height="65" viewBox="0 0 65 65" fill="none" xmlns="http://www.w3.org/2000/svg">
<circle cx="32.0129" cy="32.4999" r="30.2619" fill="white"/>
<path d="M32.0127 1C14.6432 1 0.512695 15.1305 0.512695 32.5C0.512695 49.8695 14.6432 64 32.0127 64C49.3822 64 63.5127 49.8695 63.5127 32.5C63.5127 15.1305 49.3822 1 32.0127 1ZM32.0127 61.45C16.0503 61.45 3.0627 48.4624 3.0627 32.5C3.0627 16.5376 16.0503 3.55 32.0127 3.55C47.9751 3.55 60.9627 16.5376 60.9627 32.5C60.9627 48.4624 47.9751 61.45 32.0127 61.45Z" fill="#2A2828" stroke="#2A2828"/>
<path d="M13.4878 37.2969L13.4879 37.2971C15.6659 45.7365 23.283 51.6307 32.0121 51.6307C35.9337 51.6307 39.7013 50.4534 42.9094 48.2256L43.1946 48.6363L42.9075 48.2269C43.4869 47.8205 44.2829 47.9685 44.6834 48.5458C45.0846 49.124 44.9424 49.9184 44.3633 50.3203C40.7267 52.8455 36.4545 54.1807 32.0121 54.1807C22.1211 54.1807 13.4882 47.4999 11.0192 37.9346L13.4878 37.2969ZM13.4878 37.2969C13.3119 36.6161 12.618 36.2055 11.9351 36.3814L11.9349 36.3814M13.4878 37.2969L11.9349 36.3814M11.9349 36.3814C11.2524 36.5575 10.8433 37.2536 11.0192 37.9345L11.9349 36.3814Z" fill="#2A2828" stroke="#2A2828"/>
<path d="M14.8063 25.1152C15.5102 25.1152 16.0813 24.5441 16.0813 23.8402C16.0813 21.465 18.0142 19.5321 20.3893 19.5321C22.7645 19.5321 24.6975 21.465 24.6975 23.8402C24.6975 24.5441 25.2685 25.1152 25.9725 25.1152C26.6764 25.1152 27.2475 24.5441 27.2475 23.8402C27.2475 20.0579 24.1716 16.9821 20.3893 16.9821C16.6071 16.9821 13.5312 20.0579 13.5312 23.8402C13.5312 24.5441 14.1023 25.1152 14.8063 25.1152Z" fill="#2A2828" stroke="#2A2828"/>
<path d="M43.6364 16.9821C39.8542 16.9821 36.7783 20.0579 36.7783 23.8402C36.7783 24.5441 37.3494 25.1152 38.0533 25.1152C38.7573 25.1152 39.3283 24.5441 39.3283 23.8402C39.3283 21.465 41.2613 19.5321 43.6364 19.5321C46.0116 19.5321 47.9445 21.465 47.9445 23.8402C47.9445 24.5441 48.5156 25.1152 49.2195 25.1152C49.9235 25.1152 50.4945 24.5441 50.4945 23.8402C50.4945 20.0579 47.4187 16.9821 43.6364 16.9821Z" fill="#2A2828" stroke="#2A2828"/>
</svg>
