<svg width="65" height="65" viewBox="0 0 65 65" fill="none" xmlns="http://www.w3.org/2000/svg">
<path fill-rule="evenodd" clip-rule="evenodd" d="M44.625 4.27304V8.25C44.75 8.75 45.4 10.15 47 11.75C49 13.75 52.375 16.375 53.25 16.625C53.95 16.825 56.0417 15.5417 57 14.875L57.0915 14.7835C60.5028 19.7359 62.5 25.7377 62.5 32.2061C62.5 49.1888 48.7328 62.9561 31.75 62.9561C14.7672 62.9561 1 49.1888 1 32.2061C1 15.2233 14.7672 1.45605 31.75 1.45605C36.347 1.45605 40.7085 2.46481 44.625 4.27304Z" fill="#E9FD57"/>
<mask id="path-2-outside-1_2005:3115" maskUnits="userSpaceOnUse" x="0" y="0.456055" width="65" height="64" fill="black">
<rect fill="white" y="0.456055" width="65" height="64"/>
<path fill-rule="evenodd" clip-rule="evenodd" d="M59.7109 1.8947C61.7546 2.7751 63.5975 5.19 62.8163 8.40935C62.1304 11.235 59.8713 13.6383 57.8214 15.3208C61.2028 20.4064 63 26.3173 63 32.4561C63 49.5495 49.0934 63.4561 32 63.4561C14.9066 63.4561 1 49.5495 1 32.4561C1 15.3627 14.9066 1.45605 32 1.45605C36.5771 1.45605 40.9737 2.43798 45.0812 4.35455C45.6973 3.19903 46.687 2.34498 47.7325 1.8947C49.5313 1.1197 51.9617 1.29253 53.7217 3.22693C55.4817 1.29175 57.9144 1.12125 59.7109 1.8947ZM49.8327 3.01225C49.2941 3.01225 48.7819 3.13005 48.3463 3.31838C46.8335 3.97093 45.5625 5.68523 46.1337 8.04433C47.1296 12.1503 52.2887 15.4572 53.7209 16.3058C55.1531 15.4557 60.3146 12.1433 61.3097 8.04433C61.8817 5.68523 60.6107 3.97093 59.0971 3.31838C57.7695 2.74565 55.7336 2.82083 54.3719 4.9172C54.0859 5.3574 53.3575 5.35818 53.0715 4.9172C52.157 3.50825 50.9371 3.01225 49.8327 3.01225ZM32 61.9061C48.2386 61.9061 61.45 48.6946 61.45 32.4561C61.45 26.6614 59.7628 21.0829 56.5915 16.2741C55.2516 17.2467 54.2022 17.821 54.0906 17.8814C53.9759 17.9434 53.8488 17.9744 53.7225 17.9744C53.5961 17.9744 53.469 17.9434 53.3543 17.8814C53.0521 17.7187 45.943 13.8274 44.6286 8.40935C44.4008 7.47083 44.4016 6.60283 44.5597 5.8193C40.6195 3.95775 36.3974 3.00605 32 3.00605C15.7614 3.00605 2.55 16.2175 2.55 32.4561C2.55 48.6946 15.7614 61.9061 32 61.9061ZM15.5676 23.7963C15.5676 24.2241 15.2204 24.5713 14.7926 24.5713C14.3648 24.5713 14.0176 24.2241 14.0176 23.7963C14.0176 20.2902 16.8696 17.4382 20.3757 17.4382C23.8818 17.4382 26.7338 20.2902 26.7338 23.7963C26.7338 24.2241 26.3866 24.5713 25.9588 24.5713C25.531 24.5713 25.1838 24.2241 25.1838 23.7963C25.1838 21.1451 23.027 18.9882 20.3757 18.9882C17.7244 18.9882 15.5676 21.1451 15.5676 23.7963ZM51.022 37.3276C51.1274 36.913 51.549 36.6603 51.9644 36.7688C52.3791 36.875 52.6294 37.2974 52.5232 37.712C50.1292 47.0879 41.6895 53.6367 32.0004 53.6367C22.337 53.6367 13.9034 47.1096 11.4916 37.7655C11.3847 37.3516 11.6334 36.9285 12.048 36.8215C12.4642 36.7161 12.885 36.9641 12.992 37.378C15.2271 46.0386 23.0438 52.0867 32.0004 52.0867C40.9811 52.0867 48.8032 46.0177 51.022 37.3276ZM38.0406 24.5713C38.4684 24.5713 38.8156 24.2241 38.8156 23.7963C38.8156 21.1451 40.9725 18.9882 43.6237 18.9882C46.275 18.9882 48.4318 21.1451 48.4318 23.7963C48.4318 24.2241 48.779 24.5713 49.2068 24.5713C49.6346 24.5713 49.9818 24.2241 49.9818 23.7963C49.9818 20.2902 47.1298 17.4382 43.6237 17.4382C40.1176 17.4382 37.2656 20.2902 37.2656 23.7963C37.2656 24.2241 37.6128 24.5713 38.0406 24.5713Z"/>
</mask>
<path fill-rule="evenodd" clip-rule="evenodd" d="M59.7109 1.8947C61.7546 2.7751 63.5975 5.19 62.8163 8.40935C62.1304 11.235 59.8713 13.6383 57.8214 15.3208C61.2028 20.4064 63 26.3173 63 32.4561C63 49.5495 49.0934 63.4561 32 63.4561C14.9066 63.4561 1 49.5495 1 32.4561C1 15.3627 14.9066 1.45605 32 1.45605C36.5771 1.45605 40.9737 2.43798 45.0812 4.35455C45.6973 3.19903 46.687 2.34498 47.7325 1.8947C49.5313 1.1197 51.9617 1.29253 53.7217 3.22693C55.4817 1.29175 57.9144 1.12125 59.7109 1.8947ZM49.8327 3.01225C49.2941 3.01225 48.7819 3.13005 48.3463 3.31838C46.8335 3.97093 45.5625 5.68523 46.1337 8.04433C47.1296 12.1503 52.2887 15.4572 53.7209 16.3058C55.1531 15.4557 60.3146 12.1433 61.3097 8.04433C61.8817 5.68523 60.6107 3.97093 59.0971 3.31838C57.7695 2.74565 55.7336 2.82083 54.3719 4.9172C54.0859 5.3574 53.3575 5.35818 53.0715 4.9172C52.157 3.50825 50.9371 3.01225 49.8327 3.01225ZM32 61.9061C48.2386 61.9061 61.45 48.6946 61.45 32.4561C61.45 26.6614 59.7628 21.0829 56.5915 16.2741C55.2516 17.2467 54.2022 17.821 54.0906 17.8814C53.9759 17.9434 53.8488 17.9744 53.7225 17.9744C53.5961 17.9744 53.469 17.9434 53.3543 17.8814C53.0521 17.7187 45.943 13.8274 44.6286 8.40935C44.4008 7.47083 44.4016 6.60283 44.5597 5.8193C40.6195 3.95775 36.3974 3.00605 32 3.00605C15.7614 3.00605 2.55 16.2175 2.55 32.4561C2.55 48.6946 15.7614 61.9061 32 61.9061ZM15.5676 23.7963C15.5676 24.2241 15.2204 24.5713 14.7926 24.5713C14.3648 24.5713 14.0176 24.2241 14.0176 23.7963C14.0176 20.2902 16.8696 17.4382 20.3757 17.4382C23.8818 17.4382 26.7338 20.2902 26.7338 23.7963C26.7338 24.2241 26.3866 24.5713 25.9588 24.5713C25.531 24.5713 25.1838 24.2241 25.1838 23.7963C25.1838 21.1451 23.027 18.9882 20.3757 18.9882C17.7244 18.9882 15.5676 21.1451 15.5676 23.7963ZM51.022 37.3276C51.1274 36.913 51.549 36.6603 51.9644 36.7688C52.3791 36.875 52.6294 37.2974 52.5232 37.712C50.1292 47.0879 41.6895 53.6367 32.0004 53.6367C22.337 53.6367 13.9034 47.1096 11.4916 37.7655C11.3847 37.3516 11.6334 36.9285 12.048 36.8215C12.4642 36.7161 12.885 36.9641 12.992 37.378C15.2271 46.0386 23.0438 52.0867 32.0004 52.0867C40.9811 52.0867 48.8032 46.0177 51.022 37.3276ZM38.0406 24.5713C38.4684 24.5713 38.8156 24.2241 38.8156 23.7963C38.8156 21.1451 40.9725 18.9882 43.6237 18.9882C46.275 18.9882 48.4318 21.1451 48.4318 23.7963C48.4318 24.2241 48.779 24.5713 49.2068 24.5713C49.6346 24.5713 49.9818 24.2241 49.9818 23.7963C49.9818 20.2902 47.1298 17.4382 43.6237 17.4382C40.1176 17.4382 37.2656 20.2902 37.2656 23.7963C37.2656 24.2241 37.6128 24.5713 38.0406 24.5713Z" fill="black"/>
<path d="M62.8163 8.40935L63.7881 8.64524L63.7881 8.64517L62.8163 8.40935ZM59.7109 1.8947L60.1065 0.9763L60.1063 0.976217L59.7109 1.8947ZM57.8214 15.3208L57.187 14.5478L56.4881 15.1215L56.9887 15.8745L57.8214 15.3208ZM45.0812 4.35455L44.6584 5.26076L45.5176 5.66165L45.9636 4.82505L45.0812 4.35455ZM47.7325 1.8947L48.1281 2.81314L48.1282 2.81309L47.7325 1.8947ZM53.7217 3.22693L52.982 3.89991L53.7218 4.71302L54.4615 3.89976L53.7217 3.22693ZM48.3463 3.31838L48.7424 4.2366L48.7432 4.23625L48.3463 3.31838ZM46.1337 8.04433L45.1618 8.27965L45.1618 8.28004L46.1337 8.04433ZM53.7209 16.3058L53.2112 17.1661L53.7214 17.4685L54.2314 17.1657L53.7209 16.3058ZM61.3097 8.04433L62.2815 8.28025L62.2816 8.27995L61.3097 8.04433ZM59.0971 3.31838L58.701 4.23658L58.7012 4.23667L59.0971 3.31838ZM54.3719 4.9172L55.2105 5.46199L55.2105 5.46192L54.3719 4.9172ZM53.0715 4.9172L53.9105 4.3731L53.9103 4.37277L53.0715 4.9172ZM56.5915 16.2741L57.4263 15.7235L56.8505 14.8504L56.0041 15.4648L56.5915 16.2741ZM54.0906 17.8814L54.5661 18.7611L54.5669 18.7607L54.0906 17.8814ZM53.3543 17.8814L53.8299 17.0017L53.8284 17.0009L53.3543 17.8814ZM44.6286 8.40935L45.6004 8.1736L45.6004 8.17343L44.6286 8.40935ZM44.5597 5.8193L45.5399 6.0171L45.6948 5.24961L44.9868 4.91514L44.5597 5.8193ZM51.9644 36.7688L51.7117 37.7364L51.7164 37.7376L51.9644 36.7688ZM51.022 37.3276L51.9909 37.575L51.9912 37.574L51.022 37.3276ZM52.5232 37.712L51.5545 37.4639L51.5543 37.4646L52.5232 37.712ZM11.4916 37.7655L12.4599 37.5156L12.4598 37.5153L11.4916 37.7655ZM12.048 36.8215L11.8025 35.8521L11.7983 35.8532L12.048 36.8215ZM12.992 37.378L13.9603 37.1281L13.9602 37.1278L12.992 37.378ZM63.7881 8.64517C64.7015 4.88097 62.5272 2.01911 60.1065 0.9763L59.3153 2.81311C60.9819 3.5311 62.4935 5.49904 61.8445 8.17354L63.7881 8.64517ZM58.4559 16.0938C60.5476 14.3769 63.0227 11.7986 63.7881 8.64524L61.8445 8.17347C61.2382 10.6714 59.195 12.8996 57.187 14.5478L58.4559 16.0938ZM64 32.4561C64 26.1195 62.1442 20.0161 58.6542 14.7671L56.9887 15.8745C60.2614 20.7966 62 26.515 62 32.4561H64ZM32 64.4561C49.6457 64.4561 64 50.1017 64 32.4561H62C62 48.9972 48.5411 62.4561 32 62.4561V64.4561ZM0 32.4561C0 50.1017 14.3543 64.4561 32 64.4561V62.4561C15.4589 62.4561 2 48.9972 2 32.4561H0ZM32 0.456055C14.3543 0.456055 0 14.8104 0 32.4561H2C2 15.9149 15.4589 2.45605 32 2.45605V0.456055ZM45.5041 3.44835C41.2644 1.4701 36.7235 0.456055 32 0.456055V2.45605C36.4308 2.45605 40.6831 3.40585 44.6584 5.26076L45.5041 3.44835ZM47.3369 0.976265C46.0901 1.51325 44.9253 2.52162 44.1988 3.88406L45.9636 4.82505C46.4694 3.87644 47.2839 3.17671 48.1281 2.81314L47.3369 0.976265ZM54.4614 2.55395C52.3754 0.261318 49.4721 0.0563164 47.3368 0.976319L48.1282 2.81309C49.5904 2.18309 51.548 2.32374 52.982 3.89991L54.4614 2.55395ZM60.1063 0.976217C57.9742 0.0582291 55.0684 0.260017 52.9819 2.55409L54.4615 3.89976C55.8951 2.32349 57.8547 2.18428 59.3154 2.81319L60.1063 0.976217ZM48.7432 4.23625C49.0597 4.0994 49.4373 4.01225 49.8327 4.01225V2.01225C49.151 2.01225 48.504 2.16071 47.9494 2.40051L48.7432 4.23625ZM47.1056 7.80901C46.6623 5.97792 47.6233 4.71933 48.7424 4.2366L47.9502 2.40016C46.0437 3.22253 44.4627 5.39254 45.1618 8.27965L47.1056 7.80901ZM54.2307 15.4455C53.5441 15.0387 51.9594 14.039 50.4357 12.6561C48.889 11.2522 47.5319 9.56664 47.1055 7.80862L45.1618 8.28004C45.7313 10.628 47.4518 12.6488 49.0916 14.1371C50.7545 15.6463 52.4656 16.7244 53.2112 17.1661L54.2307 15.4455ZM60.3379 7.80841C59.912 9.56283 58.5548 11.2481 57.0071 12.6529C55.4827 14.0367 53.8973 15.0382 53.2105 15.4459L54.2314 17.1657C54.9767 16.7233 56.6882 15.6436 58.3514 14.1338C59.9912 12.6452 61.7123 10.6248 62.2815 8.28025L60.3379 7.80841ZM58.7012 4.23667C59.821 4.71945 60.7818 5.97787 60.3379 7.80871L62.2816 8.27995C62.9816 5.39258 61.4004 3.22241 59.493 2.40009L58.7012 4.23667ZM55.2105 5.46192C56.2597 3.84671 57.7368 3.82064 58.701 4.23658L59.4932 2.40018C57.8022 1.67067 55.2075 1.79495 53.5333 4.37249L55.2105 5.46192ZM52.2325 5.46131C52.5948 6.02003 53.199 6.24784 53.7221 6.24764C54.2449 6.24745 54.8484 6.01942 55.2105 5.46199L53.5333 4.37242C53.6095 4.25519 53.7057 4.24765 53.7213 4.24765C53.7371 4.24764 53.8341 4.25536 53.9105 4.3731L52.2325 5.46131ZM49.8327 4.01225C50.6038 4.01225 51.5055 4.34133 52.2327 5.46164L53.9103 4.37277C52.8084 2.67518 51.2704 2.01225 49.8327 2.01225V4.01225ZM60.45 32.4561C60.45 48.1423 47.6863 60.9061 32 60.9061V62.9061C48.7909 62.9061 62.45 49.2469 62.45 32.4561H60.45ZM55.7567 16.8246C58.8208 21.4709 60.45 26.8581 60.45 32.4561H62.45C62.45 26.4647 60.7049 20.695 57.4263 15.7235L55.7567 16.8246ZM54.5669 18.7607C54.7028 18.6871 55.7925 18.0897 57.1789 17.0833L56.0041 15.4648C54.7106 16.4036 53.7016 16.9549 53.6143 17.0021L54.5669 18.7607ZM53.7225 18.9744C54.0115 18.9744 54.3024 18.9036 54.5661 18.7611L53.6151 17.0017C53.6494 16.9832 53.6861 16.9744 53.7225 16.9744V18.9744ZM52.8788 18.7611C53.1425 18.9037 53.4335 18.9744 53.7225 18.9744V16.9744C53.7588 16.9744 53.7956 16.9832 53.8299 17.0017L52.8788 18.7611ZM43.6568 8.64511C44.3908 11.6708 46.7005 14.1709 48.7261 15.8803C50.7791 17.6129 52.6982 18.6639 52.8802 18.7619L53.8284 17.0009C53.7082 16.9362 51.9217 15.9602 50.016 14.3519C48.0829 12.7205 46.1808 10.566 45.6004 8.1736L43.6568 8.64511ZM43.5794 5.62151C43.3923 6.54874 43.3945 7.56479 43.6569 8.64528L45.6004 8.17343C45.407 7.37687 45.4108 6.65692 45.5399 6.0171L43.5794 5.62151ZM32 4.00605C36.2496 4.00605 40.3259 4.92502 44.1325 6.72347L44.9868 4.91514C40.9132 2.99049 36.5451 2.00605 32 2.00605V4.00605ZM3.55 32.4561C3.55 16.7698 16.3137 4.00605 32 4.00605V2.00605C15.2091 2.00605 1.55 15.6652 1.55 32.4561H3.55ZM32 60.9061C16.3137 60.9061 3.55 48.1423 3.55 32.4561H1.55C1.55 49.2469 15.2091 62.9061 32 62.9061V60.9061ZM14.7926 25.5713C15.7727 25.5713 16.5676 24.7764 16.5676 23.7963H14.5676C14.5676 23.6718 14.6681 23.5713 14.7926 23.5713V25.5713ZM13.0176 23.7963C13.0176 24.7764 13.8125 25.5713 14.7926 25.5713V23.5713C14.9171 23.5713 15.0176 23.6718 15.0176 23.7963H13.0176ZM20.3757 16.4382C16.3173 16.4382 13.0176 19.7379 13.0176 23.7963H15.0176C15.0176 20.8425 17.4219 18.4382 20.3757 18.4382V16.4382ZM27.7338 23.7963C27.7338 19.7379 24.4341 16.4382 20.3757 16.4382V18.4382C23.3295 18.4382 25.7338 20.8425 25.7338 23.7963H27.7338ZM25.9588 25.5713C26.9389 25.5713 27.7338 24.7764 27.7338 23.7963H25.7338C25.7338 23.6718 25.8343 23.5713 25.9588 23.5713V25.5713ZM24.1838 23.7963C24.1838 24.7764 24.9787 25.5713 25.9588 25.5713V23.5713C26.0833 23.5713 26.1838 23.6718 26.1838 23.7963H24.1838ZM20.3757 19.9882C22.4747 19.9882 24.1838 21.6973 24.1838 23.7963H26.1838C26.1838 20.5928 23.5792 17.9882 20.3757 17.9882V19.9882ZM16.5676 23.7963C16.5676 21.6973 18.2767 19.9882 20.3757 19.9882V17.9882C17.1721 17.9882 14.5676 20.5928 14.5676 23.7963H16.5676ZM52.2171 35.8013C51.2586 35.5509 50.2933 36.1352 50.0528 37.0812L51.9912 37.574C51.9615 37.6907 51.8395 37.7697 51.7117 37.7364L52.2171 35.8013ZM53.4919 37.9601C53.7352 37.0101 53.1618 36.0432 52.2125 35.8001L51.7164 37.7376C51.5963 37.7068 51.5235 37.5847 51.5545 37.4639L53.4919 37.9601ZM32.0004 54.6367C42.1456 54.6367 50.9849 47.779 53.4921 37.9594L51.5543 37.4646C49.2736 46.3969 41.2333 52.6367 32.0004 52.6367V54.6367ZM10.5233 38.0154C13.0493 47.8019 21.8817 54.6367 32.0004 54.6367V52.6367C22.7922 52.6367 14.7575 46.4174 12.4599 37.5156L10.5233 38.0154ZM11.7983 35.8532C10.8479 36.0984 10.2784 37.0677 10.5234 38.0157L12.4598 37.5153C12.4909 37.6355 12.4189 37.7586 12.2978 37.7898L11.7983 35.8532ZM13.9602 37.1278C13.7144 36.1768 12.748 35.6127 11.8025 35.8521L12.2936 37.7909C12.1804 37.8196 12.0557 37.7514 12.0238 37.6282L13.9602 37.1278ZM32.0004 51.0867C23.4988 51.0867 16.0812 45.3462 13.9603 37.1281L12.0237 37.6279C14.373 46.731 22.5887 53.0867 32.0004 53.0867V51.0867ZM50.0531 37.0802C47.9476 45.3266 40.525 51.0867 32.0004 51.0867V53.0867C41.4372 53.0867 49.6588 46.7087 51.9909 37.575L50.0531 37.0802ZM37.8156 23.7963C37.8156 23.6719 37.9161 23.5713 38.0406 23.5713V25.5713C39.0207 25.5713 39.8156 24.7764 39.8156 23.7963H37.8156ZM43.6237 17.9882C40.4202 17.9882 37.8156 20.5928 37.8156 23.7963H39.8156C39.8156 21.6973 41.5247 19.9882 43.6237 19.9882V17.9882ZM49.4318 23.7963C49.4318 20.5928 46.8273 17.9882 43.6237 17.9882V19.9882C45.7227 19.9882 47.4318 21.6973 47.4318 23.7963H49.4318ZM49.2068 23.5713C49.3313 23.5713 49.4318 23.6718 49.4318 23.7963H47.4318C47.4318 24.7764 48.2267 25.5713 49.2068 25.5713V23.5713ZM48.9818 23.7963C48.9818 23.6719 49.0823 23.5713 49.2068 23.5713V25.5713C50.1869 25.5713 50.9818 24.7764 50.9818 23.7963H48.9818ZM43.6237 18.4382C46.5775 18.4382 48.9818 20.8425 48.9818 23.7963H50.9818C50.9818 19.7379 47.6821 16.4382 43.6237 16.4382V18.4382ZM38.2656 23.7963C38.2656 20.8425 40.6699 18.4382 43.6237 18.4382V16.4382C39.5653 16.4382 36.2656 19.7379 36.2656 23.7963H38.2656ZM38.0406 23.5713C38.1651 23.5713 38.2656 23.6718 38.2656 23.7963H36.2656C36.2656 24.7764 37.0605 25.5713 38.0406 25.5713V23.5713Z" fill="black" mask="url(#path-2-outside-1_2005:3115)"/>
</svg>
