<svg width="65" height="64" viewBox="0 0 65 64" fill="none" xmlns="http://www.w3.org/2000/svg">
<mask id="path-1-outside-1_1961:4323" maskUnits="userSpaceOnUse" x="0" y="0" width="65" height="64" fill="black">
<rect fill="white" width="65" height="64"/>
<path fill-rule="evenodd" clip-rule="evenodd" d="M59.7109 1.43865C61.7546 2.31905 63.5975 4.73395 62.8163 7.9533C62.1304 10.7789 59.8713 13.1822 57.8214 14.8647C61.2028 19.9503 63 25.8612 63 32C63 49.0934 49.0934 63 32 63C14.9066 63 1 49.0934 1 32C1 14.9066 14.9066 1 32 1C36.5771 1 40.9737 1.98192 45.0812 3.8985C45.6973 2.74297 46.687 1.88892 47.7325 1.43865C49.5313 0.66365 51.9617 0.836475 53.7217 2.77087C55.4817 0.8357 57.9144 0.6652 59.7109 1.43865ZM49.8327 2.5562C49.2941 2.5562 48.7819 2.674 48.3463 2.86232C46.8335 3.51487 45.5625 5.22917 46.1337 7.58827C47.1296 11.6942 52.2887 15.0011 53.7209 15.8498C55.1531 14.9996 60.3146 11.6872 61.3097 7.58827C61.8817 5.22917 60.6107 3.51487 59.0971 2.86232C57.7695 2.2896 55.7336 2.36477 54.3719 4.46115C54.0859 4.90135 53.3575 4.90212 53.0715 4.46115C52.157 3.0522 50.9371 2.5562 49.8327 2.5562ZM32 61.45C48.2386 61.45 61.45 48.2386 61.45 32C61.45 26.2053 59.7628 20.6269 56.5915 15.818C55.2516 16.7906 54.2022 17.3649 54.0906 17.4254C53.9759 17.4874 53.8488 17.5183 53.7225 17.5183C53.5961 17.5183 53.469 17.4874 53.3543 17.4254C53.0521 17.2626 45.943 13.3713 44.6286 7.9533C44.4008 7.01478 44.4016 6.14677 44.5597 5.36325C40.6195 3.5017 36.3974 2.55 32 2.55C15.7614 2.55 2.55 15.7614 2.55 32C2.55 48.2386 15.7614 61.45 32 61.45ZM15.5676 23.3403C15.5676 23.7681 15.2204 24.1153 14.7926 24.1153C14.3648 24.1153 14.0176 23.7681 14.0176 23.3403C14.0176 19.8342 16.8696 16.9822 20.3757 16.9822C23.8818 16.9822 26.7338 19.8342 26.7338 23.3403C26.7338 23.7681 26.3866 24.1153 25.9588 24.1153C25.531 24.1153 25.1838 23.7681 25.1838 23.3403C25.1838 20.689 23.027 18.5322 20.3757 18.5322C17.7244 18.5322 15.5676 20.689 15.5676 23.3403ZM51.022 36.8715C51.1274 36.4569 51.549 36.2043 51.9644 36.3128C52.3791 36.4189 52.6294 36.8413 52.5232 37.2559C50.1292 46.6319 41.6895 53.1806 32.0004 53.1806C22.337 53.1806 13.9034 46.6536 11.4916 37.3094C11.3847 36.8956 11.6334 36.4724 12.048 36.3655C12.4642 36.2601 12.885 36.5081 12.992 36.9219C15.2271 45.5825 23.0438 51.6306 32.0004 51.6306C40.9811 51.6306 48.8032 45.5616 51.022 36.8715ZM38.0406 24.1153C38.4684 24.1153 38.8156 23.7681 38.8156 23.3403C38.8156 20.689 40.9725 18.5322 43.6237 18.5322C46.275 18.5322 48.4318 20.689 48.4318 23.3403C48.4318 23.7681 48.779 24.1153 49.2068 24.1153C49.6346 24.1153 49.9818 23.7681 49.9818 23.3403C49.9818 19.8342 47.1298 16.9822 43.6237 16.9822C40.1176 16.9822 37.2656 19.8342 37.2656 23.3403C37.2656 23.7681 37.6128 24.1153 38.0406 24.1153Z"/>
</mask>
<path fill-rule="evenodd" clip-rule="evenodd" d="M59.7109 1.43865C61.7546 2.31905 63.5975 4.73395 62.8163 7.9533C62.1304 10.7789 59.8713 13.1822 57.8214 14.8647C61.2028 19.9503 63 25.8612 63 32C63 49.0934 49.0934 63 32 63C14.9066 63 1 49.0934 1 32C1 14.9066 14.9066 1 32 1C36.5771 1 40.9737 1.98192 45.0812 3.8985C45.6973 2.74297 46.687 1.88892 47.7325 1.43865C49.5313 0.66365 51.9617 0.836475 53.7217 2.77087C55.4817 0.8357 57.9144 0.6652 59.7109 1.43865ZM49.8327 2.5562C49.2941 2.5562 48.7819 2.674 48.3463 2.86232C46.8335 3.51487 45.5625 5.22917 46.1337 7.58827C47.1296 11.6942 52.2887 15.0011 53.7209 15.8498C55.1531 14.9996 60.3146 11.6872 61.3097 7.58827C61.8817 5.22917 60.6107 3.51487 59.0971 2.86232C57.7695 2.2896 55.7336 2.36477 54.3719 4.46115C54.0859 4.90135 53.3575 4.90212 53.0715 4.46115C52.157 3.0522 50.9371 2.5562 49.8327 2.5562ZM32 61.45C48.2386 61.45 61.45 48.2386 61.45 32C61.45 26.2053 59.7628 20.6269 56.5915 15.818C55.2516 16.7906 54.2022 17.3649 54.0906 17.4254C53.9759 17.4874 53.8488 17.5183 53.7225 17.5183C53.5961 17.5183 53.469 17.4874 53.3543 17.4254C53.0521 17.2626 45.943 13.3713 44.6286 7.9533C44.4008 7.01478 44.4016 6.14677 44.5597 5.36325C40.6195 3.5017 36.3974 2.55 32 2.55C15.7614 2.55 2.55 15.7614 2.55 32C2.55 48.2386 15.7614 61.45 32 61.45ZM15.5676 23.3403C15.5676 23.7681 15.2204 24.1153 14.7926 24.1153C14.3648 24.1153 14.0176 23.7681 14.0176 23.3403C14.0176 19.8342 16.8696 16.9822 20.3757 16.9822C23.8818 16.9822 26.7338 19.8342 26.7338 23.3403C26.7338 23.7681 26.3866 24.1153 25.9588 24.1153C25.531 24.1153 25.1838 23.7681 25.1838 23.3403C25.1838 20.689 23.027 18.5322 20.3757 18.5322C17.7244 18.5322 15.5676 20.689 15.5676 23.3403ZM51.022 36.8715C51.1274 36.4569 51.549 36.2043 51.9644 36.3128C52.3791 36.4189 52.6294 36.8413 52.5232 37.2559C50.1292 46.6319 41.6895 53.1806 32.0004 53.1806C22.337 53.1806 13.9034 46.6536 11.4916 37.3094C11.3847 36.8956 11.6334 36.4724 12.048 36.3655C12.4642 36.2601 12.885 36.5081 12.992 36.9219C15.2271 45.5825 23.0438 51.6306 32.0004 51.6306C40.9811 51.6306 48.8032 45.5616 51.022 36.8715ZM38.0406 24.1153C38.4684 24.1153 38.8156 23.7681 38.8156 23.3403C38.8156 20.689 40.9725 18.5322 43.6237 18.5322C46.275 18.5322 48.4318 20.689 48.4318 23.3403C48.4318 23.7681 48.779 24.1153 49.2068 24.1153C49.6346 24.1153 49.9818 23.7681 49.9818 23.3403C49.9818 19.8342 47.1298 16.9822 43.6237 16.9822C40.1176 16.9822 37.2656 19.8342 37.2656 23.3403C37.2656 23.7681 37.6128 24.1153 38.0406 24.1153Z" fill="black"/>
<path d="M62.8163 7.9533L63.7881 8.18918L63.7881 8.18911L62.8163 7.9533ZM59.7109 1.43865L60.1065 0.520245L60.1063 0.520162L59.7109 1.43865ZM57.8214 14.8647L57.187 14.0918L56.4881 14.6655L56.9887 15.4184L57.8214 14.8647ZM45.0812 3.8985L44.6584 4.8047L45.5176 5.2056L45.9636 4.36899L45.0812 3.8985ZM47.7325 1.43865L48.1281 2.35709L48.1282 2.35704L47.7325 1.43865ZM53.7217 2.77087L52.982 3.44386L53.7218 4.25696L54.4615 3.44371L53.7217 2.77087ZM48.3463 2.86232L48.7424 3.78054L48.7432 3.7802L48.3463 2.86232ZM46.1337 7.58827L45.1618 7.82359L45.1619 7.82399L46.1337 7.58827ZM53.7209 15.8498L53.2112 16.7101L53.7214 17.0124L54.2314 16.7097L53.7209 15.8498ZM61.3097 7.58827L62.2815 7.82419L62.2816 7.82389L61.3097 7.58827ZM59.0971 2.86232L58.701 3.78052L58.7012 3.78062L59.0971 2.86232ZM54.3719 4.46115L55.2105 5.00593L55.2105 5.00587L54.3719 4.46115ZM53.0715 4.46115L53.9105 3.91704L53.9103 3.91671L53.0715 4.46115ZM56.5915 15.818L57.4263 15.2675L56.8505 14.3943L56.0041 15.0087L56.5915 15.818ZM54.0906 17.4254L54.5661 18.3051L54.5669 18.3046L54.0906 17.4254ZM53.3543 17.4254L53.8299 16.5456L53.8284 16.5449L53.3543 17.4254ZM44.6286 7.9533L45.6004 7.71754L45.6004 7.71738L44.6286 7.9533ZM44.5597 5.36325L45.5399 5.56104L45.6948 4.79355L44.9868 4.45908L44.5597 5.36325ZM51.9644 36.3128L51.7117 37.2803L51.7164 37.2815L51.9644 36.3128ZM51.022 36.8715L51.9909 37.1189L51.9912 37.1179L51.022 36.8715ZM52.5232 37.2559L51.5545 37.0079L51.5543 37.0085L52.5232 37.2559ZM11.4916 37.3094L12.4599 37.0595L12.4598 37.0592L11.4916 37.3094ZM12.048 36.3655L11.8025 35.3961L11.7983 35.3972L12.048 36.3655ZM12.992 36.9219L13.9603 36.672L13.9602 36.6717L12.992 36.9219ZM63.7881 8.18911C64.7015 4.42492 62.5272 1.56306 60.1065 0.520245L59.3153 2.35705C60.9819 3.07504 62.4935 5.04298 61.8445 7.71749L63.7881 8.18911ZM58.4559 15.6377C60.5476 13.9209 63.0227 11.3425 63.7881 8.18918L61.8445 7.71742C61.2382 10.2154 59.195 12.4436 57.187 14.0918L58.4559 15.6377ZM64 32C64 25.6635 62.1442 19.5601 58.6542 14.3111L56.9887 15.4184C60.2614 20.3405 62 26.059 62 32H64ZM32 64C49.6457 64 64 49.6457 64 32H62C62 48.5411 48.5411 62 32 62V64ZM0 32C0 49.6457 14.3543 64 32 64V62C15.4589 62 2 48.5411 2 32H0ZM32 0C14.3543 0 0 14.3543 0 32H2C2 15.4589 15.4589 2 32 2V0ZM45.5041 2.99229C41.2644 1.01405 36.7235 0 32 0V2C36.4308 2 40.6831 2.9498 44.6584 4.8047L45.5041 2.99229ZM47.3369 0.520211C46.0901 1.0572 44.9253 2.06557 44.1988 3.428L45.9636 4.36899C46.4694 3.42038 47.2839 2.72065 48.1281 2.35709L47.3369 0.520211ZM54.4614 2.09789C52.3754 -0.194737 49.4721 -0.399738 47.3368 0.520264L48.1282 2.35704C49.5904 1.72704 51.548 1.86769 52.982 3.44386L54.4614 2.09789ZM60.1063 0.520162C57.9742 -0.397826 55.0684 -0.196038 52.9819 2.09804L54.4615 3.44371C55.8951 1.86744 57.8547 1.72823 59.3154 2.35714L60.1063 0.520162ZM48.7432 3.7802C49.0597 3.64335 49.4373 3.5562 49.8327 3.5562V1.5562C49.151 1.5562 48.504 1.70465 47.9494 1.94445L48.7432 3.7802ZM47.1056 7.35296C46.6623 5.52187 47.6233 4.26328 48.7424 3.78054L47.9502 1.94411C46.0437 2.76647 44.4627 4.93648 45.1618 7.82359L47.1056 7.35296ZM54.2307 14.9895C53.5441 14.5826 51.9594 13.5829 50.4357 12.2C48.889 10.7962 47.5319 9.11058 47.1055 7.35256L45.1619 7.82399C45.7313 10.1719 47.4518 12.1927 49.0916 13.681C50.7545 15.1902 52.4656 16.2683 53.2112 16.7101L54.2307 14.9895ZM60.3379 7.35236C59.912 9.10677 58.5548 10.792 57.0071 12.1969C55.4827 13.5806 53.8973 14.5822 53.2105 14.9899L54.2314 16.7097C54.9767 16.2672 56.6882 15.1875 58.3514 13.6778C59.9912 12.1892 61.7123 10.1688 62.2815 7.82419L60.3379 7.35236ZM58.7012 3.78062C59.821 4.2634 60.7818 5.52182 60.3379 7.35266L62.2816 7.82389C62.9816 4.93653 61.4004 2.76635 59.493 1.94403L58.7012 3.78062ZM55.2105 5.00587C56.2597 3.39066 57.7368 3.36458 58.701 3.78052L59.4932 1.94412C57.8022 1.21461 55.2075 1.33889 53.5333 3.91643L55.2105 5.00587ZM52.2325 5.00526C52.5948 5.56397 53.199 5.79179 53.7221 5.79159C54.2449 5.79139 54.8484 5.56336 55.2105 5.00593L53.5333 3.91637C53.6095 3.79914 53.7057 3.7916 53.7213 3.79159C53.7371 3.79158 53.8341 3.7993 53.9105 3.91704L52.2325 5.00526ZM49.8327 3.5562C50.6038 3.5562 51.5055 3.88527 52.2327 5.00559L53.9103 3.91671C52.8084 2.21913 51.2704 1.5562 49.8327 1.5562V3.5562ZM60.45 32C60.45 47.6863 47.6863 60.45 32 60.45V62.45C48.7909 62.45 62.45 48.7909 62.45 32H60.45ZM55.7567 16.3685C58.8208 21.0148 60.45 26.402 60.45 32H62.45C62.45 26.0086 60.7049 20.2389 57.4263 15.2675L55.7567 16.3685ZM54.5669 18.3046C54.7028 18.231 55.7925 17.6337 57.1789 16.6273L56.0041 15.0087C54.7106 15.9476 53.7016 16.4988 53.6143 16.5461L54.5669 18.3046ZM53.7225 18.5183C54.0115 18.5183 54.3024 18.4476 54.5661 18.3051L53.6151 16.5456C53.6494 16.5271 53.6861 16.5183 53.7225 16.5183V18.5183ZM52.8788 18.3051C53.1425 18.4476 53.4335 18.5183 53.7225 18.5183V16.5183C53.7588 16.5183 53.7956 16.5271 53.8299 16.5456L52.8788 18.3051ZM43.6568 8.18906C44.3908 11.2147 46.7005 13.7149 48.7261 15.4243C50.7791 17.1568 52.6982 18.2078 52.8802 18.3058L53.8284 16.5449C53.7082 16.4801 51.9217 15.5041 50.016 13.8958C48.0829 12.2644 46.1808 10.1099 45.6004 7.71754L43.6568 8.18906ZM43.5794 5.16546C43.3923 6.09268 43.3945 7.10874 43.6569 8.18922L45.6004 7.71738C45.407 6.92081 45.4108 6.20087 45.5399 5.56104L43.5794 5.16546ZM32 3.55C36.2496 3.55 40.3259 4.46897 44.1325 6.26741L44.9868 4.45908C40.9132 2.53443 36.5451 1.55 32 1.55V3.55ZM3.55 32C3.55 16.3137 16.3137 3.55 32 3.55V1.55C15.2091 1.55 1.55 15.2091 1.55 32H3.55ZM32 60.45C16.3137 60.45 3.55 47.6863 3.55 32H1.55C1.55 48.7909 15.2091 62.45 32 62.45V60.45ZM14.7926 25.1153C15.7727 25.1153 16.5676 24.3204 16.5676 23.3403H14.5676C14.5676 23.2158 14.6681 23.1153 14.7926 23.1153V25.1153ZM13.0176 23.3403C13.0176 24.3204 13.8125 25.1153 14.7926 25.1153V23.1153C14.9171 23.1153 15.0176 23.2158 15.0176 23.3403H13.0176ZM20.3757 15.9822C16.3173 15.9822 13.0176 19.2819 13.0176 23.3403H15.0176C15.0176 20.3865 17.4219 17.9822 20.3757 17.9822V15.9822ZM27.7338 23.3403C27.7338 19.2819 24.4341 15.9822 20.3757 15.9822V17.9822C23.3295 17.9822 25.7338 20.3865 25.7338 23.3403H27.7338ZM25.9588 25.1153C26.9389 25.1153 27.7338 24.3204 27.7338 23.3403H25.7338C25.7338 23.2158 25.8343 23.1153 25.9588 23.1153V25.1153ZM24.1838 23.3403C24.1838 24.3204 24.9787 25.1153 25.9588 25.1153V23.1153C26.0833 23.1153 26.1838 23.2158 26.1838 23.3403H24.1838ZM20.3757 19.5322C22.4747 19.5322 24.1838 21.2413 24.1838 23.3403H26.1838C26.1838 20.1367 23.5792 17.5322 20.3757 17.5322V19.5322ZM16.5676 23.3403C16.5676 21.2413 18.2767 19.5322 20.3757 19.5322V17.5322C17.1721 17.5322 14.5676 20.1367 14.5676 23.3403H16.5676ZM52.2171 35.3452C51.2586 35.0949 50.2933 35.6792 50.0529 36.6252L51.9912 37.1179C51.9615 37.2347 51.8395 37.3137 51.7117 37.2803L52.2171 35.3452ZM53.4919 37.504C53.7352 36.554 53.1618 35.5871 52.2125 35.344L51.7164 37.2815C51.5963 37.2508 51.5235 37.1286 51.5545 37.0079L53.4919 37.504ZM32.0004 54.1806C42.1456 54.1806 50.9849 47.3229 53.4921 37.5033L51.5543 37.0085C49.2736 45.9409 41.2333 52.1806 32.0004 52.1806V54.1806ZM10.5233 37.5593C13.0493 47.3459 21.8817 54.1806 32.0004 54.1806V52.1806C22.7922 52.1806 14.7575 45.9613 12.4599 37.0595L10.5233 37.5593ZM11.7983 35.3972C10.8479 35.6423 10.2784 36.6117 10.5234 37.5596L12.4598 37.0592C12.4909 37.1794 12.4189 37.3025 12.2978 37.3338L11.7983 35.3972ZM13.9602 36.6717C13.7144 35.7208 12.748 35.1566 11.8025 35.3961L12.2936 37.3349C12.1804 37.3635 12.0557 37.2954 12.0238 37.1721L13.9602 36.6717ZM32.0004 50.6306C23.4988 50.6306 16.0812 44.8902 13.9603 36.672L12.0237 37.1718C14.373 46.2749 22.5887 52.6306 32.0004 52.6306V50.6306ZM50.0531 36.6241C47.9476 44.8706 40.525 50.6306 32.0004 50.6306V52.6306C41.4372 52.6306 49.6588 46.2527 51.9909 37.1189L50.0531 36.6241ZM37.8156 23.3403C37.8156 23.2158 37.9161 23.1153 38.0406 23.1153V25.1153C39.0207 25.1153 39.8156 24.3204 39.8156 23.3403H37.8156ZM43.6237 17.5322C40.4202 17.5322 37.8156 20.1367 37.8156 23.3403H39.8156C39.8156 21.2413 41.5247 19.5322 43.6237 19.5322V17.5322ZM49.4318 23.3403C49.4318 20.1367 46.8273 17.5322 43.6237 17.5322V19.5322C45.7227 19.5322 47.4318 21.2413 47.4318 23.3403H49.4318ZM49.2068 23.1153C49.3313 23.1153 49.4318 23.2158 49.4318 23.3403H47.4318C47.4318 24.3204 48.2267 25.1153 49.2068 25.1153V23.1153ZM48.9818 23.3403C48.9818 23.2158 49.0823 23.1153 49.2068 23.1153V25.1153C50.1869 25.1153 50.9818 24.3204 50.9818 23.3403H48.9818ZM43.6237 17.9822C46.5775 17.9822 48.9818 20.3865 48.9818 23.3403H50.9818C50.9818 19.2819 47.6821 15.9822 43.6237 15.9822V17.9822ZM38.2656 23.3403C38.2656 20.3865 40.6699 17.9822 43.6237 17.9822V15.9822C39.5653 15.9822 36.2656 19.2819 36.2656 23.3403H38.2656ZM38.0406 23.1153C38.1651 23.1153 38.2656 23.2158 38.2656 23.3403H36.2656C36.2656 24.3204 37.0605 25.1153 38.0406 25.1153V23.1153Z" fill="black" mask="url(#path-1-outside-1_1961:4323)"/>
</svg>
