<svg width="66" height="66" viewBox="0 0 66 66" fill="none" xmlns="http://www.w3.org/2000/svg">
<circle cx="32.8633" cy="32.9561" r="30.75" fill="#E9FD57"/>
<path d="M32.8633 64.9561C50.5085 64.9561 64.8633 50.6013 64.8633 32.9561C64.8633 15.3108 50.5085 0.956055 32.8633 0.956055C15.218 0.956055 0.863281 15.3108 0.863281 32.9561C0.863281 50.6013 15.218 64.9561 32.8633 64.9561ZM32.8633 3.53105C49.0876 3.53105 62.2883 16.7317 62.2883 32.9561C62.2883 49.1804 49.0876 62.3811 32.8633 62.3811C16.6389 62.3811 3.43828 49.1804 3.43828 32.9561C3.43828 16.7317 16.6389 3.53105 32.8633 3.53105ZM15.3793 25.444C16.0913 25.444 16.6668 24.8671 16.6668 24.1565C16.6668 21.7386 18.6346 19.7709 21.0524 19.7709C23.4703 19.7709 25.4381 21.7386 25.4381 24.1565C25.4381 24.8671 26.0136 25.444 26.7256 25.444C27.4376 25.444 28.0131 24.8671 28.0131 24.1565C28.0131 20.3177 24.8904 17.1959 21.0524 17.1959C17.2145 17.1959 14.0918 20.3177 14.0918 24.1565C14.0918 24.8671 14.6673 25.444 15.3793 25.444ZM39.0009 25.444C39.7128 25.444 40.2884 24.8671 40.2884 24.1565C40.2884 21.7386 42.2561 19.7709 44.674 19.7709C47.0919 19.7709 49.0597 21.7386 49.0597 24.1565C49.0597 24.8671 49.6352 25.444 50.3472 25.444C51.0591 25.444 51.6347 24.8671 51.6347 24.1565C51.6347 20.3177 48.512 17.1959 44.674 17.1959C40.8361 17.1959 37.7134 20.3177 37.7134 24.1565C37.7134 24.8671 38.2889 25.444 39.0009 25.444ZM17.6631 43.3251C17.6631 44.0356 18.2386 44.6126 18.9506 44.6126H46.7761C47.4881 44.6126 48.0636 44.0356 48.0636 43.3251C48.0636 42.6145 47.4881 42.0376 46.7761 42.0376H18.9506C18.239 42.0376 17.6631 42.6134 17.6631 43.3251Z" fill="black" stroke="black"/>
</svg>
