<svg width="65" height="65" viewBox="0 0 65 65" fill="none" xmlns="http://www.w3.org/2000/svg">
<circle cx="32.5129" cy="32.4999" r="30.2619" fill="white"/>
<path d="M32.5127 64C49.8822 64 64.0127 49.8695 64.0127 32.5C64.0127 15.1305 49.8822 1 32.5127 1C15.1432 1 1.0127 15.1305 1.0127 32.5C1.0127 49.8695 15.1432 64 32.5127 64ZM32.5127 3.55C48.4751 3.55 61.4627 16.5376 61.4627 32.5C61.4627 48.4624 48.4751 61.45 32.5127 61.45C16.5503 61.45 3.5627 48.4624 3.5627 32.5C3.5627 16.5376 16.5503 3.55 32.5127 3.55ZM15.3062 25.1152C16.0113 25.1152 16.5812 24.5438 16.5812 23.8402C16.5812 21.465 18.5142 19.5321 20.8893 19.5321C23.2645 19.5321 25.1974 21.465 25.1974 23.8402C25.1974 24.5438 25.7674 25.1152 26.4724 25.1152C27.1775 25.1152 27.7474 24.5438 27.7474 23.8402C27.7474 20.0579 24.6708 16.9821 20.8893 16.9821C17.1079 16.9821 14.0312 20.0579 14.0312 23.8402C14.0312 24.5438 14.6012 25.1152 15.3062 25.1152ZM38.5529 25.1152C39.2579 25.1152 39.8279 24.5438 39.8279 23.8402C39.8279 21.465 41.7608 19.5321 44.136 19.5321C46.5111 19.5321 48.4441 21.465 48.4441 23.8402C48.4441 24.5438 49.014 25.1152 49.7191 25.1152C50.4241 25.1152 50.9941 24.5438 50.9941 23.8402C50.9941 20.0579 47.9174 16.9821 44.136 16.9821C40.3545 16.9821 37.2779 20.0579 37.2779 23.8402C37.2779 24.5438 37.8478 25.1152 38.5529 25.1152ZM17.5458 42.7044C17.5458 43.408 18.1158 43.9794 18.8208 43.9794H46.2047C46.9097 43.9794 47.4797 43.408 47.4797 42.7044C47.4797 42.0008 46.9097 41.4294 46.2047 41.4294H18.8208C18.1161 41.4294 17.5458 41.9997 17.5458 42.7044Z" fill="#2A2828" stroke="#2A2828"/>
</svg>
