<svg width="10" height="14" viewBox="0 0 10 14" fill="none" xmlns="http://www.w3.org/2000/svg">
<path d="M5 0.404968C2.24311 0.404968 0 2.64781 0 5.40497C0 9.54776 4.44743 13.4394 4.63677 13.6032L5 13.9173L5.36323 13.6032C5.55257 13.4394 10 9.54776 10 5.40497C10 2.64781 7.75689 0.404968 5 0.404968ZM5 12.4248C3.97054 11.4304 1.11111 8.39868 1.11111 5.40497C1.11111 3.26087 2.85563 1.51608 5 1.51608C7.14437 1.51608 8.88889 3.26087 8.88889 5.40497C8.88889 8.39868 6.02946 11.4304 5 12.4248Z" fill="black"/>
<path d="M5 3C3.89727 3 3 3.89727 3 5C3 6.10273 3.89727 7 5 7C6.10273 7 7 6.10273 7 5C7 3.89727 6.10273 3 5 3ZM5 6.2C4.33828 6.2 3.8 5.66172 3.8 5C3.8 4.33828 4.33828 3.8 5 3.8C5.66172 3.8 6.2 4.33828 6.2 5C6.2 5.66172 5.66172 6.2 5 6.2Z" fill="black"/>
</svg>
