<svg width="60" height="61" viewBox="0 0 60 61" fill="none" xmlns="http://www.w3.org/2000/svg">
<circle cx="30" cy="30.4584" r="30" fill="#2B1F2E"/>
<g clip-path="url(#clip0_1853:420)">
<path fill-rule="evenodd" clip-rule="evenodd" d="M19.8372 16.8043C18.9438 16.8043 18.2195 17.5286 18.2195 18.422C18.2195 19.3155 18.9438 20.0397 19.8372 20.0397C20.7307 20.0397 21.4549 19.3155 21.4549 18.422C21.4549 17.5286 20.7307 16.8043 19.8372 16.8043ZM17.2195 18.422C17.2195 16.9763 18.3915 15.8043 19.8372 15.8043C21.2829 15.8043 22.4549 16.9763 22.4549 18.422C22.4549 19.4195 21.897 20.2867 21.0762 20.7285C21.2063 20.8704 21.2981 21.0081 21.371 21.1175L21.383 21.1356C21.5483 21.3953 21.971 22.1867 22.3381 22.8836C22.525 23.2385 22.7024 23.5783 22.8329 23.8293C22.8911 23.9411 22.9401 24.0354 22.9765 24.1056L25.6335 25.5363C25.9342 25.6747 26.1198 25.9432 26.1995 26.209C26.2817 26.4831 26.2698 26.8112 26.1061 27.0977C25.811 27.6141 25.1538 27.8446 24.6106 27.6118L24.6016 27.6079L21.4799 26.1966C21.3902 26.1686 21.3123 26.1293 21.245 26.0845V28.9241C21.245 29.0079 21.2364 29.1639 21.1465 29.3155L22.9738 33.6197V33.6619C22.9789 33.6772 22.9862 33.7001 22.9926 33.7235C22.9971 33.74 23.0027 33.7622 23.0073 33.7879C23.0093 33.7989 23.0114 33.8127 23.0132 33.8285L23.4843 36.4196H25.715C25.8743 36.4196 25.9893 36.4903 26.0358 36.522C26.0956 36.5628 26.1438 36.6102 26.181 36.6536C26.2562 36.7413 26.3205 36.8524 26.3622 36.9776L26.4082 37.1157L26.3729 37.2569C26.2613 37.7033 25.8963 39.0486 25.4863 40.5595C25.1004 41.9816 24.6747 43.5504 24.3832 44.6537L24.3488 44.7842L24.2534 44.8796L24.2496 44.8834C24.2313 44.9018 24.1865 44.9468 24.135 44.9854C24.0847 45.0231 23.955 45.1125 23.7701 45.1125H18.5407C18.3727 45.1125 18.14 45.0533 17.995 44.8358C17.8487 44.6164 17.8845 44.3746 17.9638 44.216L17.9694 44.205C18.4502 43.2998 19.0599 42.1002 19.6554 40.928C19.9674 40.3139 20.2755 39.7074 20.5594 39.1546L20.9398 38.4137L20.0559 34.672L18.9517 32.4869L18.9112 34.2464C18.9101 34.5101 18.8404 34.7286 18.7099 34.9309L17.8828 36.4196H19.6644C19.9863 36.4196 20.1573 36.6564 20.2158 36.7928C20.2493 36.871 20.2711 36.9647 20.2674 37.0657C20.2644 37.1476 20.2419 37.2738 20.1536 37.3898C19.3379 38.6134 18.5328 39.8372 17.7267 41.0625C16.9291 42.2748 16.1301 43.4893 15.3211 44.7033C15.3045 44.7409 15.2827 44.7785 15.2544 44.8148C15.1709 44.9221 15.0674 44.9719 14.9982 44.995C14.9318 45.0171 14.8742 45.0224 14.8457 45.0243C14.818 45.0261 14.7919 45.0261 14.7826 45.026L14.7807 45.026H9.59449C9.3125 45.026 9.12093 44.8374 9.03923 44.674C8.94221 44.48 8.9313 44.1904 9.14284 43.9683C9.74571 43.3009 10.3379 42.6441 10.9303 41.9871C11.5245 41.328 12.1189 40.6688 12.7242 39.9987L13.0957 39.5873C13.1161 39.3904 13.1851 39.1902 13.3127 38.9979L15.9597 33.83L15.7253 29.6126C15.658 29.5578 15.5971 29.4874 15.5493 29.3999C15.4754 29.2643 15.4478 29.1148 15.4478 28.9674C15.4478 28.9184 15.4591 28.7807 15.4718 28.6289C15.4784 28.5506 15.4862 28.4589 15.4952 28.3562C15.29 28.6829 14.926 28.9055 14.5216 28.9055C13.9503 28.9055 13.3827 28.4734 13.3734 27.8168L13.1572 24.0548V24.0405C13.1572 23.7079 13.2855 23.3593 13.5197 23.1251L13.5301 23.1147L13.5411 23.1049L15.8846 21.0218L15.8947 21.0137C16.0112 20.9205 16.2882 20.7102 16.5672 20.5078C16.8306 20.3167 17.1486 20.0934 17.3233 20.0061C17.4079 19.9638 17.537 19.8986 17.6344 19.8368C17.3718 19.4289 17.2195 18.9433 17.2195 18.422ZM14.2216 23.838C14.2121 23.8494 14.1966 23.8724 14.1826 23.9083C14.1675 23.9471 14.1588 23.9895 14.1574 24.0294L14.3733 27.7861V27.8005C14.3733 27.8203 14.3801 27.8409 14.4041 27.8627C14.4306 27.8868 14.4727 27.9055 14.5216 27.9055C14.5473 27.9055 14.5859 27.8934 14.6218 27.8575C14.6577 27.8216 14.6698 27.783 14.6698 27.7572V24.1121L14.8456 23.9624L15.1698 24.343C14.8456 23.9624 14.8456 23.9624 14.8456 23.9624L15.0294 23.8055C15.1406 23.7105 15.2901 23.5825 15.4436 23.4506C15.5972 23.3185 15.7541 23.1831 15.8803 23.0729C15.9435 23.0177 15.9981 22.9697 16.0404 22.9319C16.0615 22.913 16.0788 22.8974 16.0921 22.8852L16.1077 22.8706C16.1114 22.8672 16.1129 22.8657 16.1129 22.8657L17.0926 21.886L16.9643 23.2656L16.4664 23.2193C16.9643 23.2656 16.9643 23.2656 16.9643 23.2656L16.8832 24.1392C16.8346 24.6645 16.7698 25.3666 16.705 26.0741C16.6402 26.7817 16.5754 27.4943 16.5268 28.0406C16.5026 28.3138 16.4824 28.5448 16.4683 28.7125C16.4681 28.7149 16.4679 28.7172 16.4677 28.7196L16.6754 28.685L16.9731 34.0449L14.173 39.5119L14.1533 39.5401C14.0875 39.6341 14.0815 39.718 14.1015 39.7907C14.1236 39.8711 14.1867 39.9647 14.3034 40.0347C14.4607 40.1291 14.6833 40.0949 14.8238 39.8666L17.8543 34.4117L17.8656 34.3949C17.899 34.3447 17.9112 34.3111 17.9112 34.24V34.2285L17.9978 30.4685L18.9439 30.2545L21.0019 34.3267L22.3141 39.8815L22.3158 39.89C22.3455 40.0388 22.5473 40.1809 22.7215 40.1461L22.7301 40.1443C22.9041 40.1127 23.072 39.917 23.0577 39.6631L22.0228 33.9712C22.0223 33.9696 22.0217 33.9679 22.0211 33.966C22.0167 33.953 22.0066 33.923 21.9981 33.8922C21.9959 33.8839 21.9934 33.8742 21.9909 33.8634L19.7735 28.6402H20.245V22.6484L21.1611 24.0224C21.2028 24.085 21.2637 24.2027 21.3149 24.3032C21.3733 24.418 21.4422 24.5571 21.5074 24.6903C21.5728 24.8239 21.6354 24.9531 21.6816 25.0489L21.737 25.1641L21.7423 25.1751C21.755 25.194 21.7652 25.2087 21.7751 25.2221C21.7832 25.2331 21.7894 25.2407 21.7938 25.2459L21.8176 25.2518L25.0071 26.6937C25.0697 26.7183 25.1878 26.6891 25.2378 26.6016C25.247 26.5856 25.2567 26.5464 25.2417 26.4963C25.2301 26.4578 25.2144 26.4452 25.2124 26.4435L25.1952 26.4361L22.2302 24.8396L22.1592 24.7021L22.6034 24.4726C22.1592 24.7021 22.1592 24.7022 22.1592 24.7021L22.1014 24.5903C22.0642 24.5187 22.0108 24.4158 21.9458 24.2908C21.8157 24.0407 21.6392 23.7025 21.4533 23.3497C21.0773 22.6357 20.6816 21.8977 20.5419 21.6767C20.5152 21.6366 20.4908 21.6003 20.4672 21.5666C20.3464 21.5869 20.2179 21.6016 20.0967 21.6016H19.9239C19.15 21.6016 18.4137 21.3144 17.8612 20.8548C17.8275 20.872 17.7986 20.8865 17.7769 20.8973L17.7705 20.9005C17.6858 20.9429 17.442 21.1086 17.1544 21.3172C16.8908 21.5084 16.6355 21.7023 16.5292 21.7867L14.2216 23.838ZM20.245 28.9241C20.2444 28.9317 20.245 28.9318 20.245 28.9241V28.9241ZM15.8533 24.4167C15.7893 24.4715 15.7301 24.5221 15.679 24.5658L15.6698 24.5736V26.4129C15.6829 26.2703 15.696 26.1265 15.7092 25.9829C15.7598 25.4303 15.8104 24.881 15.8533 24.4167ZM20.8581 40.7688C20.7577 40.9661 20.656 41.1663 20.5537 41.3676C20.0711 42.3176 19.576 43.2921 19.148 44.1125H23.4921C23.7301 43.2166 24.034 42.0936 24.3304 41.0006C24.0191 41.4573 23.516 41.714 23.0575 41.8159L23.0039 41.8278H22.968C22.9626 41.8291 22.9544 41.8311 22.9407 41.8345L22.9375 41.8353C22.9178 41.8403 22.8834 41.8489 22.8467 41.8558C22.8064 41.8633 22.7522 41.8711 22.6897 41.8711C21.8927 41.8711 21.2017 41.4389 20.8581 40.7688ZM24.7191 39.568C24.9588 38.6844 25.1678 37.9114 25.2977 37.4196H24.3269L24.6926 39.4141C24.7036 39.465 24.7124 39.5164 24.7191 39.568ZM29.9006 21.0119C30.0956 20.255 30.7862 19.7804 31.5496 19.7804H41.4035C42.1459 19.7804 42.8065 20.2722 43.0447 20.9867L43.0472 20.9944L44.0237 24.2752H44.472C45.0074 24.2752 45.4474 24.7151 45.4474 25.2506V25.6828C45.4474 25.9838 45.3083 26.2546 45.0915 26.434C45.6296 27.0929 45.966 27.9355 45.966 28.8377V28.8707L45.4901 32.4614C45.4705 33.2108 44.8494 33.746 44.1694 33.746H44.0641V34.7586C44.0641 35.5272 43.434 36.0798 42.743 36.0798H42.0947C41.7345 36.0798 41.3947 35.9473 41.1511 35.6943C40.9104 35.4444 40.7902 35.1038 40.8168 34.7385V33.746H32.1359V34.7586C32.1359 35.5272 31.5059 36.0798 30.8148 36.0798H30.1665C29.4931 36.0798 28.8307 35.5367 28.8886 34.7385V33.746H28.7836C28.0288 33.746 27.4823 33.1382 27.463 32.4618L26.9871 28.8707V28.8377C26.9871 27.901 27.3035 27.0665 27.8698 26.3975C27.6482 26.2182 27.5057 25.9443 27.5057 25.6395V25.2506C27.5057 24.7151 27.9456 24.2752 28.4811 24.2752H28.9294L29.9006 21.0119ZM29.8886 34.0917V34.7813L29.8865 34.8039C29.879 34.8861 29.9063 34.9474 29.9528 34.9939C30.0042 35.0453 30.082 35.0798 30.1665 35.0798H30.8148C30.9881 35.0798 31.1359 34.9409 31.1359 34.7586V34.0917H29.8886ZM41.8168 34.0917V34.7813L41.8147 34.8039C41.8056 34.9046 41.8367 34.9646 41.8714 35.0007C41.9087 35.0394 41.9795 35.0798 42.0947 35.0798H42.743C42.9163 35.0798 43.0641 34.9409 43.0641 34.7586V34.0917H41.8168ZM31.5496 20.7804C31.1932 20.7804 30.9362 20.9925 30.8678 21.2661L30.8651 21.2768L29.6751 25.2752H28.5057V25.6149H29.637L30.975 21.3332C30.9884 21.2696 31.0136 21.2054 31.0539 21.1451C31.1164 21.0512 31.1963 20.9948 31.261 20.9624C31.3238 20.931 31.3805 20.9178 31.4173 20.9116C31.4368 20.9083 31.4543 20.9065 31.4687 20.9055C31.476 20.9049 31.4829 20.9046 31.4891 20.9044L31.498 20.9042L31.5022 20.9041L31.5042 20.9041L31.5057 20.9041C31.506 20.9041 31.5062 20.9041 31.5064 21.4041L31.5057 20.9041L41.3602 20.9041C41.3623 20.9041 41.3664 20.9041 41.3713 20.9041C41.3754 20.9042 41.3801 20.9042 41.3847 20.9043C41.3946 20.9045 41.4155 20.9051 41.4405 20.9079C41.4772 20.9119 41.625 20.9294 41.7516 21.0559C41.8716 21.176 41.8935 21.3152 41.899 21.3605L43.1524 25.6581H44.4474V25.2752H43.2779L42.0937 21.2961C41.9843 20.9774 41.6962 20.7804 41.4035 20.7804H31.5496ZM43.3142 26.2127L43.3375 26.2927L42.4923 26.0814C42.3899 26.0558 42.2808 26.0531 42.0517 26.0531H30.7285C30.5563 26.0531 30.4275 26.054 30.2647 26.0866L29.6376 26.212L29.2039 26.5218C28.4293 27.0751 27.9968 27.8663 27.9872 28.8059L28.4625 32.3918V32.4248C28.4625 32.5982 28.6014 32.746 28.7836 32.746H44.1694C44.3428 32.746 44.4906 32.6071 44.4906 32.4248V32.3918L44.9658 28.8062C44.9549 27.9104 44.4831 27.0741 43.7864 26.5607L43.3142 26.2127ZM30.8602 25.0531H41.9343L41.0158 21.9041H31.8443L30.8602 25.0531ZM41.3692 21.9042C41.3692 21.9042 41.3679 21.9042 41.3655 21.9041L41.3692 21.9042ZM29.9751 29.1648V29.5046H31.8708V29.1648H29.9751ZM28.9751 29.1402C28.9751 28.6047 29.4151 28.1648 29.9505 28.1648H31.8954C32.4308 28.1648 32.8708 28.6048 32.8708 29.1402V29.5292C32.8708 30.0647 32.4308 30.5046 31.8954 30.5046H29.9505C29.4151 30.5046 28.9751 30.0647 28.9751 29.5292V29.1402ZM41.0391 29.1648V29.5046H42.9347V29.1648H41.0391ZM40.0391 29.1402C40.0391 28.6048 40.479 28.1648 41.0145 28.1648H42.9593C43.4948 28.1648 43.9347 28.6048 43.9347 29.1402V29.5292C43.9347 30.0647 43.4948 30.5046 42.9593 30.5046H41.0145C40.479 30.5046 40.0391 30.0647 40.0391 29.5292V29.1402ZM34.3588 30.9122C34.3588 30.9122 34.3588 30.9122 34.3588 30.9122V30.9122ZM33.9387 31.2578C33.9104 31.2232 33.8893 31.1884 33.8737 31.1573C33.8424 31.0945 33.8292 31.0378 33.8231 31.001C33.8198 30.9814 33.818 30.964 33.8169 30.9495C33.8164 30.9422 33.8161 30.9354 33.8159 30.9292L33.8157 30.9203L33.8156 30.9161L33.8156 30.914L33.8156 30.9126C33.8156 30.9124 33.8156 30.9123 33.9364 30.9122L33.8156 30.9126V30.6961C33.8156 30.5978 33.8416 30.4909 33.9063 30.3938C33.969 30.2998 34.0489 30.2434 34.1136 30.211C34.1764 30.1797 34.2332 30.1665 34.27 30.1603C34.2896 30.1571 34.307 30.1553 34.3214 30.1542C34.3288 30.1537 34.3356 30.1534 34.3418 30.1532L34.3507 30.153L34.3549 30.1529L34.357 30.1529L34.3584 30.1529C34.3586 30.1529 34.3587 30.1529 34.3588 30.257L34.3584 30.1529H38.5942C38.6925 30.1529 38.7995 30.1789 38.8966 30.2436C38.9905 30.3062 39.0469 30.3862 39.0793 30.4509C39.1107 30.5137 39.1239 30.5704 39.13 30.6072C39.1333 30.6268 39.1351 30.6442 39.1361 30.6587C39.1366 30.666 39.137 30.6729 39.1372 30.6791L39.1374 30.688L39.1374 30.6922L39.1375 30.6942L39.1375 30.6957C39.1375 30.6959 39.1375 30.696 39.0153 30.6961L39.1375 30.6957V30.9122C39.1375 31.0105 39.1115 31.1174 39.0468 31.2144C39.0364 31.23 39.0256 31.2446 39.0144 31.2581C39.0426 31.2927 39.0638 31.3274 39.0793 31.3586C39.1107 31.4214 39.1239 31.4781 39.13 31.5149C39.1333 31.5345 39.1351 31.5519 39.1361 31.5663C39.1366 31.5737 39.137 31.5805 39.1372 31.5867L39.1374 31.5956L39.1374 31.5998L39.1375 31.6018L39.1375 31.6033C39.1375 31.6035 39.1375 31.6036 39.0153 31.6037L39.1375 31.6033V31.8198C39.1375 31.9181 39.1115 32.025 39.0467 32.1221C38.9841 32.2161 38.9042 32.2725 38.8394 32.3048C38.7766 32.3362 38.7199 32.3494 38.6831 32.3555C38.6635 32.3588 38.6461 32.3606 38.6316 32.3617C38.6243 32.3622 38.6175 32.3625 38.6113 32.3627L38.6023 32.3629L38.5981 32.363L38.5961 32.363L38.5946 32.363C38.5945 32.363 38.5943 32.363 38.5942 32.2421L38.5946 32.363H34.3588C34.2605 32.363 34.1536 32.337 34.0565 32.2723C33.9625 32.2096 33.9061 32.1297 33.8738 32.065C33.8424 32.0022 33.8292 31.9455 33.8231 31.9086C33.8198 31.8891 33.818 31.8716 33.8169 31.8572C33.8167 31.8542 33.8166 31.8513 33.8164 31.8485C33.8162 31.8444 33.816 31.8405 33.8159 31.8368L33.8157 31.8279L33.8156 31.8237L33.8156 31.8216L33.8156 31.8202C33.8156 31.82 33.8156 31.8199 33.9369 31.8198L33.8156 31.8202V31.6037C33.8156 31.5054 33.8416 31.3985 33.9063 31.3015C33.9166 31.2859 33.9275 31.2713 33.9387 31.2578ZM38.5943 31.6037C38.5943 31.6037 38.5943 31.6037 38.5943 31.6037V31.6037ZM38.6375 31.6037L38.5943 31.6037L38.6375 31.6037ZM44.1323 36.5661C44.1511 36.5831 44.17 36.6022 44.1771 36.6092L44.1855 36.6176L44.1935 36.6264C44.6263 37.1025 48.6395 41.5472 50.8457 44.0129C50.9948 44.1706 51.0672 44.4016 51.0032 44.6256C50.9701 44.7414 50.8865 44.8908 50.715 44.9766C50.5967 45.0358 50.4773 45.0446 50.3723 45.026H45.2497C45.2482 45.026 45.2115 45.0266 45.1744 45.0229C45.1235 45.0178 45.0558 45.0043 44.983 44.9679C44.9187 44.9358 44.8744 44.8974 44.8545 44.8795C44.8373 44.864 44.82 44.8467 44.8118 44.8385L44.8097 44.8364L44.7731 44.7998L44.7448 44.7564C44.0399 43.6783 43.0179 42.1396 42.0811 40.7291C41.1162 39.2763 40.2417 37.9596 39.897 37.4222C39.8209 37.3424 39.7675 37.2393 39.7499 37.1205C39.7257 36.9574 39.7773 36.8232 39.8239 36.7417C39.906 36.5981 40.0925 36.4196 40.366 36.4196H43.7371C43.7421 36.4195 43.7773 36.4192 43.8124 36.4227C43.8633 36.4278 43.931 36.4413 44.0038 36.4777C44.0681 36.5098 44.1124 36.5482 44.1323 36.5661ZM43.5628 37.4196C44.2722 38.2029 47.3945 41.6617 49.5149 44.026H45.4619C44.7531 42.9446 43.7866 41.4894 42.9009 40.1559C42.184 39.0767 41.5201 38.0771 41.0885 37.4196H43.5628ZM18.057 37.4196L16.2569 40.6597C16.2566 40.6603 16.2562 40.6609 16.2559 40.6616C15.9053 41.3026 15.2152 41.6982 14.4782 41.6982C14.1136 41.6982 13.7683 41.5791 13.4909 41.4137C13.3256 41.3187 13.1904 41.2133 13.0751 41.1022C12.6043 41.6238 12.1387 42.1402 11.673 42.6567C11.2626 43.1119 10.8521 43.5672 10.438 44.026H14.5707C15.35 42.8556 16.1202 41.6849 16.8913 40.5128C17.569 39.4828 18.2478 38.451 18.9327 37.4196H18.057ZM27.8715 36.5616C27.9719 36.4812 28.1116 36.4196 28.2648 36.4196H31.7223C31.8676 36.4196 32.03 36.4769 32.1515 36.5984C32.2217 36.6687 32.2899 36.7731 32.3128 36.9103C32.3226 36.9692 32.3227 37.0258 32.3158 37.0789C32.427 38.0162 32.9204 42.0829 33.2123 44.3765L33.2163 44.4079V44.4396C33.2163 44.5599 33.1859 44.742 33.0374 44.8904C32.889 45.0389 32.7069 45.0692 32.5867 45.0692H27.3573C27.237 45.0692 27.055 45.0389 26.9065 44.8905C26.758 44.7421 26.7276 44.56 26.7276 44.4396V44.4079L26.7316 44.3765C27.0314 42.0207 27.5438 37.7941 27.6364 37.0096C27.6493 36.801 27.762 36.6491 27.8715 36.5616ZM28.5946 37.4196C28.4555 38.5814 28.0534 41.8899 27.7785 44.0692H32.1654C31.8905 41.8899 31.4884 38.5814 31.3493 37.4196H28.5946ZM33.6425 37.0925C33.6425 36.975 33.6704 36.829 33.759 36.6962C33.8574 36.5486 34.035 36.4196 34.2722 36.4196H37.7297C37.9197 36.4196 38.2517 36.5266 38.3382 36.8419C38.5143 37.1776 38.9897 38.1182 39.5707 39.2677C40.3699 40.8488 41.3688 42.8252 42.0634 44.1665L42.0666 44.1728C42.1941 44.4277 42.1152 44.6819 41.9872 44.8354C41.8707 44.9751 41.6897 45.0692 41.4897 45.0692H36.2603C36.0554 45.0692 35.6848 44.9447 35.636 44.568C35.3449 43.467 34.925 41.9198 34.544 40.5157C34.134 39.0051 33.769 37.66 33.6575 37.2137L33.6425 37.154V37.0925ZM34.7441 37.4196C34.9094 38.0442 35.1922 39.0864 35.5025 40.2295C35.8568 41.5352 36.2469 42.9724 36.5383 44.0692H40.8881C40.2108 42.7514 39.3599 41.0676 38.6662 39.6949C38.1471 38.6675 37.716 37.8144 37.5117 37.4196H34.7441Z" fill="#E9FD57"/>
<path d="M13.5411 23.1049L13.5301 23.1147L13.5197 23.1251C13.2855 23.3593 13.1572 23.7079 13.1572 24.0405V24.0548L13.3734 27.8168C13.3827 28.4734 13.9503 28.9055 14.5216 28.9055C14.926 28.9055 15.29 28.6829 15.4952 28.3562C15.4862 28.4589 15.4784 28.5506 15.4718 28.6289C15.4591 28.7807 15.4478 28.9184 15.4478 28.9674C15.4478 29.1148 15.4754 29.2643 15.5493 29.3999C15.5971 29.4874 15.658 29.5578 15.7253 29.6126L15.9597 33.83L13.3127 38.9979C13.1851 39.1902 13.1161 39.3904 13.0957 39.5873L12.7242 39.9987C12.1189 40.6688 11.5245 41.328 10.9303 41.9871C10.3379 42.6441 9.74571 43.3009 9.14284 43.9683C8.9313 44.1904 8.94221 44.48 9.03923 44.674C9.12093 44.8374 9.3125 45.026 9.59449 45.026H14.7807L14.7826 45.026C14.7919 45.0261 14.818 45.0261 14.8457 45.0243C14.8742 45.0224 14.9318 45.0171 14.9982 44.995C15.0674 44.9719 15.1709 44.9221 15.2544 44.8148C15.2827 44.7785 15.3045 44.7409 15.3211 44.7033C16.1301 43.4893 16.9291 42.2748 17.7267 41.0625C18.5328 39.8372 19.3379 38.6134 20.1536 37.3898C20.2419 37.2738 20.2644 37.1476 20.2674 37.0657C20.2711 36.9647 20.2493 36.871 20.2158 36.7928C20.1573 36.6564 19.9863 36.4196 19.6644 36.4196H17.8828L18.7099 34.9309C18.8404 34.7286 18.9101 34.5101 18.9112 34.2464L18.9517 32.4869L20.0559 34.672L20.9398 38.4137L20.5594 39.1546C20.2755 39.7074 19.9674 40.3139 19.6554 40.928C19.0599 42.1002 18.4502 43.2998 17.9694 44.205L17.9638 44.216C17.8845 44.3746 17.8487 44.6164 17.995 44.8358C18.14 45.0533 18.3727 45.1125 18.5407 45.1125H23.7701C23.955 45.1125 24.0847 45.0231 24.135 44.9854C24.1865 44.9468 24.2313 44.9018 24.2496 44.8834L24.2534 44.8796L24.3488 44.7842L24.3832 44.6537C24.6747 43.5504 25.1004 41.9816 25.4863 40.5595C25.8963 39.0486 26.2613 37.7033 26.3729 37.2569L26.4082 37.1157L26.3622 36.9776C26.3205 36.8524 26.2562 36.7413 26.181 36.6536C26.1438 36.6102 26.0956 36.5628 26.0358 36.522C25.9893 36.4903 25.8743 36.4196 25.715 36.4196H23.4843L23.0132 33.8285C23.0114 33.8127 23.0093 33.7989 23.0073 33.7879C23.0027 33.7622 22.9971 33.74 22.9926 33.7235C22.9862 33.7001 22.9789 33.6772 22.9738 33.6619V33.6197L21.1465 29.3155C21.2364 29.1639 21.245 29.0079 21.245 28.9241V26.0845C21.3123 26.1293 21.3902 26.1686 21.4799 26.1966L24.6016 27.6079L24.6106 27.6118C25.1538 27.8446 25.811 27.6141 26.1061 27.0977C26.2698 26.8112 26.2817 26.4831 26.1995 26.209C26.1198 25.9432 25.9342 25.6747 25.6335 25.5363L22.9765 24.1056C22.9401 24.0354 22.8911 23.9411 22.8329 23.8293C22.7024 23.5783 22.525 23.2385 22.3381 22.8836C21.971 22.1867 21.5483 21.3953 21.383 21.1356L21.371 21.1175C21.2981 21.0081 21.2063 20.8704 21.0762 20.7285C21.897 20.2867 22.4549 19.4195 22.4549 18.422C22.4549 16.9763 21.2829 15.8043 19.8372 15.8043C18.3915 15.8043 17.2195 16.9763 17.2195 18.422C17.2195 18.9433 17.3718 19.4289 17.6344 19.8368C17.537 19.8986 17.4079 19.9638 17.3233 20.0061C17.1486 20.0934 16.8306 20.3167 16.5672 20.5078C16.2882 20.7102 16.0112 20.9205 15.8947 21.0137L15.8846 21.0218L13.5411 23.1049ZM13.5411 23.1049L13.8733 23.4786M14.8456 23.9624L14.6698 24.1121V27.7572C14.6698 27.783 14.6577 27.8216 14.6218 27.8575C14.5859 27.8934 14.5473 27.9055 14.5216 27.9055C14.4727 27.9055 14.4306 27.8868 14.4041 27.8627C14.3801 27.8409 14.3733 27.8203 14.3733 27.8005V27.7861L14.1574 24.0294C14.1588 23.9895 14.1675 23.9471 14.1826 23.9083C14.1966 23.8724 14.2121 23.8494 14.2216 23.838L16.5292 21.7867C16.6355 21.7023 16.8908 21.5084 17.1544 21.3172C17.442 21.1086 17.6858 20.9429 17.7705 20.9005L17.7769 20.8973C17.7986 20.8865 17.8275 20.872 17.8612 20.8548C18.4137 21.3144 19.15 21.6016 19.9239 21.6016H20.0967C20.2179 21.6016 20.3464 21.5869 20.4672 21.5666C20.4908 21.6003 20.5152 21.6366 20.5419 21.6767C20.6816 21.8977 21.0773 22.6357 21.4533 23.3497C21.6392 23.7025 21.8157 24.0407 21.9458 24.2908C22.0108 24.4158 22.0642 24.5187 22.1014 24.5903L22.1592 24.7021M14.8456 23.9624L15.1698 24.343C14.8456 23.9624 14.8456 23.9624 14.8456 23.9624ZM14.8456 23.9624L15.0294 23.8055C15.1406 23.7105 15.2901 23.5825 15.4436 23.4506C15.5972 23.3185 15.7541 23.1831 15.8803 23.0729C15.9435 23.0177 15.9981 22.9697 16.0404 22.9319C16.0615 22.913 16.0788 22.8974 16.0921 22.8852L16.1077 22.8706C16.1114 22.8672 16.1129 22.8657 16.1129 22.8657L17.0926 21.886L16.9643 23.2656M16.9643 23.2656L16.4664 23.2193C16.9643 23.2656 16.9643 23.2656 16.9643 23.2656ZM16.9643 23.2656L16.8832 24.1392C16.8346 24.6645 16.7698 25.3666 16.705 26.0741C16.6402 26.7817 16.5754 27.4943 16.5268 28.0406C16.5026 28.3138 16.4824 28.5448 16.4683 28.7125C16.4681 28.7149 16.4679 28.7172 16.4677 28.7196L16.6754 28.685L16.9731 34.0449L14.173 39.5119L14.1533 39.5401C14.0875 39.6341 14.0815 39.718 14.1015 39.7907C14.1236 39.8711 14.1867 39.9647 14.3034 40.0347C14.4607 40.1291 14.6833 40.0949 14.8238 39.8666L17.8543 34.4117L17.8656 34.3949C17.899 34.3447 17.9112 34.3111 17.9112 34.24V34.2285L17.9978 30.4685L18.9439 30.2545L21.0019 34.3267L22.3141 39.8815L22.3158 39.89C22.3455 40.0388 22.5473 40.1809 22.7215 40.1461L22.7301 40.1443C22.9041 40.1127 23.072 39.917 23.0577 39.6631L22.0228 33.9712C22.0223 33.9696 22.0217 33.9679 22.0211 33.966C22.0167 33.953 22.0066 33.923 21.9981 33.8922C21.9959 33.8839 21.9934 33.8742 21.9909 33.8634L19.7735 28.6402H20.245V22.6484L21.1611 24.0224C21.2028 24.085 21.2637 24.2027 21.3149 24.3032C21.3733 24.418 21.4422 24.5571 21.5074 24.6903C21.5728 24.8239 21.6354 24.9531 21.6816 25.0489L21.737 25.1641L21.7423 25.1751C21.755 25.194 21.7652 25.2087 21.7751 25.2221C21.7832 25.2331 21.7894 25.2407 21.7938 25.2459L21.8176 25.2518L25.0071 26.6937C25.0697 26.7183 25.1878 26.6891 25.2378 26.6016C25.247 26.5856 25.2567 26.5464 25.2417 26.4963C25.2301 26.4578 25.2144 26.4452 25.2124 26.4435L25.1952 26.4361L22.2302 24.8396L22.1592 24.7021M22.1592 24.7021L22.6034 24.4726C22.1592 24.7021 22.1592 24.7022 22.1592 24.7021ZM31.5057 20.9041L31.5042 20.9041L31.5022 20.9041L31.498 20.9042L31.4891 20.9044C31.4829 20.9046 31.476 20.9049 31.4687 20.9055C31.4543 20.9065 31.4368 20.9083 31.4173 20.9116C31.3805 20.9178 31.3238 20.931 31.261 20.9624C31.1963 20.9948 31.1164 21.0512 31.0539 21.1451C31.0136 21.2054 30.9884 21.2696 30.975 21.3332L29.637 25.6149H28.5057V25.2752H29.6751L30.8651 21.2768L30.8678 21.2661C30.9362 20.9925 31.1932 20.7804 31.5496 20.7804H41.4035C41.6962 20.7804 41.9843 20.9774 42.0937 21.2961L43.2779 25.2752H44.4474V25.6581H43.1524L41.899 21.3605C41.8935 21.3152 41.8716 21.176 41.7516 21.0559C41.625 20.9294 41.4772 20.9119 41.4405 20.9079C41.4155 20.9051 41.3946 20.9045 41.3847 20.9043C41.38 20.9042 41.3754 20.9042 41.3713 20.9041C41.3664 20.9041 41.3623 20.9041 41.3602 20.9041L31.5057 20.9041ZM31.5057 20.9041C31.506 20.9041 31.5062 20.9041 31.5064 21.4041L31.5057 20.9041ZM33.8156 30.9126L33.8156 30.914L33.8156 30.9161L33.8157 30.9203L33.8159 30.9292C33.8161 30.9354 33.8164 30.9422 33.8169 30.9495C33.818 30.964 33.8198 30.9814 33.8231 31.001C33.8292 31.0378 33.8424 31.0945 33.8737 31.1573C33.8893 31.1884 33.9104 31.2232 33.9387 31.2578C33.9275 31.2713 33.9166 31.2859 33.9063 31.3015C33.8416 31.3985 33.8156 31.5054 33.8156 31.6037V31.8202M33.8156 30.9126C33.8156 30.9124 33.8156 30.9123 33.9364 30.9122L33.8156 30.9126ZM33.8156 30.9126V30.6961C33.8156 30.5978 33.8416 30.4909 33.9063 30.3938C33.969 30.2998 34.0489 30.2434 34.1136 30.211C34.1764 30.1797 34.2332 30.1665 34.27 30.1603C34.2896 30.1571 34.307 30.1553 34.3214 30.1542C34.3288 30.1537 34.3356 30.1534 34.3418 30.1532L34.3507 30.153L34.3549 30.1529L34.357 30.1529L34.3584 30.1529M34.3584 30.1529C34.3586 30.1529 34.3587 30.1529 34.3588 30.257L34.3584 30.1529ZM34.3584 30.1529H38.5942C38.6925 30.1529 38.7995 30.1789 38.8966 30.2436C38.9905 30.3062 39.0469 30.3862 39.0793 30.4509C39.1107 30.5137 39.1239 30.5704 39.13 30.6072C39.1333 30.6268 39.1351 30.6442 39.1361 30.6587C39.1366 30.666 39.137 30.6729 39.1372 30.6791L39.1374 30.688L39.1374 30.6922L39.1375 30.6942L39.1375 30.6957M39.1375 30.6957C39.1375 30.6959 39.1375 30.696 39.0153 30.6961L39.1375 30.6957ZM39.1375 30.6957V30.9122C39.1375 31.0105 39.1115 31.1174 39.0468 31.2144C39.0364 31.23 39.0256 31.2446 39.0144 31.2581C39.0426 31.2927 39.0638 31.3274 39.0793 31.3586C39.1107 31.4214 39.1239 31.4781 39.13 31.5149C39.1333 31.5345 39.1351 31.5519 39.1361 31.5663C39.1366 31.5737 39.137 31.5805 39.1372 31.5867L39.1374 31.5956L39.1374 31.5998L39.1375 31.6018L39.1375 31.6033M39.1375 31.6033C39.1375 31.6035 39.1375 31.6036 39.0153 31.6037L39.1375 31.6033ZM39.1375 31.6033V31.8198C39.1375 31.9181 39.1115 32.025 39.0467 32.1221C38.9841 32.2161 38.9042 32.2725 38.8394 32.3048C38.7766 32.3362 38.7199 32.3494 38.6831 32.3555C38.6635 32.3588 38.6461 32.3606 38.6316 32.3617C38.6243 32.3622 38.6175 32.3625 38.6113 32.3627L38.6023 32.3629L38.5981 32.363L38.5961 32.363L38.5946 32.363M38.5946 32.363C38.5945 32.363 38.5943 32.363 38.5942 32.2421L38.5946 32.363ZM38.5946 32.363H34.3588C34.2605 32.363 34.1536 32.337 34.0565 32.2723C33.9625 32.2096 33.9061 32.1297 33.8738 32.065C33.8424 32.0022 33.8292 31.9455 33.8231 31.9086C33.8198 31.8891 33.818 31.8716 33.8169 31.8572C33.8167 31.8542 33.8166 31.8513 33.8164 31.8485C33.8162 31.8444 33.816 31.8405 33.8159 31.8368L33.8157 31.8279L33.8156 31.8237L33.8156 31.8216L33.8156 31.8202M33.8156 31.8202C33.8156 31.82 33.8156 31.8199 33.9369 31.8198L33.8156 31.8202ZM38.5943 31.6037C38.5943 31.6037 38.5943 31.6037 38.5943 31.6037ZM38.5943 31.6037L38.6375 31.6037M18.2195 18.422C18.2195 17.5286 18.9438 16.8043 19.8372 16.8043C20.7307 16.8043 21.4549 17.5286 21.4549 18.422C21.4549 19.3155 20.7307 20.0397 19.8372 20.0397C18.9438 20.0397 18.2195 19.3155 18.2195 18.422ZM20.245 28.9241C20.245 28.9318 20.2444 28.9317 20.245 28.9241ZM15.679 24.5658C15.7301 24.5221 15.7893 24.4715 15.8533 24.4167C15.8104 24.881 15.7598 25.4303 15.7092 25.9829C15.696 26.1265 15.6829 26.2703 15.6698 26.4129V24.5736L15.679 24.5658ZM20.5537 41.3676C20.656 41.1663 20.7577 40.9661 20.8581 40.7688C21.2017 41.4389 21.8927 41.8711 22.6897 41.8711C22.7522 41.8711 22.8064 41.8633 22.8467 41.8558C22.8834 41.8489 22.9178 41.8403 22.9375 41.8353L22.9407 41.8345C22.9544 41.8311 22.9626 41.8291 22.968 41.8278H23.0039L23.0575 41.8159C23.516 41.714 24.0191 41.4573 24.3304 41.0006C24.034 42.0936 23.7301 43.2166 23.4921 44.1125H19.148C19.576 43.2921 20.0711 42.3176 20.5537 41.3676ZM25.2977 37.4196C25.1678 37.9114 24.9588 38.6844 24.7191 39.568C24.7124 39.5164 24.7036 39.465 24.6926 39.4141L24.3269 37.4196H25.2977ZM31.5496 19.7804C30.7862 19.7804 30.0956 20.255 29.9006 21.0119L28.9294 24.2752H28.4811C27.9456 24.2752 27.5057 24.7151 27.5057 25.2506V25.6395C27.5057 25.9443 27.6482 26.2182 27.8698 26.3975C27.3035 27.0665 26.9871 27.901 26.9871 28.8377V28.8707L27.463 32.4618C27.4823 33.1382 28.0288 33.746 28.7836 33.746H28.8886V34.7385C28.8307 35.5367 29.4931 36.0798 30.1665 36.0798H30.8148C31.5059 36.0798 32.1359 35.5272 32.1359 34.7586V33.746H40.8168V34.7385C40.7902 35.1038 40.9104 35.4444 41.1511 35.6943C41.3947 35.9473 41.7345 36.0798 42.0947 36.0798H42.743C43.434 36.0798 44.0641 35.5272 44.0641 34.7586V33.746H44.1694C44.8494 33.746 45.4705 33.2108 45.4901 32.4614L45.966 28.8707V28.8377C45.966 27.9355 45.6296 27.0929 45.0915 26.434C45.3083 26.2546 45.4474 25.9838 45.4474 25.6828V25.2506C45.4474 24.7151 45.0074 24.2752 44.472 24.2752H44.0237L43.0472 20.9944L43.0447 20.9867C42.8065 20.2722 42.1459 19.7804 41.4035 19.7804H31.5496ZM29.8886 34.0917H31.1359V34.7586C31.1359 34.9409 30.9881 35.0798 30.8148 35.0798H30.1665C30.082 35.0798 30.0042 35.0453 29.9528 34.9939C29.9063 34.9474 29.879 34.8861 29.8865 34.8039L29.8886 34.7813V34.0917ZM41.8168 34.0917H43.0641V34.7586C43.0641 34.9409 42.9163 35.0798 42.743 35.0798H42.0947C41.9795 35.0798 41.9087 35.0394 41.8714 35.0007C41.8367 34.9646 41.8056 34.9046 41.8147 34.8039L41.8168 34.7813V34.0917ZM43.3375 26.2927L43.3142 26.2127L43.7864 26.5607C44.4831 27.0741 44.9549 27.9104 44.9658 28.8062L44.4906 32.3918V32.4248C44.4906 32.6071 44.3428 32.746 44.1694 32.746H28.7836C28.6014 32.746 28.4625 32.5982 28.4625 32.4248V32.3918L27.9872 28.8059C27.9968 27.8663 28.4293 27.0751 29.2039 26.5218L29.6376 26.212L30.2647 26.0866C30.4275 26.054 30.5563 26.0531 30.7285 26.0531H42.0517C42.2808 26.0531 42.3899 26.0558 42.4923 26.0814L43.3375 26.2927ZM41.9343 25.0531H30.8602L31.8443 21.9041H41.0158L41.9343 25.0531ZM41.3692 21.9042C41.3692 21.9042 41.3679 21.9042 41.3655 21.9041L41.3692 21.9042ZM29.9751 29.5046V29.1648H31.8708V29.5046H29.9751ZM29.9505 28.1648C29.4151 28.1648 28.9751 28.6047 28.9751 29.1402V29.5292C28.9751 30.0647 29.4151 30.5046 29.9505 30.5046H31.8954C32.4308 30.5046 32.8708 30.0647 32.8708 29.5292V29.1402C32.8708 28.6048 32.4308 28.1648 31.8954 28.1648H29.9505ZM41.0391 29.5046V29.1648H42.9347V29.5046H41.0391ZM41.0145 28.1648C40.479 28.1648 40.0391 28.6048 40.0391 29.1402V29.5292C40.0391 30.0647 40.479 30.5046 41.0145 30.5046H42.9593C43.4948 30.5046 43.9347 30.0647 43.9347 29.5292V29.1402C43.9347 28.6048 43.4948 28.1648 42.9593 28.1648H41.0145ZM34.3588 30.9122C34.3588 30.9122 34.3588 30.9122 34.3588 30.9122ZM44.1771 36.6092C44.17 36.6022 44.1511 36.5831 44.1323 36.5661C44.1124 36.5482 44.0681 36.5098 44.0038 36.4777C43.931 36.4413 43.8633 36.4278 43.8124 36.4227C43.7773 36.4192 43.7421 36.4195 43.7371 36.4196H40.366C40.0925 36.4196 39.906 36.5981 39.8239 36.7417C39.7773 36.8232 39.7257 36.9574 39.7499 37.1205C39.7675 37.2393 39.8209 37.3424 39.897 37.4222C40.2417 37.9596 41.1162 39.2763 42.0811 40.7291C43.0179 42.1396 44.0399 43.6783 44.7448 44.7564L44.7731 44.7998L44.8097 44.8364L44.8118 44.8385C44.82 44.8467 44.8373 44.864 44.8545 44.8795C44.8744 44.8974 44.9187 44.9358 44.983 44.9679C45.0558 45.0043 45.1235 45.0178 45.1744 45.0229C45.2115 45.0266 45.2482 45.026 45.2497 45.026H50.3723C50.4773 45.0446 50.5967 45.0358 50.715 44.9766C50.8865 44.8908 50.9701 44.7414 51.0032 44.6256C51.0672 44.4016 50.9948 44.1706 50.8457 44.0129C48.6395 41.5472 44.6263 37.1025 44.1935 36.6264L44.1855 36.6176L44.1771 36.6092ZM43.5628 37.4196C44.2722 38.2029 47.3945 41.6617 49.5149 44.026H45.4619C44.7531 42.9446 43.7866 41.4894 42.9009 40.1559C42.184 39.0767 41.5201 38.0771 41.0885 37.4196H43.5628ZM16.2569 40.6597L18.057 37.4196H18.9327C18.2478 38.451 17.569 39.4828 16.8913 40.5128C16.1202 41.6849 15.35 42.8556 14.5707 44.026H10.438C10.8521 43.5672 11.2626 43.1119 11.673 42.6567C12.1387 42.1402 12.6043 41.6238 13.0751 41.1022C13.1904 41.2133 13.3256 41.3187 13.4909 41.4137C13.7683 41.5791 14.1136 41.6982 14.4782 41.6982C15.2152 41.6982 15.9053 41.3026 16.2559 40.6616C16.2562 40.6609 16.2566 40.6603 16.2569 40.6597ZM28.2648 36.4196C28.1116 36.4196 27.9719 36.4812 27.8715 36.5616C27.762 36.6491 27.6493 36.801 27.6364 37.0096C27.5438 37.7941 27.0314 42.0207 26.7316 44.3765L26.7276 44.4079V44.4396C26.7276 44.56 26.758 44.7421 26.9065 44.8905C27.055 45.0389 27.237 45.0692 27.3573 45.0692H32.5867C32.7069 45.0692 32.889 45.0389 33.0374 44.8904C33.1859 44.742 33.2163 44.5599 33.2163 44.4396V44.4079L33.2123 44.3765C32.9204 42.0829 32.427 38.0162 32.3158 37.0789C32.3227 37.0258 32.3226 36.9692 32.3128 36.9103C32.2899 36.7731 32.2217 36.6687 32.1515 36.5984C32.03 36.4769 31.8676 36.4196 31.7223 36.4196H28.2648ZM27.7785 44.0692C28.0534 41.8899 28.4555 38.5814 28.5946 37.4196H31.3493C31.4884 38.5814 31.8905 41.8899 32.1654 44.0692H27.7785ZM33.759 36.6962C33.6704 36.829 33.6425 36.975 33.6425 37.0925V37.154L33.6575 37.2137C33.769 37.66 34.134 39.0051 34.544 40.5157C34.925 41.9198 35.3449 43.467 35.636 44.568C35.6848 44.9447 36.0554 45.0692 36.2603 45.0692H41.4897C41.6897 45.0692 41.8707 44.9751 41.9872 44.8354C42.1152 44.6819 42.1941 44.4277 42.0666 44.1728L42.0634 44.1665C41.3688 42.8252 40.3699 40.8488 39.5707 39.2677C38.9897 38.1182 38.5143 37.1776 38.3382 36.8419C38.2517 36.5266 37.9197 36.4196 37.7297 36.4196H34.2722C34.035 36.4196 33.8574 36.5486 33.759 36.6962ZM35.5025 40.2295C35.1922 39.0864 34.9094 38.0442 34.7441 37.4196H37.5117C37.716 37.8144 38.1471 38.6675 38.6662 39.6949C39.3599 41.0676 40.2108 42.7514 40.8881 44.0692H36.5383C36.2469 42.9724 35.8568 41.5352 35.5025 40.2295Z" stroke="#E9FD57" stroke-width="0.1"/>
</g>
<defs>
<clipPath id="clip0_1853:420">
<rect width="41.0526" height="40" fill="white" transform="translate(9.47363 10.4584)"/>
</clipPath>
</defs>
</svg>
