<svg width="60" height="61" viewBox="0 0 60 61" fill="none" xmlns="http://www.w3.org/2000/svg">
<circle cx="30" cy="30.0651" r="30" fill="#2B1F2E"/>
<mask id="path-2-outside-1_1853:718" maskUnits="userSpaceOnUse" x="15.002" y="12.1467" width="29" height="36" fill="black">
<rect fill="white" x="15.002" y="12.1467" width="29" height="36"/>
<path fill-rule="evenodd" clip-rule="evenodd" d="M27.3913 41.8671L27.7998 40.3908H31.4239L31.8324 41.8671H27.3913ZM24.9121 46.9843H34.3133L32.2264 39.4273H32.2258L32.1741 39.2403H27.052L27.0003 39.4273H27L24.9121 46.9843ZM28.0626 37.9335L27.123 38.3393L25.4792 35.0179L25.3974 35.0286C25.0491 35.0742 24.6988 35.1201 24.3474 35.1221C24.1606 35.122 23.9752 35.1161 23.7914 35.1047C19.4474 34.8348 16.002 31.4508 16.002 27.3268C16.0046 24.4665 17.6946 21.9242 20.2722 20.5794C20.5231 20.4485 20.7824 20.329 21.0494 20.2216L21.0504 20.2212C21.3561 20.0982 21.672 19.9912 21.9967 19.9014C22.0196 19.5627 22.0671 19.2303 22.1375 18.9057L22.1418 18.8863C22.2011 18.6168 22.2762 18.3527 22.3663 18.095C23.3686 15.227 26.217 13.1485 29.6106 13.1467H29.6117C33.0026 13.1481 35.8474 15.2198 36.8546 18.0796C36.9444 18.3346 37.0196 18.5959 37.0793 18.8626L37.0874 18.8993C37.1588 19.2266 37.2068 19.5619 37.2297 19.9035C37.5466 19.9914 37.855 20.0957 38.1538 20.2151L38.1765 20.2242C38.4366 20.3289 38.6894 20.4451 38.9342 20.5721C41.5211 21.9141 43.2198 24.4571 43.2236 27.3231V27.3277C43.2235 29.3569 42.3893 31.2071 41.0244 32.5952C40.7434 32.881 40.4399 33.1472 40.1165 33.3913C38.8134 34.3751 37.1878 35.0006 35.4133 35.1059C35.2372 35.1163 35.0597 35.1216 34.8809 35.1217H34.8786C34.4969 35.1195 34.1171 35.071 33.7372 35.02L32.0602 38.3767L31.1251 37.9688L31.1845 37.8499L31.0948 37.8108L33.0548 33.8853L33.4454 33.9549C33.5556 33.9746 33.6664 33.9919 33.7776 34.0069C34.107 34.0512 34.4402 34.0745 34.7734 34.0746H34.7786C35.9694 34.0741 37.0915 33.8035 38.0787 33.3247C39.1856 32.7878 40.1227 31.989 40.7965 31.0157C41.5204 29.97 41.9403 28.7223 41.9403 27.3817L41.9403 27.3776C41.9339 24.4136 39.851 21.8232 36.8356 20.9779C36.7318 20.9488 36.6269 20.9218 36.5209 20.8969L36.1464 20.8123L36.1393 20.4475C36.1379 20.3544 36.1343 20.2618 36.1286 20.1697C35.9284 16.9585 33.0891 14.4308 29.6111 14.4283C26.1368 14.4304 23.2962 16.9585 23.0962 20.1679C23.0904 20.2597 23.0869 20.3521 23.0855 20.445L23.0802 20.8073L22.7017 20.8944C22.5965 20.9191 22.4925 20.9459 22.3895 20.9747C19.3712 21.8198 17.2866 24.4162 17.284 27.3829C17.2845 31.0835 20.4858 34.0721 24.4475 34.0746L24.4532 34.0746C24.7833 34.0745 25.1148 34.0526 25.4429 34.0084C25.5555 33.9932 25.6678 33.9754 25.7794 33.9549L26.1682 33.8853L28.0934 37.7762L28.0039 37.8148L28.0626 37.9335ZM28.1922 25.1406C28.5943 24.4113 29.3047 23.8587 30.1588 23.6512C30.399 23.5928 30.6506 23.5618 30.9099 23.5618C31.6915 23.5618 32.404 23.8434 32.9466 24.3042C33.2206 24.5369 33.4512 24.8153 33.6256 25.1263C33.7637 25.3727 33.8665 25.6396 33.9274 25.9204C33.9626 26.0827 33.9838 26.2496 33.9898 26.4199C33.9909 26.4529 33.9915 26.4862 33.9915 26.5195C33.9915 26.6506 33.9825 26.78 33.965 26.9069C33.9604 26.9405 33.955 26.975 33.9492 27.0083C33.9391 27.0657 33.9273 27.1225 33.9139 27.1788C33.9013 27.2314 33.8872 27.2836 33.8717 27.3352C33.8666 27.3522 33.8613 27.3691 33.8559 27.386L33.8536 27.3932C33.8327 27.4575 33.8096 27.521 33.7844 27.5834C33.688 27.822 33.5602 28.046 33.4058 28.2506L33.4044 28.2525C33.0241 28.7558 32.483 29.1417 31.8529 29.3372C31.7883 29.3583 31.7227 29.3774 31.6562 29.3944C31.5692 29.4166 31.4806 29.4351 31.3906 29.4498C31.2259 29.4767 31.0566 29.4908 30.8838 29.4908C30.8569 29.4908 30.83 29.4904 30.8032 29.4897C30.46 29.481 30.1315 29.4168 29.8267 29.3063C29.2023 29.0798 28.6771 28.6592 28.3287 28.1234C28.1602 27.8731 28.03 27.5972 27.9457 27.3038C27.8739 27.0535 27.8355 26.7904 27.8355 26.5195C27.8355 26.5018 27.8357 26.4842 27.836 26.4666C27.8394 26.28 27.8611 26.0974 27.8994 25.9202C27.9589 25.645 28.0585 25.383 28.1922 25.1406ZM32.1488 28.109C32.2634 28.0184 32.3675 27.9157 32.459 27.8026L32.4612 27.7998C32.5767 27.6566 32.672 27.4968 32.743 27.3244L32.7498 27.3076C32.7948 27.1954 32.8294 27.078 32.8527 26.9563L32.8531 26.9541C32.8644 26.8949 32.8729 26.8347 32.8786 26.7736C32.8843 26.7132 32.8872 26.652 32.8872 26.59C32.8872 26.4897 32.8796 26.3914 32.865 26.2955C32.7975 25.8528 32.5801 25.462 32.2656 25.171C31.9289 24.8594 31.4808 24.6621 30.9862 24.6381C30.9523 24.6364 30.9182 24.6356 30.8838 24.6356C30.1079 24.6356 29.4323 25.063 29.1005 25.6972C28.9682 25.9502 28.8905 26.236 28.8829 26.5408C28.8825 26.5571 28.8823 26.5735 28.8823 26.59C28.8823 26.7248 28.896 26.856 28.922 26.9824C29.0913 27.6881 29.64 28.2402 30.3427 28.4362C30.5229 28.4864 30.7132 28.5133 30.9099 28.5133C31.1299 28.5133 31.342 28.4797 31.5409 28.4175C31.698 28.3683 31.8469 28.3011 31.9848 28.2184C32.0414 28.1845 32.0961 28.148 32.1488 28.109ZM37.9633 29.3663V30.3302H34.7254L34.7253 30.3247H34.6232L34.6225 30.2797C34.6205 30.1535 34.6185 30.0338 34.6232 29.9171L34.6246 29.8864C34.6308 29.7662 34.6446 29.6488 34.6734 29.5302C34.7051 29.3996 34.755 29.2675 34.8326 29.1286C34.928 28.9583 35.0604 28.8196 35.2128 28.6997C35.2653 28.6583 35.3203 28.6191 35.3769 28.5817C35.4196 28.5534 35.4632 28.5261 35.5075 28.4996C35.5456 28.4767 35.5842 28.4544 35.6231 28.4325C35.71 28.3835 35.7984 28.3365 35.886 28.2899L35.8861 28.2899L35.9717 28.2443C36.0213 28.2178 36.0703 28.1912 36.1186 28.1643L36.1341 28.1552L36.1448 28.1489L36.147 28.1476L36.1684 28.1349C36.3145 28.048 36.471 27.9478 36.5747 27.8184L36.5833 27.8075C36.5958 27.7912 36.6075 27.7745 36.6182 27.7572C36.6451 27.7139 36.6659 27.6676 36.6787 27.6177C36.6872 27.5843 36.6922 27.5494 36.6931 27.5127C36.7016 27.4684 36.7001 27.4265 36.6905 27.3875L36.6898 27.3849C36.6871 27.3744 36.6838 27.364 36.68 27.3539L36.6769 27.3462C36.6739 27.3389 36.6706 27.3317 36.6671 27.3247C36.5923 27.177 36.3976 27.0819 36.2203 27.0695C36.202 27.0683 36.1832 27.0681 36.1642 27.069L36.1482 27.0699C36.0995 27.0735 36.0496 27.0838 36.0008 27.1002C35.9949 27.1037 35.9891 27.1074 35.9834 27.1111L35.9812 27.1125C35.9762 27.1158 35.9712 27.1192 35.9662 27.1226C35.9639 27.1242 35.9616 27.1258 35.9593 27.1275C35.9214 27.1546 35.8865 27.186 35.8565 27.2214L35.8554 27.2226C35.8439 27.2362 35.833 27.2505 35.823 27.2653L35.8204 27.2691C35.8116 27.2823 35.8035 27.296 35.7961 27.31C35.7941 27.3137 35.7922 27.3174 35.7904 27.3212C35.7885 27.3249 35.7867 27.3287 35.7849 27.3326C35.7699 27.3651 35.7587 27.3997 35.7518 27.4363C35.749 27.4516 35.7469 27.4672 35.7456 27.4831H35.6302C35.6299 27.4849 35.6295 27.4867 35.6292 27.4885C35.6264 27.5035 35.6243 27.5188 35.6231 27.5344H34.6232L34.6652 27.1588C34.6666 27.1466 34.6682 27.1345 34.67 27.1225C34.7018 26.9178 34.8033 26.7383 34.9489 26.59C34.9793 26.559 35.0117 26.5294 35.0457 26.5011L35.0466 26.5004C35.0545 26.4939 35.0625 26.4874 35.0706 26.481C35.0839 26.4705 35.0973 26.4603 35.111 26.4502C35.1231 26.4414 35.1353 26.4327 35.1478 26.4242C35.1754 26.4052 35.2038 26.3871 35.2329 26.3698C35.242 26.3632 35.2513 26.3567 35.2606 26.3503C35.405 26.2511 35.5711 26.1738 35.7456 26.1216C35.8275 26.0971 35.9111 26.0781 35.9953 26.0649C36.095 26.0493 36.1953 26.0419 36.294 26.0432C36.3361 26.043 36.3783 26.0444 36.4204 26.0472L36.4223 26.0473C36.6373 26.0622 36.8504 26.116 37.0445 26.2048C37.1093 26.2344 37.1719 26.2679 37.2319 26.3052C37.4085 26.415 37.5613 26.5572 37.6741 26.728C37.7856 26.8941 37.8474 27.0791 37.8668 27.2691C37.8741 27.3404 37.8754 27.4125 37.8712 27.4845C37.8679 27.5395 37.8614 27.5946 37.8518 27.6493L37.8505 27.6564C37.7999 27.9367 37.6682 28.2072 37.4791 28.4228C37.4215 28.4903 37.3588 28.5518 37.2924 28.6088C37.1278 28.7498 36.94 28.8629 36.7484 28.9717L36.7292 28.9826L36.6405 29.0326L36.5813 29.0659C36.5342 29.0924 36.4871 29.1192 36.4405 29.1464C36.3584 29.1943 36.2775 29.2438 36.1994 29.2967L36.1947 29.2999C36.163 29.3214 36.1319 29.3435 36.1013 29.3663H37.9633ZM26.1396 27.5228L27.041 27.9925C27.0388 27.9961 27.0366 27.9998 27.0343 28.0035L27.0921 28.0336C27.0862 28.0435 27.0803 28.0533 27.0743 28.0631C27.0701 28.0698 27.0659 28.0766 27.0617 28.0833C26.9957 28.1887 26.9233 28.2891 26.8453 28.3841C26.7145 28.5434 26.5677 28.6878 26.408 28.8156C26.3407 28.8696 26.271 28.9206 26.1993 28.9686C26.0529 29.0665 25.8979 29.1517 25.7364 29.2234C25.6722 29.2519 25.6069 29.2782 25.5408 29.3023C25.4497 29.3355 25.3569 29.3645 25.2627 29.3891C24.8875 29.4873 24.49 29.5164 24.0909 29.4668C23.9929 29.4581 23.8947 29.4448 23.7965 29.4268L23.7938 29.4263L23.7698 29.4218C22.4793 29.1727 21.4994 28.1642 21.322 26.9244L21.3218 26.9231L21.319 26.9026C21.1482 25.655 21.8195 24.4345 23.0037 23.8696C23.0197 23.862 23.0357 23.8546 23.0517 23.8472L23.0535 23.8464C23.4889 23.6482 23.9585 23.5569 24.4235 23.5657C24.575 23.5685 24.7261 23.582 24.8752 23.6059L24.9115 23.6119C25.0971 23.6437 25.2797 23.6917 25.4568 23.7554C25.7749 23.8699 26.0751 24.0352 26.3432 24.2488C26.3988 24.2931 26.4531 24.3395 26.5058 24.3879C26.5223 24.4031 26.5387 24.4185 26.555 24.4341L26.5243 24.4619C26.5388 24.4748 26.5533 24.4878 26.5677 24.501C26.5839 24.5159 26.5999 24.531 26.6159 24.5463L25.8905 25.2024C25.679 24.9983 25.4315 24.8478 25.1664 24.7535C25.054 24.7135 24.9381 24.6835 24.8209 24.6638C24.7051 24.6444 24.5876 24.635 24.4698 24.6358C24.1736 24.6378 23.8751 24.704 23.5957 24.8372C23.5801 24.8447 23.5645 24.8523 23.5491 24.8601C22.8146 25.2321 22.3852 26.0156 22.4859 26.8284L22.4861 26.8301L22.4887 26.85C22.5926 27.6103 23.1406 28.2253 23.8682 28.4514C23.8964 28.4584 23.9248 28.4648 23.9534 28.4707L23.9789 28.4757C24.2841 28.5351 24.5903 28.5253 24.8782 28.4541C24.9453 28.4376 25.0113 28.4177 25.0761 28.3946C25.418 28.2726 25.7254 28.061 25.9619 27.7747C26.0267 27.6962 26.0862 27.6122 26.1396 27.5228ZM26.3361 45.7022H32.89L32.164 43.0712H27.0596L26.3361 45.7022Z"/>
</mask>
<path fill-rule="evenodd" clip-rule="evenodd" d="M27.3913 41.8671L27.7998 40.3908H31.4239L31.8324 41.8671H27.3913ZM24.9121 46.9843H34.3133L32.2264 39.4273H32.2258L32.1741 39.2403H27.052L27.0003 39.4273H27L24.9121 46.9843ZM28.0626 37.9335L27.123 38.3393L25.4792 35.0179L25.3974 35.0286C25.0491 35.0742 24.6988 35.1201 24.3474 35.1221C24.1606 35.122 23.9752 35.1161 23.7914 35.1047C19.4474 34.8348 16.002 31.4508 16.002 27.3268C16.0046 24.4665 17.6946 21.9242 20.2722 20.5794C20.5231 20.4485 20.7824 20.329 21.0494 20.2216L21.0504 20.2212C21.3561 20.0982 21.672 19.9912 21.9967 19.9014C22.0196 19.5627 22.0671 19.2303 22.1375 18.9057L22.1418 18.8863C22.2011 18.6168 22.2762 18.3527 22.3663 18.095C23.3686 15.227 26.217 13.1485 29.6106 13.1467H29.6117C33.0026 13.1481 35.8474 15.2198 36.8546 18.0796C36.9444 18.3346 37.0196 18.5959 37.0793 18.8626L37.0874 18.8993C37.1588 19.2266 37.2068 19.5619 37.2297 19.9035C37.5466 19.9914 37.855 20.0957 38.1538 20.2151L38.1765 20.2242C38.4366 20.3289 38.6894 20.4451 38.9342 20.5721C41.5211 21.9141 43.2198 24.4571 43.2236 27.3231V27.3277C43.2235 29.3569 42.3893 31.2071 41.0244 32.5952C40.7434 32.881 40.4399 33.1472 40.1165 33.3913C38.8134 34.3751 37.1878 35.0006 35.4133 35.1059C35.2372 35.1163 35.0597 35.1216 34.8809 35.1217H34.8786C34.4969 35.1195 34.1171 35.071 33.7372 35.02L32.0602 38.3767L31.1251 37.9688L31.1845 37.8499L31.0948 37.8108L33.0548 33.8853L33.4454 33.9549C33.5556 33.9746 33.6664 33.9919 33.7776 34.0069C34.107 34.0512 34.4402 34.0745 34.7734 34.0746H34.7786C35.9694 34.0741 37.0915 33.8035 38.0787 33.3247C39.1856 32.7878 40.1227 31.989 40.7965 31.0157C41.5204 29.97 41.9403 28.7223 41.9403 27.3817L41.9403 27.3776C41.9339 24.4136 39.851 21.8232 36.8356 20.9779C36.7318 20.9488 36.6269 20.9218 36.5209 20.8969L36.1464 20.8123L36.1393 20.4475C36.1379 20.3544 36.1343 20.2618 36.1286 20.1697C35.9284 16.9585 33.0891 14.4308 29.6111 14.4283C26.1368 14.4304 23.2962 16.9585 23.0962 20.1679C23.0904 20.2597 23.0869 20.3521 23.0855 20.445L23.0802 20.8073L22.7017 20.8944C22.5965 20.9191 22.4925 20.9459 22.3895 20.9747C19.3712 21.8198 17.2866 24.4162 17.284 27.3829C17.2845 31.0835 20.4858 34.0721 24.4475 34.0746L24.4532 34.0746C24.7833 34.0745 25.1148 34.0526 25.4429 34.0084C25.5555 33.9932 25.6678 33.9754 25.7794 33.9549L26.1682 33.8853L28.0934 37.7762L28.0039 37.8148L28.0626 37.9335ZM28.1922 25.1406C28.5943 24.4113 29.3047 23.8587 30.1588 23.6512C30.399 23.5928 30.6506 23.5618 30.9099 23.5618C31.6915 23.5618 32.404 23.8434 32.9466 24.3042C33.2206 24.5369 33.4512 24.8153 33.6256 25.1263C33.7637 25.3727 33.8665 25.6396 33.9274 25.9204C33.9626 26.0827 33.9838 26.2496 33.9898 26.4199C33.9909 26.4529 33.9915 26.4862 33.9915 26.5195C33.9915 26.6506 33.9825 26.78 33.965 26.9069C33.9604 26.9405 33.955 26.975 33.9492 27.0083C33.9391 27.0657 33.9273 27.1225 33.9139 27.1788C33.9013 27.2314 33.8872 27.2836 33.8717 27.3352C33.8666 27.3522 33.8613 27.3691 33.8559 27.386L33.8536 27.3932C33.8327 27.4575 33.8096 27.521 33.7844 27.5834C33.688 27.822 33.5602 28.046 33.4058 28.2506L33.4044 28.2525C33.0241 28.7558 32.483 29.1417 31.8529 29.3372C31.7883 29.3583 31.7227 29.3774 31.6562 29.3944C31.5692 29.4166 31.4806 29.4351 31.3906 29.4498C31.2259 29.4767 31.0566 29.4908 30.8838 29.4908C30.8569 29.4908 30.83 29.4904 30.8032 29.4897C30.46 29.481 30.1315 29.4168 29.8267 29.3063C29.2023 29.0798 28.6771 28.6592 28.3287 28.1234C28.1602 27.8731 28.03 27.5972 27.9457 27.3038C27.8739 27.0535 27.8355 26.7904 27.8355 26.5195C27.8355 26.5018 27.8357 26.4842 27.836 26.4666C27.8394 26.28 27.8611 26.0974 27.8994 25.9202C27.9589 25.645 28.0585 25.383 28.1922 25.1406ZM32.1488 28.109C32.2634 28.0184 32.3675 27.9157 32.459 27.8026L32.4612 27.7998C32.5767 27.6566 32.672 27.4968 32.743 27.3244L32.7498 27.3076C32.7948 27.1954 32.8294 27.078 32.8527 26.9563L32.8531 26.9541C32.8644 26.8949 32.8729 26.8347 32.8786 26.7736C32.8843 26.7132 32.8872 26.652 32.8872 26.59C32.8872 26.4897 32.8796 26.3914 32.865 26.2955C32.7975 25.8528 32.5801 25.462 32.2656 25.171C31.9289 24.8594 31.4808 24.6621 30.9862 24.6381C30.9523 24.6364 30.9182 24.6356 30.8838 24.6356C30.1079 24.6356 29.4323 25.063 29.1005 25.6972C28.9682 25.9502 28.8905 26.236 28.8829 26.5408C28.8825 26.5571 28.8823 26.5735 28.8823 26.59C28.8823 26.7248 28.896 26.856 28.922 26.9824C29.0913 27.6881 29.64 28.2402 30.3427 28.4362C30.5229 28.4864 30.7132 28.5133 30.9099 28.5133C31.1299 28.5133 31.342 28.4797 31.5409 28.4175C31.698 28.3683 31.8469 28.3011 31.9848 28.2184C32.0414 28.1845 32.0961 28.148 32.1488 28.109ZM37.9633 29.3663V30.3302H34.7254L34.7253 30.3247H34.6232L34.6225 30.2797C34.6205 30.1535 34.6185 30.0338 34.6232 29.9171L34.6246 29.8864C34.6308 29.7662 34.6446 29.6488 34.6734 29.5302C34.7051 29.3996 34.755 29.2675 34.8326 29.1286C34.928 28.9583 35.0604 28.8196 35.2128 28.6997C35.2653 28.6583 35.3203 28.6191 35.3769 28.5817C35.4196 28.5534 35.4632 28.5261 35.5075 28.4996C35.5456 28.4767 35.5842 28.4544 35.6231 28.4325C35.71 28.3835 35.7984 28.3365 35.886 28.2899L35.8861 28.2899L35.9717 28.2443C36.0213 28.2178 36.0703 28.1912 36.1186 28.1643L36.1341 28.1552L36.1448 28.1489L36.147 28.1476L36.1684 28.1349C36.3145 28.048 36.471 27.9478 36.5747 27.8184L36.5833 27.8075C36.5958 27.7912 36.6075 27.7745 36.6182 27.7572C36.6451 27.7139 36.6659 27.6676 36.6787 27.6177C36.6872 27.5843 36.6922 27.5494 36.6931 27.5127C36.7016 27.4684 36.7001 27.4265 36.6905 27.3875L36.6898 27.3849C36.6871 27.3744 36.6838 27.364 36.68 27.3539L36.6769 27.3462C36.6739 27.3389 36.6706 27.3317 36.6671 27.3247C36.5923 27.177 36.3976 27.0819 36.2203 27.0695C36.202 27.0683 36.1832 27.0681 36.1642 27.069L36.1482 27.0699C36.0995 27.0735 36.0496 27.0838 36.0008 27.1002C35.9949 27.1037 35.9891 27.1074 35.9834 27.1111L35.9812 27.1125C35.9762 27.1158 35.9712 27.1192 35.9662 27.1226C35.9639 27.1242 35.9616 27.1258 35.9593 27.1275C35.9214 27.1546 35.8865 27.186 35.8565 27.2214L35.8554 27.2226C35.8439 27.2362 35.833 27.2505 35.823 27.2653L35.8204 27.2691C35.8116 27.2823 35.8035 27.296 35.7961 27.31C35.7941 27.3137 35.7922 27.3174 35.7904 27.3212C35.7885 27.3249 35.7867 27.3287 35.7849 27.3326C35.7699 27.3651 35.7587 27.3997 35.7518 27.4363C35.749 27.4516 35.7469 27.4672 35.7456 27.4831H35.6302C35.6299 27.4849 35.6295 27.4867 35.6292 27.4885C35.6264 27.5035 35.6243 27.5188 35.6231 27.5344H34.6232L34.6652 27.1588C34.6666 27.1466 34.6682 27.1345 34.67 27.1225C34.7018 26.9178 34.8033 26.7383 34.9489 26.59C34.9793 26.559 35.0117 26.5294 35.0457 26.5011L35.0466 26.5004C35.0545 26.4939 35.0625 26.4874 35.0706 26.481C35.0839 26.4705 35.0973 26.4603 35.111 26.4502C35.1231 26.4414 35.1353 26.4327 35.1478 26.4242C35.1754 26.4052 35.2038 26.3871 35.2329 26.3698C35.242 26.3632 35.2513 26.3567 35.2606 26.3503C35.405 26.2511 35.5711 26.1738 35.7456 26.1216C35.8275 26.0971 35.9111 26.0781 35.9953 26.0649C36.095 26.0493 36.1953 26.0419 36.294 26.0432C36.3361 26.043 36.3783 26.0444 36.4204 26.0472L36.4223 26.0473C36.6373 26.0622 36.8504 26.116 37.0445 26.2048C37.1093 26.2344 37.1719 26.2679 37.2319 26.3052C37.4085 26.415 37.5613 26.5572 37.6741 26.728C37.7856 26.8941 37.8474 27.0791 37.8668 27.2691C37.8741 27.3404 37.8754 27.4125 37.8712 27.4845C37.8679 27.5395 37.8614 27.5946 37.8518 27.6493L37.8505 27.6564C37.7999 27.9367 37.6682 28.2072 37.4791 28.4228C37.4215 28.4903 37.3588 28.5518 37.2924 28.6088C37.1278 28.7498 36.94 28.8629 36.7484 28.9717L36.7292 28.9826L36.6405 29.0326L36.5813 29.0659C36.5342 29.0924 36.4871 29.1192 36.4405 29.1464C36.3584 29.1943 36.2775 29.2438 36.1994 29.2967L36.1947 29.2999C36.163 29.3214 36.1319 29.3435 36.1013 29.3663H37.9633ZM26.1396 27.5228L27.041 27.9925C27.0388 27.9961 27.0366 27.9998 27.0343 28.0035L27.0921 28.0336C27.0862 28.0435 27.0803 28.0533 27.0743 28.0631C27.0701 28.0698 27.0659 28.0766 27.0617 28.0833C26.9957 28.1887 26.9233 28.2891 26.8453 28.3841C26.7145 28.5434 26.5677 28.6878 26.408 28.8156C26.3407 28.8696 26.271 28.9206 26.1993 28.9686C26.0529 29.0665 25.8979 29.1517 25.7364 29.2234C25.6722 29.2519 25.6069 29.2782 25.5408 29.3023C25.4497 29.3355 25.3569 29.3645 25.2627 29.3891C24.8875 29.4873 24.49 29.5164 24.0909 29.4668C23.9929 29.4581 23.8947 29.4448 23.7965 29.4268L23.7938 29.4263L23.7698 29.4218C22.4793 29.1727 21.4994 28.1642 21.322 26.9244L21.3218 26.9231L21.319 26.9026C21.1482 25.655 21.8195 24.4345 23.0037 23.8696C23.0197 23.862 23.0357 23.8546 23.0517 23.8472L23.0535 23.8464C23.4889 23.6482 23.9585 23.5569 24.4235 23.5657C24.575 23.5685 24.7261 23.582 24.8752 23.6059L24.9115 23.6119C25.0971 23.6437 25.2797 23.6917 25.4568 23.7554C25.7749 23.8699 26.0751 24.0352 26.3432 24.2488C26.3988 24.2931 26.4531 24.3395 26.5058 24.3879C26.5223 24.4031 26.5387 24.4185 26.555 24.4341L26.5243 24.4619C26.5388 24.4748 26.5533 24.4878 26.5677 24.501C26.5839 24.5159 26.5999 24.531 26.6159 24.5463L25.8905 25.2024C25.679 24.9983 25.4315 24.8478 25.1664 24.7535C25.054 24.7135 24.9381 24.6835 24.8209 24.6638C24.7051 24.6444 24.5876 24.635 24.4698 24.6358C24.1736 24.6378 23.8751 24.704 23.5957 24.8372C23.5801 24.8447 23.5645 24.8523 23.5491 24.8601C22.8146 25.2321 22.3852 26.0156 22.4859 26.8284L22.4861 26.8301L22.4887 26.85C22.5926 27.6103 23.1406 28.2253 23.8682 28.4514C23.8964 28.4584 23.9248 28.4648 23.9534 28.4707L23.9789 28.4757C24.2841 28.5351 24.5903 28.5253 24.8782 28.4541C24.9453 28.4376 25.0113 28.4177 25.0761 28.3946C25.418 28.2726 25.7254 28.061 25.9619 27.7747C26.0267 27.6962 26.0862 27.6122 26.1396 27.5228ZM26.3361 45.7022H32.89L32.164 43.0712H27.0596L26.3361 45.7022Z" fill="#E9FD57"/>
<path d="M27.7998 40.3908V40.1908H27.6476L27.607 40.3375L27.7998 40.3908ZM27.3913 41.8671L27.1985 41.8138L27.1284 42.0671H27.3913V41.8671ZM31.4239 40.3908L31.6166 40.3375L31.5761 40.1908H31.4239V40.3908ZM31.8324 41.8671V42.0671H32.0952L32.0251 41.8138L31.8324 41.8671ZM34.3133 46.9843V47.1843H34.5761L34.5061 46.9311L34.3133 46.9843ZM24.9121 46.9843L24.7194 46.931L24.6494 47.1843H24.9121V46.9843ZM32.2264 39.4273L32.4192 39.3741L32.3787 39.2273H32.2264V39.4273ZM32.2258 39.4273L32.033 39.4806L32.0735 39.6273H32.2258V39.4273ZM32.1741 39.2403L32.3669 39.187L32.3264 39.0403H32.1741V39.2403ZM27.052 39.2403V39.0403H26.8997L26.8592 39.187L27.052 39.2403ZM27.0003 39.4273V39.6273H27.1525L27.1931 39.4806L27.0003 39.4273ZM27 39.4273V39.2273H26.8477L26.8072 39.3741L27 39.4273ZM27.123 38.3393L26.9437 38.428L27.028 38.5982L27.2023 38.5229L27.123 38.3393ZM28.0626 37.9335L28.1419 38.1171L28.3353 38.0336L28.2418 37.8448L28.0626 37.9335ZM25.4792 35.0179L25.6585 34.9292L25.595 34.801L25.4533 34.8196L25.4792 35.0179ZM25.3974 35.0286L25.3715 34.8303L25.3714 34.8303L25.3974 35.0286ZM24.3474 35.1221L24.3473 35.3221L24.3485 35.3221L24.3474 35.1221ZM23.7914 35.1047L23.8038 34.9051H23.8038L23.7914 35.1047ZM16.002 27.3268L15.802 27.3267V27.3268H16.002ZM20.2722 20.5794L20.3647 20.7568H20.3647L20.2722 20.5794ZM21.0494 20.2216L20.9748 20.036L20.9747 20.0361L21.0494 20.2216ZM21.0504 20.2212L21.1249 20.4068L21.125 20.4068L21.0504 20.2212ZM21.9967 19.9014L22.0501 20.0941L22.1867 20.0563L22.1963 19.9148L21.9967 19.9014ZM22.1375 18.9057L21.9421 18.863L21.9421 18.8633L22.1375 18.9057ZM22.1418 18.8863L21.9464 18.8433L21.9464 18.8436L22.1418 18.8863ZM22.3663 18.095L22.5551 18.161L22.3663 18.095ZM29.6106 13.1467V12.9467L29.6105 12.9467L29.6106 13.1467ZM29.6117 13.1467L29.6118 12.9467H29.6117V13.1467ZM36.8546 18.0796L37.0432 18.0131V18.0131L36.8546 18.0796ZM37.0793 18.8626L37.2746 18.8194L37.2745 18.8189L37.0793 18.8626ZM37.0874 18.8993L37.2828 18.8567L37.2827 18.8561L37.0874 18.8993ZM37.2297 19.9035L37.0301 19.9169L37.0396 20.0583L37.1762 20.0962L37.2297 19.9035ZM38.1538 20.2151L38.2283 20.0294L38.228 20.0293L38.1538 20.2151ZM38.1765 20.2242L38.2512 20.0386L38.251 20.0385L38.1765 20.2242ZM38.9342 20.5721L39.0263 20.3946L38.9342 20.5721ZM43.2236 27.3231H43.4236V27.3228L43.2236 27.3231ZM43.2236 27.3277L43.4236 27.3278V27.3277H43.2236ZM41.0244 32.5952L41.167 32.7354H41.167L41.0244 32.5952ZM40.1165 33.3913L39.996 33.2317L40.1165 33.3913ZM35.4133 35.1059L35.4251 35.3055L35.4133 35.1059ZM34.8809 35.1217V35.3217H34.8809L34.8809 35.1217ZM34.8786 35.1217L34.8775 35.3217H34.8786V35.1217ZM33.7372 35.02L33.7638 34.8218L33.6222 34.8027L33.5583 34.9306L33.7372 35.02ZM32.0602 38.3767L31.9802 38.56L32.1542 38.636L32.2391 38.4661L32.0602 38.3767ZM31.1251 37.9688L30.9462 37.8794L30.8521 38.0679L31.0451 38.1521L31.1251 37.9688ZM31.1845 37.8499L31.3634 37.9393L31.4575 37.7508L31.2644 37.6666L31.1845 37.8499ZM31.0948 37.8108L30.9159 37.7215L30.8218 37.9099L31.0148 37.9941L31.0948 37.8108ZM33.0548 33.8853L33.0899 33.6884L32.9427 33.6622L32.8759 33.796L33.0548 33.8853ZM33.4454 33.9549L33.4103 34.1518L33.4103 34.1518L33.4454 33.9549ZM33.7776 34.0069L33.8042 33.8086L33.7776 34.0069ZM34.7734 34.0746L34.7733 34.2746H34.7734V34.0746ZM34.7786 34.0746V34.2746H34.7787L34.7786 34.0746ZM38.0787 33.3247L37.9914 33.1447L38.0787 33.3247ZM40.7965 31.0157L40.9609 31.1295L40.9609 31.1295L40.7965 31.0157ZM41.9403 27.3817H42.1403L42.1403 27.3814L41.9403 27.3817ZM41.9403 27.3776L42.1403 27.3772V27.3771L41.9403 27.3776ZM36.8356 20.9779L36.7816 21.1705L36.8356 20.9779ZM36.5209 20.8969L36.5667 20.7022L36.565 20.7018L36.5209 20.8969ZM36.1464 20.8123L35.9464 20.8162L35.9495 20.9728L36.1023 21.0074L36.1464 20.8123ZM36.1393 20.4475L35.9393 20.4504L35.9393 20.4514L36.1393 20.4475ZM36.1286 20.1697L35.929 20.1822V20.1822L36.1286 20.1697ZM29.6111 14.4283L29.6112 14.2283L29.6109 14.2283L29.6111 14.4283ZM23.0962 20.1679L22.8966 20.1555L23.0962 20.1679ZM23.0855 20.445L23.2855 20.4479L23.2855 20.4479L23.0855 20.445ZM23.0802 20.8073L23.125 21.0022L23.2778 20.967L23.2802 20.8102L23.0802 20.8073ZM22.7017 20.8944L22.6568 20.6995L22.6559 20.6997L22.7017 20.8944ZM22.3895 20.9747L22.4434 21.1673L22.3895 20.9747ZM17.284 27.3829L17.084 27.3828V27.383L17.284 27.3829ZM24.4475 34.0746L24.4473 34.2746H24.4474L24.4475 34.0746ZM24.4532 34.0746L24.4531 34.2746H24.4532L24.4532 34.0746ZM25.4429 34.0084L25.4162 33.8102H25.4162L25.4429 34.0084ZM25.7794 33.9549L25.7441 33.7581L25.7434 33.7582L25.7794 33.9549ZM26.1682 33.8853L26.3474 33.7966L26.2808 33.662L26.1329 33.6884L26.1682 33.8853ZM28.0934 37.7762L28.1727 37.9598L28.3661 37.8763L28.2726 37.6875L28.0934 37.7762ZM28.0039 37.8148L27.9246 37.6312L27.7312 37.7148L27.8246 37.9035L28.0039 37.8148ZM30.1588 23.6512L30.1116 23.4568L30.1588 23.6512ZM28.1922 25.1406L28.0171 25.044L28.1922 25.1406ZM32.9466 24.3042L32.8171 24.4566L32.9466 24.3042ZM33.6256 25.1263L33.8 25.0285V25.0285L33.6256 25.1263ZM33.9274 25.9204L34.1229 25.878V25.878L33.9274 25.9204ZM33.9898 26.4199L34.1897 26.4129L33.9898 26.4199ZM33.965 26.9069L34.1631 26.9342L33.965 26.9069ZM33.9492 27.0083L34.1462 27.0428L34.1462 27.0427L33.9492 27.0083ZM33.9139 27.1788L34.1084 27.2253L34.1084 27.2253L33.9139 27.1788ZM33.8717 27.3352L33.6802 27.2776L33.6802 27.2776L33.8717 27.3352ZM33.8559 27.386L34.0463 27.4473L34.0463 27.4471L33.8559 27.386ZM33.8536 27.3932L34.0438 27.4548L34.0439 27.4546L33.8536 27.3932ZM33.7844 27.5834L33.9698 27.6584V27.6584L33.7844 27.5834ZM33.4058 28.2506L33.5655 28.3711L33.5655 28.3711L33.4058 28.2506ZM33.4044 28.2525L33.564 28.3731L33.5641 28.373L33.4044 28.2525ZM31.8529 29.3372L31.7936 29.1462L31.7907 29.1471L31.8529 29.3372ZM31.6562 29.3944L31.7056 29.5882L31.7056 29.5882L31.6562 29.3944ZM31.3906 29.4498L31.4229 29.6472H31.4229L31.3906 29.4498ZM30.8032 29.4897L30.7981 29.6897H30.7981L30.8032 29.4897ZM29.8267 29.3063L29.8949 29.1182H29.8949L29.8267 29.3063ZM28.3287 28.1234L28.4964 28.0143L28.4946 28.0117L28.3287 28.1234ZM27.9457 27.3038L28.138 27.2486L28.138 27.2486L27.9457 27.3038ZM27.836 26.4666L28.036 26.4703V26.4703L27.836 26.4666ZM27.8994 25.9202L27.7039 25.878L27.7039 25.878L27.8994 25.9202ZM32.1488 28.109L32.2678 28.2699L32.2728 28.2659L32.1488 28.109ZM32.459 27.8026L32.6144 27.9284L32.6146 27.9283L32.459 27.8026ZM32.4612 27.7998L32.6168 27.9255L32.6169 27.9253L32.4612 27.7998ZM32.743 27.3244L32.928 27.4005L32.9283 27.3996L32.743 27.3244ZM32.7498 27.3076L32.9351 27.3828L32.9355 27.382L32.7498 27.3076ZM32.8527 26.9563L33.0491 26.9939L33.0492 26.9937L32.8527 26.9563ZM32.8531 26.9541L33.0496 26.9916L33.0496 26.9915L32.8531 26.9541ZM32.8786 26.7736L33.0778 26.7922V26.7922L32.8786 26.7736ZM32.865 26.2955L33.0627 26.2653V26.2653L32.865 26.2955ZM32.2656 25.171L32.1298 25.3178V25.3178L32.2656 25.171ZM30.9862 24.6381L30.9765 24.8378H30.9765L30.9862 24.6381ZM29.1005 25.6972L29.2777 25.7899L29.1005 25.6972ZM28.8829 26.5408L29.0829 26.5458L29.0829 26.5458L28.8829 26.5408ZM28.922 26.9824L28.7259 27.0227L28.7275 27.0291L28.922 26.9824ZM30.3427 28.4362L30.3965 28.2435L30.3965 28.2435L30.3427 28.4362ZM31.5409 28.4175L31.4811 28.2266V28.2266L31.5409 28.4175ZM31.9848 28.2184L31.882 28.0469V28.0469L31.9848 28.2184ZM37.9633 30.3302V30.5302H38.1633V30.3302H37.9633ZM37.9633 29.3663H38.1633V29.1663H37.9633V29.3663ZM34.7254 30.3302L34.5254 30.3334L34.5285 30.5302H34.7254V30.3302ZM34.7253 30.3247L34.9253 30.3215L34.9222 30.1247H34.7253V30.3247ZM34.6232 30.3247L34.4233 30.3279L34.4264 30.5247H34.6232V30.3247ZM34.6225 30.2797L34.8225 30.2765V30.2765L34.6225 30.2797ZM34.6232 29.9171L34.4234 29.9079L34.4234 29.909L34.6232 29.9171ZM34.6246 29.8864L34.4249 29.8762L34.4248 29.8773L34.6246 29.8864ZM34.6734 29.5302L34.4791 29.483L34.6734 29.5302ZM34.8326 29.1286L34.6581 29.0308L34.658 29.0311L34.8326 29.1286ZM35.2128 28.6997L35.089 28.5426L35.089 28.5426L35.2128 28.6997ZM35.3769 28.5817L35.2665 28.4149H35.2665L35.3769 28.5817ZM35.5075 28.4996L35.6104 28.6711L35.5075 28.4996ZM35.6231 28.4325L35.7213 28.6067L35.6231 28.4325ZM35.886 28.2899L35.7966 28.111L35.7922 28.1133L35.886 28.2899ZM35.8861 28.2899L35.9755 28.4689L35.9801 28.4664L35.8861 28.2899ZM35.9717 28.2443L36.0658 28.4208L36.0661 28.4206L35.9717 28.2443ZM36.1186 28.1643L36.216 28.339L36.22 28.3367L36.1186 28.1643ZM36.1341 28.1552L36.2355 28.3276L36.2356 28.3275L36.1341 28.1552ZM36.1448 28.1489L36.2464 28.3212L36.2465 28.3211L36.1448 28.1489ZM36.147 28.1476L36.2487 28.3198L36.2489 28.3196L36.147 28.1476ZM36.1684 28.1349L36.2704 28.3069L36.2706 28.3068L36.1684 28.1349ZM36.5747 27.8184L36.7308 27.9435L36.732 27.9419L36.5747 27.8184ZM36.5833 27.8075L36.7406 27.931L36.7418 27.9294L36.5833 27.8075ZM36.6182 27.7572L36.4483 27.6517L36.4483 27.6517L36.6182 27.7572ZM36.6787 27.6177L36.485 27.568L36.6787 27.6177ZM36.6931 27.5127L36.4967 27.4748L36.4935 27.4913L36.4931 27.5082L36.6931 27.5127ZM36.6905 27.3875L36.8847 27.3396L36.8844 27.3387L36.6905 27.3875ZM36.6898 27.3849L36.8838 27.3362L36.8836 27.3353L36.6898 27.3849ZM36.68 27.3539L36.867 27.2829L36.8659 27.2802L36.68 27.3539ZM36.6769 27.3462L36.8629 27.2725L36.8618 27.2699L36.6769 27.3462ZM36.6671 27.3247L36.4886 27.415L36.4886 27.415L36.6671 27.3247ZM36.2203 27.0695L36.2343 26.87L36.2339 26.87L36.2203 27.0695ZM36.1642 27.069L36.1553 26.8691L36.1523 26.8693L36.1642 27.069ZM36.1482 27.0699L36.1363 26.8702L36.1333 26.8705L36.1482 27.0699ZM36.0008 27.1002L35.9371 26.9106L35.9164 26.9176L35.8976 26.9289L36.0008 27.1002ZM35.9834 27.1111L35.8747 26.9432L35.874 26.9436L35.9834 27.1111ZM35.9812 27.1125L36.0906 27.2799L36.0906 27.2799L35.9812 27.1125ZM35.9662 27.1226L36.0803 27.2869L36.0803 27.2869L35.9662 27.1226ZM35.9593 27.1275L35.843 26.9648L35.843 26.9648L35.9593 27.1275ZM35.8565 27.2214L35.7042 27.0917L35.704 27.092L35.8565 27.2214ZM35.8554 27.2226L35.7029 27.0932L35.7027 27.0934L35.8554 27.2226ZM35.823 27.2653L35.6575 27.153L35.657 27.1538L35.823 27.2653ZM35.8204 27.2691L35.6544 27.1576L35.6539 27.1584L35.8204 27.2691ZM35.7961 27.31L35.9729 27.4035L35.9729 27.4035L35.7961 27.31ZM35.7904 27.3212L35.9697 27.4098L35.9697 27.4098L35.7904 27.3212ZM35.7849 27.3326L35.6033 27.2489L35.6032 27.249L35.7849 27.3326ZM35.7518 27.4363L35.5552 27.3995V27.3995L35.7518 27.4363ZM35.7456 27.4831V27.6831H35.9305L35.945 27.4988L35.7456 27.4831ZM35.6302 27.4831V27.2831H35.4663L35.4341 27.4438L35.6302 27.4831ZM35.6292 27.4885L35.4326 27.4517L35.4326 27.4518L35.6292 27.4885ZM35.6231 27.5344V27.7344H35.8079L35.8225 27.5501L35.6231 27.5344ZM34.6232 27.5344L34.4245 27.5122L34.3996 27.7344H34.6232V27.5344ZM34.6652 27.1588L34.4664 27.1363L34.4664 27.1366L34.6652 27.1588ZM34.67 27.1225L34.4724 27.0918L34.4724 27.0918L34.67 27.1225ZM34.9489 26.59L35.0916 26.7301L35.0916 26.7301L34.9489 26.59ZM35.0457 26.5011L35.1734 26.6551L35.1735 26.655L35.0457 26.5011ZM35.0466 26.5004L34.9191 26.3464L34.9188 26.3466L35.0466 26.5004ZM35.0706 26.481L34.9466 26.3241L34.9466 26.3241L35.0706 26.481ZM35.111 26.4502L35.2293 26.6115L35.2293 26.6115L35.111 26.4502ZM35.1478 26.4242L35.261 26.589H35.261L35.1478 26.4242ZM35.2329 26.3698L35.335 26.5417L35.3426 26.5372L35.3498 26.532L35.2329 26.3698ZM35.2606 26.3503L35.1474 26.1854L35.1474 26.1854L35.2606 26.3503ZM35.7456 26.1216L35.6883 25.93H35.6883L35.7456 26.1216ZM35.9953 26.0649L35.9643 25.8673H35.9643L35.9953 26.0649ZM36.294 26.0432L36.2914 26.2432L36.2948 26.2432L36.294 26.0432ZM36.4204 26.0472L36.4341 25.8477L36.434 25.8477L36.4204 26.0472ZM36.4223 26.0473L36.4361 25.8478L36.436 25.8478L36.4223 26.0473ZM37.0445 26.2048L36.9613 26.3867L36.9613 26.3867L37.0445 26.2048ZM37.2319 26.3052L37.3374 26.1353L37.3374 26.1353L37.2319 26.3052ZM37.6741 26.728L37.5071 26.8382L37.508 26.8395L37.6741 26.728ZM37.8668 27.2691L37.6678 27.2894L37.6678 27.2894L37.8668 27.2691ZM37.8712 27.4845L37.6715 27.4727V27.4727L37.8712 27.4845ZM37.8518 27.6493L38.0487 27.6844L38.0488 27.6839L37.8518 27.6493ZM37.8505 27.6564L38.0473 27.692L38.0474 27.6915L37.8505 27.6564ZM37.4791 28.4228L37.3287 28.2909L37.3269 28.293L37.4791 28.4228ZM37.2924 28.6088L37.4225 28.7607L37.4225 28.7607L37.2924 28.6088ZM36.7484 28.9717L36.8471 29.1457L36.8472 29.1456L36.7484 28.9717ZM36.7292 28.9826L36.8273 29.1569L36.8278 29.1566L36.7292 28.9826ZM36.6405 29.0326L36.7385 29.2069L36.7386 29.2069L36.6405 29.0326ZM36.5813 29.0659L36.4833 28.8915L36.4831 28.8916L36.5813 29.0659ZM36.4405 29.1464L36.3397 28.9737L36.3397 28.9737L36.4405 29.1464ZM36.1994 29.2967L36.0872 29.1311L36.0871 29.1312L36.1994 29.2967ZM36.1947 29.2999L36.0823 29.1345L36.0821 29.1346L36.1947 29.2999ZM36.1013 29.3663L35.9819 29.2059L35.4982 29.5663H36.1013V29.3663ZM27.041 27.9925L27.2126 28.0952L27.3215 27.9131L27.1334 27.8151L27.041 27.9925ZM26.1396 27.5228L26.232 27.3455L26.0647 27.2583L25.9679 27.4202L26.1396 27.5228ZM27.0343 28.0035L26.8632 27.9L26.7529 28.0824L26.9419 28.1808L27.0343 28.0035ZM27.0921 28.0336L27.2638 28.1363L27.3727 27.9543L27.1846 27.8562L27.0921 28.0336ZM27.0743 28.0631L27.2446 28.1678L27.2446 28.1678L27.0743 28.0631ZM27.0617 28.0833L26.8922 27.9772L26.8922 27.9772L27.0617 28.0833ZM26.8453 28.3841L26.9999 28.5111V28.5111L26.8453 28.3841ZM26.408 28.8156L26.283 28.6595L26.283 28.6595L26.408 28.8156ZM26.1993 28.9686L26.3105 29.1348L26.1993 28.9686ZM25.7364 29.2234L25.8175 29.4062H25.8175L25.7364 29.2234ZM25.5408 29.3023L25.6092 29.4902L25.6092 29.4902L25.5408 29.3023ZM25.2627 29.3891L25.3133 29.5826L25.3134 29.5826L25.2627 29.3891ZM24.0909 29.4668L24.1157 29.2682L24.1086 29.2676L24.0909 29.4668ZM23.7965 29.4268L23.7603 29.6235L23.7603 29.6235L23.7965 29.4268ZM23.7938 29.4263L23.7567 29.6228L23.7575 29.623L23.7938 29.4263ZM23.7698 29.4218L23.7319 29.6181L23.7327 29.6183L23.7698 29.4218ZM21.322 26.9244L21.124 26.9527L21.124 26.9527L21.322 26.9244ZM21.3218 26.9231L21.1237 26.9506L21.1239 26.9514L21.3218 26.9231ZM21.319 26.9026L21.1208 26.9298L21.1209 26.9301L21.319 26.9026ZM23.0037 23.8696L23.0899 24.0501L23.0899 24.0501L23.0037 23.8696ZM23.0517 23.8472L22.9688 23.6653L22.9687 23.6653L23.0517 23.8472ZM23.0535 23.8464L22.9706 23.6644L22.9705 23.6644L23.0535 23.8464ZM24.4235 23.5657L24.4197 23.7656L24.4235 23.5657ZM24.8752 23.6059L24.9079 23.4086L24.9069 23.4084L24.8752 23.6059ZM24.9115 23.6119L24.9452 23.4147L24.9441 23.4146L24.9115 23.6119ZM25.4568 23.7554L25.3891 23.9436L25.4568 23.7554ZM26.3432 24.2488L26.2186 24.4052L26.2186 24.4052L26.3432 24.2488ZM26.5058 24.3879L26.6411 24.2406H26.6411L26.5058 24.3879ZM26.555 24.4341L26.6892 24.5824L26.8483 24.4385L26.6935 24.2899L26.555 24.4341ZM26.5243 24.4619L26.3901 24.3136L26.2242 24.4637L26.3919 24.6118L26.5243 24.4619ZM26.5677 24.501L26.703 24.3537L26.703 24.3537L26.5677 24.501ZM26.6159 24.5463L26.75 24.6946L26.9091 24.5506L26.7544 24.402L26.6159 24.5463ZM25.8905 25.2024L25.7516 25.3463L25.8861 25.4762L26.0247 25.3508L25.8905 25.2024ZM25.1664 24.7535L25.2335 24.565L25.1664 24.7535ZM24.8209 24.6638L24.854 24.4666L24.8539 24.4666L24.8209 24.6638ZM24.4698 24.6358L24.4685 24.4358H24.4685L24.4698 24.6358ZM23.5957 24.8372L23.6815 25.0179L23.6818 25.0178L23.5957 24.8372ZM23.5491 24.8601L23.4588 24.6817L23.4588 24.6817L23.5491 24.8601ZM22.4859 26.8284L22.2874 26.853L22.2874 26.8531L22.4859 26.8284ZM22.4861 26.8301L22.2876 26.8547L22.2878 26.8559L22.4861 26.8301ZM22.4887 26.85L22.2904 26.8758L22.2905 26.8771L22.4887 26.85ZM23.8682 28.4514L23.8088 28.6427L23.82 28.6455L23.8682 28.4514ZM23.9534 28.4707L23.9133 28.6666L23.9145 28.6668L23.9534 28.4707ZM23.9789 28.4757L23.94 28.6719L23.9407 28.672L23.9789 28.4757ZM24.8782 28.4541L24.9262 28.6483L24.8782 28.4541ZM25.0761 28.3946L25.1433 28.583L25.1433 28.583L25.0761 28.3946ZM25.9619 27.7747L26.1161 27.902L25.9619 27.7747ZM26.3361 45.7022L26.1433 45.6491L26.0737 45.9022H26.3361V45.7022ZM32.89 45.7022V45.9022H33.1527L33.0828 45.649L32.89 45.7022ZM32.164 43.0712L32.3568 43.018L32.3163 42.8712H32.164V43.0712ZM27.0596 43.0712V42.8712H26.9072L26.8668 43.0182L27.0596 43.0712ZM27.607 40.3375L27.1985 41.8138L27.584 41.9205L27.9925 40.4442L27.607 40.3375ZM31.4239 40.1908H27.7998V40.5908H31.4239V40.1908ZM32.0251 41.8138L31.6166 40.3375L31.2311 40.4442L31.6396 41.9205L32.0251 41.8138ZM27.3913 42.0671H31.8324V41.6671H27.3913V42.0671ZM34.3133 46.7843H24.9121V47.1843H34.3133V46.7843ZM32.0336 39.4806L34.1206 47.0375L34.5061 46.9311L32.4192 39.3741L32.0336 39.4806ZM32.2258 39.6273H32.2264V39.2273H32.2258V39.6273ZM31.9813 39.2935L32.033 39.4806L32.4186 39.3741L32.3669 39.187L31.9813 39.2935ZM27.052 39.4403H32.1741V39.0403H27.052V39.4403ZM27.1931 39.4806L27.2448 39.2935L26.8592 39.187L26.8075 39.3741L27.1931 39.4806ZM27 39.6273H27.0003V39.2273H27V39.6273ZM25.1049 47.0376L27.1928 39.4806L26.8072 39.3741L24.7194 46.931L25.1049 47.0376ZM27.2023 38.5229L28.1419 38.1171L27.9833 37.7499L27.0437 38.1557L27.2023 38.5229ZM25.3 35.1066L26.9437 38.428L27.3022 38.2506L25.6585 34.9292L25.3 35.1066ZM25.4234 35.2269L25.5052 35.2162L25.4533 34.8196L25.3715 34.8303L25.4234 35.2269ZM24.3485 35.3221C24.7145 35.32 25.0772 35.2723 25.4234 35.2269L25.3714 34.8303C25.021 34.8762 24.6831 34.9202 24.3463 34.9221L24.3485 35.3221ZM23.779 35.3043C23.9669 35.316 24.1564 35.322 24.3473 35.3221L24.3475 34.9221C24.1648 34.922 23.9835 34.9163 23.8038 34.9051L23.779 35.3043ZM15.802 27.3268C15.802 31.5687 19.3424 35.0286 23.779 35.3043L23.8038 34.9051C19.5525 34.6409 16.202 31.3328 16.202 27.3268H15.802ZM20.1797 20.4021C17.5432 21.7777 15.8046 24.3842 15.802 27.3267L16.202 27.327C16.2045 24.5487 17.8461 22.0708 20.3647 20.7568L20.1797 20.4021ZM20.9747 20.0361C20.7017 20.1459 20.4364 20.2682 20.1797 20.4021L20.3647 20.7568C20.6098 20.6289 20.8631 20.5121 21.124 20.4072L20.9747 20.0361ZM20.9758 20.0356L20.9748 20.036L21.1239 20.4072L21.1249 20.4068L20.9758 20.0356ZM21.9434 19.7086C21.6114 19.8005 21.2885 19.9099 20.9757 20.0356L21.125 20.4068C21.4238 20.2866 21.7325 20.182 22.0501 20.0941L21.9434 19.7086ZM21.9421 18.8633C21.8696 19.1974 21.8207 19.5395 21.7972 19.8879L22.1963 19.9148C22.2185 19.586 22.2646 19.2633 22.333 18.9482L21.9421 18.8633ZM21.9464 18.8436L21.9421 18.863L22.3329 18.9484L22.3371 18.929L21.9464 18.8436ZM22.1775 18.029C22.0848 18.2942 22.0075 18.5659 21.9464 18.8433L22.3371 18.9293C22.3947 18.6676 22.4676 18.4112 22.5551 18.161L22.1775 18.029ZM29.6105 12.9467C26.135 12.9485 23.2089 15.0779 22.1775 18.029L22.5551 18.161C23.5284 15.3761 26.299 13.3485 29.6107 13.3467L29.6105 12.9467ZM29.6117 12.9467H29.6106V13.3467H29.6117V12.9467ZM37.0432 18.0131C36.0069 15.0705 33.0845 12.9482 29.6118 12.9467L29.6116 13.3467C32.9208 13.3481 35.688 15.3691 36.6659 18.146L37.0432 18.0131ZM37.2745 18.8189C37.2131 18.5445 37.1357 18.2756 37.0432 18.0131L36.6659 18.146C36.7532 18.3937 36.8262 18.6474 36.8841 18.9063L37.2745 18.8189ZM37.2827 18.8561L37.2746 18.8194L36.884 18.9057L36.8921 18.9424L37.2827 18.8561ZM37.4292 19.8901C37.4056 19.5386 37.3563 19.1935 37.2828 18.8567L36.892 18.9419C36.9613 19.2596 37.0079 19.5852 37.0301 19.9169L37.4292 19.8901ZM38.228 20.0293C37.9224 19.9072 37.6071 19.8007 37.2832 19.7108L37.1762 20.0962C37.4861 20.1822 37.7876 20.2841 38.0796 20.4008L38.228 20.0293ZM38.251 20.0385L38.2283 20.0294L38.0794 20.4007L38.1021 20.4098L38.251 20.0385ZM39.0263 20.3946C38.7758 20.2647 38.5172 20.1458 38.2512 20.0386L38.1018 20.4097C38.356 20.512 38.6029 20.6256 38.8421 20.7497L39.0263 20.3946ZM43.4236 27.3228C43.4197 24.3744 41.6722 21.7671 39.0263 20.3946L38.8421 20.7497C41.3701 22.061 43.0199 24.5398 43.0236 27.3233L43.4236 27.3228ZM43.4236 27.3277V27.3231H43.0236V27.3277H43.4236ZM41.167 32.7354C42.5657 31.313 43.4234 29.4134 43.4236 27.3278L43.0236 27.3277C43.0235 29.3004 42.2128 31.1013 40.8818 32.455L41.167 32.7354ZM40.237 33.5509C40.5681 33.3009 40.879 33.0283 41.167 32.7354L40.8818 32.455C40.6077 32.7337 40.3116 32.9934 39.996 33.2317L40.237 33.5509ZM35.4251 35.3055C37.2394 35.1979 38.9026 34.5583 40.237 33.5509L39.996 33.2317C38.7241 34.1919 37.1363 34.8033 35.4014 34.9062L35.4251 35.3055ZM34.8809 35.3217C35.0637 35.3216 35.2451 35.3162 35.4251 35.3055L35.4014 34.9062C35.2293 34.9164 35.0557 34.9216 34.8808 34.9217L34.8809 35.3217ZM34.8786 35.3217H34.8809V34.9217H34.8786V35.3217ZM33.7106 35.2182C34.0895 35.2691 34.4813 35.3195 34.8775 35.3217L34.8797 34.9217C34.5125 34.9196 34.1446 34.8729 33.7638 34.8218L33.7106 35.2182ZM32.2391 38.4661L33.9161 35.1094L33.5583 34.9306L31.8813 38.2873L32.2391 38.4661ZM31.0451 38.1521L31.9802 38.56L32.1402 38.1934L31.2051 37.7855L31.0451 38.1521ZM31.0055 37.7606L30.9462 37.8794L31.3041 38.0581L31.3634 37.9393L31.0055 37.7606ZM31.0148 37.9941L31.1045 38.0332L31.2644 37.6666L31.1748 37.6275L31.0148 37.9941ZM32.8759 33.796L30.9159 37.7215L31.2737 37.9002L33.2338 33.9747L32.8759 33.796ZM33.4805 33.758L33.0899 33.6884L33.0197 34.0822L33.4103 34.1518L33.4805 33.758ZM33.8042 33.8086C33.6959 33.7941 33.5879 33.7772 33.4805 33.758L33.4103 34.1518C33.5233 34.172 33.6369 34.1897 33.7509 34.2051L33.8042 33.8086ZM34.7734 33.8746C34.4495 33.8745 34.1252 33.8518 33.8042 33.8086L33.7509 34.2051C34.0888 34.2505 34.4309 34.2745 34.7733 34.2746L34.7734 33.8746ZM34.7786 33.8746H34.7734V34.2746H34.7786V33.8746ZM37.9914 33.1447C37.0312 33.6105 35.9389 33.8741 34.7786 33.8746L34.7787 34.2746C35.9999 34.2741 37.1518 33.9966 38.166 33.5046L37.9914 33.1447ZM40.632 30.9018C39.9784 31.846 39.0682 32.6224 37.9914 33.1447L38.166 33.5046C39.3029 32.9531 40.2669 32.132 40.9609 31.1295L40.632 30.9018ZM41.7403 27.3817C41.7403 28.6797 41.3339 29.8879 40.632 30.9018L40.9609 31.1295C41.7068 30.0521 42.1403 28.765 42.1403 27.3817H41.7403ZM41.7403 27.3779L41.7403 27.3821L42.1403 27.3814L42.1403 27.3772L41.7403 27.3779ZM36.7816 21.1705C39.7188 21.9939 41.7341 24.5116 41.7403 27.378L42.1403 27.3771C42.1336 24.3155 39.9831 21.6525 36.8896 20.7854L36.7816 21.1705ZM36.4751 21.0916C36.5784 21.1159 36.6805 21.1422 36.7816 21.1705L36.8896 20.7854C36.783 20.7555 36.6754 20.7278 36.5667 20.7022L36.4751 21.0916ZM36.1023 21.0074L36.4768 21.092L36.565 20.7018L36.1905 20.6172L36.1023 21.0074ZM35.9393 20.4514L35.9464 20.8162L36.3464 20.8084L36.3392 20.4436L35.9393 20.4514ZM35.929 20.1822C35.9345 20.271 35.938 20.3605 35.9393 20.4504L36.3392 20.4446C36.3378 20.3483 36.3341 20.2525 36.3282 20.1573L35.929 20.1822ZM29.6109 14.6283C32.9949 14.6307 35.7361 17.0874 35.929 20.1822L36.3282 20.1573C36.1208 16.8296 33.1834 14.2308 29.6112 14.2283L29.6109 14.6283ZM23.2958 20.1803C23.4886 17.0874 26.231 14.6303 29.6112 14.6283L29.6109 14.2283C26.0425 14.2304 23.1038 16.8296 22.8966 20.1555L23.2958 20.1803ZM23.2855 20.4479C23.2868 20.3582 23.2903 20.269 23.2958 20.1803L22.8966 20.1555C22.8906 20.2505 22.887 20.346 22.8856 20.4421L23.2855 20.4479ZM23.2802 20.8102L23.2855 20.4479L22.8856 20.442L22.8802 20.8043L23.2802 20.8102ZM22.7465 21.0893L23.125 21.0022L23.0353 20.6124L22.6568 20.6995L22.7465 21.0893ZM22.4434 21.1673C22.5437 21.1393 22.645 21.1132 22.7474 21.0891L22.6559 20.6997C22.5481 20.7251 22.4413 20.7525 22.3356 20.7821L22.4434 21.1673ZM17.484 27.3831C17.4865 24.5141 19.5034 21.9905 22.4434 21.1673L22.3356 20.7821C19.239 21.6492 17.0867 24.3184 17.084 27.3828L17.484 27.3831ZM24.4476 33.8746C20.5831 33.8722 17.4845 30.9604 17.484 27.3829L17.084 27.383C17.0845 31.2067 20.3884 34.2721 24.4473 34.2746L24.4476 33.8746ZM24.4533 33.8746L24.4475 33.8746L24.4474 34.2746L24.4531 34.2746L24.4533 33.8746ZM25.4162 33.8102C25.0971 33.8532 24.7744 33.8745 24.4532 33.8746L24.4532 34.2746C24.7921 34.2745 25.1326 34.252 25.4696 34.2066L25.4162 33.8102ZM25.7434 33.7582C25.6349 33.7781 25.5257 33.7954 25.4162 33.8102L25.4696 34.2066C25.5853 34.191 25.7007 34.1727 25.8154 34.1517L25.7434 33.7582ZM26.1329 33.6884L25.7441 33.7581L25.8146 34.1518L26.2034 34.0822L26.1329 33.6884ZM28.2726 37.6875L26.3474 33.7966L25.9889 33.974L27.9141 37.8649L28.2726 37.6875ZM28.0832 37.9985L28.1727 37.9598L28.0141 37.5926L27.9246 37.6312L28.0832 37.9985ZM28.2418 37.8448L28.1832 37.7262L27.8246 37.9035L27.8833 38.0222L28.2418 37.8448ZM30.1116 23.4568C29.2033 23.6775 28.4464 24.2654 28.0171 25.044L28.3673 25.2372C28.7423 24.5572 29.4061 24.0398 30.2061 23.8455L30.1116 23.4568ZM30.9099 23.3618C30.6346 23.3618 30.3672 23.3947 30.1116 23.4568L30.2061 23.8455C30.4309 23.7909 30.6666 23.7618 30.9099 23.7618V23.3618ZM33.076 24.1517C32.4983 23.6611 31.7402 23.3618 30.9099 23.3618V23.7618C31.6428 23.7618 32.3097 24.0257 32.8171 24.4566L33.076 24.1517ZM33.8 25.0285C33.6138 24.6963 33.3678 24.3995 33.076 24.1517L32.8171 24.4566C33.0734 24.6743 33.2887 24.9343 33.4511 25.2241L33.8 25.0285ZM34.1229 25.878C34.0576 25.5773 33.9476 25.2918 33.8 25.0285L33.4511 25.2241C33.5798 25.4537 33.6754 25.702 33.7319 25.9628L34.1229 25.878ZM34.1897 26.4129C34.1833 26.2306 34.1606 26.0518 34.1229 25.878L33.7319 25.9628C33.7647 26.1135 33.7844 26.2686 33.7899 26.4269L34.1897 26.4129ZM34.1915 26.5195C34.1915 26.4838 34.1909 26.4483 34.1897 26.4129L33.7899 26.4269C33.791 26.4576 33.7915 26.4885 33.7915 26.5195H34.1915ZM34.1631 26.9342C34.1819 26.7983 34.1915 26.6598 34.1915 26.5195H33.7915C33.7915 26.6414 33.7831 26.7616 33.7669 26.8796L34.1631 26.9342ZM34.1462 27.0427C34.1524 27.0071 34.1582 26.9703 34.1631 26.9342L33.7669 26.8796C33.7626 26.9108 33.7576 26.9429 33.7521 26.9739L34.1462 27.0427ZM34.1084 27.2253C34.1228 27.1651 34.1354 27.1042 34.1462 27.0428L33.7522 26.9738C33.7428 27.0271 33.7319 27.0799 33.7194 27.1322L34.1084 27.2253ZM34.0632 27.3927C34.0798 27.3375 34.0949 27.2817 34.1084 27.2253L33.7194 27.1322C33.7077 27.1812 33.6946 27.2296 33.6802 27.2776L34.0632 27.3927ZM34.0463 27.4471C34.0521 27.4291 34.0578 27.4109 34.0632 27.3927L33.6802 27.2776C33.6754 27.2934 33.6705 27.3091 33.6655 27.3248L34.0463 27.4471ZM34.0439 27.4546L34.0463 27.4473L33.6656 27.3246L33.6632 27.3318L34.0439 27.4546ZM33.9698 27.6584C33.9968 27.5916 34.0215 27.5237 34.0438 27.4548L33.6633 27.3315C33.6439 27.3914 33.6225 27.4504 33.599 27.5085L33.9698 27.6584ZM33.5655 28.3711C33.7302 28.1528 33.8667 27.9135 33.9698 27.6584L33.599 27.5085C33.5093 27.7304 33.3902 27.9392 33.2462 28.1302L33.5655 28.3711ZM33.5641 28.373L33.5655 28.3711L33.2462 28.1302L33.2448 28.132L33.5641 28.373ZM31.9122 29.5282C32.5823 29.3202 33.1585 28.9098 33.564 28.3731L33.2449 28.1319C32.8898 28.6019 32.3837 28.9631 31.7936 29.1462L31.9122 29.5282ZM31.7056 29.5882C31.7764 29.5701 31.8463 29.5498 31.9151 29.5273L31.7907 29.1471C31.7303 29.1669 31.669 29.1847 31.6068 29.2006L31.7056 29.5882ZM31.4229 29.6472C31.5186 29.6316 31.6129 29.6118 31.7056 29.5882L31.6068 29.2006C31.5254 29.2213 31.4425 29.2387 31.3584 29.2524L31.4229 29.6472ZM30.8838 29.6908C31.0674 29.6908 31.2475 29.6759 31.4229 29.6472L31.3584 29.2524C31.2043 29.2776 31.0457 29.2908 30.8838 29.2908V29.6908ZM30.7981 29.6897C30.8266 29.6904 30.8552 29.6908 30.8838 29.6908V29.2908C30.8586 29.2908 30.8334 29.2904 30.8083 29.2898L30.7981 29.6897ZM29.7585 29.4943C30.0834 29.6121 30.4332 29.6804 30.7981 29.6897L30.8083 29.2898C30.4869 29.2816 30.1797 29.2215 29.8949 29.1182L29.7585 29.4943ZM28.1611 28.2324C28.5333 28.8048 29.0934 29.2531 29.7585 29.4943L29.8949 29.1182C29.3111 28.9066 28.821 28.5135 28.4964 28.0144L28.1611 28.2324ZM27.7535 27.359C27.8437 27.673 27.983 27.9679 28.1628 28.2351L28.4946 28.0117C28.3375 27.7783 28.2163 27.5214 28.138 27.2486L27.7535 27.359ZM27.6355 26.5195C27.6355 26.8094 27.6766 27.091 27.7535 27.359L28.138 27.2486C28.0712 27.0159 28.0355 26.7714 28.0355 26.5195H27.6355ZM27.636 26.4629C27.6357 26.4817 27.6355 26.5006 27.6355 26.5195H28.0355C28.0355 26.503 28.0357 26.4866 28.036 26.4703L27.636 26.4629ZM27.7039 25.878C27.6629 26.0677 27.6397 26.2632 27.636 26.4629L28.036 26.4703C28.0392 26.2968 28.0593 26.1271 28.0949 25.9625L27.7039 25.878ZM28.0171 25.044C27.8742 25.303 27.7676 25.5832 27.7039 25.878L28.0949 25.9625C28.1502 25.7067 28.2428 25.463 28.3673 25.2372L28.0171 25.044ZM32.2728 28.2659C32.3989 28.1663 32.5136 28.0531 32.6144 27.9284L32.3035 27.6768C32.2214 27.7783 32.1279 27.8706 32.0248 27.9521L32.2728 28.2659ZM32.6146 27.9283L32.6168 27.9255L32.3056 27.6742L32.3034 27.677L32.6146 27.9283ZM32.6169 27.9253C32.7443 27.7674 32.8495 27.5911 32.928 27.4005L32.5581 27.2482C32.4946 27.4026 32.4092 27.5457 32.3055 27.6743L32.6169 27.9253ZM32.9283 27.3996L32.9351 27.3828L32.5645 27.2324L32.5577 27.2491L32.9283 27.3996ZM32.9355 27.382C32.9851 27.258 33.0234 27.1283 33.0491 26.9939L32.6562 26.9187C32.6354 27.0277 32.6044 27.1329 32.5642 27.2332L32.9355 27.382ZM33.0492 26.9937L33.0496 26.9916L32.6566 26.9167L32.6562 26.9189L33.0492 26.9937ZM33.0496 26.9915C33.062 26.9261 33.0714 26.8596 33.0778 26.7922L32.6795 26.7549C32.6744 26.8098 32.6667 26.8638 32.6566 26.9168L33.0496 26.9915ZM33.0778 26.7922C33.084 26.7256 33.0872 26.6582 33.0872 26.59H32.6872C32.6872 26.6458 32.6846 26.7008 32.6795 26.7549L33.0778 26.7922ZM33.0872 26.59C33.0872 26.4796 33.0788 26.3712 33.0627 26.2653L32.6673 26.3256C32.6804 26.4115 32.6872 26.4998 32.6872 26.59H33.0872ZM33.0627 26.2653C32.9881 25.7761 32.7478 25.3447 32.4015 25.0242L32.1298 25.3178C32.4125 25.5794 32.6069 25.9296 32.6673 26.3256L33.0627 26.2653ZM32.4015 25.0242C32.0307 24.6811 31.5381 24.4646 30.9959 24.4383L30.9765 24.8378C31.4235 24.8595 31.8271 25.0376 32.1298 25.3178L32.4015 25.0242ZM30.9959 24.4383C30.9588 24.4365 30.9214 24.4356 30.8838 24.4356V24.8356C30.9149 24.8356 30.9458 24.8363 30.9765 24.8378L30.9959 24.4383ZM30.8838 24.4356C30.0334 24.4356 29.2896 24.9044 28.9233 25.6045L29.2777 25.7899C29.5751 25.2216 30.1823 24.8356 30.8838 24.8356V24.4356ZM28.9233 25.6045C28.777 25.884 28.6913 26.1999 28.683 26.5358L29.0829 26.5458C29.0896 26.2722 29.1593 26.0163 29.2777 25.7899L28.9233 25.6045ZM28.683 26.5358C28.6825 26.5538 28.6823 26.5719 28.6823 26.59H29.0823C29.0823 26.5752 29.0825 26.5605 29.0829 26.5458L28.683 26.5358ZM28.6823 26.59C28.6823 26.7383 28.6973 26.883 28.726 27.0227L29.1179 26.9422C29.0946 26.8289 29.0823 26.7112 29.0823 26.59H28.6823ZM28.7275 27.0291C28.9144 27.8081 29.5191 28.4141 30.289 28.6288L30.3965 28.2435C29.7609 28.0663 29.2681 27.5681 29.1164 26.9358L28.7275 27.0291ZM30.289 28.6288C30.4866 28.6839 30.695 28.7133 30.9099 28.7133V28.3133C30.7315 28.3133 30.5592 28.2889 30.3965 28.2435L30.289 28.6288ZM30.9099 28.7133C31.1503 28.7133 31.3826 28.6766 31.6007 28.6083L31.4811 28.2266C31.3015 28.2829 31.1095 28.3133 30.9099 28.3133V28.7133ZM31.6007 28.6083C31.7729 28.5544 31.9362 28.4808 32.0877 28.3899L31.882 28.0469C31.7575 28.1215 31.6231 28.1822 31.4811 28.2266L31.6007 28.6083ZM32.0877 28.3899C32.1498 28.3527 32.2098 28.3126 32.2677 28.2698L32.0299 27.9482C31.9824 27.9833 31.933 28.0163 31.882 28.0469L32.0877 28.3899ZM38.1633 30.3302V29.3663H37.7633V30.3302H38.1633ZM34.7254 30.5302H37.9633V30.1302H34.7254V30.5302ZM34.5253 30.3278L34.5254 30.3334L34.9254 30.327L34.9253 30.3215L34.5253 30.3278ZM34.6232 30.5247H34.7253V30.1247H34.6232V30.5247ZM34.4225 30.2829L34.4233 30.3279L34.8232 30.3215L34.8225 30.2765L34.4225 30.2829ZM34.4234 29.909C34.4184 30.0324 34.4205 30.1578 34.4225 30.2829L34.8225 30.2765C34.8204 30.1491 34.8186 30.0352 34.8231 29.9251L34.4234 29.909ZM34.4248 29.8773L34.4234 29.9079L34.823 29.9262L34.8244 29.8955L34.4248 29.8773ZM34.4791 29.483C34.4465 29.6169 34.4315 29.7473 34.4249 29.8762L34.8244 29.8966C34.83 29.7851 34.8427 29.6807 34.8678 29.5774L34.4791 29.483ZM34.658 29.0311C34.5714 29.1859 34.515 29.335 34.4791 29.483L34.8678 29.5774C34.8952 29.4643 34.9385 29.3491 35.0072 29.2261L34.658 29.0311ZM35.089 28.5426C34.9223 28.6739 34.7698 28.8316 34.6581 29.0308L35.007 29.2264C35.0862 29.085 35.1986 28.9654 35.3365 28.8568L35.089 28.5426ZM35.2665 28.4149C35.2061 28.4549 35.1466 28.4972 35.089 28.5426L35.3365 28.8568C35.3841 28.8194 35.4345 28.7834 35.4873 28.7484L35.2665 28.4149ZM35.4047 28.328C35.3583 28.3558 35.3121 28.3847 35.2665 28.4149L35.4873 28.7484C35.5271 28.7221 35.5682 28.6964 35.6104 28.6711L35.4047 28.328ZM35.5249 28.2583C35.4848 28.2809 35.4446 28.3041 35.4047 28.328L35.6104 28.6711C35.6467 28.6493 35.6837 28.6279 35.7213 28.6067L35.5249 28.2583ZM35.7922 28.1133C35.7049 28.1598 35.6143 28.2079 35.5249 28.2583L35.7213 28.6067C35.8057 28.5592 35.8919 28.5133 35.9799 28.4665L35.7922 28.1133ZM35.7966 28.111L35.7966 28.111L35.9755 28.4688L35.9755 28.4688L35.7966 28.111ZM35.8777 28.0678L35.792 28.1134L35.9801 28.4664L36.0658 28.4208L35.8777 28.0678ZM36.0211 27.9897C35.9744 28.0158 35.9264 28.0417 35.8774 28.0679L36.0661 28.4206C36.1161 28.3939 36.1663 28.3667 36.216 28.339L36.0211 27.9897ZM36.0327 27.9828L36.0172 27.9919L36.22 28.3367L36.2355 28.3276L36.0327 27.9828ZM36.0432 27.9766L36.0325 27.9829L36.2356 28.3275L36.2464 28.3212L36.0432 27.9766ZM36.0453 27.9753L36.0431 27.9767L36.2465 28.3211L36.2487 28.3198L36.0453 27.9753ZM36.0665 27.9628L36.0451 27.9755L36.2489 28.3196L36.2704 28.3069L36.0665 27.9628ZM36.4186 27.6933C36.3403 27.791 36.2139 27.8752 36.0662 27.963L36.2706 28.3068C36.4151 28.2209 36.6017 28.1046 36.7308 27.9435L36.4186 27.6933ZM36.4259 27.684L36.4174 27.6949L36.732 27.9419L36.7406 27.931L36.4259 27.684ZM36.4483 27.6517C36.4413 27.6629 36.4335 27.6742 36.4247 27.6856L36.7418 27.9294C36.7581 27.9082 36.7736 27.886 36.788 27.8628L36.4483 27.6517ZM36.485 27.568C36.4778 27.5959 36.4657 27.6236 36.4483 27.6517L36.788 27.8628C36.8244 27.8043 36.854 27.7393 36.8724 27.6674L36.485 27.568ZM36.4931 27.5082C36.4926 27.5295 36.4898 27.5492 36.485 27.568L36.8724 27.6674C36.8847 27.6194 36.8918 27.5693 36.893 27.5172L36.4931 27.5082ZM36.4963 27.4353C36.4989 27.446 36.4998 27.4586 36.4967 27.4748L36.8894 27.5506C36.9034 27.4782 36.9013 27.407 36.8847 27.3396L36.4963 27.4353ZM36.4959 27.4337L36.4965 27.4362L36.8844 27.3387L36.8838 27.3362L36.4959 27.4337ZM36.4931 27.425C36.4943 27.4283 36.4953 27.4314 36.4961 27.4345L36.8836 27.3353C36.879 27.3173 36.8734 27.2998 36.8669 27.2829L36.4931 27.425ZM36.491 27.4199L36.4941 27.4276L36.8659 27.2802L36.8629 27.2725L36.491 27.4199ZM36.4886 27.415C36.4899 27.4176 36.491 27.42 36.492 27.4225L36.8618 27.2699C36.8568 27.2577 36.8513 27.2459 36.8455 27.2343L36.4886 27.415ZM36.2064 27.2691C36.2664 27.2733 36.3315 27.292 36.3863 27.3219C36.4421 27.3524 36.4745 27.3872 36.4886 27.415L36.8455 27.2343C36.7848 27.1145 36.6825 27.0279 36.578 26.9708C36.4725 26.9132 36.3515 26.8782 36.2343 26.87L36.2064 27.2691ZM36.1732 27.2688C36.185 27.2682 36.1962 27.2684 36.2068 27.2691L36.2339 26.87C36.2077 26.8682 36.1814 26.868 36.1553 26.8692L36.1732 27.2688ZM36.1601 27.2696L36.1762 27.2686L36.1523 26.8693L36.1363 26.8703L36.1601 27.2696ZM36.0645 27.2898C36.0984 27.2784 36.132 27.2717 36.1631 27.2694L36.1333 26.8705C36.0671 26.8754 36.0008 26.8892 35.9371 26.9106L36.0645 27.2898ZM36.092 27.279C36.096 27.2765 36.1 27.274 36.104 27.2715L35.8976 26.9289C35.8899 26.9335 35.8823 26.9383 35.8747 26.9432L36.092 27.279ZM36.0906 27.2799L36.0927 27.2785L35.874 26.9436L35.8719 26.945L36.0906 27.2799ZM36.0803 27.2869C36.0836 27.2846 36.0871 27.2823 36.0906 27.2799L35.8719 26.945C35.8653 26.9493 35.8587 26.9538 35.8521 26.9584L36.0803 27.2869ZM36.0757 27.2901C36.0772 27.2891 36.0787 27.288 36.0803 27.2869L35.8521 26.9584C35.8491 26.9605 35.846 26.9626 35.843 26.9648L36.0757 27.2901ZM36.0088 27.351C36.0274 27.3291 36.0499 27.3085 36.0757 27.2901L35.843 26.9648C35.7928 27.0007 35.7457 27.043 35.7042 27.0917L36.0088 27.351ZM36.0079 27.352L36.009 27.3508L35.704 27.092L35.7029 27.0932L36.0079 27.352ZM35.9885 27.3776C35.9944 27.3688 36.001 27.3602 36.0081 27.3518L35.7027 27.0934C35.6868 27.1123 35.6716 27.1322 35.6575 27.153L35.9885 27.3776ZM35.9864 27.3806L35.989 27.3768L35.657 27.1538L35.6544 27.1576L35.9864 27.3806ZM35.9729 27.4035C35.9771 27.3955 35.9818 27.3876 35.987 27.3798L35.6539 27.1584C35.6415 27.177 35.6299 27.1964 35.6192 27.2166L35.9729 27.4035ZM35.9697 27.4098C35.9707 27.4077 35.9718 27.4056 35.9729 27.4035L35.6192 27.2166C35.6165 27.2218 35.6138 27.2271 35.6111 27.2325L35.9697 27.4098ZM35.9666 27.4163C35.9676 27.4141 35.9686 27.4119 35.9697 27.4098L35.6111 27.2325C35.6084 27.238 35.6058 27.2434 35.6033 27.2489L35.9666 27.4163ZM35.9484 27.4731C35.9521 27.4533 35.9583 27.4343 35.9666 27.4162L35.6032 27.249C35.5816 27.2959 35.5652 27.3462 35.5552 27.3995L35.9484 27.4731ZM35.945 27.4988C35.9457 27.49 35.9469 27.4814 35.9484 27.4731L35.5552 27.3995C35.5511 27.4217 35.5481 27.4443 35.5463 27.4673L35.945 27.4988ZM35.6302 27.6831H35.7456V27.2831H35.6302V27.6831ZM35.8257 27.5254C35.8259 27.5243 35.8261 27.5233 35.8263 27.5223L35.4341 27.4438C35.4336 27.4465 35.4331 27.4491 35.4326 27.4517L35.8257 27.5254ZM35.8225 27.5501C35.8232 27.5416 35.8243 27.5333 35.8258 27.5253L35.4326 27.4518C35.4285 27.4737 35.4255 27.496 35.4237 27.5186L35.8225 27.5501ZM34.6232 27.7344H35.6231V27.3344H34.6232V27.7344ZM34.4664 27.1366L34.4245 27.5122L34.822 27.5566L34.8639 27.181L34.4664 27.1366ZM34.4724 27.0918C34.4701 27.1066 34.4681 27.1214 34.4664 27.1363L34.8639 27.1812C34.865 27.1718 34.8662 27.1624 34.8677 27.1531L34.4724 27.0918ZM34.8062 26.4499C34.6365 26.6227 34.5116 26.839 34.4724 27.0918L34.8677 27.1531C34.8919 26.9966 34.9701 26.8539 35.0916 26.7301L34.8062 26.4499ZM34.9181 26.3471C34.879 26.3795 34.8416 26.4138 34.8062 26.4499L35.0916 26.7301C35.117 26.7042 35.1443 26.6792 35.1734 26.6551L34.9181 26.3471ZM34.9188 26.3466L34.918 26.3473L35.1735 26.655L35.1743 26.6543L34.9188 26.3466ZM34.9466 26.3241C34.9374 26.3314 34.9282 26.3388 34.9191 26.3464L35.1741 26.6545C35.1808 26.649 35.1877 26.6434 35.1946 26.6379L34.9466 26.3241ZM34.9928 26.289C34.9772 26.3004 34.9618 26.3121 34.9466 26.3241L35.1946 26.6379C35.2059 26.629 35.2175 26.6202 35.2293 26.6115L34.9928 26.289ZM35.0345 26.2593C35.0204 26.269 35.0065 26.2789 34.9928 26.289L35.2293 26.6115C35.2397 26.6039 35.2503 26.5964 35.261 26.589L35.0345 26.2593ZM35.1307 26.1978C35.0979 26.2173 35.0658 26.2378 35.0345 26.2593L35.261 26.589C35.2849 26.5726 35.3096 26.5569 35.335 26.5417L35.1307 26.1978ZM35.1474 26.1854C35.1368 26.1927 35.1263 26.2001 35.1159 26.2075L35.3498 26.532C35.3577 26.5263 35.3657 26.5207 35.3738 26.5151L35.1474 26.1854ZM35.6883 25.93C35.4958 25.9876 35.3104 26.0734 35.1474 26.1854L35.3738 26.5151C35.4996 26.4288 35.6465 26.36 35.803 26.3132L35.6883 25.93ZM35.9643 25.8673C35.8712 25.8819 35.7787 25.9029 35.6883 25.93L35.803 26.3132C35.8762 26.2913 35.951 26.2743 36.0262 26.2625L35.9643 25.8673ZM36.2966 25.8432C36.1862 25.8417 36.0746 25.8501 35.9643 25.8673L36.0262 26.2625C36.1153 26.2486 36.2044 26.242 36.2914 26.2431L36.2966 25.8432ZM36.434 25.8477C36.3872 25.8445 36.3402 25.843 36.2932 25.8432L36.2948 26.2432C36.3321 26.243 36.3695 26.2442 36.4069 26.2468L36.434 25.8477ZM36.436 25.8478L36.4341 25.8477L36.4067 26.2467L36.4087 26.2469L36.436 25.8478ZM37.1277 26.0229C36.9114 25.924 36.6748 25.8643 36.4361 25.8478L36.4086 26.2469C36.5998 26.2601 36.7893 26.3081 36.9613 26.3867L37.1277 26.0229ZM37.3374 26.1353C37.2701 26.0935 37.1999 26.056 37.1276 26.0229L36.9613 26.3867C37.0186 26.4129 37.0738 26.4424 37.1263 26.475L37.3374 26.1353ZM37.841 26.6179C37.7106 26.4203 37.5357 26.2585 37.3374 26.1353L37.1263 26.475C37.2813 26.5714 37.4121 26.6942 37.5071 26.8382L37.841 26.6179ZM38.0658 27.2488C38.0433 27.0288 37.9713 26.8119 37.8401 26.6165L37.508 26.8395C37.5998 26.9762 37.6515 27.1294 37.6678 27.2894L38.0658 27.2488ZM38.0708 27.4962C38.0757 27.414 38.0742 27.3312 38.0658 27.2488L37.6678 27.2894C37.674 27.3497 37.6752 27.4109 37.6715 27.4727L38.0708 27.4962ZM38.0488 27.6839C38.0597 27.6219 38.0671 27.5592 38.0708 27.4962L37.6715 27.4727C37.6687 27.5199 37.6631 27.5673 37.6548 27.6147L38.0488 27.6839ZM38.0474 27.6915L38.0487 27.6844L37.6549 27.6143L37.6536 27.6213L38.0474 27.6915ZM37.6295 28.5546C37.842 28.3123 37.9901 28.0087 38.0473 27.692L37.6537 27.6208C37.6096 27.8648 37.4943 28.1021 37.3287 28.2909L37.6295 28.5546ZM37.4225 28.7607C37.4958 28.6979 37.5661 28.629 37.6313 28.5525L37.3269 28.293C37.2769 28.3517 37.2219 28.4058 37.1622 28.4569L37.4225 28.7607ZM36.8472 29.1456C37.0401 29.0361 37.2423 28.915 37.4225 28.7607L37.1622 28.4569C37.0133 28.5845 36.8399 28.6897 36.6496 28.7978L36.8472 29.1456ZM36.8278 29.1566L36.8471 29.1457L36.6498 28.7978L36.6306 28.8087L36.8278 29.1566ZM36.7386 29.2069L36.8273 29.1569L36.6311 28.8084L36.5423 28.8583L36.7386 29.2069ZM36.6794 29.2402L36.7385 29.2069L36.5424 28.8583L36.4833 28.8915L36.6794 29.2402ZM36.5413 29.3191C36.5867 29.2926 36.6327 29.2665 36.6795 29.2401L36.4831 28.8916C36.4356 28.9184 36.3876 28.9457 36.3397 28.9737L36.5413 29.3191ZM36.3116 29.4622C36.3847 29.4127 36.4614 29.3658 36.5413 29.3191L36.3397 28.9737C36.2553 29.0229 36.1703 29.0748 36.0872 29.1311L36.3116 29.4622ZM36.307 29.4654L36.3118 29.4621L36.0871 29.1312L36.0823 29.1345L36.307 29.4654ZM36.2208 29.5266C36.2489 29.5058 36.2777 29.4853 36.3072 29.4653L36.0821 29.1346C36.0484 29.1575 36.0149 29.1812 35.9819 29.2059L36.2208 29.5266ZM37.9633 29.1663H36.1013V29.5663H37.9633V29.1663ZM27.1334 27.8151L26.232 27.3455L26.0472 27.7002L26.9486 28.1698L27.1334 27.8151ZM27.2055 28.1069C27.2079 28.103 27.2103 28.0991 27.2126 28.0952L26.8693 27.8898C26.8673 27.8932 26.8652 27.8966 26.8632 27.9L27.2055 28.1069ZM27.1846 27.8562L27.1268 27.8261L26.9419 28.1808L26.9997 28.211L27.1846 27.8562ZM27.2446 28.1678C27.2511 28.1574 27.2574 28.1469 27.2638 28.1363L26.9205 27.9309C26.915 27.9401 26.9095 27.9492 26.9039 27.9584L27.2446 28.1678ZM27.2312 28.1895C27.2357 28.1823 27.2402 28.1751 27.2446 28.1678L26.9039 27.9583C26.9 27.9646 26.8961 27.9709 26.8922 27.9772L27.2312 28.1895ZM26.9999 28.5111C27.0833 28.4095 27.1606 28.3022 27.2312 28.1895L26.8922 27.9772C26.8308 28.0752 26.7634 28.1687 26.6907 28.2572L26.9999 28.5111ZM26.533 28.9717C26.7033 28.8354 26.8601 28.6813 26.9999 28.5111L26.6907 28.2572C26.5689 28.4056 26.432 28.5401 26.283 28.6595L26.533 28.9717ZM26.3105 29.1348C26.3869 29.0837 26.4612 29.0293 26.533 28.9717L26.283 28.6595C26.2201 28.7099 26.1551 28.7575 26.0881 28.8023L26.3105 29.1348ZM25.8175 29.4062C25.9894 29.33 26.1545 29.2392 26.3105 29.1348L26.0881 28.8023C25.9513 28.8938 25.8064 28.9735 25.6553 29.0406L25.8175 29.4062ZM25.6092 29.4902C25.6797 29.4645 25.7491 29.4365 25.8175 29.4062L25.6553 29.0405C25.5953 29.0672 25.5342 29.0918 25.4723 29.1144L25.6092 29.4902ZM25.3134 29.5826C25.4136 29.5564 25.5123 29.5255 25.6092 29.4902L25.4723 29.1144C25.3871 29.1454 25.3003 29.1726 25.2121 29.1956L25.3134 29.5826ZM24.0662 29.6652C24.491 29.7181 24.9141 29.687 25.3133 29.5826L25.2121 29.1956C24.8609 29.2875 24.489 29.3148 24.1156 29.2683L24.0662 29.6652ZM23.7603 29.6235C23.8647 29.6427 23.9691 29.6568 24.0733 29.666L24.1086 29.2676C24.0167 29.2594 23.9246 29.247 23.8327 29.2301L23.7603 29.6235ZM23.7575 29.623L23.7603 29.6235L23.8327 29.2301L23.83 29.2296L23.7575 29.623ZM23.7327 29.6183L23.7567 29.6228L23.8308 29.2297L23.8069 29.2252L23.7327 29.6183ZM21.124 26.9527C21.3141 28.2812 22.3619 29.3537 23.7319 29.6181L23.8077 29.2254C22.5967 28.9916 21.6847 28.0473 21.52 26.8961L21.124 26.9527ZM21.1239 26.9514L21.124 26.9527L21.52 26.8961L21.5198 26.8948L21.1239 26.9514ZM21.1209 26.9301L21.1237 26.9506L21.5199 26.8956L21.5171 26.8751L21.1209 26.9301ZM22.9176 23.6891C21.6582 24.2899 20.9377 25.5923 21.1208 26.9298L21.5171 26.8755C21.3586 25.7176 21.9809 24.5792 23.0899 24.0501L22.9176 23.6891ZM22.9687 23.6653C22.9517 23.6731 22.9346 23.681 22.9176 23.6891L23.0899 24.0501C23.1048 24.043 23.1197 24.036 23.1347 24.0292L22.9687 23.6653ZM22.9705 23.6644L22.9688 23.6653L23.1347 24.0292L23.1365 24.0284L22.9705 23.6644ZM24.4273 23.3657C23.9337 23.3564 23.4344 23.4533 22.9706 23.6644L23.1364 24.0284C23.5435 23.8431 23.9834 23.7574 24.4197 23.7656L24.4273 23.3657ZM24.9069 23.4084C24.7485 23.383 24.5881 23.3687 24.4273 23.3657L24.4197 23.7656C24.5619 23.7683 24.7036 23.781 24.8436 23.8034L24.9069 23.4084ZM24.9441 23.4146L24.9079 23.4086L24.8426 23.8032L24.8788 23.8092L24.9441 23.4146ZM25.5246 23.5672C25.3364 23.4995 25.1424 23.4485 24.9452 23.4148L24.8777 23.809C25.0519 23.8389 25.2231 23.8839 25.3891 23.9436L25.5246 23.5672ZM26.4678 24.0924C26.1821 23.8648 25.8626 23.6889 25.5246 23.5672L25.3891 23.9436C25.6872 24.0509 25.9681 24.2057 26.2186 24.4052L26.4678 24.0924ZM26.6411 24.2406C26.5849 24.189 26.5271 24.1396 26.4678 24.0924L26.2186 24.4052C26.2706 24.4466 26.3212 24.49 26.3705 24.5352L26.6411 24.2406ZM26.6935 24.2899C26.6762 24.2732 26.6587 24.2568 26.6411 24.2406L26.3705 24.5352C26.386 24.5494 26.4013 24.5638 26.4164 24.5784L26.6935 24.2899ZM26.6584 24.6102L26.6892 24.5824L26.4208 24.2858L26.3901 24.3136L26.6584 24.6102ZM26.703 24.3537C26.6876 24.3396 26.6722 24.3257 26.6567 24.312L26.3919 24.6118C26.4055 24.6238 26.419 24.636 26.4324 24.6483L26.703 24.3537ZM26.7544 24.402C26.7374 24.3857 26.7203 24.3696 26.703 24.3537L26.4324 24.6483C26.4475 24.6622 26.4625 24.6762 26.4773 24.6905L26.7544 24.402ZM26.0247 25.3508L26.75 24.6946L26.4817 24.3979L25.7563 25.0541L26.0247 25.3508ZM25.0993 24.9419C25.3381 25.0269 25.561 25.1624 25.7516 25.3463L26.0294 25.0586C25.797 24.8342 25.5249 24.6688 25.2335 24.565L25.0993 24.9419ZM24.7878 24.8611C24.8936 24.8788 24.9981 24.9059 25.0993 24.9419L25.2335 24.565C25.11 24.5211 24.9827 24.4882 24.854 24.4666L24.7878 24.8611ZM24.4711 24.8358C24.5775 24.8351 24.6834 24.8436 24.7878 24.8611L24.8539 24.4666C24.7268 24.4453 24.5978 24.435 24.4685 24.4358L24.4711 24.8358ZM23.6818 25.0178C23.9344 24.8973 24.2039 24.8376 24.4711 24.8358L24.4685 24.4358C24.1433 24.438 23.8159 24.5106 23.5096 24.6567L23.6818 25.0178ZM23.6395 25.0385C23.6534 25.0315 23.6674 25.0246 23.6815 25.0179L23.51 24.6566C23.4928 24.6647 23.4757 24.6731 23.4588 24.6817L23.6395 25.0385ZM22.6844 26.8038C22.5944 26.0772 22.9779 25.3736 23.6395 25.0385L23.4588 24.6817C22.6512 25.0907 22.1761 25.954 22.2874 26.853L22.6844 26.8038ZM22.6846 26.8054L22.6844 26.8037L22.2874 26.8531L22.2876 26.8547L22.6846 26.8054ZM22.687 26.8242L22.6844 26.8043L22.2878 26.8559L22.2904 26.8758L22.687 26.8242ZM23.9275 28.2604C23.2701 28.0561 22.7797 27.5022 22.6869 26.8229L22.2905 26.8771C22.4055 27.7184 23.0111 28.3945 23.8089 28.6424L23.9275 28.2604ZM23.9935 28.2747C23.9676 28.2694 23.9419 28.2636 23.9164 28.2573L23.82 28.6455C23.8509 28.6531 23.882 28.6602 23.9133 28.6666L23.9935 28.2747ZM24.0178 28.2795L23.9923 28.2745L23.9145 28.6668L23.94 28.6719L24.0178 28.2795ZM24.8303 28.26C24.5703 28.3242 24.2934 28.3332 24.0171 28.2794L23.9407 28.672C24.2747 28.7371 24.6104 28.7263 24.9262 28.6483L24.8303 28.26ZM25.0089 28.2062C24.9504 28.2271 24.8908 28.245 24.8303 28.26L24.9262 28.6483C24.9997 28.6301 25.0722 28.6083 25.1433 28.583L25.0089 28.2062ZM25.8077 27.6473C25.5947 27.9052 25.3176 28.0961 25.0089 28.2062L25.1433 28.583C25.5185 28.4492 25.8561 28.2168 26.1161 27.902L25.8077 27.6473ZM25.9679 27.4202C25.9197 27.5008 25.8661 27.5766 25.8077 27.6473L26.1161 27.902C26.1873 27.8158 26.2526 27.7235 26.3113 27.6255L25.9679 27.4202ZM26.3361 45.9022H32.89V45.5022H26.3361V45.9022ZM33.0828 45.649L32.3568 43.018L31.9712 43.1244L32.6972 45.7554L33.0828 45.649ZM32.164 42.8712H27.0596V43.2712H32.164V42.8712ZM26.8668 43.0182L26.1433 45.6491L26.5289 45.7552L27.2525 43.1242L26.8668 43.0182Z" fill="#E9FD57" mask="url(#path-2-outside-1_1853:718)"/>
</svg>
