<svg width="60" height="61" viewBox="0 0 60 61" fill="none" xmlns="http://www.w3.org/2000/svg">
<circle cx="30" cy="30.6899" r="30" fill="#2B1F2E"/>
<path d="M24.6682 21.0413V24.4467C24.6682 24.5972 24.728 24.7416 24.8343 24.848C24.9407 24.9545 25.0849 25.0143 25.2354 25.0143H26.9369V26.717C26.9369 26.8675 26.9966 27.0118 27.103 27.1183C27.2094 27.2247 27.3536 27.2845 27.5041 27.2845H30.9071C31.0575 27.2845 31.2018 27.2247 31.3081 27.1183C31.4145 27.0118 31.4743 26.8675 31.4743 26.717V25.0143H33.1758C33.3262 25.0143 33.4705 24.9545 33.5768 24.848C33.6832 24.7416 33.7429 24.5972 33.7429 24.4467V21.0413C33.7429 20.8908 33.6832 20.7465 33.5768 20.64C33.4705 20.5336 33.3262 20.4738 33.1758 20.4738H31.4743V18.7711C31.4743 18.6206 31.4145 18.4762 31.3081 18.3698C31.2018 18.2633 31.0575 18.2035 30.9071 18.2035H27.5041C27.3536 18.2035 27.2094 18.2633 27.103 18.3698C26.9966 18.4762 26.9369 18.6206 26.9369 18.7711V20.4738H25.2354C25.0849 20.4738 24.9407 20.5336 24.8343 20.64C24.728 20.7465 24.6682 20.8908 24.6682 21.0413ZM25.8025 21.6089H27.5041C27.6545 21.6089 27.7987 21.5491 27.9051 21.4427C28.0115 21.3362 28.0712 21.1919 28.0712 21.0413V19.3387H30.3399V21.0413C30.3399 21.1919 30.3997 21.3362 30.506 21.4427C30.6124 21.5491 30.7567 21.6089 30.9071 21.6089H32.6086V23.8792H30.9071C30.7567 23.8792 30.6124 23.9389 30.506 24.0454C30.3997 24.1518 30.3399 24.2962 30.3399 24.4467V26.1494H28.0712V24.4467C28.0712 24.2962 28.0115 24.1518 27.9051 24.0454C27.7987 23.9389 27.6545 23.8792 27.5041 23.8792H25.8025V21.6089Z" fill="#E9FD57"/>
<path d="M21.8323 32.3926H28.0712C28.2216 32.3926 28.3659 32.3328 28.4723 32.2263C28.5786 32.1199 28.6384 31.9755 28.6384 31.825V29.5548C28.6384 29.4042 28.5786 29.2599 28.4723 29.1534C28.3659 29.047 28.2216 28.9872 28.0712 28.9872H21.8323C21.6819 28.9872 21.5377 29.047 21.4313 29.1534C21.3249 29.2599 21.2652 29.4042 21.2652 29.5548V31.825C21.2652 31.9755 21.3249 32.1199 21.4313 32.2263C21.5377 32.3328 21.6819 32.3926 21.8323 32.3926ZM22.3995 30.1223H27.5041V31.2574H22.3995V30.1223Z" fill="#E9FD57"/>
<path d="M36.5788 28.9872H30.3399C30.1895 28.9872 30.0452 29.047 29.9389 29.1534C29.8325 29.2599 29.7727 29.4042 29.7727 29.5548V31.825C29.7727 31.9755 29.8325 32.1199 29.9389 32.2263C30.0452 32.3328 30.1895 32.3926 30.3399 32.3926H36.5788C36.7292 32.3926 36.8735 32.3328 36.9798 32.2263C37.0862 32.1199 37.146 31.9755 37.146 31.825V29.5548C37.146 29.4042 37.0862 29.2599 36.9798 29.1534C36.8735 29.047 36.7292 28.9872 36.5788 28.9872ZM36.0116 31.2574H30.9071V30.1223H36.0116V31.2574Z" fill="#E9FD57"/>
<path d="M28.0712 36.9331C28.2216 36.9331 28.3659 36.8733 28.4723 36.7668C28.5786 36.6604 28.6384 36.516 28.6384 36.3655V34.0953C28.6384 33.9447 28.5786 33.8004 28.4723 33.6939C28.3659 33.5875 28.2216 33.5277 28.0712 33.5277H21.8323C21.6819 33.5277 21.5377 33.5875 21.4313 33.6939C21.3249 33.8004 21.2652 33.9447 21.2652 34.0953V36.3655C21.2652 36.516 21.3249 36.6604 21.4313 36.7668C21.5377 36.8733 21.6819 36.9331 21.8323 36.9331H28.0712ZM22.3995 34.6628H27.5041V35.7979H22.3995V34.6628Z" fill="#E9FD57"/>
<path d="M36.5788 33.5277H30.3399C30.1895 33.5277 30.0452 33.5875 29.9389 33.6939C29.8325 33.8004 29.7727 33.9447 29.7727 34.0953V36.3655C29.7727 36.516 29.8325 36.6604 29.9389 36.7668C30.0452 36.8733 30.1895 36.9331 30.3399 36.9331H36.5788C36.7292 36.9331 36.8735 36.8733 36.9798 36.7668C37.0862 36.6604 37.146 36.516 37.146 36.3655V34.0953C37.146 33.9447 37.0862 33.8004 36.9798 33.6939C36.8735 33.5875 36.7292 33.5277 36.5788 33.5277ZM36.0116 35.7979H30.9071V34.6628H36.0116V35.7979Z" fill="#E9FD57"/>
<path d="M21.8323 21.6089C21.9828 21.6089 22.127 21.5491 22.2334 21.4427C22.3398 21.3362 22.3995 21.1919 22.3995 21.0413V19.3387H25.2354C25.3858 19.3387 25.5301 19.2789 25.6364 19.1724C25.7428 19.066 25.8025 18.9216 25.8025 18.7711C25.8025 18.6206 25.7428 18.4762 25.6364 18.3698C25.5301 18.2633 25.3858 18.2035 25.2354 18.2035H21.8323C21.6819 18.2035 21.5377 18.2633 21.4313 18.3698C21.3249 18.4762 21.2652 18.6206 21.2652 18.7711V21.0413C21.2652 21.1919 21.3249 21.3362 21.4313 21.4427C21.5377 21.5491 21.6819 21.6089 21.8323 21.6089Z" fill="#E9FD57"/>
<path d="M21.8323 27.2845H25.2354C25.3858 27.2845 25.5301 27.2247 25.6364 27.1183C25.7428 27.0118 25.8025 26.8675 25.8025 26.717C25.8025 26.5664 25.7428 26.4221 25.6364 26.3156C25.5301 26.2092 25.3858 26.1494 25.2354 26.1494H22.3995V24.4467C22.3995 24.2962 22.3398 24.1518 22.2334 24.0454C22.127 23.9389 21.9828 23.8792 21.8323 23.8792C21.6819 23.8792 21.5377 23.9389 21.4313 24.0454C21.3249 24.1518 21.2652 24.2962 21.2652 24.4467V26.717C21.2652 26.8675 21.3249 27.0118 21.4313 27.1183C21.5377 27.2247 21.6819 27.2845 21.8323 27.2845Z" fill="#E9FD57"/>
<path d="M33.1758 19.3387H36.0116V21.0413C36.0116 21.1919 36.0714 21.3362 36.1777 21.4427C36.2841 21.5491 36.4284 21.6089 36.5788 21.6089C36.7292 21.6089 36.8735 21.5491 36.9798 21.4427C37.0862 21.3362 37.146 21.1919 37.146 21.0413V18.7711C37.146 18.6206 37.0862 18.4762 36.9798 18.3698C36.8735 18.2633 36.7292 18.2035 36.5788 18.2035H33.1758C33.0253 18.2035 32.8811 18.2633 32.7747 18.3698C32.6683 18.4762 32.6086 18.6206 32.6086 18.7711C32.6086 18.9216 32.6683 19.066 32.7747 19.1724C32.8811 19.2789 33.0253 19.3387 33.1758 19.3387Z" fill="#E9FD57"/>
<path d="M36.5788 23.8792C36.4284 23.8792 36.2841 23.9389 36.1777 24.0454C36.0714 24.1518 36.0116 24.2962 36.0116 24.4467V26.1494H33.1758C33.0253 26.1494 32.8811 26.2092 32.7747 26.3156C32.6683 26.4221 32.6086 26.5664 32.6086 26.717C32.6086 26.8675 32.6683 27.0118 32.7747 27.1183C32.8811 27.2247 33.0253 27.2845 33.1758 27.2845H36.5788C36.7292 27.2845 36.8735 27.2247 36.9798 27.1183C37.0862 27.0118 37.146 26.8675 37.146 26.717V24.4467C37.146 24.2962 37.0862 24.1518 36.9798 24.0454C36.8735 23.9389 36.7292 23.8792 36.5788 23.8792Z" fill="#E9FD57"/>
<path d="M44.9446 28.4196H39.4146V17.0599C39.7265 17.025 40.0146 16.8764 40.2238 16.6424C40.4331 16.4084 40.5488 16.1054 40.549 15.7914V14.9401C40.549 14.6014 40.4145 14.2766 40.1752 14.0371C39.9359 13.7976 39.6113 13.6631 39.2729 13.6631H19.1383C18.7998 13.6631 18.4752 13.7976 18.2359 14.0371C17.9966 14.2766 17.8621 14.6014 17.8621 14.9401V15.7914C17.8623 16.1054 17.9781 16.4084 18.1873 16.6424C18.3966 16.8764 18.6846 17.025 18.9965 17.0599V28.4196H13.4666C13.1281 28.4196 12.8035 28.5542 12.5642 28.7937C12.3249 29.0332 12.1904 29.358 12.1904 29.6967V30.548C12.1906 30.862 12.3063 31.165 12.5156 31.399C12.7248 31.633 13.0129 31.7816 13.3248 31.8165V47.1492C13.3248 47.2997 13.3845 47.444 13.4909 47.5505C13.5973 47.6569 13.7415 47.7167 13.8919 47.7167H44.5192C44.6696 47.7167 44.8139 47.6569 44.9202 47.5505C45.0266 47.444 45.0864 47.2997 45.0864 47.1492V31.8165C45.3982 31.7816 45.6863 31.633 45.8955 31.399C46.1048 31.165 46.2206 30.862 46.2207 30.548V29.6967C46.2207 29.358 46.0863 29.0332 45.8469 28.7937C45.6076 28.5542 45.283 28.4196 44.9446 28.4196ZM39.4146 34.6628H41.6833V35.7979H39.4146V34.6628ZM39.4146 39.2033H41.6833V40.3384H39.4146V39.2033ZM18.9965 14.9401C18.9965 14.9024 19.0114 14.8663 19.038 14.8397C19.0646 14.8131 19.1007 14.7982 19.1383 14.7982H39.2729C39.3105 14.7982 39.3465 14.8131 39.3731 14.8397C39.3997 14.8663 39.4146 14.9024 39.4146 14.9401V15.7914C39.4146 15.829 39.3997 15.8651 39.3731 15.8917C39.3465 15.9184 39.3105 15.9333 39.2729 15.9333H19.1383C19.1007 15.9333 19.0646 15.9184 19.038 15.8917C19.0114 15.8651 18.9965 15.829 18.9965 15.7914V14.9401ZM18.9965 40.3384H16.7278V39.2033H18.9965V40.3384ZM18.9965 35.7979H16.7278V34.6628H18.9965V35.7979ZM13.3248 29.6967C13.3248 29.659 13.3397 29.6229 13.3663 29.5963C13.3929 29.5697 13.429 29.5548 13.4666 29.5548H18.9965V30.6899H13.4666C13.429 30.6899 13.3929 30.6749 13.3663 30.6483C13.3397 30.6217 13.3248 30.5856 13.3248 30.548V29.6967ZM14.4591 31.825H18.9965V33.5277H16.1606C16.0102 33.5277 15.8659 33.5875 15.7596 33.6939C15.6532 33.8004 15.5935 33.9447 15.5935 34.0953V36.3655C15.5935 36.516 15.6532 36.6604 15.7596 36.7668C15.8659 36.8733 16.0102 36.9331 16.1606 36.9331H18.9965V38.0682H16.1606C16.0102 38.0682 15.8659 38.128 15.7596 38.2344C15.6532 38.3409 15.5935 38.4852 15.5935 38.6357V40.906C15.5935 41.0565 15.6532 41.2009 15.7596 41.3073C15.8659 41.4138 16.0102 41.4735 16.1606 41.4735H18.9965V46.5816H14.4591V31.825ZM20.1308 17.0684H38.2803V46.5816H34.3101V38.6357C34.3101 38.4852 34.2504 38.3409 34.144 38.2344C34.0376 38.128 33.8934 38.0682 33.7429 38.0682H24.6682C24.5178 38.0682 24.3735 38.128 24.2671 38.2344C24.1608 38.3409 24.101 38.4852 24.101 38.6357V46.5816H20.1308V17.0684ZM25.2354 46.5816V39.2033H28.6384V42.0411H28.0712C27.9208 42.0411 27.7765 42.1009 27.6702 42.2073C27.5638 42.3138 27.5041 42.4581 27.5041 42.6087C27.5041 42.7592 27.5638 42.9036 27.6702 43.01C27.7765 43.1164 27.9208 43.1762 28.0712 43.1762H28.6384V46.5816H25.2354ZM29.7727 46.5816V43.1762H30.3399C30.4903 43.1762 30.6346 43.1164 30.741 43.01C30.8473 42.9036 30.9071 42.7592 30.9071 42.6087C30.9071 42.4581 30.8473 42.3138 30.741 42.2073C30.6346 42.1009 30.4903 42.0411 30.3399 42.0411H29.7727V39.2033H33.1758V46.5816H29.7727ZM43.952 46.5816H39.4146V41.4735H42.2505C42.4009 41.4735 42.5452 41.4138 42.6516 41.3073C42.7579 41.2009 42.8177 41.0565 42.8177 40.906V38.6357C42.8177 38.4852 42.7579 38.3409 42.6516 38.2344C42.5452 38.128 42.4009 38.0682 42.2505 38.0682H39.4146V36.9331H42.2505C42.4009 36.9331 42.5452 36.8733 42.6516 36.7668C42.7579 36.6604 42.8177 36.516 42.8177 36.3655V34.0953C42.8177 33.9447 42.7579 33.8004 42.6516 33.6939C42.5452 33.5875 42.4009 33.5277 42.2505 33.5277H39.4146V31.825H43.952V46.5816ZM45.0864 30.548C45.0864 30.5856 45.0714 30.6217 45.0448 30.6483C45.0182 30.6749 44.9822 30.6899 44.9446 30.6899H39.4146V29.5548H44.9446C44.9822 29.5548 45.0182 29.5697 45.0448 29.5963C45.0714 29.6229 45.0864 29.659 45.0864 29.6967V30.548Z" fill="#E9FD57"/>
</svg>
