<svg width="60" height="61" viewBox="0 0 60 61" fill="none" xmlns="http://www.w3.org/2000/svg">
<circle cx="30" cy="30.1499" r="30" fill="#2B1F2E"/>
<g clip-path="url(#clip0_1853:209)">
<path d="M16.3193 20.3125H17.651V22.1513H16.3193V20.3125ZM19.4266 22.1513H20.7583V20.3125H19.4266V22.1513ZM22.5338 22.1513H23.8655V20.3125H22.5338V22.1513ZM16.3193 25.7185H17.651V23.8797H16.3193V25.7185ZM19.4266 25.7185H20.7583V23.8797H19.4266V25.7185ZM22.5338 25.7185H23.8655V23.8797H22.5338V25.7185ZM16.3193 29.2857H17.651V27.4469H16.3193V29.2857ZM19.4266 29.2857H20.7583V27.4469H19.4266V29.2857ZM22.5338 29.2857H23.8655V27.4469H22.5338V29.2857ZM16.3193 32.8528H17.651V31.0141H16.3193V32.8528ZM19.4266 32.8528H20.7583V31.0141H19.4266V32.8528ZM22.5338 32.8528H23.8655V31.0141H22.5338V32.8528ZM16.3193 36.4568H17.651V34.6181H16.3193V36.4568ZM19.4266 36.4568H20.7583V34.6181H19.4266V36.4568ZM22.5338 36.4568H23.8655V34.6181H22.5338V36.4568ZM16.3193 40.024H17.651V38.1852H16.3193V40.024ZM19.4266 40.024H20.7583V38.1852H19.4266V40.024ZM22.5338 40.024H23.8655V38.1852H22.5338V40.024ZM28.8694 29.2857H30.2011V27.4469H28.8694V29.2857ZM31.9767 29.2857H33.3084V27.4469H31.9767V29.2857ZM35.084 29.2857H36.4157V27.4469H35.084V29.2857ZM28.8694 32.8528H30.2011V31.0141H28.8694V32.8528ZM31.9767 32.8528H33.3084V31.0141H31.9767V32.8528ZM35.084 32.8528H36.4157V31.0141H35.084V32.8528ZM28.8694 36.4568H30.2011V34.6181H28.8694V36.4568ZM31.9767 36.4568H33.3084V34.6181H31.9767V36.4568ZM35.084 36.4568H36.4157V34.6181H35.084V36.4568ZM28.8694 40.024H30.2011V38.1852H28.8694V40.024ZM31.9767 40.024H33.3084V38.1852H31.9767V40.024ZM35.084 40.024H36.4157V38.1852H35.084V40.024ZM50.0554 41.9363V43.1499H38.9176H26.3675H13.8577H9.94336V41.9363H13.1717V17.775C13.1717 17.4441 13.4542 17.1499 13.8577 17.1499H26.4078C26.771 17.1499 27.0939 17.4073 27.0939 17.775V24.1739H38.958C39.3212 24.1739 39.644 24.4313 39.644 24.7991V41.9363H44.2444V40.2079C42.8723 40.024 41.8231 38.9207 41.8231 37.6336V34.2503C41.8231 32.8161 43.1144 31.6393 44.6883 31.6393H45.1322C46.706 31.6393 47.9973 32.8161 47.9973 34.2503V37.6336C47.9973 38.9207 46.9481 39.9872 45.576 40.2079V41.9363H50.0554ZM44.204 38.9575V36.0523H45.5357V38.9575C46.141 38.7736 46.5849 38.2588 46.5849 37.6336V34.2503C46.5849 33.478 45.8989 32.8896 45.0918 32.8896H44.6479C43.8005 32.8896 43.1548 33.5148 43.1548 34.2503V37.6336C43.1144 38.2588 43.5987 38.8104 44.204 38.9575ZM25.7218 41.9363V18.4002H14.5034V41.9363H25.7218ZM38.272 41.9363V25.4243H27.0535V41.9363H38.272Z" fill="#E9FD57"/>
</g>
<defs>
<clipPath id="clip0_1853:209">
<rect width="41.0526" height="40" fill="white" transform="translate(9.47363 10.1499)"/>
</clipPath>
</defs>
</svg>
