<svg width="60" height="61" viewBox="0 0 60 61" fill="none" xmlns="http://www.w3.org/2000/svg">
<circle cx="30" cy="30.2331" r="30" fill="#2B1F2E"/>
<path fill-rule="evenodd" clip-rule="evenodd" d="M31.5141 25.1944V40.872C31.5141 40.9535 31.5285 40.997 31.5358 41.0143C31.5426 41.0304 31.5495 41.0394 31.5592 41.0482C31.5741 41.0617 31.6768 41.1442 31.9588 41.1442H47.5165C47.7985 41.1442 47.9012 41.0617 47.9161 41.0482C47.9257 41.0394 47.9327 41.0304 47.9395 41.0143C47.9467 40.997 47.9612 40.9535 47.9612 40.872V24.9222C47.9612 24.8407 47.9467 24.7972 47.9395 24.78C47.9327 24.7638 47.9257 24.7548 47.9161 24.746C47.9012 24.7325 47.7985 24.65 47.5165 24.65H24.1799C23.8979 24.65 23.7952 24.7325 23.7804 24.746C23.7707 24.7548 23.7637 24.7638 23.7569 24.78C23.7497 24.7972 23.7352 24.8407 23.7352 24.9222C23.7352 25.0037 23.7497 25.0472 23.7569 25.0644C23.7637 25.0805 23.7707 25.0895 23.7804 25.0983C23.7952 25.1119 23.8979 25.1944 24.1799 25.1944H31.5141ZM47.5165 23.15C48.6833 23.15 49.4612 23.8589 49.4612 24.9222V40.872C49.4612 41.9353 48.6833 42.6442 47.5165 42.6442H31.9588C30.792 42.6442 30.0141 41.9353 30.0141 40.872V26.6944H24.1799C23.0131 26.6944 22.2352 25.9855 22.2352 24.9222C22.2352 23.8589 23.0131 23.15 24.1799 23.15H47.5165Z" fill="#E9FD57"/>
<path fill-rule="evenodd" clip-rule="evenodd" d="M20.7352 34.0632H26.1246C26.141 34.0632 26.185 34.0589 26.2516 34.0306C26.3184 34.0022 26.389 33.9574 26.4512 33.9007C26.5141 33.8434 26.5505 33.7903 26.5671 33.758L26.5683 33.7555C26.565 33.6966 26.5537 33.6633 26.5476 33.6488C26.5408 33.6327 26.5338 33.6237 26.5242 33.6149C26.5093 33.6013 26.4066 33.5188 26.1246 33.5188H14.9008L12.9764 19.6842C12.9454 19.5444 12.8695 19.441 12.7858 19.3791C12.6977 19.3138 12.6263 19.3096 12.5861 19.3169L12.5643 19.3209L12.5424 19.3243C12.2688 19.3658 12.1117 19.4805 12.0511 19.5484L12.0482 19.5518L13.9871 33.687C14.0569 33.9239 14.2622 34.0632 14.4563 34.0632H19.8457V40.6076H15.9563V41.152H24.6246V40.6076H20.7352V34.0632ZM12.5116 33.9682L10.5669 19.7907C10.3724 18.9046 11.1503 18.0185 12.3171 17.8413C13.2895 17.664 14.2618 18.3729 14.4563 19.4362L16.2066 32.0188H26.1246C27.2914 32.0188 28.0693 32.7277 28.0693 33.791C28.0693 34.6771 27.097 35.5632 26.1246 35.5632H22.2352V39.1076H25.1522C25.7357 39.1076 26.1246 39.4621 26.1246 39.9937V41.7659C26.1246 42.2976 25.7357 42.652 25.1522 42.652H15.4287C14.8453 42.652 14.4563 42.2976 14.4563 41.7659V39.9937C14.4563 39.4621 14.8453 39.1076 15.4287 39.1076H18.3457V35.5632H14.4563C13.484 35.5632 12.7061 34.8543 12.5116 33.9682Z" fill="#E9FD57"/>
</svg>
