<svg width="60" height="61" viewBox="0 0 60 61" fill="none" xmlns="http://www.w3.org/2000/svg">
<circle cx="30" cy="30.7299" r="30" fill="#2B1F2E"/>
<path fill-rule="evenodd" clip-rule="evenodd" d="M23.9063 33.7576L24.6407 32.4285C25.1808 31.2408 25.463 29.9535 25.4688 28.6504C25.2538 26.5973 24.664 24.6002 23.7282 22.7569L22.8891 20.9609C21.115 17.343 19.0495 14.0328 18.8944 13.7842L18.8944 13.7842L18.8938 13.7832C18.8328 13.698 18.7522 13.6286 18.6587 13.5807C18.5652 13.5328 18.4615 13.5078 18.3563 13.5078C18.2511 13.5078 18.1473 13.5328 18.0538 13.5807C17.9603 13.6286 17.8797 13.698 17.8188 13.7832L17.8181 13.7843C17.541 14.2282 11.25 24.3068 11.25 28.6504C11.25 32.9527 14.1047 36.4594 17.7219 36.8378V50.0983C17.73 50.2605 17.8006 50.4134 17.9191 50.5253C18.0377 50.6373 18.195 50.6997 18.3586 50.6997C18.5222 50.6997 18.6796 50.6373 18.7981 50.5253C18.9166 50.4134 18.9872 50.2605 18.9953 50.0983V36.8378C19.9914 36.7132 20.9476 36.3727 21.7963 35.8405C22.645 35.3082 23.3654 34.5971 23.9063 33.7576ZM18.3563 21.0214C18.188 21.0214 18.0267 21.0877 17.9077 21.2058C17.7887 21.3239 17.7219 21.4841 17.7219 21.6511V29.6508L16.5406 28.5651C16.4163 28.4524 16.252 28.3933 16.0838 28.4009C15.9156 28.4085 15.7573 28.482 15.6438 28.6054C15.5302 28.7288 15.4707 28.892 15.4783 29.0589C15.486 29.2259 15.5601 29.383 15.6844 29.4957L17.7157 31.3568V35.58C16.1581 35.2315 14.7776 34.3413 13.8238 33.0703C12.8701 31.7993 12.406 30.2315 12.5156 28.6504C12.5156 25.3562 16.8188 17.89 18.3563 15.3279C19.8922 17.89 24.1969 25.3562 24.1969 28.6504C24.3058 30.2323 23.8405 31.8006 22.8852 33.0714C21.9299 34.3422 20.5478 35.2316 18.9891 35.5784V27.267L20.7079 25.6587C20.7685 25.6024 20.8174 25.5347 20.8517 25.4597C20.886 25.3846 20.905 25.3036 20.9078 25.2212C20.9106 25.1388 20.8969 25.0567 20.8677 24.9796C20.8385 24.9024 20.7943 24.8317 20.7375 24.7715C20.6808 24.7113 20.6127 24.6628 20.5371 24.6288C20.4614 24.5947 20.3798 24.5758 20.2968 24.5731C20.2138 24.5703 20.1311 24.5838 20.0534 24.6128C19.9756 24.6418 19.9044 24.6858 19.8438 24.7421L18.9828 25.5439V21.6495C18.9824 21.4841 18.9165 21.3255 18.7993 21.208C18.682 21.0904 18.5229 21.0234 18.3563 21.0214ZM47.0092 22.7512L46.1764 20.9614C44.5443 17.633 42.6656 14.5651 42.2594 13.9018L42.2594 13.9018L42.2593 13.9017C42.2234 13.843 42.199 13.8032 42.1873 13.7837C42.1264 13.6985 42.0458 13.6291 41.9523 13.5812C41.8588 13.5333 41.7551 13.5083 41.6498 13.5083C41.5446 13.5083 41.4409 13.5333 41.3474 13.5812C41.2539 13.6291 41.1733 13.6985 41.1123 13.7837C40.8451 14.2117 34.5498 24.3036 34.5498 28.6509C34.5498 32.9532 37.4045 36.4599 41.0217 36.8383V50.0988C41.0217 50.2662 41.0887 50.4267 41.208 50.5451C41.3272 50.6635 41.489 50.73 41.6576 50.73C41.8263 50.73 41.9881 50.6635 42.1073 50.5451C42.2266 50.4267 42.2936 50.2662 42.2936 50.0988V36.8383C43.2866 36.7113 44.2395 36.3697 45.085 35.8375C45.9306 35.3054 46.6482 34.5955 47.1874 33.7581L47.9296 32.4259C48.4665 31.2385 48.746 29.9524 48.7499 28.6509C48.5356 26.5957 47.9457 24.5964 47.0092 22.7512ZM42.2764 35.5789V27.2675L43.9952 25.6592C44.1176 25.5452 44.1895 25.3877 44.1949 25.2211C44.2003 25.0546 44.1389 24.8928 44.0241 24.7712C43.9093 24.6497 43.7505 24.5784 43.5828 24.573C43.415 24.5676 43.252 24.6286 43.1295 24.7426L42.2702 25.5444V21.65C42.2621 21.4886 42.1918 21.3365 42.0739 21.2251C41.9559 21.1137 41.7994 21.0516 41.6366 21.0516C41.4738 21.0516 41.3172 21.1137 41.1993 21.2251C41.0813 21.3365 41.011 21.4886 41.003 21.65V29.6497L39.8217 28.5641C39.7601 28.5082 39.6881 28.465 39.6097 28.4368C39.5313 28.4087 39.4481 28.3961 39.3649 28.3998C39.2816 28.4036 39.1998 28.4236 39.1243 28.4587C39.0488 28.4938 38.981 28.5433 38.9248 28.6044C38.8686 28.6655 38.8251 28.737 38.7967 28.8148C38.7683 28.8926 38.7556 28.9752 38.7594 29.0578C38.7632 29.1405 38.7833 29.2216 38.8187 29.2966C38.854 29.3715 38.9039 29.4388 38.9655 29.4946L40.9967 31.3557V35.5789C39.438 35.2321 38.0559 34.3427 37.1006 33.0719C36.1453 31.8011 35.68 30.2328 35.7889 28.6509C35.7889 25.3567 40.0936 17.8905 41.6295 15.3284C43.167 17.8905 47.4702 25.3567 47.4702 28.6509C47.5797 30.2309 47.1163 31.7976 46.1638 33.0681C45.2113 34.3387 43.8325 35.2292 42.2764 35.5789ZM29.0618 17.2418C28.3298 16.7804 27.4517 16.6044 26.5967 16.7476C26.4244 16.7722 26.2492 16.7288 26.1087 16.6268C25.9682 16.5247 25.8736 16.3721 25.8451 16.2016C25.8313 16.1251 25.8331 16.0467 25.8503 15.9709C25.8676 15.895 25.8999 15.8234 25.9455 15.7603C25.9911 15.6971 26.049 15.6436 26.1158 15.603C26.1825 15.5624 26.2568 15.5355 26.3342 15.5239C27.327 15.3487 28.3501 15.4897 29.2572 15.9268C30.1643 16.3639 30.9088 17.0747 31.3842 17.9573C32.1653 17.3154 33.1468 16.9627 34.1609 16.9596C35.1749 16.9565 36.1586 17.3031 36.9436 17.9402C37.0435 18.0325 37.1075 18.1566 37.1247 18.2909C37.1418 18.4253 37.1109 18.5613 37.0374 18.6754C36.9485 18.7882 36.8186 18.8621 36.6756 18.8812C36.5325 18.9003 36.3876 18.8632 36.2718 18.7777C35.5653 18.2712 34.6866 18.0606 33.8251 18.1914C32.9636 18.3223 32.1885 18.7841 31.667 19.4772C31.6114 19.5507 31.5392 19.6102 31.4561 19.6509C31.3731 19.6916 31.2815 19.7123 31.1889 19.7114C31.1492 19.708 31.11 19.7007 31.0717 19.6897C30.9538 19.6693 30.8438 19.6172 30.7536 19.5389C30.6635 19.4607 30.5968 19.3594 30.5608 19.2461C30.3277 18.4171 29.7937 17.7031 29.0618 17.2418ZM37.5522 44.0778H38.4038C38.5492 44.0778 38.6887 44.1352 38.7916 44.2372C38.8944 44.3393 38.9522 44.4778 38.9522 44.6222V47.403C38.9524 47.4746 38.9384 47.5456 38.9109 47.6118C38.8835 47.678 38.8431 47.7382 38.7921 47.7889C38.7412 47.8397 38.6807 47.8799 38.614 47.9073C38.5474 47.9348 38.4759 47.9489 38.4038 47.9489H37.5522V50.1838C37.5524 50.2556 37.5383 50.3267 37.5108 50.393C37.4832 50.4593 37.4427 50.5196 37.3916 50.5703C37.3405 50.621 37.2798 50.6613 37.2129 50.6886C37.1461 50.716 37.0745 50.73 37.0022 50.7298H34.2006C34.1285 50.7298 34.057 50.7156 33.9904 50.6882C33.9238 50.6607 33.8632 50.6205 33.8123 50.5698C33.7613 50.519 33.721 50.4589 33.6935 50.3926C33.666 50.3264 33.652 50.2554 33.6522 50.1838V47.9489H26.3459V50.1838C26.3461 50.2554 26.3321 50.3264 26.3046 50.3926C26.2772 50.4589 26.2368 50.519 26.1858 50.5698C26.1349 50.6205 26.0744 50.6607 26.0077 50.6882C25.9411 50.7156 25.8696 50.7298 25.7975 50.7298H22.9959C22.9236 50.73 22.852 50.716 22.7852 50.6886C22.7184 50.6613 22.6577 50.621 22.6065 50.5703C22.5554 50.5196 22.5149 50.4593 22.4874 50.393C22.4598 50.3267 22.4457 50.2556 22.4459 50.1838V47.9489H21.5943C21.5222 47.9489 21.4507 47.9348 21.3841 47.9073C21.3175 47.8799 21.2569 47.8397 21.206 47.7889C21.155 47.7382 21.1147 47.678 21.0872 47.6118C21.0597 47.5456 21.0457 47.4746 21.0459 47.403V44.6222C21.0459 44.4778 21.1037 44.3393 21.2065 44.2372C21.3094 44.1352 21.4489 44.0778 21.5943 44.0778H22.4459V42.3888H21.5943C21.4487 42.3884 21.3092 42.3307 21.2064 42.2284C21.1036 42.1261 21.0459 41.9874 21.0459 41.8429V37.6709C21.0459 37.5264 21.1036 37.3878 21.2064 37.2854C21.3092 37.1831 21.4487 37.1254 21.5943 37.125H38.4038C38.5494 37.1254 38.6889 37.1831 38.7917 37.2854C38.8945 37.3878 38.9522 37.5264 38.9522 37.6709V41.8429C38.9522 41.9874 38.8945 42.1261 38.7917 42.2284C38.6889 42.3307 38.5494 42.3884 38.4038 42.3888H37.5522V44.0778ZM22.1443 38.2168V41.297H37.8538V38.2168H22.1443ZM36.4538 44.0716V42.3826L34.7506 42.3888V44.0716H36.4538ZM33.6522 44.0716V42.3826L26.3459 42.3888V44.0716H33.6522ZM25.2475 44.0716V42.3826L23.5443 42.3888V44.0716H25.2475ZM23.5443 49.6332H25.2475V47.9427H23.5443V49.6332ZM34.7506 49.6332H36.4538V47.9427H34.7506V49.6332ZM22.1443 46.8524H37.86L37.8538 45.1619H22.1443V46.8524ZM25.3832 21.7726C25.828 21.8218 26.2398 22.029 26.5427 22.3559C26.8457 22.6829 27.0193 23.1075 27.0317 23.5515C27.0398 23.7011 27.1022 23.8427 27.2073 23.9501C27.3124 24.0576 27.4532 24.1237 27.6035 24.1362H27.666C27.8043 24.1372 27.9388 24.0918 28.0477 24.0074C28.1567 23.9229 28.2336 23.8043 28.266 23.6709C28.3232 23.4705 28.4201 23.2835 28.551 23.1208C28.6819 22.958 28.8443 22.8228 29.0285 22.7232C29.2127 22.6235 29.4152 22.5613 29.6239 22.5403C29.8327 22.5193 30.0435 22.5399 30.2442 22.6008C30.3705 22.6393 30.5068 22.6286 30.6255 22.571C30.7441 22.5134 30.8363 22.4132 30.8832 22.2906C30.919 22.1732 30.9125 22.0471 30.8649 21.934C30.8173 21.8208 30.7315 21.7276 30.6223 21.6702C30.1764 21.4621 29.6783 21.3902 29.1912 21.4637C28.704 21.5371 28.2499 21.7526 27.8864 22.0828C27.6474 21.6629 27.3132 21.3041 26.9101 21.0349C26.5071 20.7657 26.0463 20.5934 25.5645 20.5318C25.4503 20.5173 25.3342 20.5344 25.2292 20.5812C25.1241 20.628 25.0341 20.7027 24.9692 20.7971C24.9025 20.8846 24.8604 20.9882 24.8472 21.0972C24.834 21.2062 24.8502 21.3167 24.8942 21.4174C24.9366 21.5144 25.0042 21.5984 25.0902 21.6608C25.1761 21.7232 25.2773 21.7618 25.3832 21.7726Z" fill="#E9FD57"/>
</svg>
