<svg width="51" height="51" viewBox="0 0 51 51" fill="none" xmlns="http://www.w3.org/2000/svg">
<path d="M33.4002 25.8953C33.4002 27.9685 32.5766 29.9567 31.1107 31.4227C29.6447 32.8886 27.6565 33.7122 25.5833 33.7122C23.5101 33.7122 21.5219 32.8886 20.0559 31.4227C18.59 29.9567 17.7664 27.9685 17.7664 25.8953C17.7664 25.4498 17.8133 25.0146 17.8941 24.5925H15.1608V35.0072C15.1608 35.7315 15.7471 36.3178 16.4714 36.3178H34.6978C35.0449 36.3171 35.3776 36.1787 35.6228 35.933C35.8681 35.6873 36.0058 35.3543 36.0058 35.0072V24.5925H33.2725C33.3533 25.0146 33.4002 25.4498 33.4002 25.8953ZM25.5833 31.1066C26.2678 31.1064 26.9456 30.9714 27.5779 30.7093C28.2103 30.4472 28.7848 30.0631 29.2687 29.5789C29.7526 29.0948 30.1365 28.52 30.3983 27.8876C30.6601 27.2551 30.7947 26.5772 30.7945 25.8927C30.7944 25.2082 30.6594 24.5304 30.3973 23.898C30.1351 23.2657 29.751 22.6912 29.2669 22.2073C28.7827 21.7234 28.208 21.3395 27.5755 21.0777C26.9431 20.8159 26.2652 20.6813 25.5807 20.6815C24.1982 20.6818 22.8725 21.2313 21.8952 22.2091C20.9179 23.1869 20.3691 24.5129 20.3694 25.8953C20.3698 27.2778 20.9193 28.6035 21.8971 29.5808C22.8749 30.5581 24.2008 31.1069 25.5833 31.1066ZM31.8368 20.4235H34.9609C35.1685 20.4235 35.3676 20.3412 35.5146 20.1947C35.6616 20.0482 35.7445 19.8494 35.7452 19.6418V16.5177C35.7452 16.3097 35.6626 16.1102 35.5155 15.9631C35.3684 15.816 35.1689 15.7334 34.9609 15.7334H31.8368C31.6288 15.7334 31.4293 15.816 31.2822 15.9631C31.1351 16.1102 31.0525 16.3097 31.0525 16.5177V19.6418C31.0551 20.0717 31.4069 20.4235 31.8368 20.4235ZM25.5833 0.881348C18.9492 0.881348 12.5868 3.51674 7.89575 8.20777C3.20473 12.8988 0.569336 19.2612 0.569336 25.8953C0.569336 32.5294 3.20473 38.8918 7.89575 43.5829C12.5868 48.2739 18.9492 50.9093 25.5833 50.9093C28.8682 50.9093 32.1209 50.2623 35.1557 49.0052C38.1906 47.7481 40.9481 45.9056 43.2708 43.5829C45.5936 41.2601 47.4361 38.5026 48.6932 35.4677C49.9502 32.4329 50.5973 29.1802 50.5973 25.8953C50.5973 22.6104 49.9502 19.3577 48.6932 16.3229C47.4361 13.288 45.5936 10.5305 43.2708 8.20777C40.9481 5.88501 38.1906 4.04249 35.1557 2.78542C32.1209 1.52835 28.8682 0.881348 25.5833 0.881348ZM38.6114 36.0286C38.6114 37.6206 37.3086 38.9234 35.7166 38.9234H15.45C13.858 38.9234 12.5552 37.6206 12.5552 36.0286V15.762C12.5552 14.17 13.858 12.8672 15.45 12.8672H35.7166C37.3086 12.8672 38.6114 14.17 38.6114 15.762V36.0286Z" fill="#EC6331"/>
</svg>
