<svg width="53" height="53" viewBox="0 0 53 53" fill="none" xmlns="http://www.w3.org/2000/svg">
<path d="M26.4576 0.838989C12.0685 0.838989 0.401367 12.5061 0.401367 26.8952C0.401367 41.2843 12.0685 52.9514 26.4576 52.9514C40.8467 52.9514 52.5138 41.2843 52.5138 26.8952C52.5138 12.5061 40.8467 0.838989 26.4576 0.838989ZM38.9797 20.48C38.9971 20.7534 38.9971 21.0384 38.9971 21.3175C38.9971 29.8556 32.4947 39.6907 20.6124 39.6907C16.9482 39.6907 13.5516 38.6263 10.6901 36.7942C11.2135 36.8524 11.7137 36.8757 12.2488 36.8757C15.2732 36.8757 18.0533 35.852 20.2692 34.1188C17.431 34.0607 15.0464 32.1995 14.2321 29.6404C15.2267 29.7858 16.1223 29.7858 17.146 29.5241C15.6845 29.2272 14.371 28.4335 13.4284 27.2778C12.4859 26.1221 11.9725 24.6758 11.9754 23.1845V23.1031C12.8304 23.5858 13.8366 23.8825 14.8893 23.9232C14.0044 23.3334 13.2786 22.5343 12.7764 21.5969C12.2742 20.6594 12.0111 19.6126 12.0103 18.5491C12.0103 17.3451 12.3244 16.2459 12.8886 15.292C14.5107 17.2889 16.5349 18.9221 18.8295 20.0855C21.1242 21.2488 23.638 21.9163 26.2075 22.0446C25.2944 17.6534 28.5746 14.0997 32.518 14.0997C34.3791 14.0997 36.0542 14.8791 37.2348 16.1354C38.6947 15.862 40.0906 15.3153 41.3352 14.5825C40.8525 16.0772 39.8405 17.3393 38.4969 18.1361C39.7998 17.9965 41.056 17.6359 42.2193 17.1299C41.341 18.4211 40.2418 19.5669 38.9797 20.48Z" fill="#EC6331"/>
</svg>
