<svg width="65" height="65" viewBox="0 0 65 65" fill="none" xmlns="http://www.w3.org/2000/svg">
<g clip-path="url(#clip0_1931:266)">
<path fill-rule="evenodd" clip-rule="evenodd" d="M16.9132 10.349C15.5203 10.349 14.3912 11.5079 14.3912 12.9374C14.3912 14.3669 15.5203 15.5257 16.9132 15.5257C18.306 15.5257 19.4351 14.3669 19.4351 12.9374C19.4351 11.5079 18.306 10.349 16.9132 10.349ZM12.8322 12.9374C12.8322 10.6242 14.6593 8.74902 16.9132 8.74902C19.167 8.74902 20.9941 10.6242 20.9941 12.9374C20.9941 14.5334 20.1243 15.9208 18.8447 16.6278C19.0475 16.8547 19.1906 17.075 19.3042 17.2501L19.3231 17.2791C19.5807 17.6946 20.2397 18.9609 20.812 20.0759C21.1034 20.6437 21.3798 21.1873 21.5834 21.589C21.6741 21.7679 21.7504 21.9188 21.8071 22.0311L25.9494 24.3202C26.4181 24.5416 26.7075 24.9713 26.8318 25.3965C26.96 25.835 26.9414 26.36 26.6861 26.8185C26.2261 27.6447 25.2016 28.0134 24.3548 27.6409L24.3407 27.6347L19.474 25.3766C19.3342 25.3319 19.2128 25.269 19.1079 25.1973V29.7407C19.1079 29.8747 19.0944 30.1243 18.9543 30.3668L21.803 37.2536V37.3211C21.8109 37.3457 21.8224 37.3823 21.8323 37.4197C21.8393 37.4461 21.848 37.4816 21.8552 37.5227C21.8583 37.5404 21.8617 37.5624 21.8645 37.5877L22.5989 41.7334H26.0764C26.3248 41.7334 26.5041 41.8466 26.5766 41.8973C26.6698 41.9625 26.745 42.0384 26.803 42.1078C26.9202 42.2482 27.0204 42.4259 27.0854 42.6262L27.1572 42.8472L27.1021 43.0732C26.9282 43.7873 26.359 45.9399 25.7199 48.3572C25.1183 50.6327 24.4546 53.1427 24.0003 54.9081L23.9465 55.1168L23.7978 55.2694L23.7919 55.2755C23.7634 55.3049 23.6936 55.377 23.6133 55.4388C23.5349 55.4991 23.3326 55.6421 23.0445 55.6421H14.8919C14.6301 55.6421 14.2672 55.5474 14.0412 55.1994C13.8132 54.8483 13.869 54.4614 13.9926 54.2077L14.0012 54.1901C14.7509 52.7417 15.7013 50.8224 16.6297 48.9469C17.1161 47.9644 17.5965 46.9939 18.039 46.1095L18.6321 44.9241L17.2542 38.9373L15.5326 35.4411L15.4696 38.2563C15.4678 38.6782 15.3591 39.0278 15.1556 39.3515L13.8663 41.7334H16.6438C17.1456 41.7334 17.4122 42.1123 17.5034 42.3307C17.5556 42.4557 17.5896 42.6056 17.5838 42.7672C17.5791 42.8983 17.544 43.1002 17.4063 43.2858C16.1348 45.2435 14.8796 47.2016 13.6229 49.162C12.3795 51.1018 11.1338 53.045 9.87259 54.9875C9.84674 55.0475 9.81271 55.1077 9.76861 55.1658C9.63856 55.3374 9.47721 55.4172 9.36922 55.4541C9.2658 55.4895 9.1759 55.4979 9.13146 55.5009C9.0884 55.5039 9.0477 55.5038 9.0331 55.5038L9.0302 55.5038H0.945011C0.505386 55.5038 0.206743 55.202 0.07938 54.9405C-0.0718731 54.6301 -0.0888833 54.1668 0.240891 53.8114C1.18076 52.7435 2.10399 51.6926 3.02748 50.6414C3.95389 49.5869 4.88055 48.5322 5.82408 47.46L6.40334 46.8018C6.43507 46.4867 6.54265 46.1665 6.74167 45.8587L10.8682 37.5902L10.5029 30.8422C10.3978 30.7546 10.3029 30.6419 10.2285 30.502C10.1132 30.285 10.0701 30.0458 10.0701 29.8099C10.0701 29.7315 10.0877 29.5112 10.1076 29.2684C10.1179 29.143 10.1301 28.9964 10.144 28.832C9.82423 29.3547 9.2567 29.7109 8.6262 29.7109C7.73567 29.7109 6.85073 29.0195 6.83624 27.9691L6.49918 21.9498V21.9268C6.49918 21.3947 6.69917 20.837 7.06437 20.4622L7.08056 20.4456L7.09768 20.43L10.7511 17.097L10.7669 17.084C10.9485 16.9349 11.3803 16.5984 11.8152 16.2746C12.2259 15.9688 12.7217 15.6116 12.994 15.4719C13.1259 15.4042 13.3272 15.2999 13.479 15.2011C13.0697 14.5483 12.8322 13.7713 12.8322 12.9374ZM8.15861 21.6028C8.14374 21.6212 8.1196 21.6579 8.09779 21.7155C8.07428 21.7775 8.0606 21.8454 8.05845 21.9092L8.39504 27.9199V27.9429C8.39504 27.9745 8.40565 28.0075 8.44307 28.0424C8.48441 28.081 8.54997 28.1109 8.6262 28.1109C8.66634 28.1109 8.72655 28.0915 8.78247 28.0341C8.8384 27.9767 8.85736 27.9149 8.85736 27.8737V22.0415L9.13137 21.8019L9.63685 22.4109C9.13137 21.8019 9.13136 21.8019 9.13137 21.8019L9.41785 21.551C9.59121 21.3989 9.8243 21.1942 10.0636 20.9831C10.3031 20.7718 10.5477 20.555 10.7444 20.3788C10.8429 20.2905 10.928 20.2136 10.994 20.1532C11.0269 20.1229 11.0539 20.0979 11.0746 20.0784L11.099 20.0551C11.1047 20.0496 11.1071 20.0472 11.1071 20.0472L12.6344 18.4797L12.4343 20.6871L11.6581 20.613C12.4343 20.6871 12.4343 20.687 12.4343 20.6871L12.308 22.0848C12.2322 22.9253 12.1312 24.0487 12.0301 25.1807C11.9291 26.3128 11.8281 27.4529 11.7524 28.327C11.7145 28.7642 11.6831 29.1338 11.6611 29.4022C11.6608 29.4059 11.6605 29.4097 11.6602 29.4134L11.9839 29.358L12.4481 37.934L8.08276 46.6812L8.05201 46.7263C7.94948 46.8766 7.94014 47.011 7.97129 47.1272C8.00577 47.2559 8.10413 47.4056 8.28607 47.5177C8.53138 47.6687 8.87838 47.614 9.09743 47.2487L13.8219 38.5208L13.8394 38.4939C13.8915 38.4137 13.9106 38.3598 13.9106 38.2461V38.2278L14.0456 32.2117L15.5206 31.8693L18.7289 38.3849L20.7745 47.2726L20.7772 47.2862C20.8236 47.5243 21.1381 47.7516 21.4096 47.6958L21.4231 47.6931C21.6943 47.6424 21.9561 47.3292 21.9337 46.923L20.3204 37.816C20.3196 37.8135 20.3187 37.8107 20.3177 37.8077C20.3109 37.7869 20.2951 37.7388 20.282 37.6896C20.2785 37.6764 20.2746 37.6609 20.2706 37.6435L16.8138 29.2865H17.5489V19.6995L18.977 21.898C19.042 21.9981 19.137 22.1865 19.2168 22.3472C19.3079 22.5309 19.4152 22.7534 19.5169 22.9666C19.6189 23.1803 19.7165 23.3871 19.7885 23.5404L19.8749 23.7247L19.8832 23.7423C19.903 23.7725 19.9188 23.796 19.9343 23.8175C19.947 23.835 19.9565 23.8472 19.9635 23.8555L20.0005 23.865L24.9729 26.172C25.0705 26.2115 25.2546 26.1646 25.3326 26.0247C25.3468 25.999 25.3619 25.9363 25.3385 25.8562C25.3205 25.7945 25.2961 25.7744 25.293 25.7716L25.2661 25.7598L20.6438 23.2054L20.5331 22.9855L21.2256 22.6183C20.5331 22.9855 20.5331 22.9856 20.5331 22.9855L20.4429 22.8067C20.385 22.692 20.3018 22.5274 20.2004 22.3274C19.9976 21.9273 19.7224 21.3862 19.4327 20.8216C18.8464 19.6793 18.2296 18.4984 18.0118 18.1449C17.9701 18.0807 17.932 18.0225 17.8952 17.9686C17.707 18.0012 17.5066 18.0247 17.3178 18.0247H17.0483C15.8418 18.0247 14.694 17.5652 13.8325 16.8298C13.7801 16.8573 13.735 16.8805 13.7012 16.8978L13.6912 16.903C13.5591 16.9707 13.1791 17.2358 12.7307 17.5697C12.3197 17.8756 11.9217 18.1859 11.7561 18.3209L8.15861 21.6028ZM17.5489 29.7407C17.5479 29.7528 17.5489 29.7529 17.5489 29.7407V29.7407ZM10.7024 22.5288C10.6026 22.6164 10.5103 22.6975 10.4307 22.7673L10.4163 22.7799V25.7228C10.4366 25.4946 10.4571 25.2644 10.4776 25.0347C10.5566 24.1506 10.6355 23.2717 10.7024 22.5288ZM18.5047 48.6921C18.3482 49.0079 18.1896 49.3282 18.0302 49.6503C17.2778 51.1702 16.5059 52.7295 15.8388 54.0421H22.611C22.9821 52.6087 23.4558 50.8118 23.9179 49.0631C23.4326 49.7938 22.6483 50.2046 21.9334 50.3676L21.8499 50.3867H21.7939C21.7856 50.3887 21.7728 50.3919 21.7514 50.3973L21.7465 50.3986C21.7157 50.4065 21.6621 50.4203 21.6049 50.4313C21.542 50.4435 21.4575 50.4559 21.3601 50.4559C20.1176 50.4559 19.0403 49.7643 18.5047 48.6921ZM24.524 46.7709C24.8976 45.3571 25.2235 44.1204 25.426 43.3334H23.9125L24.4825 46.5247C24.4997 46.6061 24.5135 46.6883 24.524 46.7709ZM32.6017 17.0811C32.9058 15.8701 33.9824 15.1108 35.1725 15.1108H50.5344C51.6918 15.1108 52.7217 15.8976 53.093 17.0408L53.097 17.0531L54.6192 22.3024H55.3181C56.1529 22.3024 56.8387 23.0063 56.8387 23.863V24.5545C56.8387 25.0361 56.622 25.4694 56.2839 25.7565C57.1229 26.8108 57.6472 28.1589 57.6472 29.6024V29.6552L56.9054 35.4003C56.8748 36.5994 55.9066 37.4557 54.8464 37.4557H54.6823V39.0759C54.6823 40.3056 53.7 41.1898 52.6227 41.1898H51.612C51.0505 41.1898 50.5207 40.9778 50.1409 40.573C49.7658 40.1731 49.5783 39.6281 49.6198 39.0436V37.4557H36.0866V39.0759C36.0866 40.3056 35.1043 41.1898 34.0269 41.1898H33.0163C31.9664 41.1898 30.9337 40.3208 31.024 39.0437V37.4557H30.8604C29.6837 37.4557 28.8316 36.4832 28.8015 35.401L28.0596 29.6552V29.6024C28.0596 28.1038 28.553 26.7686 29.4357 25.6982C29.0903 25.4112 28.8681 24.973 28.8681 24.4854V23.863C28.8681 23.0063 29.554 22.3024 30.3887 22.3024H31.0876L32.6017 17.0811ZM32.583 38.0089V39.1122L32.5798 39.1484C32.5681 39.2799 32.6105 39.3779 32.6831 39.4524C32.7633 39.5347 32.8846 39.5898 33.0163 39.5898H34.0269C34.2971 39.5898 34.5276 39.3676 34.5276 39.0759V38.0089H32.583ZM51.1787 38.0089V39.1122L51.1755 39.1484C51.1613 39.3094 51.2097 39.4055 51.2639 39.4632C51.3221 39.5252 51.4324 39.5898 51.612 39.5898H52.6227C52.8929 39.5898 53.1233 39.3676 53.1233 39.0759V38.0089H51.1787ZM35.1725 16.7108C34.6168 16.7108 34.2162 17.0501 34.1095 17.4878L34.1054 17.505L32.2502 23.9024H30.4271V24.446H32.1907L34.2767 17.5952C34.2975 17.4935 34.3369 17.3908 34.3996 17.2942C34.4972 17.144 34.6217 17.0537 34.7226 17.0019C34.8204 16.9517 34.9088 16.9305 34.9661 16.9207C34.9967 16.9155 35.0238 16.9125 35.0464 16.9109C35.0578 16.91 35.0684 16.9095 35.0781 16.9091L35.0921 16.9088L35.0986 16.9087L35.1017 16.9087L35.1041 16.9087C35.1044 16.9087 35.1048 16.9087 35.1051 17.7087L35.1041 16.9087L50.467 16.9087C50.4703 16.9087 50.4766 16.9087 50.4842 16.9087C50.4906 16.9088 50.4979 16.9088 50.5052 16.909C50.5205 16.9093 50.5531 16.9102 50.5922 16.9147C50.6493 16.9212 50.8798 16.9492 51.0771 17.1516C51.2642 17.3436 51.2984 17.5664 51.3068 17.6389L53.261 24.5151H55.2797V23.9024H53.4566L51.6104 17.5359C51.4399 17.0259 50.9908 16.7108 50.5344 16.7108H35.1725ZM53.5132 25.4025L53.5495 25.5304L52.2319 25.1923C52.0721 25.1513 51.9022 25.1471 51.545 25.1471H33.8923C33.624 25.1471 33.4232 25.1486 33.1693 25.2007L32.1917 25.4013L31.5156 25.897C30.3079 26.7823 29.6337 28.0482 29.6188 29.5516L30.3597 35.2891V35.3418C30.3597 35.6192 30.5762 35.8557 30.8604 35.8557H54.8464C55.1167 35.8557 55.3471 35.6335 55.3471 35.3418V35.2891L56.088 29.552C56.0711 28.1187 55.3355 26.7806 54.2493 25.9592L53.5132 25.4025ZM34.0977 23.5471H51.3619L49.9301 18.5087H35.6319L34.0977 23.5471ZM50.481 18.5088C50.481 18.5088 50.4789 18.5088 50.4753 18.5087L50.481 18.5088ZM32.7179 30.1259V30.6695H35.6731V30.1259H32.7179ZM31.1589 30.0865C31.1589 29.2297 31.8449 28.5259 32.6796 28.5259H35.7115C36.5463 28.5259 37.2321 29.2298 37.2321 30.0865V30.7089C37.2321 31.5656 36.5463 32.2695 35.7115 32.2695H32.6796C31.8449 32.2695 31.1589 31.5656 31.1589 30.7089V30.0865ZM49.9663 30.1259V30.6695H52.9215V30.1259H49.9663ZM48.4073 30.0865C48.4073 29.2298 49.0932 28.5259 49.928 28.5259H52.9599C53.7947 28.5259 54.4805 29.2298 54.4805 30.0865V30.7089C54.4805 31.5656 53.7947 32.2695 52.9599 32.2695H49.928C49.0932 32.2695 48.4073 31.5656 48.4073 30.7089V30.0865ZM39.5519 32.9216C39.5519 32.9216 39.5519 32.9216 39.5519 32.9216V32.9216ZM38.897 33.4745C38.8529 33.4191 38.82 33.3636 38.7957 33.3137C38.7468 33.2133 38.7263 33.1226 38.7167 33.0637C38.7116 33.0324 38.7088 33.0045 38.7072 32.9814C38.7064 32.9697 38.7059 32.9588 38.7055 32.9488L38.7052 32.9345L38.7051 32.9278L38.7051 32.9246L38.7051 32.9222C38.7051 32.922 38.7051 32.9217 38.8935 32.9216L38.7051 32.9222V32.5759C38.7051 32.4186 38.7456 32.2475 38.8465 32.0921C38.9442 31.9418 39.0688 31.8516 39.1697 31.7998C39.2676 31.7496 39.3561 31.7285 39.4134 31.7187C39.444 31.7134 39.4711 31.7105 39.4937 31.7089C39.5051 31.708 39.5157 31.7075 39.5254 31.7072L39.5394 31.7068L39.5459 31.7068L39.5491 31.7067L39.5514 31.7067C39.5516 31.7067 39.5518 31.7067 39.5519 31.8733L39.5514 31.7067H46.1549C46.3081 31.7067 46.4748 31.7483 46.6262 31.8519C46.7727 31.9521 46.8606 32.08 46.9111 32.1836C46.96 32.284 46.9806 32.3748 46.9901 32.4337C46.9952 32.465 46.998 32.4929 46.9996 32.5161C47.0004 32.5278 47.001 32.5387 47.0013 32.5486L47.0016 32.5629L47.0017 32.5697L47.0017 32.5729L47.0017 32.5753C47.0017 32.5755 47.0017 32.5758 46.8112 32.5759L47.0017 32.5753V32.9216C47.0017 33.0788 46.9612 33.2499 46.8604 33.4052C46.8442 33.4301 46.8273 33.4534 46.8099 33.4751C46.8539 33.5305 46.8869 33.586 46.9111 33.6359C46.96 33.7363 46.9806 33.8271 46.9901 33.8859C46.9952 33.9173 46.998 33.9451 46.9996 33.9683C47.0005 33.98 47.001 33.9909 47.0013 34.0008L47.0016 34.0151L47.0017 34.0218L47.0017 34.0251L47.0017 34.0274C47.0017 34.0277 47.0017 34.0279 46.8112 34.028L47.0017 34.0274V34.3738C47.0017 34.531 46.9612 34.7022 46.8603 34.8575C46.7627 35.0078 46.638 35.0981 46.5371 35.1499C46.4392 35.2001 46.3508 35.2212 46.2934 35.231C46.2629 35.2362 46.2357 35.2391 46.2131 35.2408C46.2017 35.2416 46.1911 35.2421 46.1814 35.2425L46.1675 35.2428L46.1609 35.2429L46.1578 35.2429L46.1555 35.2429C46.1552 35.2429 46.155 35.2429 46.1549 35.0494L46.1555 35.2429H39.5519C39.3987 35.2429 39.232 35.2013 39.0806 35.0978C38.9342 34.9975 38.8462 34.8696 38.7958 34.766C38.7468 34.6656 38.7263 34.5748 38.7167 34.5159C38.7116 34.4846 38.7088 34.4567 38.7072 34.4336C38.7069 34.4288 38.7066 34.4242 38.7063 34.4197C38.706 34.4132 38.7057 34.4069 38.7055 34.401L38.7052 34.3867L38.7051 34.38L38.7051 34.3767L38.7051 34.3744C38.7051 34.3741 38.7051 34.3739 38.8942 34.3738L38.7051 34.3744V34.028C38.7051 33.8708 38.7456 33.6997 38.8464 33.5444C38.8626 33.5195 38.8795 33.4963 38.897 33.4745ZM46.1549 34.028C46.1549 34.028 46.1549 34.028 46.1549 34.028V34.028ZM46.2222 34.028L46.1549 34.028L46.2222 34.028ZM54.7886 41.9679C54.8179 41.995 54.8474 42.0256 54.8584 42.0369L54.8715 42.0503L54.884 42.0644C55.5586 42.8261 61.8151 49.9376 65.2546 53.8828C65.4871 54.1351 65.5999 54.5047 65.5001 54.8631C65.4485 55.0483 65.3182 55.2874 65.0508 55.4247C64.8664 55.5193 64.6802 55.5334 64.5166 55.5038H56.5306C56.5282 55.5038 56.471 55.5047 56.4131 55.4987C56.3338 55.4906 56.2283 55.469 56.1148 55.4107C56.0145 55.3593 55.9455 55.298 55.9145 55.2693C55.8876 55.2445 55.8607 55.2168 55.8479 55.2037L55.8447 55.2003L55.7876 55.1418L55.7434 55.0724C54.6444 53.3474 53.0512 50.8854 51.5908 48.6286C50.0866 46.3042 48.7232 44.1975 48.1858 43.3377C48.0673 43.2099 47.9839 43.0449 47.9565 42.8549C47.9188 42.5939 47.9993 42.3792 48.0718 42.2489C48.1998 42.019 48.4906 41.7334 48.9171 41.7334H54.1724C54.1802 41.7334 54.2351 41.7329 54.2899 41.7385C54.3691 41.7466 54.4747 41.7682 54.5882 41.8264C54.6885 41.8778 54.7575 41.9392 54.7886 41.9679ZM53.9007 43.3334C55.0067 44.5868 59.8743 50.1208 63.1798 53.9038H56.8613C55.7565 52.1734 54.2497 49.8452 52.8688 47.7115C51.7513 45.9848 50.7162 44.3854 50.0433 43.3334H53.9007ZM14.1379 43.3334L11.3316 48.5176C11.331 48.5186 11.3305 48.5196 11.33 48.5206C10.7834 49.5463 9.70752 50.1793 8.55856 50.1793C7.99023 50.1793 7.45181 49.9887 7.01941 49.724C6.76174 49.5721 6.55088 49.4034 6.37123 49.2256C5.63728 50.0601 4.91137 50.8864 4.18531 51.7129C3.54548 52.4411 2.90553 53.1696 2.25998 53.9038H8.70277C9.91773 52.031 11.1185 50.1579 12.3205 48.2826C13.377 46.6345 14.4353 44.9837 15.503 43.3334H14.1379ZM29.4383 41.9606C29.5949 41.832 29.8127 41.7334 30.0516 41.7334H35.4417C35.6682 41.7334 35.9214 41.8252 36.1108 42.0196C36.2203 42.132 36.3265 42.299 36.3622 42.5186C36.3775 42.6128 36.3777 42.7033 36.3669 42.7883C36.5404 44.2881 37.3095 50.7948 37.7646 54.4645L37.7709 54.5148V54.5655C37.7709 54.7579 37.7235 55.0493 37.492 55.2868C37.2605 55.5243 36.9767 55.5729 36.7893 55.5729H28.6367C28.4493 55.5729 28.1655 55.5243 27.9341 55.2869C27.7025 55.0494 27.655 54.7581 27.655 54.5655V54.5148L27.6613 54.4645C28.1287 50.6952 28.9276 43.9327 29.0719 42.6774C29.0919 42.3437 29.2677 42.1007 29.4383 41.9606ZM30.5657 43.3334C30.3488 45.1924 29.722 50.486 29.2934 53.9729H36.1325C35.7039 50.486 35.0771 45.1924 34.8602 43.3334H30.5657ZM38.4353 42.81C38.4353 42.6222 38.4787 42.3886 38.6168 42.1761C38.7703 41.9399 39.0472 41.7334 39.417 41.7334H44.8071C45.1033 41.7334 45.6209 41.9047 45.7558 42.4091C46.0303 42.9462 46.7714 44.4512 47.6772 46.2905C48.923 48.8202 50.4803 51.9824 51.5632 54.1285L51.5683 54.1385C51.767 54.5464 51.644 54.9532 51.4444 55.1988C51.2629 55.4223 50.9807 55.5729 50.6688 55.5729H42.5163C42.1968 55.5729 41.6191 55.3736 41.543 54.771C41.0892 53.0093 40.4346 50.5339 39.8406 48.2872C39.2016 45.8703 38.6325 43.7181 38.4586 43.0041L38.4353 42.9085V42.81ZM40.1526 43.3334C40.4103 44.3328 40.8512 46.0003 41.3349 47.8293C41.8873 49.9184 42.4955 52.218 42.9497 53.9729H49.7309C48.675 51.8644 47.3485 49.1702 46.2671 46.9739C45.4577 45.3301 44.7857 43.9652 44.4672 43.3334H40.1526Z" fill="#2A2828"/>
</g>
<defs>
<clipPath id="clip0_1931:266">
<rect width="64" height="64" fill="white" transform="translate(0.755859 0.195679)"/>
</clipPath>
</defs>
</svg>
