<svg width="65" height="65" viewBox="0 0 65 65" fill="none" xmlns="http://www.w3.org/2000/svg">
<mask id="path-1-outside-1_1931:1654" maskUnits="userSpaceOnUse" x="9.93262" y="4.12616" width="44" height="56" fill="black">
<rect fill="white" x="9.93262" y="4.12616" width="44" height="56"/>
<path fill-rule="evenodd" clip-rule="evenodd" d="M28.6883 51.0789L29.3251 48.7168H34.975L35.6118 51.0789H28.6883ZM24.8234 59.2664H39.4796L36.2261 47.1752H36.2251L36.1446 46.8759H28.1593L28.0788 47.1752H28.0783L24.8234 59.2664ZM29.7348 44.785L28.27 45.4343L25.7074 40.1201L25.5799 40.1372C25.0369 40.2103 24.4908 40.2837 23.9429 40.2868C23.6517 40.2867 23.3627 40.2773 23.0762 40.2591C16.304 39.8272 10.9326 34.4127 10.9326 27.8144C10.9367 23.2378 13.5715 19.1703 17.5898 17.0186C17.981 16.8092 18.3852 16.6179 18.8014 16.4461L18.8029 16.4454C19.2796 16.2487 19.772 16.0774 20.2783 15.9337C20.314 15.3919 20.388 14.86 20.4978 14.3407L20.5044 14.3096C20.5969 13.8783 20.7141 13.4558 20.8545 13.0435C22.4171 8.45472 26.8576 5.12909 32.1482 5.12616H32.1499C37.4363 5.12849 41.8712 8.44324 43.4413 13.0188C43.5814 13.4269 43.6986 13.845 43.7917 14.2716L43.8043 14.3303C43.9156 14.854 43.9904 15.3905 44.0261 15.9371C44.5201 16.0778 45.0009 16.2445 45.4668 16.4356L45.5022 16.4502C45.9076 16.6177 46.3017 16.8037 46.6834 17.0069C50.7164 19.154 53.3645 23.2229 53.3704 27.8084V27.8159C53.3702 31.0625 52.0697 34.0229 49.9419 36.2438C49.5038 36.701 49.0307 37.1269 48.5266 37.5175C46.495 39.0917 43.9609 40.0924 41.1944 40.2609C40.9199 40.2776 40.6431 40.2861 40.3644 40.2862H40.3608C39.7658 40.2827 39.1736 40.2052 38.5814 40.1235L35.967 45.4942L34.5093 44.8415L34.6018 44.6514L34.462 44.5888L37.5176 38.308L38.1265 38.4194C38.2983 38.4508 38.471 38.4785 38.6444 38.5025C39.158 38.5733 39.6773 38.6107 40.1968 38.6108H40.205C42.0613 38.6101 43.8107 38.1771 45.3497 37.411C47.0753 36.5519 48.5362 35.2739 49.5867 33.7165C50.7151 32.0435 51.3699 30.0472 51.3699 27.9023L51.3699 27.8956C51.3598 23.1532 48.1126 19.0086 43.4117 17.6562C43.2499 17.6096 43.0863 17.5664 42.9211 17.5265L42.3373 17.3911L42.3262 16.8075C42.324 16.6585 42.3185 16.5103 42.3095 16.3631C41.9975 11.2251 37.5711 7.18073 32.1489 7.17684C26.7326 7.18008 22.3042 11.2251 21.9923 16.3601C21.9834 16.5071 21.9778 16.6549 21.9757 16.8035L21.9674 17.3831L21.3773 17.5225C21.2134 17.5621 21.0512 17.6049 20.8906 17.6511C16.1852 19.0032 12.9354 23.1574 12.9313 27.9042C12.9321 33.8251 17.9227 38.6069 24.0989 38.6108L24.1079 38.6108C24.6225 38.6108 25.1394 38.5756 25.6508 38.5049C25.8264 38.4806 26.0014 38.4521 26.1754 38.4194L26.7815 38.308L29.7829 44.5334L29.6434 44.5953L29.7348 44.785ZM29.9369 24.3165C30.5638 23.1496 31.6713 22.2653 33.0028 21.9334C33.3773 21.84 33.7695 21.7903 34.1737 21.7903C35.3922 21.7903 36.503 22.2409 37.3488 22.9782C37.776 23.3505 38.1356 23.796 38.4074 24.2935C38.6228 24.6879 38.783 25.1149 38.8779 25.5641C38.9328 25.8238 38.9659 26.0908 38.9752 26.3633C38.977 26.4162 38.9779 26.4693 38.9779 26.5227C38.9779 26.7325 38.9638 26.9394 38.9366 27.1425C38.9293 27.1963 38.9209 27.2515 38.9118 27.3048C38.8962 27.3966 38.8778 27.4875 38.8569 27.5775C38.8372 27.6618 38.8153 27.7452 38.7911 27.8278C38.7868 27.8423 38.7825 27.8568 38.7781 27.8712C38.7743 27.8839 38.7704 27.8965 38.7665 27.909L38.7629 27.9206C38.7303 28.0235 38.6943 28.1251 38.655 28.225C38.5047 28.6067 38.3055 28.9651 38.0648 29.2925L38.0626 29.2955C37.4697 30.1009 36.626 30.7183 35.6435 31.0311C35.5429 31.0649 35.4408 31.0954 35.3372 31.1225C35.2015 31.158 35.0634 31.1877 34.9231 31.2112C34.6663 31.2543 34.4024 31.2767 34.1331 31.2767C34.0911 31.2767 34.0492 31.2762 34.0074 31.2751C33.4724 31.2611 32.9603 31.1583 32.485 30.9815C31.5115 30.6192 30.6928 29.9461 30.1497 29.0888C29.8871 28.6884 29.684 28.247 29.5527 27.7776C29.4406 27.377 29.3808 26.9561 29.3808 26.5227C29.3808 26.4944 29.3811 26.4661 29.3816 26.438C29.387 26.1395 29.4208 25.8473 29.4804 25.5639C29.5732 25.1235 29.7285 24.7044 29.9369 24.3165ZM36.1051 29.0659C36.2837 28.921 36.446 28.7566 36.5887 28.5757L36.5922 28.5712C36.7722 28.342 36.9209 28.0864 37.0315 27.8105L37.0421 27.7837C37.1122 27.6042 37.1662 27.4163 37.2025 27.2216L37.2031 27.2181C37.2207 27.1233 37.234 27.027 37.2429 26.9292C37.2517 26.8326 37.2562 26.7347 37.2562 26.6355C37.2562 26.475 37.2444 26.3177 37.2216 26.1642C37.1165 25.456 36.7776 24.8308 36.2873 24.3651C35.7623 23.8665 35.0637 23.5508 34.2927 23.5124C34.2398 23.5098 34.1866 23.5084 34.1331 23.5084C32.9234 23.5084 31.8702 24.1923 31.3529 25.207C31.1466 25.6118 31.0255 26.0692 31.0137 26.5568C31.0131 26.5829 31.0128 26.6092 31.0128 26.6355C31.0128 26.8511 31.034 27.061 31.0746 27.2634C31.3385 28.3924 32.194 29.2758 33.2895 29.5894C33.5704 29.6698 33.8671 29.7127 34.1737 29.7127C34.5167 29.7127 34.8474 29.6591 35.1574 29.5594C35.4024 29.4807 35.6344 29.3733 35.8495 29.241C35.9377 29.1867 36.023 29.1283 36.1051 29.0659ZM45.1698 31.0775V32.6198H40.122L40.1218 32.611H39.9627L39.9616 32.539C39.9584 32.337 39.9554 32.1456 39.9627 31.9588L39.9649 31.9097C39.9744 31.7174 39.996 31.5296 40.0409 31.3398C40.0904 31.1309 40.1681 30.9195 40.2891 30.6972C40.4378 30.4248 40.6443 30.2029 40.8818 30.011C40.9637 29.9448 41.0494 29.8821 41.1377 29.8221C41.2042 29.7769 41.2723 29.7333 41.3413 29.6908C41.4007 29.6542 41.4609 29.6185 41.5215 29.5835C41.657 29.5051 41.7947 29.43 41.9314 29.3554L41.9314 29.3554L42.065 29.2823C42.1422 29.2399 42.2187 29.1974 42.2939 29.1544L42.3181 29.1398L42.3348 29.1297L42.3383 29.1276L42.3717 29.1073C42.5993 28.9684 42.8433 28.808 43.005 28.6009L43.0184 28.5835C43.0379 28.5574 43.0561 28.5306 43.0728 28.503C43.1147 28.4338 43.1471 28.3596 43.1671 28.2798C43.1804 28.2264 43.1882 28.1705 43.1895 28.1118C43.2028 28.0409 43.2005 27.9739 43.1855 27.9114L43.1845 27.9074C43.1803 27.8905 43.1752 27.874 43.1692 27.8578L43.1644 27.8454C43.1597 27.8337 43.1545 27.8222 43.149 27.811C43.0325 27.5747 42.7289 27.4226 42.4526 27.4028C42.4239 27.4008 42.3947 27.4005 42.3651 27.4018C42.3568 27.4022 42.3485 27.4027 42.3401 27.4033C42.2642 27.4092 42.1864 27.4256 42.1103 27.4518C42.1012 27.4575 42.0921 27.4633 42.0831 27.4692L42.0798 27.4715C42.0683 27.4792 42.0569 27.4872 42.0457 27.4954C41.9865 27.5389 41.9322 27.5891 41.8853 27.6457L41.8837 27.6476C41.8657 27.6695 41.8488 27.6923 41.8331 27.7159L41.8291 27.7221C41.8154 27.7432 41.8027 27.765 41.7911 27.7875C41.785 27.7994 41.7792 27.8114 41.7737 27.8236C41.7504 27.8757 41.7328 27.9311 41.7222 27.9896C41.7177 28.014 41.7145 28.0389 41.7125 28.0644H41.5326C41.532 28.0673 41.5315 28.0702 41.5309 28.0731C41.5266 28.0971 41.5234 28.1215 41.5215 28.1465H39.9627L40.0281 27.5455C40.0303 27.526 40.0328 27.5066 40.0357 27.4874C40.0852 27.1599 40.2435 26.8727 40.4704 26.6355C40.5178 26.5859 40.5683 26.5385 40.6214 26.4933L40.6227 26.4922C40.635 26.4817 40.6475 26.4713 40.6602 26.4611C40.6808 26.4444 40.7018 26.428 40.7232 26.4119C40.742 26.3977 40.7611 26.3838 40.7804 26.3702C40.8235 26.3398 40.8678 26.3108 40.9132 26.2831C40.9274 26.2726 40.9418 26.2622 40.9564 26.2519C41.1815 26.0933 41.4405 25.9696 41.7125 25.886C41.8401 25.8468 41.9705 25.8164 42.1017 25.7954C42.2571 25.7704 42.4136 25.7585 42.5674 25.7605C42.6331 25.7603 42.6989 25.7625 42.7645 25.767L42.7675 25.7672C43.1026 25.791 43.4348 25.8771 43.7374 26.0192C43.8384 26.0666 43.9361 26.1202 44.0295 26.1798C44.3049 26.3554 44.5432 26.5831 44.7189 26.8563C44.8927 27.122 44.989 27.4181 45.0193 27.7221C45.0307 27.8362 45.0328 27.9514 45.0262 28.0666C45.0211 28.1548 45.0109 28.2429 44.9959 28.3304L44.994 28.3417C44.915 28.7903 44.7097 29.223 44.415 29.5679C44.3252 29.676 44.2274 29.7744 44.1238 29.8656C43.8673 30.0911 43.5745 30.2722 43.2758 30.4463L43.2459 30.4637C43.2002 30.4902 43.1544 30.5166 43.1086 30.543L43.1075 30.5437L43.0153 30.5969C42.9418 30.6394 42.8685 30.6821 42.7957 30.7257C42.6677 30.8024 42.5417 30.8815 42.42 30.9662L42.4125 30.9714C42.3633 31.0058 42.3147 31.0411 42.2671 31.0775H45.1698ZM26.737 28.128L28.1422 28.8794C28.1387 28.8853 28.1353 28.8912 28.1318 28.8971L28.2219 28.9452C28.2064 28.972 28.1906 28.9985 28.1745 29.0248C28.0716 29.1934 27.9588 29.354 27.8371 29.5061C27.6332 29.761 27.4043 29.9919 27.1554 30.1965C27.0504 30.2828 26.9418 30.3644 26.83 30.4412C26.6018 30.5979 26.3602 30.7343 26.1084 30.8489C26.0083 30.8945 25.9065 30.9366 25.8034 30.9752C25.6614 31.0282 25.5168 31.0746 25.3699 31.1141C24.785 31.2711 24.1653 31.3178 23.5432 31.2383C23.3903 31.2245 23.2371 31.2032 23.0841 31.1743L23.0798 31.1735L23.0425 31.1663C21.0307 30.7678 19.503 29.1543 19.2265 27.1705L19.2262 27.1685L19.2217 27.1357C18.9555 25.1394 20.0021 23.1868 21.8482 22.2829C21.8731 22.2707 21.898 22.2588 21.9231 22.2471L21.9258 22.2458C22.6046 21.9286 23.3367 21.7825 24.0616 21.7965C24.2978 21.8011 24.5333 21.8227 24.7658 21.8609C24.7761 21.8626 24.7864 21.8643 24.7967 21.8661C24.8052 21.8675 24.8138 21.869 24.8223 21.8705C25.1118 21.9214 25.3965 21.9982 25.6725 22.1002C26.1684 22.2834 26.6364 22.5479 27.0544 22.8896C27.1411 22.9604 27.2256 23.0346 27.3078 23.1121C27.3336 23.1365 27.3592 23.1611 27.3845 23.1861L27.3366 23.2305C27.3594 23.2511 27.3819 23.272 27.4043 23.293C27.4296 23.3169 27.4546 23.341 27.4794 23.3655L26.3486 24.4154C26.0189 24.0888 25.6331 23.848 25.2197 23.697C25.0446 23.633 24.8639 23.5851 24.6811 23.5536C24.5006 23.5226 24.3175 23.5075 24.1338 23.5088C23.672 23.5119 23.2067 23.6178 22.7711 23.8311C22.7467 23.843 22.7225 23.8552 22.6985 23.8676C21.5533 24.4629 20.884 25.7165 21.0409 27.0169L21.0413 27.0196L21.0453 27.0515C21.2073 28.268 22.0615 29.2519 23.1959 29.6137C23.2398 29.6249 23.2841 29.6352 23.3287 29.6445L23.3685 29.6526C23.8442 29.7477 24.3217 29.7319 24.7705 29.6181C24.875 29.5916 24.9779 29.5598 25.079 29.5228C25.6121 29.3277 26.0912 28.9891 26.4599 28.531C26.5609 28.4055 26.6537 28.271 26.737 28.128ZM27.0433 57.2149H37.2606L36.1289 53.0054H28.1713L27.0433 57.2149Z"/>
</mask>
<path fill-rule="evenodd" clip-rule="evenodd" d="M28.6883 51.0789L29.3251 48.7168H34.975L35.6118 51.0789H28.6883ZM24.8234 59.2664H39.4796L36.2261 47.1752H36.2251L36.1446 46.8759H28.1593L28.0788 47.1752H28.0783L24.8234 59.2664ZM29.7348 44.785L28.27 45.4343L25.7074 40.1201L25.5799 40.1372C25.0369 40.2103 24.4908 40.2837 23.9429 40.2868C23.6517 40.2867 23.3627 40.2773 23.0762 40.2591C16.304 39.8272 10.9326 34.4127 10.9326 27.8144C10.9367 23.2378 13.5715 19.1703 17.5898 17.0186C17.981 16.8092 18.3852 16.6179 18.8014 16.4461L18.8029 16.4454C19.2796 16.2487 19.772 16.0774 20.2783 15.9337C20.314 15.3919 20.388 14.86 20.4978 14.3407L20.5044 14.3096C20.5969 13.8783 20.7141 13.4558 20.8545 13.0435C22.4171 8.45472 26.8576 5.12909 32.1482 5.12616H32.1499C37.4363 5.12849 41.8712 8.44324 43.4413 13.0188C43.5814 13.4269 43.6986 13.845 43.7917 14.2716L43.8043 14.3303C43.9156 14.854 43.9904 15.3905 44.0261 15.9371C44.5201 16.0778 45.0009 16.2445 45.4668 16.4356L45.5022 16.4502C45.9076 16.6177 46.3017 16.8037 46.6834 17.0069C50.7164 19.154 53.3645 23.2229 53.3704 27.8084V27.8159C53.3702 31.0625 52.0697 34.0229 49.9419 36.2438C49.5038 36.701 49.0307 37.1269 48.5266 37.5175C46.495 39.0917 43.9609 40.0924 41.1944 40.2609C40.9199 40.2776 40.6431 40.2861 40.3644 40.2862H40.3608C39.7658 40.2827 39.1736 40.2052 38.5814 40.1235L35.967 45.4942L34.5093 44.8415L34.6018 44.6514L34.462 44.5888L37.5176 38.308L38.1265 38.4194C38.2983 38.4508 38.471 38.4785 38.6444 38.5025C39.158 38.5733 39.6773 38.6107 40.1968 38.6108H40.205C42.0613 38.6101 43.8107 38.1771 45.3497 37.411C47.0753 36.5519 48.5362 35.2739 49.5867 33.7165C50.7151 32.0435 51.3699 30.0472 51.3699 27.9023L51.3699 27.8956C51.3598 23.1532 48.1126 19.0086 43.4117 17.6562C43.2499 17.6096 43.0863 17.5664 42.9211 17.5265L42.3373 17.3911L42.3262 16.8075C42.324 16.6585 42.3185 16.5103 42.3095 16.3631C41.9975 11.2251 37.5711 7.18073 32.1489 7.17684C26.7326 7.18008 22.3042 11.2251 21.9923 16.3601C21.9834 16.5071 21.9778 16.6549 21.9757 16.8035L21.9674 17.3831L21.3773 17.5225C21.2134 17.5621 21.0512 17.6049 20.8906 17.6511C16.1852 19.0032 12.9354 23.1574 12.9313 27.9042C12.9321 33.8251 17.9227 38.6069 24.0989 38.6108L24.1079 38.6108C24.6225 38.6108 25.1394 38.5756 25.6508 38.5049C25.8264 38.4806 26.0014 38.4521 26.1754 38.4194L26.7815 38.308L29.7829 44.5334L29.6434 44.5953L29.7348 44.785ZM29.9369 24.3165C30.5638 23.1496 31.6713 22.2653 33.0028 21.9334C33.3773 21.84 33.7695 21.7903 34.1737 21.7903C35.3922 21.7903 36.503 22.2409 37.3488 22.9782C37.776 23.3505 38.1356 23.796 38.4074 24.2935C38.6228 24.6879 38.783 25.1149 38.8779 25.5641C38.9328 25.8238 38.9659 26.0908 38.9752 26.3633C38.977 26.4162 38.9779 26.4693 38.9779 26.5227C38.9779 26.7325 38.9638 26.9394 38.9366 27.1425C38.9293 27.1963 38.9209 27.2515 38.9118 27.3048C38.8962 27.3966 38.8778 27.4875 38.8569 27.5775C38.8372 27.6618 38.8153 27.7452 38.7911 27.8278C38.7868 27.8423 38.7825 27.8568 38.7781 27.8712C38.7743 27.8839 38.7704 27.8965 38.7665 27.909L38.7629 27.9206C38.7303 28.0235 38.6943 28.1251 38.655 28.225C38.5047 28.6067 38.3055 28.9651 38.0648 29.2925L38.0626 29.2955C37.4697 30.1009 36.626 30.7183 35.6435 31.0311C35.5429 31.0649 35.4408 31.0954 35.3372 31.1225C35.2015 31.158 35.0634 31.1877 34.9231 31.2112C34.6663 31.2543 34.4024 31.2767 34.1331 31.2767C34.0911 31.2767 34.0492 31.2762 34.0074 31.2751C33.4724 31.2611 32.9603 31.1583 32.485 30.9815C31.5115 30.6192 30.6928 29.9461 30.1497 29.0888C29.8871 28.6884 29.684 28.247 29.5527 27.7776C29.4406 27.377 29.3808 26.9561 29.3808 26.5227C29.3808 26.4944 29.3811 26.4661 29.3816 26.438C29.387 26.1395 29.4208 25.8473 29.4804 25.5639C29.5732 25.1235 29.7285 24.7044 29.9369 24.3165ZM36.1051 29.0659C36.2837 28.921 36.446 28.7566 36.5887 28.5757L36.5922 28.5712C36.7722 28.342 36.9209 28.0864 37.0315 27.8105L37.0421 27.7837C37.1122 27.6042 37.1662 27.4163 37.2025 27.2216L37.2031 27.2181C37.2207 27.1233 37.234 27.027 37.2429 26.9292C37.2517 26.8326 37.2562 26.7347 37.2562 26.6355C37.2562 26.475 37.2444 26.3177 37.2216 26.1642C37.1165 25.456 36.7776 24.8308 36.2873 24.3651C35.7623 23.8665 35.0637 23.5508 34.2927 23.5124C34.2398 23.5098 34.1866 23.5084 34.1331 23.5084C32.9234 23.5084 31.8702 24.1923 31.3529 25.207C31.1466 25.6118 31.0255 26.0692 31.0137 26.5568C31.0131 26.5829 31.0128 26.6092 31.0128 26.6355C31.0128 26.8511 31.034 27.061 31.0746 27.2634C31.3385 28.3924 32.194 29.2758 33.2895 29.5894C33.5704 29.6698 33.8671 29.7127 34.1737 29.7127C34.5167 29.7127 34.8474 29.6591 35.1574 29.5594C35.4024 29.4807 35.6344 29.3733 35.8495 29.241C35.9377 29.1867 36.023 29.1283 36.1051 29.0659ZM45.1698 31.0775V32.6198H40.122L40.1218 32.611H39.9627L39.9616 32.539C39.9584 32.337 39.9554 32.1456 39.9627 31.9588L39.9649 31.9097C39.9744 31.7174 39.996 31.5296 40.0409 31.3398C40.0904 31.1309 40.1681 30.9195 40.2891 30.6972C40.4378 30.4248 40.6443 30.2029 40.8818 30.011C40.9637 29.9448 41.0494 29.8821 41.1377 29.8221C41.2042 29.7769 41.2723 29.7333 41.3413 29.6908C41.4007 29.6542 41.4609 29.6185 41.5215 29.5835C41.657 29.5051 41.7947 29.43 41.9314 29.3554L41.9314 29.3554L42.065 29.2823C42.1422 29.2399 42.2187 29.1974 42.2939 29.1544L42.3181 29.1398L42.3348 29.1297L42.3383 29.1276L42.3717 29.1073C42.5993 28.9684 42.8433 28.808 43.005 28.6009L43.0184 28.5835C43.0379 28.5574 43.0561 28.5306 43.0728 28.503C43.1147 28.4338 43.1471 28.3596 43.1671 28.2798C43.1804 28.2264 43.1882 28.1705 43.1895 28.1118C43.2028 28.0409 43.2005 27.9739 43.1855 27.9114L43.1845 27.9074C43.1803 27.8905 43.1752 27.874 43.1692 27.8578L43.1644 27.8454C43.1597 27.8337 43.1545 27.8222 43.149 27.811C43.0325 27.5747 42.7289 27.4226 42.4526 27.4028C42.4239 27.4008 42.3947 27.4005 42.3651 27.4018C42.3568 27.4022 42.3485 27.4027 42.3401 27.4033C42.2642 27.4092 42.1864 27.4256 42.1103 27.4518C42.1012 27.4575 42.0921 27.4633 42.0831 27.4692L42.0798 27.4715C42.0683 27.4792 42.0569 27.4872 42.0457 27.4954C41.9865 27.5389 41.9322 27.5891 41.8853 27.6457L41.8837 27.6476C41.8657 27.6695 41.8488 27.6923 41.8331 27.7159L41.8291 27.7221C41.8154 27.7432 41.8027 27.765 41.7911 27.7875C41.785 27.7994 41.7792 27.8114 41.7737 27.8236C41.7504 27.8757 41.7328 27.9311 41.7222 27.9896C41.7177 28.014 41.7145 28.0389 41.7125 28.0644H41.5326C41.532 28.0673 41.5315 28.0702 41.5309 28.0731C41.5266 28.0971 41.5234 28.1215 41.5215 28.1465H39.9627L40.0281 27.5455C40.0303 27.526 40.0328 27.5066 40.0357 27.4874C40.0852 27.1599 40.2435 26.8727 40.4704 26.6355C40.5178 26.5859 40.5683 26.5385 40.6214 26.4933L40.6227 26.4922C40.635 26.4817 40.6475 26.4713 40.6602 26.4611C40.6808 26.4444 40.7018 26.428 40.7232 26.4119C40.742 26.3977 40.7611 26.3838 40.7804 26.3702C40.8235 26.3398 40.8678 26.3108 40.9132 26.2831C40.9274 26.2726 40.9418 26.2622 40.9564 26.2519C41.1815 26.0933 41.4405 25.9696 41.7125 25.886C41.8401 25.8468 41.9705 25.8164 42.1017 25.7954C42.2571 25.7704 42.4136 25.7585 42.5674 25.7605C42.6331 25.7603 42.6989 25.7625 42.7645 25.767L42.7675 25.7672C43.1026 25.791 43.4348 25.8771 43.7374 26.0192C43.8384 26.0666 43.9361 26.1202 44.0295 26.1798C44.3049 26.3554 44.5432 26.5831 44.7189 26.8563C44.8927 27.122 44.989 27.4181 45.0193 27.7221C45.0307 27.8362 45.0328 27.9514 45.0262 28.0666C45.0211 28.1548 45.0109 28.2429 44.9959 28.3304L44.994 28.3417C44.915 28.7903 44.7097 29.223 44.415 29.5679C44.3252 29.676 44.2274 29.7744 44.1238 29.8656C43.8673 30.0911 43.5745 30.2722 43.2758 30.4463L43.2459 30.4637C43.2002 30.4902 43.1544 30.5166 43.1086 30.543L43.1075 30.5437L43.0153 30.5969C42.9418 30.6394 42.8685 30.6821 42.7957 30.7257C42.6677 30.8024 42.5417 30.8815 42.42 30.9662L42.4125 30.9714C42.3633 31.0058 42.3147 31.0411 42.2671 31.0775H45.1698ZM26.737 28.128L28.1422 28.8794C28.1387 28.8853 28.1353 28.8912 28.1318 28.8971L28.2219 28.9452C28.2064 28.972 28.1906 28.9985 28.1745 29.0248C28.0716 29.1934 27.9588 29.354 27.8371 29.5061C27.6332 29.761 27.4043 29.9919 27.1554 30.1965C27.0504 30.2828 26.9418 30.3644 26.83 30.4412C26.6018 30.5979 26.3602 30.7343 26.1084 30.8489C26.0083 30.8945 25.9065 30.9366 25.8034 30.9752C25.6614 31.0282 25.5168 31.0746 25.3699 31.1141C24.785 31.2711 24.1653 31.3178 23.5432 31.2383C23.3903 31.2245 23.2371 31.2032 23.0841 31.1743L23.0798 31.1735L23.0425 31.1663C21.0307 30.7678 19.503 29.1543 19.2265 27.1705L19.2262 27.1685L19.2217 27.1357C18.9555 25.1394 20.0021 23.1868 21.8482 22.2829C21.8731 22.2707 21.898 22.2588 21.9231 22.2471L21.9258 22.2458C22.6046 21.9286 23.3367 21.7825 24.0616 21.7965C24.2978 21.8011 24.5333 21.8227 24.7658 21.8609C24.7761 21.8626 24.7864 21.8643 24.7967 21.8661C24.8052 21.8675 24.8138 21.869 24.8223 21.8705C25.1118 21.9214 25.3965 21.9982 25.6725 22.1002C26.1684 22.2834 26.6364 22.5479 27.0544 22.8896C27.1411 22.9604 27.2256 23.0346 27.3078 23.1121C27.3336 23.1365 27.3592 23.1611 27.3845 23.1861L27.3366 23.2305C27.3594 23.2511 27.3819 23.272 27.4043 23.293C27.4296 23.3169 27.4546 23.341 27.4794 23.3655L26.3486 24.4154C26.0189 24.0888 25.6331 23.848 25.2197 23.697C25.0446 23.633 24.8639 23.5851 24.6811 23.5536C24.5006 23.5226 24.3175 23.5075 24.1338 23.5088C23.672 23.5119 23.2067 23.6178 22.7711 23.8311C22.7467 23.843 22.7225 23.8552 22.6985 23.8676C21.5533 24.4629 20.884 25.7165 21.0409 27.0169L21.0413 27.0196L21.0453 27.0515C21.2073 28.268 22.0615 29.2519 23.1959 29.6137C23.2398 29.6249 23.2841 29.6352 23.3287 29.6445L23.3685 29.6526C23.8442 29.7477 24.3217 29.7319 24.7705 29.6181C24.875 29.5916 24.9779 29.5598 25.079 29.5228C25.6121 29.3277 26.0912 28.9891 26.4599 28.531C26.5609 28.4055 26.6537 28.271 26.737 28.128ZM27.0433 57.2149H37.2606L36.1289 53.0054H28.1713L27.0433 57.2149Z" fill="#2A2828"/>
<path d="M29.3251 48.7168V48.5168H29.1719L29.132 48.6648L29.3251 48.7168ZM28.6883 51.0789L28.4952 51.0268L28.4272 51.2789H28.6883V51.0789ZM34.975 48.7168L35.1681 48.6648L35.1282 48.5168H34.975V48.7168ZM35.6118 51.0789V51.2789H35.8729L35.8049 51.0268L35.6118 51.0789ZM39.4796 59.2664V59.4664H39.7405L39.6727 59.2144L39.4796 59.2664ZM24.8234 59.2664L24.6302 59.2144L24.5624 59.4664H24.8234V59.2664ZM36.2261 47.1752L36.4193 47.1233L36.3794 46.9752H36.2261V47.1752ZM36.2251 47.1752L36.032 47.2272L36.0718 47.3752H36.2251V47.1752ZM36.1446 46.8759L36.3377 46.8239L36.2979 46.6759H36.1446V46.8759ZM28.1593 46.8759V46.6759H28.006L27.9662 46.8239L28.1593 46.8759ZM28.0788 47.1752V47.3752H28.232L28.2719 47.2272L28.0788 47.1752ZM28.0783 47.1752V46.9752H27.925L27.8851 47.1232L28.0783 47.1752ZM28.27 45.4343L28.0899 45.5212L28.174 45.6957L28.3511 45.6172L28.27 45.4343ZM29.7348 44.785L29.8159 44.9679L30.0047 44.8842L29.915 44.6982L29.7348 44.785ZM25.7074 40.1201L25.8876 40.0332L25.8246 39.9026L25.6808 39.9219L25.7074 40.1201ZM25.5799 40.1372L25.5533 39.939L25.5532 39.939L25.5799 40.1372ZM23.9429 40.2868L23.9428 40.4868L23.9441 40.4868L23.9429 40.2868ZM23.0762 40.2591L23.0889 40.0595H23.0889L23.0762 40.2591ZM10.9326 27.8144L10.7326 27.8143V27.8144H10.9326ZM17.5898 17.0186L17.6843 17.1949H17.6843L17.5898 17.0186ZM18.8014 16.4461L18.7251 16.2612L18.7251 16.2612L18.8014 16.4461ZM18.8029 16.4454L18.8792 16.6303L18.8792 16.6303L18.8029 16.4454ZM20.2783 15.9337L20.333 16.1261L20.4687 16.0875L20.4779 15.9468L20.2783 15.9337ZM20.4978 14.3407L20.3022 14.299L20.3021 14.2993L20.4978 14.3407ZM20.5044 14.3096L20.3089 14.2676L20.3088 14.2679L20.5044 14.3096ZM20.8545 13.0435L20.6652 12.979L20.8545 13.0435ZM32.1482 5.12616V4.92616L32.148 4.92616L32.1482 5.12616ZM32.1499 5.12616L32.15 4.92616H32.1499V5.12616ZM43.4413 13.0188L43.2522 13.0837V13.0837L43.4413 13.0188ZM43.7917 14.2716L43.9872 14.2296L43.9871 14.229L43.7917 14.2716ZM43.8043 14.3303L43.9999 14.2888L43.9998 14.2883L43.8043 14.3303ZM44.0261 15.9371L43.8265 15.9501L43.8357 16.0908L43.9713 16.1294L44.0261 15.9371ZM45.4668 16.4356L45.543 16.2506L45.5427 16.2505L45.4668 16.4356ZM45.5022 16.4502L45.5786 16.2653L45.5784 16.2652L45.5022 16.4502ZM46.6834 17.0069L46.7774 16.8304V16.8304L46.6834 17.0069ZM53.3704 27.8084H53.5704V27.8081L53.3704 27.8084ZM53.3704 27.8159L53.5704 27.8159V27.8159H53.3704ZM49.9419 36.2438L50.0863 36.3822V36.3822L49.9419 36.2438ZM48.5266 37.5175L48.4041 37.3594L48.5266 37.5175ZM41.1944 40.2609L41.2065 40.4605H41.2065L41.1944 40.2609ZM40.3644 40.2862V40.4862H40.3644L40.3644 40.2862ZM40.3608 40.2862L40.3597 40.4862H40.3608V40.2862ZM38.5814 40.1235L38.6087 39.9254L38.4651 39.9055L38.4016 40.0359L38.5814 40.1235ZM35.967 45.4942L35.8853 45.6768L36.062 45.7559L36.1468 45.5818L35.967 45.4942ZM34.5093 44.8415L34.3294 44.754L34.2391 44.9397L34.4275 45.0241L34.5093 44.8415ZM34.6018 44.6514L34.7816 44.7389L34.8719 44.5532L34.6835 44.4688L34.6018 44.6514ZM34.462 44.5888L34.2821 44.5013L34.1918 44.6869L34.3802 44.7713L34.462 44.5888ZM37.5176 38.308L37.5536 38.1112L37.4042 38.0839L37.3378 38.2205L37.5176 38.308ZM38.1265 38.4194L38.0905 38.6161H38.0905L38.1265 38.4194ZM38.6444 38.5025L38.617 38.7006H38.617L38.6444 38.5025ZM40.1968 38.6108L40.1967 38.8108H40.1968V38.6108ZM40.205 38.6108V38.8108H40.2051L40.205 38.6108ZM45.3497 37.411L45.2606 37.2319L45.3497 37.411ZM49.5867 33.7165L49.7525 33.8284L49.5867 33.7165ZM51.3699 27.9023H51.5699V27.9019L51.3699 27.9023ZM51.3699 27.8956L51.5699 27.8952V27.8952L51.3699 27.8956ZM43.4117 17.6562L43.3564 17.8484L43.3564 17.8484L43.4117 17.6562ZM42.9211 17.5265L42.968 17.3321L42.9663 17.3317L42.9211 17.5265ZM42.3373 17.3911L42.1373 17.3949L42.1403 17.5508L42.2921 17.586L42.3373 17.3911ZM42.3262 16.8075L42.1262 16.8103L42.1262 16.8113L42.3262 16.8075ZM42.3095 16.3631L42.5092 16.351V16.351L42.3095 16.3631ZM32.1489 7.17684L32.149 6.97684L32.1487 6.97684L32.1489 7.17684ZM21.9923 16.3601L21.7927 16.348V16.348L21.9923 16.3601ZM21.9757 16.8035L22.1757 16.8064L22.1757 16.8063L21.9757 16.8035ZM21.9674 17.3831L22.0134 17.5778L22.1651 17.5419L22.1674 17.386L21.9674 17.3831ZM21.3773 17.5225L21.3313 17.3279L21.3304 17.3281L21.3773 17.5225ZM20.8906 17.6511L20.9459 17.8433H20.9459L20.8906 17.6511ZM12.9313 27.9042L12.7313 27.904V27.9042L12.9313 27.9042ZM24.0989 38.6108L24.0988 38.8108H24.0989L24.0989 38.6108ZM24.1079 38.6108L24.1078 38.8108H24.1079L24.1079 38.6108ZM25.6508 38.5049L25.6234 38.3068L25.6508 38.5049ZM26.1754 38.4194L26.1392 38.2227L26.1384 38.2228L26.1754 38.4194ZM26.7815 38.308L26.9617 38.2211L26.8954 38.0837L26.7454 38.1113L26.7815 38.308ZM29.7829 44.5334L29.8639 44.7163L30.0527 44.6326L29.963 44.4466L29.7829 44.5334ZM29.6434 44.5953L29.5623 44.4124L29.3735 44.4961L29.4632 44.6821L29.6434 44.5953ZM33.0028 21.9334L32.9545 21.7393L33.0028 21.9334ZM29.9369 24.3165L30.1131 24.4111V24.4111L29.9369 24.3165ZM37.3488 22.9782L37.4802 22.8274L37.3488 22.9782ZM38.4074 24.2935L38.5829 24.1976L38.4074 24.2935ZM38.8779 25.5641L39.0736 25.5227L38.8779 25.5641ZM38.9752 26.3633L38.7753 26.3701V26.3701L38.9752 26.3633ZM38.9366 27.1425L38.7384 27.1159L38.7384 27.1159L38.9366 27.1425ZM38.9118 27.3048L39.109 27.3384L39.109 27.3384L38.9118 27.3048ZM38.8569 27.5775L38.6621 27.5321L38.8569 27.5775ZM38.7911 27.8278L38.983 27.884V27.884L38.7911 27.8278ZM38.7781 27.8712L38.5867 27.8132L38.5867 27.8132L38.7781 27.8712ZM38.7665 27.909L38.9573 27.969L38.9574 27.9687L38.7665 27.909ZM38.7629 27.9206L38.9536 27.9808L38.9537 27.9805L38.7629 27.9206ZM38.655 28.225L38.8411 28.2983H38.8411L38.655 28.225ZM38.0648 29.2925L37.9037 29.1741L37.9037 29.1741L38.0648 29.2925ZM38.0626 29.2955L38.2237 29.4141L38.2238 29.4139L38.0626 29.2955ZM35.6435 31.0311L35.5829 30.8405L35.5799 30.8415L35.6435 31.0311ZM35.3372 31.1225L35.2865 30.929H35.2865L35.3372 31.1225ZM34.9231 31.2112L34.9562 31.4085H34.9562L34.9231 31.2112ZM34.0074 31.2751L34.0022 31.475H34.0022L34.0074 31.2751ZM32.485 30.9815L32.5548 30.7941L32.485 30.9815ZM30.1497 29.0888L30.3187 28.9818L30.3169 28.9792L30.1497 29.0888ZM29.5527 27.7776L29.7453 27.7237L29.5527 27.7776ZM29.3816 26.438L29.1816 26.4344V26.4344L29.3816 26.438ZM29.4804 25.5639L29.2847 25.5226L29.4804 25.5639ZM36.1051 29.0659L36.2261 29.2253L36.2311 29.2212L36.1051 29.0659ZM36.5887 28.5757L36.7457 28.6995L36.7458 28.6994L36.5887 28.5757ZM36.5922 28.5712L36.7494 28.6949L36.7495 28.6947L36.5922 28.5712ZM37.0315 27.8105L37.2172 27.8849L37.2175 27.884L37.0315 27.8105ZM37.0421 27.7837L37.2281 27.8572L37.2284 27.8564L37.0421 27.7837ZM37.2025 27.2216L37.0059 27.1849L37.0059 27.1849L37.2025 27.2216ZM37.2031 27.2181L37.3997 27.2548L37.3998 27.2545L37.2031 27.2181ZM37.2429 26.9292L37.4421 26.9474V26.9474L37.2429 26.9292ZM37.2216 26.1642L37.0238 26.1936V26.1936L37.2216 26.1642ZM36.2873 24.3651L36.425 24.2201L36.2873 24.3651ZM34.2927 23.5124L34.2827 23.7122L34.2827 23.7122L34.2927 23.5124ZM31.3529 25.207L31.1748 25.1162L31.3529 25.207ZM31.0137 26.5568L31.2137 26.5616V26.5616L31.0137 26.5568ZM31.0746 27.2634L30.8784 27.3027L30.8798 27.3089L31.0746 27.2634ZM33.2895 29.5894L33.2345 29.7817L33.2895 29.5894ZM35.1574 29.5594L35.2186 29.7499L35.1574 29.5594ZM35.8495 29.241L35.9543 29.4113H35.9543L35.8495 29.241ZM45.1698 32.6198V32.8198H45.3698V32.6198H45.1698ZM45.1698 31.0775H45.3698V30.8775H45.1698V31.0775ZM40.122 32.6198L39.922 32.6229L39.9251 32.8198H40.122V32.6198ZM40.1218 32.611L40.3218 32.6079L40.3188 32.411H40.1218V32.611ZM39.9627 32.611L39.7627 32.6141L39.7658 32.811H39.9627V32.611ZM39.9616 32.539L40.1616 32.5359V32.5359L39.9616 32.539ZM39.9627 31.9588L39.7629 31.9499L39.7629 31.951L39.9627 31.9588ZM39.9649 31.9097L39.7651 31.8998L39.7651 31.9008L39.9649 31.9097ZM40.0409 31.3398L39.8463 31.2938V31.2938L40.0409 31.3398ZM40.2891 30.6972L40.1135 30.6014L40.1134 30.6016L40.2891 30.6972ZM40.8818 30.011L41.0075 30.1666V30.1666L40.8818 30.011ZM41.1377 29.8221L41.0253 29.6567L41.0253 29.6567L41.1377 29.8221ZM41.3413 29.6908L41.4461 29.8611L41.3413 29.6908ZM41.5215 29.5835L41.4214 29.4104H41.4214L41.5215 29.5835ZM41.9314 29.3554L42.0272 29.531L42.035 29.5267L42.0423 29.5218L41.9314 29.3554ZM41.9314 29.3554L41.8355 29.1799L41.8278 29.1841L41.8205 29.189L41.9314 29.3554ZM42.065 29.2823L42.1609 29.4578L42.1612 29.4577L42.065 29.2823ZM42.2939 29.1544L42.3933 29.328L42.3973 29.3256L42.2939 29.1544ZM42.3181 29.1398L42.4214 29.311L42.4216 29.3109L42.3181 29.1398ZM42.3348 29.1297L42.4383 29.3008L42.4385 29.3007L42.3348 29.1297ZM42.3383 29.1276L42.4419 29.2986L42.4422 29.2985L42.3383 29.1276ZM42.3717 29.1073L42.4755 29.2782L42.4758 29.278L42.3717 29.1073ZM43.005 28.6009L43.1627 28.724L43.1639 28.7224L43.005 28.6009ZM43.0184 28.5835L43.1772 28.705L43.1785 28.7033L43.0184 28.5835ZM43.0728 28.503L42.9017 28.3995L42.9017 28.3995L43.0728 28.503ZM43.1671 28.2798L42.9731 28.2313V28.2313L43.1671 28.2798ZM43.1895 28.1118L42.993 28.0749L42.9899 28.091L42.9896 28.1074L43.1895 28.1118ZM43.1855 27.9114L43.38 27.8648L43.3797 27.8638L43.1855 27.9114ZM43.1845 27.9074L43.3787 27.8597L43.3785 27.8589L43.1845 27.9074ZM43.1692 27.8578L43.3567 27.7883L43.3557 27.7857L43.1692 27.8578ZM43.1644 27.8454L43.3509 27.7733L43.3499 27.7708L43.1644 27.8454ZM43.149 27.811L42.9696 27.8994L42.9696 27.8995L43.149 27.811ZM42.4526 27.4028L42.4669 27.2033L42.4665 27.2032L42.4526 27.4028ZM42.3651 27.4018L42.356 27.202L42.356 27.202L42.3651 27.4018ZM42.3401 27.4033L42.3554 27.6028H42.3554L42.3401 27.4033ZM42.1103 27.4518L42.0452 27.2627L42.0241 27.27L42.0052 27.2817L42.1103 27.4518ZM42.0831 27.4692L41.9725 27.3026L41.9718 27.3031L42.0831 27.4692ZM42.0798 27.4715L42.1912 27.6376L42.1912 27.6376L42.0798 27.4715ZM42.0457 27.4954L41.9273 27.3342L41.9273 27.3342L42.0457 27.4954ZM41.8853 27.6457L41.7313 27.518L41.7311 27.5183L41.8853 27.6457ZM41.8837 27.6476L41.7295 27.5202L41.7293 27.5204L41.8837 27.6476ZM41.8331 27.7159L41.6663 27.6057L41.6658 27.6064L41.8331 27.7159ZM41.8291 27.7221L41.6618 27.6125L41.6613 27.6133L41.8291 27.7221ZM41.7911 27.7875L41.9689 27.8791L41.9689 27.8791L41.7911 27.7875ZM41.7737 27.8236L41.5913 27.7418L41.5913 27.7418L41.7737 27.8236ZM41.7222 27.9896L41.9189 28.0254L41.9189 28.0254L41.7222 27.9896ZM41.7125 28.0644V28.2644H41.8977L41.9119 28.0798L41.7125 28.0644ZM41.5326 28.0644V27.8644H41.3679L41.3363 28.026L41.5326 28.0644ZM41.5309 28.0731L41.7277 28.109L41.7277 28.109L41.5309 28.0731ZM41.5215 28.1465V28.3465H41.7067L41.7209 28.1619L41.5215 28.1465ZM39.9627 28.1465L39.7639 28.1249L39.7398 28.3465H39.9627V28.1465ZM40.0281 27.5455L39.8293 27.5236L39.8293 27.5239L40.0281 27.5455ZM40.0357 27.4874L39.8379 27.4575L39.8379 27.4576L40.0357 27.4874ZM40.4704 26.6355L40.6149 26.7737L40.6149 26.7737L40.4704 26.6355ZM40.6214 26.4933L40.751 26.6456L40.7512 26.6455L40.6214 26.4933ZM40.6227 26.4922L40.4932 26.3398L40.4929 26.34L40.6227 26.4922ZM40.6602 26.4611L40.5342 26.3057L40.5342 26.3057L40.6602 26.4611ZM40.7232 26.4119L40.8434 26.5717L40.8434 26.5717L40.7232 26.4119ZM40.7804 26.3702L40.8957 26.5336L40.7804 26.3702ZM40.9132 26.2831L41.0173 26.4539L41.0249 26.4492L41.0321 26.4439L40.9132 26.2831ZM40.9564 26.2519L41.0716 26.4154L41.0716 26.4154L40.9564 26.2519ZM41.7125 25.886L41.6538 25.6949L41.7125 25.886ZM42.1017 25.7954L42.0699 25.5979H42.0699L42.1017 25.7954ZM42.5674 25.7605L42.5647 25.9605L42.5682 25.9605L42.5674 25.7605ZM42.7645 25.767L42.7785 25.5675L42.7784 25.5675L42.7645 25.767ZM42.7675 25.7672L42.7816 25.5677L42.7815 25.5677L42.7675 25.7672ZM43.7374 26.0192L43.6524 26.2002L43.7374 26.0192ZM44.0295 26.1798L44.1371 26.0112L44.0295 26.1798ZM44.7189 26.8563L44.5506 26.9645L44.5515 26.9659L44.7189 26.8563ZM45.0193 27.7221L44.8203 27.7419V27.7419L45.0193 27.7221ZM45.0262 28.0666L44.8265 28.0551V28.0551L45.0262 28.0666ZM44.9959 28.3304L45.193 28.3646L45.1931 28.3641L44.9959 28.3304ZM44.994 28.3417L45.1909 28.3764L45.191 28.376L44.994 28.3417ZM44.415 29.5679L44.2629 29.438L44.2611 29.4401L44.415 29.5679ZM44.1238 29.8656L44.2559 30.0158L44.2559 30.0158L44.1238 29.8656ZM43.2758 30.4463L43.3764 30.6191L43.3766 30.6191L43.2758 30.4463ZM43.2459 30.4637L43.3463 30.6367L43.3464 30.6366L43.2459 30.4637ZM43.1086 30.543L43.0087 30.3698L43.0085 30.3699L43.1086 30.543ZM43.1075 30.5437L43.2075 30.7169L43.2076 30.7168L43.1075 30.5437ZM43.0153 30.5969L42.9154 30.4236L42.9152 30.4237L43.0153 30.5969ZM42.7957 30.7257L42.693 30.5541L42.693 30.5541L42.7957 30.7257ZM42.42 30.9662L42.3058 30.802L42.3056 30.8021L42.42 30.9662ZM42.4125 30.9714L42.2981 30.8073L42.298 30.8074L42.4125 30.9714ZM42.2671 31.0775L42.1456 30.9186L41.6763 31.2775H42.2671V31.0775ZM28.1422 28.8794L28.3149 28.9802L28.4194 28.8009L28.2365 28.7031L28.1422 28.8794ZM26.737 28.128L26.8313 27.9517L26.6612 27.8607L26.5641 28.0274L26.737 28.128ZM28.1318 28.8971L27.9595 28.7956L27.8537 28.9751L28.0375 29.0734L28.1318 28.8971ZM28.2219 28.9452L28.3947 29.046L28.4992 28.8667L28.3163 28.7689L28.2219 28.9452ZM28.1745 29.0248L28.3452 29.129L28.3452 29.129L28.1745 29.0248ZM27.8371 29.5061L27.6809 29.3812L27.6809 29.3812L27.8371 29.5061ZM27.1554 30.1965L27.0284 30.042L27.0284 30.042L27.1554 30.1965ZM26.83 30.4412L26.7168 30.2763H26.7168L26.83 30.4412ZM26.1084 30.8489L26.1912 31.0309L26.1084 30.8489ZM25.8034 30.9752L25.7333 30.7878H25.7333L25.8034 30.9752ZM25.3699 31.1141L25.3181 30.9209H25.3181L25.3699 31.1141ZM23.5432 31.2383L23.5685 31.0398L23.5612 31.0392L23.5432 31.2383ZM23.0841 31.1743L23.047 31.3709L23.047 31.3709L23.0841 31.1743ZM23.0798 31.1735L23.0418 31.3699L23.0427 31.37L23.0798 31.1735ZM23.0425 31.1663L23.0037 31.3625L23.0045 31.3627L23.0425 31.1663ZM19.2265 27.1705L19.0284 27.1981L19.0284 27.1982L19.2265 27.1705ZM19.2262 27.1685L19.028 27.1953L19.0281 27.196L19.2262 27.1685ZM19.2217 27.1357L19.0235 27.1621L19.0236 27.1625L19.2217 27.1357ZM21.8482 22.2829L21.9362 22.4625L21.9362 22.4625L21.8482 22.2829ZM21.9231 22.2471L21.8383 22.0659L21.8383 22.0659L21.9231 22.2471ZM21.9258 22.2458L21.8412 22.0646L21.8411 22.0646L21.9258 22.2458ZM24.0616 21.7965L24.0577 21.9965H24.0577L24.0616 21.7965ZM24.7658 21.8609L24.7334 22.0583L24.7335 22.0583L24.7658 21.8609ZM24.7967 21.8661L24.7631 22.0632L24.7631 22.0632L24.7967 21.8661ZM24.8223 21.8705L24.8569 21.6735H24.8569L24.8223 21.8705ZM25.6725 22.1002L25.7418 21.9126H25.7418L25.6725 22.1002ZM27.0544 22.8896L27.181 22.7347L27.0544 22.8896ZM27.3078 23.1121L27.445 22.9666L27.445 22.9666L27.3078 23.1121ZM27.3845 23.1861L27.5206 23.3326L27.6738 23.1904L27.5249 23.0436L27.3845 23.1861ZM27.3366 23.2305L27.2006 23.084L27.0408 23.2323L27.2023 23.3787L27.3366 23.2305ZM27.4043 23.293L27.2671 23.4386L27.2671 23.4386L27.4043 23.293ZM27.4794 23.3655L27.6155 23.5121L27.7687 23.3698L27.6198 23.2231L27.4794 23.3655ZM26.3486 24.4154L26.2079 24.5575L26.3441 24.6925L26.4847 24.562L26.3486 24.4154ZM25.2197 23.697L25.2884 23.5092H25.2884L25.2197 23.697ZM24.6811 23.5536L24.715 23.3565L24.715 23.3565L24.6811 23.5536ZM24.1338 23.5088L24.1324 23.3088L24.1338 23.5088ZM22.7711 23.8311L22.8587 24.0109L22.859 24.0107L22.7711 23.8311ZM22.6985 23.8676L22.6062 23.6902H22.6062L22.6985 23.8676ZM21.0409 27.0169L20.8424 27.0409L20.8424 27.041L21.0409 27.0169ZM21.0413 27.0196L20.8427 27.0437L20.8428 27.0447L21.0413 27.0196ZM21.0453 27.0515L20.8469 27.0767L20.847 27.0779L21.0453 27.0515ZM23.1959 29.6137L23.135 29.8045L23.1465 29.8075L23.1959 29.6137ZM23.3287 29.6445L23.2876 29.8403L23.2889 29.8405L23.3287 29.6445ZM23.3685 29.6526L23.3286 29.8486L23.3293 29.8487L23.3685 29.6526ZM24.7705 29.6181L24.7213 29.4242H24.7213L24.7705 29.6181ZM25.079 29.5228L25.0102 29.335L25.0102 29.335L25.079 29.5228ZM26.4599 28.531L26.3041 28.4056L26.4599 28.531ZM27.0433 57.2149L26.8501 57.1632L26.7826 57.4149H27.0433V57.2149ZM37.2606 57.2149V57.4149H37.5215L37.4538 57.163L37.2606 57.2149ZM36.1289 53.0054L36.322 52.9535L36.2822 52.8054H36.1289V53.0054ZM28.1713 53.0054V52.8054H28.0178L27.9781 52.9536L28.1713 53.0054ZM29.132 48.6648L28.4952 51.0268L28.8814 51.131L29.5182 48.7689L29.132 48.6648ZM34.975 48.5168H29.3251V48.9168H34.975V48.5168ZM35.8049 51.0268L35.1681 48.6648L34.7819 48.7689L35.4187 51.131L35.8049 51.0268ZM28.6883 51.2789H35.6118V50.8789H28.6883V51.2789ZM39.4796 59.0664H24.8234V59.4664H39.4796V59.0664ZM36.033 47.2272L39.2865 59.3184L39.6727 59.2144L36.4193 47.1233L36.033 47.2272ZM36.2251 47.3752H36.2261V46.9752H36.2251V47.3752ZM35.9515 46.9279L36.032 47.2272L36.4183 47.1233L36.3377 46.8239L35.9515 46.9279ZM28.1593 47.0759H36.1446V46.6759H28.1593V47.0759ZM28.2719 47.2272L28.3525 46.9279L27.9662 46.8239L27.8856 47.1232L28.2719 47.2272ZM28.0783 47.3752H28.0788V46.9752H28.0783V47.3752ZM25.0165 59.3184L28.2714 47.2272L27.8851 47.1232L24.6302 59.2144L25.0165 59.3184ZM28.3511 45.6172L29.8159 44.9679L29.6538 44.6022L28.189 45.2515L28.3511 45.6172ZM25.5273 40.207L28.0899 45.5212L28.4502 45.3475L25.8876 40.0332L25.5273 40.207ZM25.6065 40.3354L25.734 40.3183L25.6808 39.9219L25.5533 39.939L25.6065 40.3354ZM23.9441 40.4868C24.5069 40.4836 25.0658 40.4082 25.6066 40.3354L25.5532 39.939C25.0081 40.0124 24.4747 40.0838 23.9418 40.0868L23.9441 40.4868ZM23.0634 40.4586C23.3542 40.4772 23.6474 40.4867 23.9428 40.4868L23.943 40.0868C23.656 40.0867 23.3712 40.0775 23.0889 40.0595L23.0634 40.4586ZM10.7326 27.8144C10.7326 34.5262 16.1942 40.0206 23.0634 40.4586L23.0889 40.0595C16.4139 39.6338 11.1326 34.2992 11.1326 27.8144H10.7326ZM17.4954 16.8423C13.4173 19.026 10.7368 23.1583 10.7326 27.8143L11.1326 27.8146C11.1366 23.3174 13.7256 19.3146 17.6843 17.1949L17.4954 16.8423ZM18.7251 16.2612C18.3027 16.4356 17.8924 16.6297 17.4954 16.8423L17.6843 17.1949C18.0695 16.9886 18.4677 16.8002 18.8777 16.6309L18.7251 16.2612ZM18.7266 16.2605L18.7251 16.2612L18.8777 16.6309L18.8792 16.6303L18.7266 16.2605ZM20.2237 15.7413C19.71 15.8871 19.2104 16.0609 18.7266 16.2606L18.8792 16.6303C19.3489 16.4365 19.834 16.2677 20.333 16.1261L20.2237 15.7413ZM20.3021 14.2993C20.1903 14.8279 20.115 15.3692 20.0788 15.9206L20.4779 15.9468C20.5129 15.4145 20.5856 14.8921 20.6935 14.3821L20.3021 14.2993ZM20.3088 14.2679L20.3022 14.299L20.6934 14.3823L20.7 14.3512L20.3088 14.2679ZM20.6652 12.979C20.5222 13.3987 20.403 13.8287 20.3089 14.2676L20.7 14.3515C20.7908 13.9279 20.9059 13.5129 21.0438 13.1079L20.6652 12.979ZM32.148 4.92616C26.7723 4.92914 22.2555 8.3089 20.6652 12.979L21.0438 13.1079C22.5787 8.60055 26.9429 5.32905 32.1483 5.32616L32.148 4.92616ZM32.1499 4.92616H32.1482V5.32616H32.1499V4.92616ZM43.6305 12.9539C42.0325 8.29718 37.5214 4.92853 32.15 4.92616L32.1498 5.32616C37.3512 5.32846 41.7099 8.5893 43.2522 13.0837L43.6305 12.9539ZM43.9871 14.229C43.8924 13.7948 43.773 13.3692 43.6305 12.9539L43.2522 13.0837C43.3897 13.4845 43.5049 13.8952 43.5962 14.3142L43.9871 14.229ZM43.9998 14.2883L43.9872 14.2296L43.5961 14.3137L43.6088 14.3724L43.9998 14.2883ZM44.2257 15.924C44.1893 15.3678 44.1132 14.8218 43.9999 14.2888L43.6087 14.3719C43.7179 14.8863 43.7914 15.4132 43.8265 15.9501L44.2257 15.924ZM45.5427 16.2505C45.0699 16.0567 44.5821 15.8875 44.0809 15.7447L43.9713 16.1294C44.4582 16.2681 44.9319 16.4324 45.3909 16.6206L45.5427 16.2505ZM45.5784 16.2652L45.543 16.2506L45.3907 16.6205L45.4261 16.6351L45.5784 16.2652ZM46.7774 16.8304C46.39 16.6241 45.99 16.4354 45.5786 16.2653L45.4258 16.635C45.8252 16.8001 46.2134 16.9833 46.5894 17.1834L46.7774 16.8304ZM53.5704 27.8081C53.5644 23.1429 50.8702 19.0093 46.7774 16.8304L46.5894 17.1834C50.5626 19.2987 53.1646 23.3028 53.1704 27.8087L53.5704 27.8081ZM53.5704 27.8159V27.8084H53.1704V27.8159H53.5704ZM50.0863 36.3822C52.2475 34.1265 53.5702 31.1174 53.5704 27.8159L53.1704 27.8159C53.1702 31.0077 51.892 33.9194 49.7975 36.1054L50.0863 36.3822ZM48.6491 37.6756C49.1609 37.279 49.6414 36.8466 50.0863 36.3822L49.7975 36.1054C49.3663 36.5555 48.9004 36.9748 48.4041 37.3594L48.6491 37.6756ZM41.2065 40.4605C44.0139 40.2896 46.5863 39.2739 48.6491 37.6756L48.4041 37.3594C46.4037 38.9094 43.9079 39.8953 41.1822 40.0612L41.2065 40.4605ZM40.3644 40.4862C40.6472 40.4861 40.928 40.4774 41.2065 40.4605L41.1822 40.0612C40.9118 40.0777 40.639 40.0861 40.3643 40.0862L40.3644 40.4862ZM40.3608 40.4862H40.3644V40.0862H40.3608V40.4862ZM38.5541 40.3216C39.1454 40.4032 39.7498 40.4827 40.3597 40.4861L40.362 40.0862C39.7818 40.0828 39.2018 40.0072 38.6087 39.9254L38.5541 40.3216ZM36.1468 45.5818L38.7612 40.211L38.4016 40.0359L35.7872 45.4067L36.1468 45.5818ZM34.4275 45.0241L35.8853 45.6768L36.0487 45.3117L34.591 44.659L34.4275 45.0241ZM34.4219 44.5639L34.3294 44.754L34.6891 44.929L34.7816 44.7389L34.4219 44.5639ZM34.3802 44.7713L34.52 44.8339L34.6835 44.4688L34.5437 44.4062L34.3802 44.7713ZM37.3378 38.2205L34.2821 44.5013L34.6418 44.6763L37.6975 38.3955L37.3378 38.2205ZM38.1625 38.2226L37.5536 38.1112L37.4816 38.5047L38.0905 38.6161L38.1625 38.2226ZM38.6717 38.3043C38.5013 38.2808 38.3315 38.2536 38.1625 38.2226L38.0905 38.6161C38.2652 38.6481 38.4407 38.6763 38.617 38.7006L38.6717 38.3043ZM40.1968 38.4108C39.6869 38.4107 39.1766 38.374 38.6717 38.3043L38.617 38.7006C39.1393 38.7726 39.6678 38.8107 40.1967 38.8108L40.1968 38.4108ZM40.205 38.4108H40.1968V38.8108H40.205V38.4108ZM45.2606 37.2319C43.7489 37.9845 42.03 38.4101 40.2049 38.4108L40.2051 38.8108C42.0927 38.8101 43.8726 38.3698 45.4388 37.59L45.2606 37.2319ZM49.4208 33.6047C48.3901 35.1329 46.9557 36.388 45.2606 37.2319L45.4388 37.59C47.1948 36.7158 48.6824 35.4149 49.7525 33.8284L49.4208 33.6047ZM51.1699 27.9023C51.1699 30.0058 50.528 31.9633 49.4208 33.6047L49.7525 33.8284C50.9023 32.1236 51.5699 30.0887 51.5699 27.9023H51.1699ZM51.1699 27.8959L51.1699 27.9026L51.5699 27.9019L51.5699 27.8952L51.1699 27.8959ZM43.3564 17.8484C47.9768 19.1776 51.16 23.2477 51.1699 27.896L51.5699 27.8952C51.5596 23.0587 48.2484 18.8396 43.467 17.464L43.3564 17.8484ZM42.8742 17.721C43.0366 17.7601 43.1974 17.8026 43.3564 17.8484L43.467 17.464C43.3024 17.4166 43.1361 17.3726 42.968 17.3321L42.8742 17.721ZM42.2921 17.586L42.876 17.7214L42.9663 17.3317L42.3825 17.1963L42.2921 17.586ZM42.1262 16.8113L42.1373 17.3949L42.5373 17.3873L42.5261 16.8037L42.1262 16.8113ZM42.1099 16.3752C42.1187 16.5194 42.1241 16.6644 42.1262 16.8103L42.5261 16.8046C42.524 16.6526 42.5183 16.5013 42.5092 16.351L42.1099 16.3752ZM32.1487 7.37684C37.4722 7.38066 41.8047 11.3495 42.1099 16.3752L42.5092 16.351C42.1903 11.1007 37.67 6.9808 32.149 6.97684L32.1487 7.37684ZM22.192 16.3723C22.497 11.3495 26.8315 7.38002 32.149 7.37684L32.1487 6.97684C26.6337 6.98014 22.1113 11.1007 21.7927 16.348L22.192 16.3723ZM22.1757 16.8063C22.1778 16.6608 22.1832 16.5161 22.192 16.3723L21.7927 16.348C21.7836 16.498 21.7779 16.6489 21.7758 16.8006L22.1757 16.8063ZM22.1674 17.386L22.1757 16.8064L21.7758 16.8006L21.7674 17.3802L22.1674 17.386ZM21.4233 17.7172L22.0134 17.5778L21.9214 17.1885L21.3313 17.3279L21.4233 17.7172ZM20.9459 17.8433C21.1037 17.7979 21.2631 17.7558 21.4242 17.717L21.3304 17.3281C21.1637 17.3683 20.9987 17.4119 20.8354 17.4588L20.9459 17.8433ZM13.1313 27.9044C13.1353 23.2518 16.3212 19.1722 20.9459 17.8433L20.8354 17.4588C16.0493 18.8342 12.7355 23.0631 12.7313 27.904L13.1313 27.9044ZM24.0991 38.4108C18.0251 38.407 13.132 33.7067 13.1313 27.9042L12.7313 27.9042C12.7321 33.9435 17.8204 38.8068 24.0988 38.8108L24.0991 38.4108ZM24.108 38.4108L24.099 38.4108L24.0989 38.8108L24.1078 38.8108L24.108 38.4108ZM25.6234 38.3068C25.1211 38.3762 24.6134 38.4108 24.1079 38.4108L24.1079 38.8108C24.6316 38.8108 25.1576 38.775 25.6782 38.703L25.6234 38.3068ZM26.1384 38.2228C25.9676 38.2549 25.7958 38.2829 25.6234 38.3068L25.6782 38.703C25.857 38.6783 26.0351 38.6493 26.2123 38.6159L26.1384 38.2228ZM26.7454 38.1113L26.1392 38.2227L26.2115 38.6161L26.8177 38.5047L26.7454 38.1113ZM29.963 44.4466L26.9617 38.2211L26.6014 38.3948L29.6027 44.6203L29.963 44.4466ZM29.7244 44.7781L29.8639 44.7163L29.7018 44.3506L29.5623 44.4124L29.7244 44.7781ZM29.915 44.6982L29.8235 44.5084L29.4632 44.6821L29.5547 44.8719L29.915 44.6982ZM32.9545 21.7393C31.5673 22.0851 30.4139 23.0061 29.7607 24.2218L30.1131 24.4111C30.7137 23.2931 31.7753 22.4455 33.0512 22.1274L32.9545 21.7393ZM34.1737 21.5903C33.753 21.5903 33.3446 21.642 32.9545 21.7393L33.0512 22.1274C33.41 22.038 33.7859 21.9903 34.1737 21.9903V21.5903ZM37.4802 22.8274C36.5994 22.0596 35.4424 21.5903 34.1737 21.5903V21.9903C35.342 21.9903 36.4065 22.4221 37.2174 23.1289L37.4802 22.8274ZM38.5829 24.1976C38.2997 23.6791 37.925 23.2151 37.4802 22.8274L37.2174 23.1289C37.627 23.4859 37.9716 23.9129 38.2319 24.3894L38.5829 24.1976ZM39.0736 25.5227C38.9746 25.054 38.8074 24.6087 38.5829 24.1976L38.2319 24.3894C38.4381 24.767 38.5914 25.1757 38.6823 25.6054L39.0736 25.5227ZM39.1751 26.3565C39.1654 26.0723 39.1309 25.7937 39.0736 25.5227L38.6823 25.6054C38.7348 25.8538 38.7664 26.1094 38.7753 26.3701L39.1751 26.3565ZM39.1779 26.5227C39.1779 26.467 39.177 26.4116 39.1751 26.3565L38.7753 26.3701C38.777 26.4208 38.7779 26.4716 38.7779 26.5227H39.1779ZM39.1348 27.1691C39.1632 26.9573 39.1779 26.7414 39.1779 26.5227H38.7779C38.7779 26.7236 38.7644 26.9216 38.7384 27.1159L39.1348 27.1691ZM39.109 27.3384C39.1185 27.2828 39.1272 27.2254 39.1348 27.1691L38.7384 27.1159C38.7314 27.1673 38.7234 27.2202 38.7147 27.2712L39.109 27.3384ZM39.0516 27.6229C39.0735 27.529 39.0927 27.4342 39.109 27.3384L38.7147 27.2712C38.6997 27.359 38.6822 27.446 38.6621 27.5321L39.0516 27.6229ZM38.983 27.884C39.0082 27.7979 39.0311 27.7108 39.0516 27.6229L38.6621 27.5321C38.6433 27.6127 38.6223 27.6926 38.5991 27.7716L38.983 27.884ZM38.9695 27.9293C38.9741 27.9142 38.9786 27.8991 38.983 27.884L38.5991 27.7716C38.5951 27.7855 38.5909 27.7993 38.5867 27.8132L38.9695 27.9293ZM38.9574 27.9687C38.9615 27.9556 38.9655 27.9425 38.9695 27.9293L38.5867 27.8132C38.5831 27.8252 38.5794 27.8373 38.5756 27.8493L38.9574 27.9687ZM38.9537 27.9805L38.9573 27.969L38.5757 27.8491L38.5721 27.8606L38.9537 27.9805ZM38.8411 28.2983C38.8821 28.1941 38.9197 28.0882 38.9536 27.9808L38.5721 27.8604C38.541 27.9589 38.5066 28.0561 38.4689 28.1517L38.8411 28.2983ZM38.226 29.411C38.4767 29.0699 38.6844 28.6963 38.8411 28.2983L38.4689 28.1517C38.325 28.517 38.1343 28.8603 37.9037 29.1741L38.226 29.411ZM38.2238 29.4139L38.226 29.411L37.9037 29.1741L37.9015 29.1771L38.2238 29.4139ZM35.7042 31.2217C36.7276 30.8958 37.6062 30.2529 38.2237 29.4141L37.9016 29.1769C37.3333 29.9489 36.5244 30.5407 35.5829 30.8405L35.7042 31.2217ZM35.3878 31.316C35.4958 31.2877 35.6023 31.2559 35.7072 31.2207L35.5799 30.8415C35.4835 30.8739 35.3857 30.9031 35.2865 30.929L35.3878 31.316ZM34.9562 31.4085C35.1024 31.3839 35.2464 31.353 35.3878 31.316L35.2865 30.929C35.1566 30.963 35.0244 30.9914 34.8901 31.014L34.9562 31.4085ZM34.1331 31.4767C34.4135 31.4767 34.6885 31.4533 34.9562 31.4085L34.8901 31.014C34.6441 31.0552 34.3913 31.0767 34.1331 31.0767V31.4767ZM34.0022 31.475C34.0457 31.4761 34.0893 31.4767 34.1331 31.4767V31.0767C34.0928 31.0767 34.0526 31.0762 34.0126 31.0751L34.0022 31.475ZM32.4153 31.1689C32.9109 31.3534 33.4448 31.4605 34.0022 31.475L34.0126 31.0751C33.5 31.0618 33.0097 30.9633 32.5548 30.7941L32.4153 31.1689ZM29.9807 29.1959C30.547 30.0897 31.4003 30.7913 32.4153 31.1689L32.5548 30.7941C31.6227 30.4472 30.8386 29.8026 30.3186 28.9818L29.9807 29.1959ZM29.3601 27.8314C29.497 28.3211 29.7088 28.7812 29.9824 29.1985L30.3169 28.9792C30.0653 28.5955 29.8709 28.1729 29.7453 27.7237L29.3601 27.8314ZM29.1808 26.5227C29.1808 26.9746 29.2432 27.4136 29.3601 27.8314L29.7453 27.7237C29.6381 27.3405 29.5808 26.9376 29.5808 26.5227H29.1808ZM29.1816 26.4344C29.1811 26.4637 29.1808 26.4932 29.1808 26.5227H29.5808C29.5808 26.4956 29.5811 26.4686 29.5815 26.4416L29.1816 26.4344ZM29.2847 25.5226C29.2225 25.8183 29.1872 26.1232 29.1816 26.4344L29.5815 26.4416C29.5867 26.1559 29.619 25.8763 29.6762 25.6051L29.2847 25.5226ZM29.7607 24.2218C29.5435 24.6261 29.3815 25.0632 29.2847 25.5226L29.6762 25.6051C29.7649 25.1837 29.9135 24.7826 30.1131 24.4111L29.7607 24.2218ZM36.2311 29.2212C36.4212 29.0671 36.5939 28.8921 36.7457 28.6995L36.4316 28.4519C36.2981 28.6212 36.1463 28.775 35.9791 28.9106L36.2311 29.2212ZM36.7458 28.6994L36.7494 28.6949L36.4351 28.4475L36.4315 28.452L36.7458 28.6994ZM36.7495 28.6947C36.9411 28.4508 37.0993 28.1787 37.2172 27.8849L36.8459 27.736C36.7424 27.9941 36.6034 28.2332 36.4349 28.4476L36.7495 28.6947ZM37.2175 27.884L37.2281 27.8572L36.8561 27.7101L36.8455 27.7369L37.2175 27.884ZM37.2284 27.8564C37.303 27.6653 37.3605 27.4653 37.3991 27.2582L37.0059 27.1849C36.9719 27.3672 36.9213 27.5431 36.8558 27.7109L37.2284 27.8564ZM37.3991 27.2583L37.3997 27.2548L37.0065 27.1814L37.0059 27.1849L37.3991 27.2583ZM37.3998 27.2545C37.4184 27.1537 37.4326 27.0513 37.4421 26.9474L37.0437 26.911C37.0354 27.0027 37.0229 27.093 37.0065 27.1817L37.3998 27.2545ZM37.4421 26.9474C37.4515 26.8447 37.4562 26.7407 37.4562 26.6355H37.0562C37.0562 26.7286 37.052 26.8205 37.0437 26.911L37.4421 26.9474ZM37.4562 26.6355C37.4562 26.4652 37.4437 26.298 37.4195 26.1348L37.0238 26.1936C37.0451 26.3373 37.0562 26.4849 37.0562 26.6355H37.4562ZM37.4195 26.1348C37.3076 25.3813 36.9468 24.7157 36.425 24.2201L36.1496 24.5101C36.6084 24.9459 36.9254 25.5308 37.0238 26.1936L37.4195 26.1348ZM36.425 24.2201C35.8663 23.6894 35.1227 23.3535 34.3026 23.3127L34.2827 23.7122C35.0047 23.7482 35.6583 24.0435 36.1496 24.5101L36.425 24.2201ZM34.3026 23.3127C34.2464 23.3099 34.1899 23.3084 34.1331 23.3084V23.7084C34.1833 23.7084 34.2332 23.7097 34.2827 23.7122L34.3026 23.3127ZM34.1331 23.3084C32.8462 23.3084 31.7253 24.0363 31.1748 25.1162L31.5311 25.2979C32.0152 24.3483 33.0006 23.7084 34.1331 23.7084V23.3084ZM31.1748 25.1162C30.955 25.5472 30.8263 26.0339 30.8138 26.5519L31.2137 26.5616C31.2247 26.1044 31.3382 25.6763 31.5311 25.2979L31.1748 25.1162ZM30.8138 26.5519C30.8131 26.5797 30.8128 26.6076 30.8128 26.6355H31.2128C31.2128 26.6108 31.2131 26.5861 31.2137 26.5616L30.8138 26.5519ZM30.8128 26.6355C30.8128 26.8643 30.8353 27.0874 30.8785 27.3027L31.2707 27.2241C31.2327 27.0347 31.2128 26.8379 31.2128 26.6355H30.8128ZM30.8798 27.3089C31.1604 28.5093 32.0699 29.4484 33.2345 29.7817L33.3446 29.3971C32.318 29.1033 31.5166 28.2755 31.2693 27.2179L30.8798 27.3089ZM33.2345 29.7817C33.5332 29.8671 33.8484 29.9127 34.1737 29.9127V29.5127C33.8859 29.5127 33.6077 29.4724 33.3446 29.3971L33.2345 29.7817ZM34.1737 29.9127C34.5377 29.9127 34.889 29.8558 35.2186 29.7499L35.0962 29.369C34.8058 29.4624 34.4958 29.5127 34.1737 29.5127V29.9127ZM35.2186 29.7499C35.479 29.6662 35.7257 29.552 35.9543 29.4113L35.7447 29.0706C35.5431 29.1946 35.3257 29.2953 35.0962 29.369L35.2186 29.7499ZM35.9543 29.4113C36.048 29.3536 36.1387 29.2915 36.226 29.2252L35.9842 28.9066C35.9072 28.965 35.8273 29.0198 35.7447 29.0706L35.9543 29.4113ZM45.3698 32.6198V31.0775H44.9698V32.6198H45.3698ZM40.122 32.8198H45.1698V32.4198H40.122V32.8198ZM39.9219 32.6141L39.922 32.6229L40.322 32.6167L40.3218 32.6079L39.9219 32.6141ZM39.9627 32.811H40.1218V32.411H39.9627V32.811ZM39.7616 32.5421L39.7627 32.6141L40.1627 32.6078L40.1616 32.5359L39.7616 32.5421ZM39.7629 31.951C39.7553 32.1442 39.7584 32.3413 39.7616 32.5422L40.1616 32.5359C40.1583 32.3328 40.1555 32.1469 40.1625 31.9667L39.7629 31.951ZM39.7651 31.9008L39.7629 31.9499L40.1625 31.9677L40.1647 31.9186L39.7651 31.9008ZM39.8463 31.2938C39.7979 31.4985 39.7751 31.699 39.7651 31.8998L40.1646 31.9196C40.1738 31.7358 40.1942 31.5607 40.2356 31.3859L39.8463 31.2938ZM40.1134 30.6016C39.9838 30.8397 39.8998 31.0678 39.8463 31.2938L40.2356 31.3859C40.281 31.194 40.3523 30.9993 40.4647 30.7929L40.1134 30.6016ZM40.7561 29.8554C40.5041 30.059 40.278 30.3001 40.1135 30.6014L40.4646 30.7931C40.5976 30.5494 40.7844 30.3468 41.0075 30.1666L40.7561 29.8554ZM41.0253 29.6567C40.9332 29.7192 40.843 29.7852 40.7561 29.8554L41.0075 30.1666C41.0845 30.1044 41.1656 30.045 41.2501 29.9876L41.0253 29.6567ZM41.2365 29.5204C41.1653 29.5642 41.0947 29.6095 41.0253 29.6567L41.2501 29.9876C41.3137 29.9443 41.3792 29.9023 41.4461 29.8611L41.2365 29.5204ZM41.4214 29.4104C41.3595 29.4461 41.2977 29.4828 41.2365 29.5204L41.4461 29.8611C41.5037 29.8257 41.5623 29.7909 41.6216 29.7566L41.4214 29.4104ZM41.8356 29.1798C41.6993 29.2542 41.5594 29.3305 41.4214 29.4104L41.6216 29.7566C41.7546 29.6797 41.8902 29.6057 42.0272 29.531L41.8356 29.1798ZM41.8205 29.189L41.8205 29.189L42.0423 29.5218L42.0424 29.5218L41.8205 29.189ZM41.969 29.1069L41.8355 29.1799L42.0274 29.5308L42.1609 29.4578L41.969 29.1069ZM42.1945 28.9808C42.1208 29.023 42.0454 29.0649 41.9687 29.107L42.1612 29.4577C42.239 29.415 42.3166 29.3718 42.3933 29.3279L42.1945 28.9808ZM42.2147 28.9686L42.1905 28.9832L42.3973 29.3256L42.4214 29.311L42.2147 28.9686ZM42.2313 28.9586L42.2145 28.9687L42.4216 29.3109L42.4383 29.3008L42.2313 28.9586ZM42.2346 28.9566L42.2311 28.9587L42.4385 29.3007L42.4419 29.2986L42.2346 28.9566ZM42.2678 28.9364L42.2344 28.9567L42.4422 29.2985L42.4755 29.2782L42.2678 28.9364ZM42.8474 28.4778C42.7107 28.6528 42.4965 28.7968 42.2675 28.9366L42.4758 29.278C42.7022 29.1399 42.976 28.9631 43.1627 28.724L42.8474 28.4778ZM42.8595 28.462L42.8461 28.4794L43.1639 28.7224L43.1772 28.705L42.8595 28.462ZM42.9017 28.3995C42.8886 28.421 42.8741 28.4424 42.8583 28.4636L43.1785 28.7033C43.2016 28.6724 43.2235 28.6402 43.2439 28.6066L42.9017 28.3995ZM42.9731 28.2313C42.9585 28.2896 42.9344 28.3454 42.9017 28.3995L43.2438 28.6066C43.2949 28.5222 43.3358 28.4297 43.3611 28.3283L42.9731 28.2313ZM42.9896 28.1074C42.9886 28.1511 42.9828 28.1922 42.9731 28.2313L43.3611 28.3283C43.378 28.2606 43.3878 28.1899 43.3895 28.1162L42.9896 28.1074ZM42.991 27.9581C42.9994 27.9929 43.0011 28.0314 42.993 28.0749L43.3861 28.1488C43.4045 28.0504 43.4016 27.9549 43.38 27.8648L42.991 27.9581ZM42.9902 27.955L42.9912 27.959L43.3797 27.8638L43.3787 27.8597L42.9902 27.955ZM42.9816 27.9272C42.9851 27.9367 42.9881 27.9462 42.9904 27.9558L43.3785 27.8589C43.3725 27.8348 43.3652 27.8112 43.3567 27.7883L42.9816 27.9272ZM42.9778 27.9174L42.9826 27.9299L43.3557 27.7857L43.3509 27.7733L42.9778 27.9174ZM42.9696 27.8995C42.973 27.9063 42.976 27.9131 42.9788 27.9199L43.3499 27.7708C43.3433 27.7543 43.3361 27.7382 43.3283 27.7225L42.9696 27.8995ZM42.4382 27.6022C42.6705 27.6189 42.8948 27.7477 42.9696 27.8994L43.3284 27.7225C43.1701 27.4017 42.7874 27.2263 42.4669 27.2033L42.4382 27.6022ZM42.3743 27.6016C42.3965 27.6006 42.4181 27.6008 42.4386 27.6023L42.4665 27.2032C42.4298 27.2007 42.3929 27.2003 42.356 27.202L42.3743 27.6016ZM42.3554 27.6028C42.3617 27.6023 42.368 27.6019 42.3743 27.6016L42.356 27.202C42.3456 27.2025 42.3352 27.2031 42.3248 27.2039L42.3554 27.6028ZM42.1755 27.6409C42.2364 27.6199 42.2975 27.6072 42.3554 27.6028L42.3248 27.2039C42.231 27.2111 42.1364 27.2313 42.0452 27.2627L42.1755 27.6409ZM42.1938 27.6359C42.201 27.6311 42.2082 27.6265 42.2155 27.6219L42.0052 27.2817C41.9942 27.2885 41.9833 27.2955 41.9725 27.3026L42.1938 27.6359ZM42.1912 27.6376L42.1945 27.6354L41.9718 27.3031L41.9684 27.3054L42.1912 27.6376ZM42.164 27.6566C42.1728 27.6502 42.1819 27.6438 42.1912 27.6376L41.9685 27.3053C41.9547 27.3146 41.941 27.3242 41.9273 27.3342L42.164 27.6566ZM42.0392 27.7734C42.0749 27.7303 42.117 27.6911 42.164 27.6566L41.9273 27.3342C41.8559 27.3866 41.7894 27.448 41.7313 27.518L42.0392 27.7734ZM42.0378 27.775L42.0394 27.7731L41.7311 27.5183L41.7295 27.5202L42.0378 27.775ZM41.9999 27.8262C42.0116 27.8086 42.0243 27.7914 42.038 27.7748L41.7293 27.5204C41.707 27.5475 41.6859 27.576 41.6663 27.6057L41.9999 27.8262ZM41.9964 27.8316L42.0004 27.8255L41.6658 27.6064L41.6618 27.6125L41.9964 27.8316ZM41.9689 27.8791C41.9774 27.8626 41.9868 27.8465 41.997 27.8308L41.6613 27.6133C41.644 27.6399 41.628 27.6674 41.6133 27.696L41.9689 27.8791ZM41.9562 27.9055C41.9602 27.8966 41.9645 27.8878 41.9689 27.8791L41.6133 27.6959C41.6056 27.711 41.5982 27.7263 41.5913 27.7418L41.9562 27.9055ZM41.9189 28.0254C41.9266 27.9833 41.9393 27.9433 41.9562 27.9055L41.5913 27.7418C41.5615 27.8081 41.539 27.8789 41.5254 27.9537L41.9189 28.0254ZM41.9119 28.0798C41.9133 28.0612 41.9157 28.0431 41.9189 28.0254L41.5254 27.9537C41.5197 27.9849 41.5156 28.0167 41.5131 28.0491L41.9119 28.0798ZM41.5326 28.2644H41.7125V27.8644H41.5326V28.2644ZM41.7277 28.109C41.7281 28.1069 41.7285 28.1048 41.7289 28.1028L41.3363 28.026C41.3356 28.0298 41.3349 28.0336 41.3342 28.0373L41.7277 28.109ZM41.7209 28.1619C41.7223 28.1438 41.7246 28.1262 41.7277 28.109L41.3342 28.0373C41.3286 28.068 41.3245 28.0993 41.3221 28.1311L41.7209 28.1619ZM39.9627 28.3465H41.5215V27.9465H39.9627V28.3465ZM39.8293 27.5239L39.7639 28.1249L40.1615 28.1681L40.2269 27.5671L39.8293 27.5239ZM39.8379 27.4576C39.8346 27.4794 39.8318 27.5014 39.8293 27.5236L40.2269 27.5674C40.2288 27.5506 40.2309 27.5338 40.2334 27.5172L39.8379 27.4576ZM40.3259 26.4972C40.0752 26.7594 39.8945 27.0831 39.8379 27.4575L40.2334 27.5173C40.2758 27.2368 40.4118 26.9861 40.6149 26.7737L40.3259 26.4972ZM40.4918 26.341C40.4337 26.3904 40.3783 26.4425 40.3259 26.4972L40.6149 26.7737C40.6574 26.7293 40.7029 26.6865 40.751 26.6456L40.4918 26.341ZM40.4929 26.34L40.4916 26.3411L40.7512 26.6455L40.7525 26.6444L40.4929 26.34ZM40.5342 26.3057C40.5204 26.3169 40.5068 26.3283 40.4932 26.3398L40.7521 26.6447C40.7633 26.6352 40.7747 26.6257 40.7861 26.6164L40.5342 26.3057ZM40.6029 26.2521C40.5797 26.2696 40.5567 26.2875 40.5342 26.3057L40.7861 26.6165C40.8049 26.6012 40.824 26.5863 40.8434 26.5717L40.6029 26.2521ZM40.6652 26.2067C40.6442 26.2215 40.6234 26.2367 40.6029 26.2521L40.8434 26.5717C40.8606 26.5588 40.878 26.5461 40.8957 26.5336L40.6652 26.2067ZM40.809 26.1124C40.76 26.1423 40.7119 26.1738 40.6652 26.2067L40.8957 26.5336C40.935 26.5059 40.9756 26.4793 41.0173 26.4539L40.809 26.1124ZM40.8412 26.0885C40.8254 26.0996 40.8097 26.1109 40.7942 26.1223L41.0321 26.4439C41.0451 26.4343 41.0583 26.4248 41.0716 26.4154L40.8412 26.0885ZM41.6538 25.6949C41.3633 25.7841 41.0849 25.9166 40.8411 26.0885L41.0716 26.4154C41.278 26.2699 41.5176 26.1552 41.7713 26.0772L41.6538 25.6949ZM42.0699 25.5979C41.9296 25.6204 41.7901 25.653 41.6538 25.6949L41.7713 26.0772C41.89 26.0407 42.0114 26.0124 42.1334 25.9928L42.0699 25.5979ZM42.5701 25.5606C42.4042 25.5583 42.2362 25.5712 42.0699 25.5979L42.1334 25.9928C42.278 25.9696 42.4229 25.9586 42.5647 25.9605L42.5701 25.5606ZM42.7784 25.5675C42.7079 25.5626 42.6372 25.5603 42.5666 25.5605L42.5682 25.9605C42.6289 25.9603 42.6898 25.9623 42.7506 25.9665L42.7784 25.5675ZM42.7815 25.5677L42.7785 25.5675L42.7505 25.9665L42.7535 25.9668L42.7815 25.5677ZM43.8223 25.8381C43.4973 25.6856 43.1411 25.5932 42.7816 25.5677L42.7534 25.9667C43.0641 25.9888 43.3722 26.0687 43.6524 26.2002L43.8223 25.8381ZM44.1371 26.0112C44.0362 25.9468 43.9309 25.8891 43.8223 25.8381L43.6524 26.2002C43.7458 26.2441 43.836 26.2935 43.922 26.3484L44.1371 26.0112ZM44.8871 26.7482C44.6942 26.4481 44.4342 26.2007 44.1371 26.0112L43.922 26.3484C44.1756 26.5102 44.3921 26.718 44.5507 26.9645L44.8871 26.7482ZM45.2183 27.7022C45.1852 27.3691 45.0792 27.0417 44.8862 26.7468L44.5515 26.9659C44.7063 27.2023 44.7929 27.467 44.8203 27.7419L45.2183 27.7022ZM45.2258 28.0781C45.233 27.9529 45.2308 27.8272 45.2183 27.7022L44.8203 27.7419C44.8306 27.8452 44.8325 27.95 44.8265 28.0551L45.2258 28.0781ZM45.1931 28.3641C45.2093 28.2694 45.2203 28.1739 45.2258 28.0781L44.8265 28.0551C44.8219 28.1356 44.8126 28.2163 44.7988 28.2967L45.1931 28.3641ZM45.191 28.376L45.193 28.3646L44.7989 28.2961L44.7969 28.3075L45.191 28.376ZM44.567 29.6978C44.8848 29.3259 45.1057 28.8604 45.1909 28.3764L44.797 28.3071C44.7243 28.7201 44.5346 29.12 44.2629 29.438L44.567 29.6978ZM44.2559 30.0158C44.3663 29.9186 44.4715 29.8128 44.5688 29.6957L44.2611 29.4401C44.1788 29.5392 44.0886 29.6302 43.9917 29.7154L44.2559 30.0158ZM43.3766 30.6191C43.6766 30.4442 43.9838 30.255 44.2559 30.0158L43.9918 29.7154C43.7508 29.9272 43.4724 30.1002 43.1751 30.2735L43.3766 30.6191ZM43.3464 30.6366L43.3764 30.6191L43.1753 30.2734L43.1453 30.2908L43.3464 30.6366ZM43.2085 30.7163C43.2542 30.6899 43.3003 30.6634 43.3463 30.6367L43.1454 30.2908C43.1001 30.3171 43.0546 30.3433 43.0087 30.3698L43.2085 30.7163ZM43.2076 30.7168L43.2087 30.7162L43.0085 30.3699L43.0074 30.3705L43.2076 30.7168ZM43.1153 30.7701L43.2075 30.7169L43.0076 30.3704L42.9154 30.4236L43.1153 30.7701ZM42.8985 30.8973C42.97 30.8545 43.0423 30.8123 43.1155 30.77L42.9152 30.4237C42.8413 30.4665 42.767 30.5098 42.693 30.5541L42.8985 30.8973ZM42.5342 31.1304C42.6508 31.0492 42.7727 30.9726 42.8985 30.8973L42.693 30.5541C42.5627 30.6321 42.4325 30.7138 42.3058 30.802L42.5342 31.1304ZM42.5269 31.1354L42.5343 31.1302L42.3056 30.8021L42.2981 30.8073L42.5269 31.1354ZM42.3885 31.2364C42.4337 31.2019 42.4799 31.1683 42.527 31.1353L42.298 30.8074C42.2466 30.8433 42.1957 30.8803 42.1456 30.9186L42.3885 31.2364ZM45.1698 30.8775H42.2671V31.2775H45.1698V30.8775ZM28.2365 28.7031L26.8313 27.9517L26.6426 28.3044L28.0478 29.0558L28.2365 28.7031ZM28.3042 28.9985C28.3078 28.9924 28.3114 28.9863 28.3149 28.9802L27.9694 28.7787C27.9661 28.7843 27.9628 28.79 27.9595 28.7956L28.3042 28.9985ZM28.3163 28.7689L28.2261 28.7207L28.0375 29.0734L28.1276 29.1216L28.3163 28.7689ZM28.3452 29.129C28.362 29.1015 28.3785 29.0738 28.3947 29.046L28.0492 28.8445C28.0343 28.8701 28.0191 28.8954 28.0038 28.9206L28.3452 29.129ZM27.9933 29.6311C28.1202 29.4724 28.2379 29.3049 28.3452 29.129L28.0038 28.9206C27.9053 29.082 27.7974 29.2356 27.6809 29.3812L27.9933 29.6311ZM27.2824 30.351C27.5419 30.1377 27.7806 29.8969 27.9933 29.6311L27.6809 29.3812C27.4858 29.625 27.2668 29.8461 27.0284 30.042L27.2824 30.351ZM26.9432 30.6061C27.0597 30.5261 27.1729 30.441 27.2824 30.351L27.0284 30.042C26.9279 30.1246 26.8239 30.2028 26.7168 30.2763L26.9432 30.6061ZM26.1912 31.0309C26.4536 30.9115 26.7053 30.7694 26.9432 30.6061L26.7168 30.2763C26.4982 30.4264 26.2668 30.5571 26.0255 30.6669L26.1912 31.0309ZM25.8734 31.1625C25.9809 31.1223 26.0869 31.0784 26.1912 31.0309L26.0255 30.6669C25.9296 30.7105 25.8321 30.7509 25.7333 30.7878L25.8734 31.1625ZM25.4218 31.3072C25.5748 31.2661 25.7255 31.2178 25.8734 31.1625L25.7333 30.7878C25.5973 30.8387 25.4587 30.8831 25.3181 30.9209L25.4218 31.3072ZM23.5178 31.4367C24.1664 31.5195 24.8122 31.4709 25.4218 31.3072L25.3181 30.9209C24.7577 31.0714 24.1643 31.116 23.5685 31.04L23.5178 31.4367ZM23.047 31.3709C23.2064 31.4009 23.3659 31.4231 23.5251 31.4375L23.5612 31.0392C23.4147 31.0259 23.2679 31.0055 23.1212 30.9778L23.047 31.3709ZM23.0427 31.37L23.047 31.3709L23.1213 30.9778L23.117 30.977L23.0427 31.37ZM23.0045 31.3627L23.0418 31.3699L23.1179 30.9772L23.0806 30.97L23.0045 31.3627ZM19.0284 27.1982C19.3169 29.2676 20.9096 30.9477 23.0037 31.3625L23.0814 30.9701C21.1517 30.5878 19.6892 29.0409 19.4246 27.1429L19.0284 27.1982ZM19.0281 27.196L19.0284 27.1981L19.4246 27.143L19.4243 27.141L19.0281 27.196ZM19.0236 27.1625L19.028 27.1953L19.4244 27.1417L19.4199 27.1089L19.0236 27.1625ZM21.7603 22.1033C19.8379 23.0444 18.7457 25.0795 19.0235 27.1621L19.42 27.1092C19.1652 25.1994 20.1663 23.3291 21.9362 22.4625L21.7603 22.1033ZM21.8383 22.0659C21.8122 22.0781 21.7862 22.0906 21.7603 22.1033L21.9362 22.4625C21.96 22.4509 21.9839 22.4394 22.0079 22.4282L21.8383 22.0659ZM21.8411 22.0646L21.8383 22.0659L22.0078 22.4282L22.0106 22.4269L21.8411 22.0646ZM24.0655 21.5966C23.3112 21.582 22.5487 21.734 21.8412 22.0646L22.0105 22.427C22.6605 22.1232 23.3623 21.983 24.0577 21.9965L24.0655 21.5966ZM24.7983 21.6636C24.5563 21.6238 24.3113 21.6013 24.0655 21.5966L24.0577 21.9965C24.2843 22.0009 24.5103 22.0216 24.7334 22.0583L24.7983 21.6636ZM24.8303 21.6689C24.8196 21.6671 24.8089 21.6653 24.7982 21.6635L24.7335 22.0583C24.7434 22.0599 24.7532 22.0615 24.7631 22.0632L24.8303 21.6689ZM24.8569 21.6735C24.8481 21.672 24.8392 21.6704 24.8303 21.6689L24.7631 22.0632C24.7713 22.0646 24.7795 22.066 24.7877 22.0675L24.8569 21.6735ZM25.7418 21.9126C25.4545 21.8064 25.1582 21.7265 24.8569 21.6735L24.7877 22.0675C25.0654 22.1163 25.3385 22.19 25.6032 22.2878L25.7418 21.9126ZM27.181 22.7347C26.7455 22.3787 26.258 22.1033 25.7418 21.9126L25.6032 22.2878C26.0788 22.4635 26.5274 22.717 26.9278 23.0444L27.181 22.7347ZM27.445 22.9666C27.3594 22.8859 27.2713 22.8086 27.181 22.7347L26.9278 23.0444C27.0109 23.1123 27.0919 23.1834 27.1706 23.2577L27.445 22.9666ZM27.5249 23.0436C27.4985 23.0176 27.4719 22.9919 27.445 22.9666L27.1706 23.2577C27.1954 23.281 27.2199 23.3046 27.2441 23.3285L27.5249 23.0436ZM27.4727 23.3771L27.5206 23.3326L27.2484 23.0395L27.2006 23.084L27.4727 23.3771ZM27.5415 23.1475C27.5181 23.1255 27.4946 23.1038 27.4709 23.0823L27.2023 23.3787C27.2241 23.3984 27.2457 23.4184 27.2671 23.4386L27.5415 23.1475ZM27.6198 23.2231C27.594 23.1975 27.5678 23.1724 27.5415 23.1475L27.2671 23.4386C27.2913 23.4614 27.3153 23.4845 27.339 23.5079L27.6198 23.2231ZM26.4847 24.562L27.6155 23.5121L27.3434 23.2189L26.2125 24.2688L26.4847 24.562ZM25.1511 23.8849C25.5376 24.0261 25.8988 24.2513 26.2079 24.5575L26.4894 24.2733C26.139 23.9262 25.7285 23.67 25.2884 23.5092L25.1511 23.8849ZM24.6472 23.7507C24.8182 23.7801 24.9873 23.825 25.1511 23.8849L25.2884 23.5092C25.1019 23.441 24.9096 23.39 24.715 23.3565L24.6472 23.7507ZM24.1351 23.7088C24.307 23.7076 24.4784 23.7217 24.6472 23.7507L24.715 23.3565C24.5229 23.3235 24.3279 23.3075 24.1324 23.3088L24.1351 23.7088ZM22.859 24.0107C23.2674 23.8108 23.7032 23.7117 24.1351 23.7088L24.1324 23.3088C23.6409 23.3121 23.1459 23.4249 22.6832 23.6515L22.859 24.0107ZM22.7907 24.0451C22.8132 24.0334 22.8358 24.022 22.8587 24.0109L22.6835 23.6513C22.6575 23.6639 22.6317 23.6769 22.6062 23.6902L22.7907 24.0451ZM21.2395 26.993C21.0925 25.7754 21.7193 24.602 22.7907 24.0451L22.6062 23.6902C21.3873 24.3238 20.6754 25.6575 20.8424 27.0409L21.2395 26.993ZM21.2398 26.9955L21.2395 26.9928L20.8424 27.041L20.8427 27.0437L21.2398 26.9955ZM21.2437 27.0264L21.2397 26.9945L20.8428 27.0447L20.8469 27.0767L21.2437 27.0264ZM23.2567 29.4231C22.1943 29.0843 21.3951 28.1631 21.2435 27.0251L20.847 27.0779C21.0195 28.3729 21.9288 29.4195 23.1351 29.8042L23.2567 29.4231ZM23.3699 29.4488C23.328 29.44 23.2865 29.4304 23.2453 29.4199L23.1465 29.8075C23.1932 29.8194 23.2402 29.8303 23.2876 29.8403L23.3699 29.4488ZM23.4083 29.4566L23.3686 29.4485L23.2889 29.8405L23.3286 29.8486L23.4083 29.4566ZM24.7213 29.4242C24.3011 29.5308 23.8538 29.5457 23.4077 29.4565L23.3293 29.8487C23.8346 29.9497 24.3423 29.933 24.8197 29.812L24.7213 29.4242ZM25.0102 29.335C24.9156 29.3696 24.8192 29.3994 24.7213 29.4242L24.8197 29.812C24.9308 29.7838 25.0403 29.7499 25.1477 29.7106L25.0102 29.335ZM26.3041 28.4056C25.9584 28.8352 25.5095 29.1523 25.0102 29.335L25.1477 29.7106C25.7147 29.5031 26.224 29.1431 26.6157 28.6564L26.3041 28.4056ZM26.5641 28.0274C26.4859 28.1616 26.3989 28.2879 26.3041 28.4056L26.6157 28.6564C26.723 28.5231 26.8214 28.3803 26.9098 28.2287L26.5641 28.0274ZM27.0433 57.4149H37.2606V57.0149H27.0433V57.4149ZM37.4538 57.163L36.322 52.9535L35.9357 53.0573L37.0675 57.2669L37.4538 57.163ZM36.1289 52.8054H28.1713V53.2054H36.1289V52.8054ZM27.9781 52.9536L26.8501 57.1632L27.2365 57.2667L28.3645 53.0572L27.9781 52.9536Z" fill="black" mask="url(#path-1-outside-1_1931:1654)"/>
</svg>
