<svg width="65" height="65" viewBox="0 0 65 65" fill="none" xmlns="http://www.w3.org/2000/svg">
<path d="M24.4437 16.758V22.2066C24.4437 22.4475 24.5369 22.6784 24.7027 22.8487C24.8685 23.019 25.0934 23.1147 25.3279 23.1147H27.9806V25.839C27.9806 26.0798 28.0737 26.3108 28.2395 26.4811C28.4053 26.6514 28.6303 26.7471 28.8648 26.7471H34.17C34.4045 26.7471 34.6294 26.6514 34.7952 26.4811C34.961 26.3108 35.0542 26.0798 35.0542 25.839V23.1147H37.7068C37.9413 23.1147 38.1662 23.019 38.332 22.8487C38.4979 22.6784 38.591 22.4475 38.591 22.2066V16.758C38.591 16.5172 38.4979 16.2862 38.332 16.1159C38.1662 15.9456 37.9413 15.8499 37.7068 15.8499H35.0542V13.1256C35.0542 12.8848 34.961 12.6538 34.7952 12.4835C34.6294 12.3132 34.4045 12.2175 34.17 12.2175H28.8648C28.6303 12.2175 28.4053 12.3132 28.2395 12.4835C28.0737 12.6538 27.9806 12.8848 27.9806 13.1256V15.8499H25.3279C25.0934 15.8499 24.8685 15.9456 24.7027 16.1159C24.5369 16.2862 24.4437 16.5172 24.4437 16.758ZM26.2121 17.6661H28.8648C29.0993 17.6661 29.3242 17.5705 29.49 17.4001C29.6558 17.2298 29.749 16.9989 29.749 16.758V14.0337H33.2858V16.758C33.2858 16.9989 33.3789 17.2298 33.5448 17.4001C33.7106 17.5705 33.9355 17.6661 34.17 17.6661H36.8226V21.2985H34.17C33.9355 21.2985 33.7106 21.3942 33.5448 21.5645C33.3789 21.7348 33.2858 21.9658 33.2858 22.2066V24.9309H29.749V22.2066C29.749 21.9658 29.6558 21.7348 29.49 21.5645C29.3242 21.3942 29.0993 21.2985 28.8648 21.2985H26.2121V17.6661Z" fill="#2A2828"/>
<path d="M20.0227 34.92H29.749C29.9835 34.92 30.2084 34.8243 30.3742 34.654C30.54 34.4837 30.6332 34.2527 30.6332 34.0119V30.3795C30.6332 30.1386 30.54 29.9077 30.3742 29.7374C30.2084 29.5671 29.9835 29.4714 29.749 29.4714H20.0227C19.7882 29.4714 19.5633 29.5671 19.3975 29.7374C19.2317 29.9077 19.1385 30.1386 19.1385 30.3795V34.0119C19.1385 34.2527 19.2317 34.4837 19.3975 34.654C19.5633 34.8243 19.7882 34.92 20.0227 34.92ZM20.9069 31.2876H28.8648V33.1038H20.9069V31.2876Z" fill="#2A2828"/>
<path d="M43.012 29.4714H33.2858C33.0513 29.4714 32.8264 29.5671 32.6606 29.7374C32.4947 29.9077 32.4016 30.1386 32.4016 30.3795V34.0119C32.4016 34.2527 32.4947 34.4837 32.6606 34.654C32.8264 34.8243 33.0513 34.92 33.2858 34.92H43.012C43.2465 34.92 43.4715 34.8243 43.6373 34.654C43.8031 34.4837 43.8962 34.2527 43.8962 34.0119V30.3795C43.8962 30.1386 43.8031 29.9077 43.6373 29.7374C43.4715 29.5671 43.2465 29.4714 43.012 29.4714ZM42.1278 33.1038H34.17V31.2876H42.1278V33.1038Z" fill="#2A2828"/>
<path d="M29.749 42.1848C29.9835 42.1848 30.2084 42.0891 30.3742 41.9188C30.54 41.7485 30.6332 41.5175 30.6332 41.2767V37.6443C30.6332 37.4034 30.54 37.1725 30.3742 37.0022C30.2084 36.8319 29.9835 36.7362 29.749 36.7362H20.0227C19.7882 36.7362 19.5633 36.8319 19.3975 37.0022C19.2317 37.1725 19.1385 37.4034 19.1385 37.6443V41.2767C19.1385 41.5175 19.2317 41.7485 19.3975 41.9188C19.5633 42.0891 19.7882 42.1848 20.0227 42.1848H29.749ZM20.9069 38.5524H28.8648V40.3686H20.9069V38.5524Z" fill="#2A2828"/>
<path d="M43.012 36.7362H33.2858C33.0513 36.7362 32.8264 36.8319 32.6606 37.0022C32.4947 37.1725 32.4016 37.4034 32.4016 37.6443V41.2767C32.4016 41.5175 32.4947 41.7485 32.6606 41.9188C32.8264 42.0891 33.0513 42.1848 33.2858 42.1848H43.012C43.2465 42.1848 43.4715 42.0891 43.6373 41.9188C43.8031 41.7485 43.8962 41.5175 43.8962 41.2767V37.6443C43.8962 37.4034 43.8031 37.1725 43.6373 37.0022C43.4715 36.8319 43.2465 36.7362 43.012 36.7362ZM42.1278 40.3686H34.17V38.5524H42.1278V40.3686Z" fill="#2A2828"/>
<path d="M20.0227 17.6661C20.2572 17.6661 20.4821 17.5705 20.6479 17.4002C20.8138 17.2298 20.9069 16.9989 20.9069 16.758V14.0337H25.3279C25.5624 14.0337 25.7873 13.9381 25.9532 13.7678C26.119 13.5975 26.2121 13.3665 26.2121 13.1256C26.2121 12.8848 26.119 12.6538 25.9532 12.4835C25.7873 12.3132 25.5624 12.2175 25.3279 12.2175H20.0227C19.7882 12.2175 19.5633 12.3132 19.3975 12.4835C19.2317 12.6538 19.1385 12.8848 19.1385 13.1256V16.758C19.1385 16.9989 19.2317 17.2298 19.3975 17.4002C19.5633 17.5705 19.7882 17.6661 20.0227 17.6661Z" fill="#2A2828"/>
<path d="M20.0227 26.7471H25.3279C25.5624 26.7471 25.7873 26.6514 25.9532 26.4811C26.119 26.3108 26.2121 26.0798 26.2121 25.839C26.2121 25.5982 26.119 25.3672 25.9532 25.1969C25.7873 25.0266 25.5624 24.9309 25.3279 24.9309H20.9069V22.2066C20.9069 21.9658 20.8138 21.7348 20.6479 21.5645C20.4821 21.3942 20.2572 21.2985 20.0227 21.2985C19.7882 21.2985 19.5633 21.3942 19.3975 21.5645C19.2317 21.7348 19.1385 21.9658 19.1385 22.2066V25.839C19.1385 26.0798 19.2317 26.3108 19.3975 26.4811C19.5633 26.6514 19.7882 26.7471 20.0227 26.7471Z" fill="#2A2828"/>
<path d="M37.7068 14.0337H42.1278V16.758C42.1278 16.9989 42.221 17.2298 42.3868 17.4002C42.5526 17.5705 42.7775 17.6661 43.012 17.6661C43.2465 17.6661 43.4715 17.5705 43.6373 17.4002C43.8031 17.2298 43.8962 16.9989 43.8962 16.758V13.1256C43.8962 12.8848 43.8031 12.6538 43.6373 12.4835C43.4715 12.3132 43.2465 12.2175 43.012 12.2175H37.7068C37.4723 12.2175 37.2474 12.3132 37.0816 12.4835C36.9158 12.6538 36.8226 12.8848 36.8226 13.1256C36.8226 13.3665 36.9158 13.5975 37.0816 13.7678C37.2474 13.9381 37.4723 14.0337 37.7068 14.0337Z" fill="#2A2828"/>
<path d="M43.012 21.2985C42.7775 21.2985 42.5526 21.3942 42.3868 21.5645C42.221 21.7348 42.1278 21.9658 42.1278 22.2066V24.9309H37.7068C37.4723 24.9309 37.2474 25.0266 37.0816 25.1969C36.9158 25.3672 36.8226 25.5982 36.8226 25.839C36.8226 26.0798 36.9158 26.3108 37.0816 26.4811C37.2474 26.6514 37.4723 26.7471 37.7068 26.7471H43.012C43.2465 26.7471 43.4715 26.6514 43.6373 26.4811C43.8031 26.3108 43.8962 26.0798 43.8962 25.839V22.2066C43.8962 21.9658 43.8031 21.7348 43.6373 21.5645C43.4715 21.3942 43.2465 21.2985 43.012 21.2985Z" fill="#2A2828"/>
<path d="M56.0541 28.5633H47.4331V10.3877C47.9192 10.3319 48.3683 10.0941 48.6946 9.71966C49.0208 9.34526 49.2012 8.86054 49.2015 8.35812V6.99598C49.2015 6.45408 48.9919 5.93438 48.6188 5.5512C48.2457 5.16803 47.7397 4.95276 47.212 4.95276H15.8227C15.2951 4.95276 14.7891 5.16803 14.416 5.5512C14.0429 5.93438 13.8333 6.45408 13.8333 6.99598V8.35812C13.8335 8.86054 14.014 9.34526 14.3402 9.71966C14.6664 10.0941 15.1155 10.3319 15.6017 10.3877V28.5633H6.98067C6.45304 28.5633 5.94701 28.7786 5.57391 29.1617C5.20081 29.5449 4.99121 30.0646 4.99121 30.6065V31.9687C4.99144 32.4711 5.17191 32.9558 5.49813 33.3302C5.82435 33.7046 6.27345 33.9424 6.75962 33.9983V58.5305C6.75962 58.7714 6.85278 59.0023 7.0186 59.1726C7.18442 59.3429 7.40932 59.4386 7.64383 59.4386H55.3909C55.6254 59.4386 55.8503 59.3429 56.0161 59.1726C56.182 59.0023 56.2751 58.7714 56.2751 58.5305V33.9983C56.7613 33.9424 57.2104 33.7046 57.5366 33.3302C57.8628 32.9558 58.0433 32.4711 58.0435 31.9687V30.6065C58.0435 30.0646 57.8339 29.5449 57.4608 29.1617C57.0877 28.7786 56.5817 28.5633 56.0541 28.5633ZM47.4331 38.5524H50.9699V40.3686H47.4331V38.5524ZM47.4331 45.8172H50.9699V47.6334H47.4331V45.8172ZM15.6017 6.99598C15.6017 6.93577 15.625 6.87802 15.6664 6.83545C15.7079 6.79287 15.7641 6.76895 15.8227 6.76895H47.212C47.2706 6.76895 47.3269 6.79287 47.3683 6.83545C47.4098 6.87802 47.4331 6.93577 47.4331 6.99598V8.35812C47.4331 8.41834 47.4098 8.47608 47.3683 8.51866C47.3269 8.56123 47.2706 8.58515 47.212 8.58515H15.8227C15.7641 8.58515 15.7079 8.56123 15.6664 8.51866C15.625 8.47608 15.6017 8.41834 15.6017 8.35812V6.99598ZM15.6017 47.6334H12.0649V45.8172H15.6017V47.6334ZM15.6017 40.3686H12.0649V38.5524H15.6017V40.3686ZM6.75962 30.6065C6.75962 30.5463 6.78291 30.4886 6.82437 30.446C6.86582 30.4034 6.92205 30.3795 6.98067 30.3795H15.6017V32.1957H6.98067C6.92205 32.1957 6.86582 32.1718 6.82437 32.1292C6.78291 32.0866 6.75962 32.0289 6.75962 31.9687V30.6065ZM8.52803 34.0119H15.6017V36.7362H11.1806C10.9461 36.7362 10.7212 36.8319 10.5554 37.0022C10.3896 37.1725 10.2964 37.4034 10.2964 37.6443V41.2767C10.2964 41.5175 10.3896 41.7485 10.5554 41.9188C10.7212 42.0891 10.9461 42.1848 11.1806 42.1848H15.6017V44.001H11.1806C10.9461 44.001 10.7212 44.0966 10.5554 44.2669C10.3896 44.4372 10.2964 44.6682 10.2964 44.9091V48.5415C10.2964 48.7823 10.3896 49.0133 10.5554 49.1836C10.7212 49.3539 10.9461 49.4495 11.1806 49.4495H15.6017V57.6224H8.52803V34.0119ZM17.3701 10.4013H45.6647V57.6224H39.4752V44.9091C39.4752 44.6682 39.3821 44.4372 39.2162 44.2669C39.0504 44.0966 38.8255 44.001 38.591 44.001H24.4437C24.2092 44.001 23.9843 44.0966 23.8185 44.2669C23.6527 44.4372 23.5595 44.6682 23.5595 44.9091V57.6224H17.3701V10.4013ZM25.3279 57.6224V45.8172H30.6332V50.3576H29.749C29.5145 50.3576 29.2896 50.4533 29.1237 50.6236C28.9579 50.7939 28.8648 51.0249 28.8648 51.2657C28.8648 51.5066 28.9579 51.7376 29.1237 51.9079C29.2896 52.0782 29.5145 52.1738 29.749 52.1738H30.6332V57.6224H25.3279ZM32.4016 57.6224V52.1738H33.2858C33.5203 52.1738 33.7452 52.0782 33.911 51.9079C34.0768 51.7376 34.17 51.5066 34.17 51.2657C34.17 51.0249 34.0768 50.7939 33.911 50.6236C33.7452 50.4533 33.5203 50.3576 33.2858 50.3576H32.4016V45.8172H37.7068V57.6224H32.4016ZM54.5067 57.6224H47.4331V49.4495H51.8541C52.0886 49.4495 52.3135 49.3539 52.4793 49.1836C52.6451 49.0133 52.7383 48.7823 52.7383 48.5415V44.9091C52.7383 44.6682 52.6451 44.4372 52.4793 44.2669C52.3135 44.0966 52.0886 44.001 51.8541 44.001H47.4331V42.1848H51.8541C52.0886 42.1848 52.3135 42.0891 52.4793 41.9188C52.6451 41.7485 52.7383 41.5175 52.7383 41.2767V37.6443C52.7383 37.4034 52.6451 37.1725 52.4793 37.0022C52.3135 36.8319 52.0886 36.7362 51.8541 36.7362H47.4331V34.0119H54.5067V57.6224ZM56.2751 31.9687C56.2751 32.0289 56.2518 32.0866 56.2104 32.1292C56.1689 32.1718 56.1127 32.1957 56.0541 32.1957H47.4331V30.3795H56.0541C56.1127 30.3795 56.1689 30.4034 56.2104 30.446C56.2518 30.4886 56.2751 30.5463 56.2751 30.6065V31.9687Z" fill="#2A2828"/>
</svg>
