<svg width="65" height="65" viewBox="0 0 65 65" fill="none" xmlns="http://www.w3.org/2000/svg">
<g clip-path="url(#clip0_1931:129)">
<path d="M11.4273 16.4559H13.5033V19.3979H11.4273V16.4559ZM16.2714 19.3979H18.3475V16.4559H16.2714V19.3979ZM21.1155 19.3979H23.1916V16.4559H21.1155V19.3979ZM11.4273 25.1054H13.5033V22.1634H11.4273V25.1054ZM16.2714 25.1054H18.3475V22.1634H16.2714V25.1054ZM21.1155 25.1054H23.1916V22.1634H21.1155V25.1054ZM11.4273 30.8129H13.5033V27.8709H11.4273V30.8129ZM16.2714 30.8129H18.3475V27.8709H16.2714V30.8129ZM21.1155 30.8129H23.1916V27.8709H21.1155V30.8129ZM11.4273 36.5204H13.5033V33.5784H11.4273V36.5204ZM16.2714 36.5204H18.3475V33.5784H16.2714V36.5204ZM21.1155 36.5204H23.1916V33.5784H21.1155V36.5204ZM11.4273 42.2867H13.5033V39.3447H11.4273V42.2867ZM16.2714 42.2867H18.3475V39.3447H16.2714V42.2867ZM21.1155 42.2867H23.1916V39.3447H21.1155V42.2867ZM11.4273 47.9942H13.5033V45.0522H11.4273V47.9942ZM16.2714 47.9942H18.3475V45.0522H16.2714V47.9942ZM21.1155 47.9942H23.1916V45.0522H21.1155V47.9942ZM30.9926 30.8129H33.0686V27.8709H30.9926V30.8129ZM35.8367 30.8129H37.9128V27.8709H35.8367V30.8129ZM40.6809 30.8129H42.7569V27.8709H40.6809V30.8129ZM30.9926 36.5204H33.0686V33.5784H30.9926V36.5204ZM35.8367 36.5204H37.9128V33.5784H35.8367V36.5204ZM40.6809 36.5204H42.7569V33.5784H40.6809V36.5204ZM30.9926 42.2867H33.0686V39.3447H30.9926V42.2867ZM35.8367 42.2867H37.9128V39.3447H35.8367V42.2867ZM40.6809 42.2867H42.7569V39.3447H40.6809V42.2867ZM30.9926 47.9942H33.0686V45.0522H30.9926V47.9942ZM35.8367 47.9942H37.9128V45.0522H35.8367V47.9942ZM40.6809 47.9942H42.7569V45.0522H40.6809V47.9942ZM64.0209 51.0539V52.9956H46.6574H27.0921H7.58967H1.4873V51.0539H6.52019V12.3959C6.52019 11.8663 6.96056 11.3956 7.58967 11.3956H27.155C27.7212 11.3956 28.2245 11.8075 28.2245 12.3959V22.6341H46.7203C47.2865 22.6341 47.7898 23.046 47.7898 23.6344V51.0539H54.9617V48.2884C52.8227 47.9942 51.187 46.229 51.187 44.1696V38.7563C51.187 36.4616 53.2002 34.5787 55.6537 34.5787H56.3457C58.7993 34.5787 60.8124 36.4616 60.8124 38.7563V44.1696C60.8124 46.229 59.1767 47.9354 57.0378 48.2884V51.0539H64.0209ZM54.8988 46.2879V41.6395H56.9748V46.2879C57.9185 45.9937 58.6105 45.1699 58.6105 44.1696V38.7563C58.6105 37.5207 57.541 36.5792 56.2828 36.5792H55.5908C54.2697 36.5792 53.2631 37.5795 53.2631 38.7563V44.1696C53.2002 45.1699 53.9551 46.0525 54.8988 46.2879ZM26.0855 51.0539V13.3962H8.59625V51.0539H26.0855ZM45.6509 51.0539V24.6347H28.1616V51.0539H45.6509Z" fill="#2A2828"/>
</g>
<defs>
<clipPath id="clip0_1931:129">
<rect width="64" height="64" fill="white" transform="translate(0.755859 0.195679)"/>
</clipPath>
</defs>
</svg>
