<svg width="65" height="65" viewBox="0 0 65 65" fill="none" xmlns="http://www.w3.org/2000/svg">
<path fill-rule="evenodd" clip-rule="evenodd" d="M35.1176 24.1338V49.218C35.1176 49.3483 35.1401 49.418 35.1515 49.4455C35.1621 49.4713 35.1729 49.4857 35.188 49.4998C35.2111 49.5215 35.3712 49.6535 35.8109 49.6535H60.0649C60.5046 49.6535 60.6647 49.5215 60.6879 49.4998C60.7029 49.4857 60.7137 49.4713 60.7243 49.4455C60.7357 49.418 60.7582 49.3483 60.7582 49.218V23.6982C60.7582 23.5679 60.7357 23.4982 60.7243 23.4707C60.7137 23.4449 60.7029 23.4305 60.6879 23.4164C60.6647 23.3947 60.5046 23.2627 60.0649 23.2627H23.6838C23.2442 23.2627 23.0841 23.3947 23.0609 23.4164C23.0459 23.4305 23.035 23.4449 23.0244 23.4707C23.0131 23.4982 22.9905 23.5679 22.9905 23.6982C22.9905 23.8286 23.0131 23.8983 23.0244 23.9258C23.035 23.9516 23.0459 23.966 23.0609 23.9801C23.0841 24.0018 23.2442 24.1338 23.6838 24.1338H35.1176ZM60.0649 20.8627C61.884 20.8627 63.0967 21.9969 63.0967 23.6982V49.218C63.0967 50.9193 61.884 52.0535 60.0649 52.0535H35.8109C33.9918 52.0535 32.7791 50.9193 32.7791 49.218V26.5338H23.6838C21.8648 26.5338 20.6521 25.3996 20.6521 23.6982C20.6521 21.9969 21.8648 20.8627 23.6838 20.8627H60.0649Z" fill="#2A2828"/>
<path fill-rule="evenodd" clip-rule="evenodd" d="M18.3136 38.3239H26.7155C26.7411 38.3239 26.8096 38.317 26.9136 38.2716C27.0176 38.2262 27.1277 38.1546 27.2248 38.0639C27.3228 37.9722 27.3796 37.8873 27.4053 37.8356L27.4073 37.8316C27.4021 37.7372 27.3845 37.684 27.375 37.6608C27.3643 37.635 27.3535 37.6206 27.3385 37.6065C27.3153 37.5849 27.1552 37.4529 26.7155 37.4529H9.21787L6.21778 15.3175C6.16948 15.0937 6.05115 14.9283 5.92075 14.8292C5.78328 14.7248 5.67203 14.7181 5.60935 14.7298L5.57535 14.7362L5.54119 14.7415C5.11467 14.808 4.86973 14.9915 4.77536 15.1001L4.77074 15.1055L7.79344 37.7219C7.90228 38.101 8.22232 38.3239 8.52499 38.3239H16.927V48.7949H10.8634V49.6659H24.3771V48.7949H18.3136V38.3239ZM5.49323 38.1719L2.46147 15.4878C2.15829 14.07 3.371 12.6523 5.19005 12.3687C6.70593 12.0852 8.22181 13.2194 8.52499 14.9207L11.2536 35.0529H26.7155C28.5346 35.0529 29.7473 36.1871 29.7473 37.8884C29.7473 39.3061 28.2314 40.7239 26.7155 40.7239H20.652V46.3949H25.1997C26.1092 46.3949 26.7155 46.962 26.7155 47.8127V50.6482C26.7155 51.4988 26.1092 52.0659 25.1997 52.0659H10.0409C9.13134 52.0659 8.52499 51.4988 8.52499 50.6482V47.8127C8.52499 46.962 9.13134 46.3949 10.0409 46.3949H14.5885V40.7239H8.52499C7.00911 40.7239 5.7964 39.5897 5.49323 38.1719Z" fill="#2A2828"/>
</svg>
