<svg width="65" height="65" viewBox="0 0 65 65" fill="none" xmlns="http://www.w3.org/2000/svg">
<path d="M25.3451 50.8503H22.6924V53.5527H25.3451V50.8503Z" fill="#2A2828"/>
<path fill-rule="evenodd" clip-rule="evenodd" d="M23.2562 37.04L24.4011 34.9134C25.2431 33.0131 25.683 30.9534 25.6922 28.8685C25.3569 25.5835 24.4374 22.3882 22.9786 19.4388L21.6705 16.5652C18.9047 10.7766 15.6848 5.48041 15.4429 5.08254L15.4428 5.0825L15.4419 5.08089C15.3468 4.94465 15.2212 4.83357 15.0754 4.75691C14.9296 4.68026 14.768 4.64026 14.6039 4.64026C14.4398 4.64026 14.2782 4.68026 14.1324 4.75691C13.9866 4.83357 13.861 4.94465 13.7659 5.08089L13.7649 5.08265C13.3329 5.79293 3.52539 21.9187 3.52539 28.8685C3.52539 35.7521 7.9758 41.3628 13.6149 41.9683V63.185C13.6275 63.4446 13.7376 63.6892 13.9224 63.8683C14.1072 64.0475 14.3525 64.1474 14.6076 64.1474C14.8626 64.1474 15.1079 64.0475 15.2927 63.8683C15.4775 63.6892 15.5876 63.4446 15.6002 63.185V41.9683C17.153 41.769 18.6438 41.2242 19.9668 40.3725C21.2899 39.5209 22.4129 38.3831 23.2562 37.04ZM14.6039 16.662C14.3416 16.662 14.0901 16.7682 13.9046 16.9571C13.7191 17.146 13.6149 17.4023 13.6149 17.6695V30.469L11.7734 28.732C11.5796 28.5517 11.3234 28.4572 11.0612 28.4693C10.7989 28.4814 10.5522 28.5991 10.3752 28.7965C10.1981 28.9939 10.1054 29.2549 10.1173 29.5221C10.1291 29.7892 10.2447 30.0406 10.4385 30.2209L13.6052 33.1987V39.9558C11.177 39.3982 9.02482 37.9738 7.53793 35.9403C6.05104 33.9067 5.32761 31.3982 5.49848 28.8685C5.49848 23.5978 12.207 11.6519 14.6039 7.55245C16.9984 11.6519 23.7093 23.5978 23.7093 28.8685C23.8791 31.3995 23.1536 33.9088 21.6644 35.9421C20.1751 37.9754 18.0205 39.3983 15.5904 39.9533V26.655L18.2699 24.0817C18.3645 23.9916 18.4407 23.8834 18.4941 23.7633C18.5476 23.6432 18.5774 23.5135 18.5817 23.3817C18.586 23.2499 18.5647 23.1186 18.5192 22.9951C18.4736 22.8717 18.4047 22.7586 18.3162 22.6623C18.2278 22.566 18.1216 22.4884 18.0037 22.4339C17.8858 22.3794 17.7585 22.3491 17.6291 22.3447C17.4998 22.3403 17.3708 22.362 17.2496 22.4084C17.1284 22.4548 17.0174 22.525 16.9229 22.6151L15.5807 23.898V17.667C15.5801 17.4024 15.4773 17.1486 15.2945 16.9606C15.1117 16.7725 14.8637 16.6653 14.6039 16.662ZM59.2737 19.4297L57.9753 16.566C55.4309 11.2405 52.502 6.33183 51.8688 5.27063L51.8687 5.2706C51.8127 5.1767 51.7747 5.11294 51.7565 5.08167C51.6614 4.94544 51.5358 4.83435 51.39 4.75769C51.2442 4.68104 51.0826 4.64104 50.9185 4.64104C50.7545 4.64104 50.5928 4.68104 50.447 4.75769C50.3012 4.83435 50.1756 4.94544 50.0806 5.08167C49.664 5.76656 39.8497 21.9136 39.8497 28.8693C39.8497 35.7529 44.3001 41.3636 49.9393 41.9691V63.1858C49.9393 63.4537 50.0437 63.7106 50.2296 63.9C50.4156 64.0894 50.6677 64.1958 50.9307 64.1958C51.1936 64.1958 51.4458 64.0894 51.6317 63.9C51.8176 63.7106 51.9221 63.4537 51.9221 63.1858V41.9691C53.4702 41.766 54.9557 41.2194 56.2739 40.3679C57.5921 39.5164 58.7109 38.3807 59.5514 37.0408L60.7084 34.9092C61.5456 33.0095 61.9813 30.9516 61.9873 28.8693C61.6532 25.5809 60.7337 22.3821 59.2737 19.4297ZM51.8953 39.9541V26.6558L54.5748 24.0825C54.7657 23.9002 54.8777 23.6481 54.8862 23.3816C54.8946 23.1152 54.7988 22.8563 54.6199 22.6618C54.4409 22.4673 54.1935 22.3532 53.9319 22.3446C53.6704 22.336 53.4162 22.4336 53.2253 22.6159L51.8856 23.8988V17.6678C51.873 17.4096 51.7634 17.1662 51.5795 16.9879C51.3957 16.8097 51.1516 16.7103 50.8978 16.7103C50.644 16.7103 50.3999 16.8097 50.2161 16.9879C50.0322 17.1662 49.9226 17.4096 49.91 17.6678V30.4673L48.0685 28.7303C47.9725 28.641 47.8602 28.5718 47.738 28.5268C47.6158 28.4817 47.4861 28.4616 47.3563 28.4676C47.2264 28.4735 47.099 28.5055 46.9813 28.5617C46.8636 28.6178 46.7579 28.697 46.6703 28.7948C46.5826 28.8926 46.5147 29.007 46.4705 29.1315C46.4262 29.2559 46.4065 29.3881 46.4124 29.5204C46.4183 29.6526 46.4496 29.7824 46.5048 29.9023C46.5599 30.0222 46.6376 30.1299 46.7336 30.2192L49.9003 33.197V39.9541C47.4703 39.3991 45.3156 37.9762 43.8264 35.9429C42.3371 33.9096 41.6117 31.4003 41.7814 28.8693C41.7814 23.5986 48.4923 11.6527 50.8868 7.55324C53.2838 11.6527 59.9923 23.5986 59.9923 28.8693C60.163 31.3972 59.4406 33.904 57.9557 35.9368C56.4708 37.9697 54.3213 39.3945 51.8953 39.9541ZM31.2946 10.6147C30.1535 9.87649 28.7845 9.5948 27.4516 9.82389C27.183 9.86331 26.9099 9.79394 26.6908 9.63066C26.4718 9.46737 26.3243 9.22317 26.2799 8.95041C26.2584 8.82802 26.2611 8.70247 26.288 8.58118C26.3149 8.45988 26.3653 8.34531 26.4364 8.24422C26.5075 8.14313 26.5977 8.05758 26.7018 7.99262C26.8059 7.92765 26.9217 7.8846 27.0424 7.86599C28.5901 7.58571 30.1851 7.8114 31.5993 8.51074C33.0134 9.21009 34.1741 10.3472 34.9152 11.7595C36.1329 10.7324 37.663 10.1681 39.2439 10.1631C40.8248 10.1582 42.3583 10.7128 43.5822 11.7322C43.7378 11.8798 43.8377 12.0784 43.8644 12.2933C43.8911 12.5082 43.843 12.7259 43.7284 12.9084C43.5897 13.0889 43.3873 13.2071 43.1643 13.2377C42.9413 13.2683 42.7154 13.2089 42.5348 13.0722C41.4334 12.2617 40.0635 11.9247 38.7205 12.1341C37.3775 12.3435 36.1691 13.0824 35.3561 14.1913C35.2694 14.3089 35.1568 14.4041 35.0273 14.4692C34.8978 14.5343 34.7551 14.5675 34.6107 14.566C34.5489 14.5606 34.4877 14.5489 34.4281 14.5313C34.2442 14.4987 34.0726 14.4153 33.9322 14.2901C33.7917 14.165 33.6877 14.0029 33.6315 13.8216C33.2682 12.4952 32.4357 11.3528 31.2946 10.6147ZM44.5304 53.5523H45.858C46.0848 53.5523 46.3022 53.6441 46.4626 53.8074C46.6229 53.9707 46.713 54.1923 46.713 54.4233V58.8726C46.7133 58.9872 46.6914 59.1007 46.6486 59.2067C46.6058 59.3127 46.5429 59.409 46.4634 59.4901C46.384 59.5713 46.2896 59.6356 46.1858 59.6796C46.0819 59.7235 45.9705 59.7461 45.858 59.7461H44.5304V63.3219C44.5307 63.4367 44.5088 63.5505 44.4658 63.6566C44.4228 63.7627 44.3597 63.8591 44.28 63.9403C44.2003 64.0215 44.1057 64.0858 44.0015 64.1296C43.8973 64.1734 43.7857 64.1957 43.673 64.1954H39.3054C39.1929 64.1954 39.0815 64.1728 38.9776 64.1289C38.8738 64.0849 38.7794 64.0206 38.7 63.9394C38.6205 63.8583 38.5576 63.762 38.5148 63.656C38.472 63.55 38.4501 63.4365 38.4504 63.3219V59.7461H27.0601V63.3219C27.0604 63.4365 27.0385 63.55 26.9957 63.656C26.9529 63.762 26.89 63.8583 26.8105 63.9394C26.7311 64.0206 26.6367 64.0849 26.5328 64.1289C26.429 64.1728 26.3176 64.1954 26.2051 64.1954H21.8375C21.7248 64.1957 21.6132 64.1734 21.509 64.1296C21.4048 64.0858 21.3102 64.0215 21.2305 63.9403C21.1508 63.8591 21.0877 63.7627 21.0447 63.6566C21.0017 63.5505 20.9797 63.4367 20.9801 63.3219V59.7461H19.6525C19.54 59.7461 19.4286 59.7235 19.3247 59.6796C19.2208 59.6356 19.1265 59.5713 19.0471 59.4901C18.9676 59.409 18.9047 59.3127 18.8619 59.2067C18.8191 59.1007 18.7972 58.9872 18.7975 58.8726V54.4233C18.7975 54.1923 18.8876 53.9707 19.0479 53.8074C19.2083 53.6441 19.4257 53.5523 19.6525 53.5523H20.9801V50.8499H19.6525C19.4255 50.8493 19.208 50.757 19.0478 50.5932C18.8875 50.4295 18.7975 50.2077 18.7975 49.9765V43.3012C18.7975 43.07 18.8875 42.8482 19.0478 42.6845C19.208 42.5207 19.4255 42.4284 19.6525 42.4278H45.858C46.085 42.4284 46.3024 42.5207 46.4627 42.6845C46.623 42.8482 46.713 43.07 46.713 43.3012V49.9765C46.713 50.2077 46.623 50.4295 46.4627 50.5932C46.3024 50.757 46.085 50.8493 45.858 50.8499H44.5304V53.5523ZM20.5099 44.1747V49.103H45.0006V44.1747H20.5099ZM42.818 53.5424V50.84L40.1628 50.8499V53.5424H42.818ZM38.4504 53.5424V50.84L27.0601 50.8499V53.5424H38.4504ZM25.3477 53.5424V50.84L22.6925 50.8499V53.5424H25.3477ZM22.6925 62.441H25.3477V59.7362H22.6925V62.441ZM40.1628 62.441H42.818V59.7362H40.1628V62.441ZM20.5099 57.9917H45.0103L45.0006 55.2869H20.5099V57.9917ZM25.5593 17.864C26.2526 17.9427 26.8946 18.2742 27.3669 18.7973C27.8392 19.3204 28.1099 19.9998 28.1291 20.7102C28.1418 20.9495 28.2391 21.1761 28.403 21.348C28.5669 21.52 28.7863 21.6257 29.0207 21.6458H29.1181C29.3336 21.6474 29.5433 21.5747 29.7132 21.4396C29.883 21.3044 30.0029 21.1147 30.0535 20.9013C30.1426 20.5807 30.2937 20.2814 30.4978 20.021C30.7019 19.7606 30.955 19.5444 31.2422 19.3849C31.5294 19.2254 31.845 19.126 32.1704 19.0923C32.4958 19.0587 32.8246 19.0916 33.1374 19.1891C33.3343 19.2507 33.5468 19.2336 33.7318 19.1415C33.9168 19.0493 34.0605 18.8889 34.1337 18.6928C34.1893 18.5049 34.1792 18.3032 34.105 18.1222C34.0308 17.9411 33.8971 17.7919 33.7269 17.7002C33.0317 17.3672 32.2552 17.2522 31.4957 17.3697C30.7363 17.4872 30.0283 17.832 29.4616 18.3603C29.0891 17.6885 28.568 17.1144 27.9396 16.6836C27.3113 16.2529 26.593 15.9773 25.8418 15.8788C25.6638 15.8555 25.4829 15.8829 25.3191 15.9578C25.1553 16.0326 25.0151 16.1521 24.9137 16.3031C24.8098 16.4432 24.7442 16.6089 24.7237 16.7833C24.7031 16.9577 24.7284 17.1345 24.7968 17.2957C24.863 17.4508 24.9685 17.5852 25.1024 17.6851C25.2364 17.785 25.3941 17.8467 25.5593 17.864Z" fill="#2A2828"/>
</svg>
